<svg width="24" height="24" viewBox="0 0 24 24" fill="none" xmlns="http://www.w3.org/2000/svg">
<path d="M2.14512 9.53996C2.07012 9.53996 1.99512 9.50996 1.93512 9.44996C1.83012 9.33746 1.83762 9.15746 1.95012 9.05246L11.7001 0.0749561C11.8051 -0.0225439 11.9701 -0.0225439 12.0826 0.0749561L16.1101 3.74996V2.13746C16.1101 1.97996 16.2376 1.85246 16.3951 1.85246H18.6451C18.8026 1.85246 18.9301 1.97996 18.9301 2.13746V6.24746L22.1626 9.02246C22.2826 9.11996 22.2901 9.29996 22.1926 9.41996C22.0876 9.53996 21.9151 9.54746 21.7951 9.44996L18.4651 6.58496C18.4051 6.53246 18.3676 6.45746 18.3676 6.37496V2.41496H16.6801V4.37996C16.6801 4.49246 16.6126 4.58996 16.5151 4.63496C16.4101 4.67996 16.2976 4.65746 16.2151 4.58246L11.8951 0.659956L2.33262 9.47246C2.28012 9.52496 2.21262 9.54746 2.14512 9.54746V9.53996Z" fill="#78350f"/>
<path d="M2.14511 12.345C1.98761 12.345 1.86011 12.2175 1.86011 12.06V10.935C1.86011 10.7775 1.98761 10.65 2.14511 10.65C2.30261 10.65 2.43011 10.7775 2.43011 10.935V12.06C2.43011 12.2175 2.30261 12.345 2.14511 12.345Z" fill="#78350f"/>
<path d="M2.14511 20.7525C1.98761 20.7525 1.86011 20.625 1.86011 20.4675V18.3675C1.86011 18.21 1.98761 18.0825 2.14511 18.0825C2.30261 18.0825 2.43011 18.21 2.43011 18.3675V20.4675C2.43011 20.625 2.30261 20.7525 2.14511 20.7525ZM2.14511 16.545C1.98761 16.545 1.86011 16.4175 1.86011 16.26V14.16C1.86011 14.0025 1.98761 13.875 2.14511 13.875C2.30261 13.875 2.43011 14.0025 2.43011 14.16V16.26C2.43011 16.4175 2.30261 16.545 2.14511 16.545Z" fill="#78350f"/>
<path d="M3.27011 23.97H2.14511C1.98761 23.97 1.86011 23.8425 1.86011 23.685V22.56C1.86011 22.4025 1.98761 22.275 2.14511 22.275C2.30261 22.275 2.43011 22.4025 2.43011 22.56V23.4H3.27011C3.42761 23.4 3.55511 23.5275 3.55511 23.685C3.55511 23.8425 3.42761 23.97 3.27011 23.97Z" fill="#78350f"/>
<path d="M18.3375 23.97H15.825C15.6675 23.97 15.54 23.8425 15.54 23.685C15.54 23.5275 15.6675 23.4 15.825 23.4H18.3375C18.495 23.4 18.6225 23.5275 18.6225 23.685C18.6225 23.8425 18.495 23.97 18.3375 23.97ZM13.3125 23.97H10.8C10.6425 23.97 10.515 23.8425 10.515 23.685C10.515 23.5275 10.6425 23.4 10.8 23.4H13.3125C13.47 23.4 13.5975 23.5275 13.5975 23.685C13.5975 23.8425 13.47 23.97 13.3125 23.97ZM8.28749 23.97H5.77499C5.61749 23.97 5.48999 23.8425 5.48999 23.685C5.48999 23.5275 5.61749 23.4 5.77499 23.4H8.28749C8.44499 23.4 8.57249 23.5275 8.57249 23.685C8.57249 23.8425 8.44499 23.97 8.28749 23.97Z" fill="#78350f"/>
<path d="M21.9752 23.97H20.8502C20.6927 23.97 20.5652 23.8425 20.5652 23.685C20.5652 23.5275 20.6927 23.4 20.8502 23.4H21.6902V22.56C21.6902 22.4025 21.8177 22.275 21.9752 22.275C22.1327 22.275 22.2602 22.4025 22.2602 22.56V23.685C22.2602 23.8425 22.1327 23.97 21.9752 23.97Z" fill="#78350f"/>
<path d="M21.9752 20.7525C21.8177 20.7525 21.6902 20.625 21.6902 20.4675V18.3675C21.6902 18.21 21.8177 18.0825 21.9752 18.0825C22.1327 18.0825 22.2602 18.21 22.2602 18.3675V20.4675C22.2602 20.625 22.1327 20.7525 21.9752 20.7525ZM21.9752 16.545C21.8177 16.545 21.6902 16.4175 21.6902 16.26V14.16C21.6902 14.0025 21.8177 13.875 21.9752 13.875C22.1327 13.875 22.2602 14.0025 22.2602 14.16V16.26C22.2602 16.4175 22.1327 16.545 21.9752 16.545Z" fill="#78350f"/>
<path d="M21.9752 12.345C21.8177 12.345 21.6902 12.2175 21.6902 12.06V10.935C21.6902 10.7775 21.8177 10.65 21.9752 10.65C22.1327 10.65 22.2602 10.7775 22.2602 10.935V12.06C22.2602 12.2175 22.1327 12.345 21.9752 12.345Z" fill="#78350f"/>
<path d="M4.18512 9.83994C4.11012 9.83994 4.03512 9.80994 3.98262 9.74994C3.87762 9.63744 3.87762 9.45744 3.99012 9.35244L11.5201 2.23494C11.6251 2.13744 11.7901 2.12994 11.8951 2.22744L20.1151 9.35244C20.2351 9.45744 20.2426 9.62994 20.1451 9.74994C20.0401 9.86994 19.8676 9.87744 19.7476 9.77994L11.7226 2.81994L4.37262 9.76494C4.32012 9.81744 4.24512 9.83994 4.17762 9.83994H4.18512Z" fill="#78350f"/>
</svg>
