<svg width="24" height="24" viewBox="0 0 24 24" fill="none" xmlns="http://www.w3.org/2000/svg">
<path d="M21.225 8.81246L18.2625 6.24746V2.51246C18.2625 2.35496 18.135 2.22746 17.9775 2.22746H15.9225C15.765 2.22746 15.6375 2.35496 15.6375 2.51246V3.84746L12.0375 0.637456C11.9325 0.539956 11.7675 0.539956 11.6625 0.637456L2.76749 8.81996C2.70749 8.87246 2.67749 8.94746 2.67749 9.02996V23.16C2.67749 23.3175 2.80499 23.445 2.96249 23.445H10.1325C10.29 23.445 10.4175 23.3175 10.4175 23.16C10.4175 23.0025 10.29 22.875 10.1325 22.875H8.54249V21.285C8.54249 21.1275 8.41499 21 8.25749 21C8.09999 21 7.97249 21.1275 7.97249 21.285V22.875H3.23999V9.14996L11.8575 1.22246L15.75 4.67996C15.8325 4.75496 15.9525 4.76996 16.05 4.72496C16.1475 4.67996 16.215 4.58246 16.215 4.46996V2.78996H17.7075V6.37496C17.7075 6.45746 17.745 6.53246 17.805 6.58496L20.7675 9.14996V22.8675H16.035V21.2775C16.035 21.12 15.9075 20.9925 15.75 20.9925C15.5925 20.9925 15.465 21.12 15.465 21.2775V22.8675H13.875C13.7175 22.8675 13.59 22.995 13.59 23.1525C13.59 23.31 13.7175 23.4375 13.875 23.4375H21.045C21.2025 23.4375 21.33 23.31 21.33 23.1525V9.02246C21.33 8.93996 21.2925 8.86496 21.2325 8.81246H21.225Z" fill="#1b6a68"/>
<path d="M8.25009 16.5C8.09259 16.5 7.96509 16.6275 7.96509 16.785V19.035C7.96509 19.1925 8.09259 19.32 8.25009 19.32C8.40759 19.32 8.53509 19.1925 8.53509 19.035V16.785C8.53509 16.6275 8.40759 16.5 8.25009 16.5Z" fill="#1b6a68"/>
<path d="M8.53509 12.9376H10.1251C10.2826 12.9376 10.4101 12.8101 10.4101 12.6526C10.4101 12.4951 10.2826 12.3676 10.1251 12.3676H8.25009C8.09259 12.3676 7.96509 12.4951 7.96509 12.6526V14.5276C7.96509 14.6851 8.09259 14.8126 8.25009 14.8126C8.40759 14.8126 8.53509 14.6851 8.53509 14.5276V12.9376Z" fill="#1b6a68"/>
<path d="M16.0351 12.6526C16.0351 12.4951 15.9076 12.3676 15.7501 12.3676H13.8751C13.7176 12.3676 13.5901 12.4951 13.5901 12.6526C13.5901 12.8101 13.7176 12.9376 13.8751 12.9376H15.4651V14.5276C15.4651 14.6851 15.5926 14.8126 15.7501 14.8126C15.9076 14.8126 16.0351 14.6851 16.0351 14.5276V12.6526Z" fill="#1b6a68"/>
<path d="M15.7501 16.5C15.5926 16.5 15.4651 16.6275 15.4651 16.785V19.035C15.4651 19.1925 15.5926 19.32 15.7501 19.32C15.9076 19.32 16.0351 19.1925 16.0351 19.035V16.785C16.0351 16.6275 15.9076 16.5 15.7501 16.5Z" fill="#1b6a68"/>
</svg>
