<svg width="24" height="24" viewBox="0 0 24 24" fill="none" xmlns="http://www.w3.org/2000/svg">
<path d="M2.72239 8.29498L1.89739 9.05998C1.78489 9.16498 1.77739 9.34498 1.88239 9.45748C1.93489 9.51748 2.00989 9.54748 2.09239 9.54748C2.15989 9.54748 2.22739 9.52498 2.27989 9.47248L3.10489 8.70748C3.21739 8.60248 3.22489 8.42248 3.11989 8.30998C3.01489 8.19748 2.83489 8.18998 2.72239 8.29498Z" fill="#1b6a68"/>
<path d="M9.59262 2.34746C9.48762 2.23496 9.30762 2.22746 9.19512 2.33246L7.57512 3.82496C7.46262 3.92996 7.45512 4.10996 7.56012 4.22246C7.61262 4.28246 7.68762 4.31246 7.77012 4.31246C7.83762 4.31246 7.90512 4.28996 7.95762 4.23746L9.57762 2.74496C9.69012 2.63996 9.69762 2.45996 9.59262 2.34746Z" fill="#1b6a68"/>
<path d="M6.35995 5.325C6.25495 5.2125 6.07495 5.205 5.96245 5.31L4.34245 6.8025C4.22995 6.9075 4.22245 7.0875 4.32745 7.2C4.37995 7.26 4.45495 7.29 4.53745 7.29C4.60495 7.29 4.67245 7.2675 4.72495 7.215L6.34495 5.7225C6.45745 5.6175 6.46495 5.4375 6.35995 5.325Z" fill="#1b6a68"/>
<path d="M12.0226 0.0749561C11.9176 -0.0225439 11.7526 -0.0225439 11.6401 0.0749561L10.8151 0.839956C10.7026 0.944956 10.6951 1.12496 10.8001 1.23746C10.8526 1.29746 10.9276 1.32746 11.0101 1.32746C11.0776 1.32746 11.1451 1.30496 11.1976 1.25246L11.8351 0.667456L12.4726 1.25246C12.5851 1.35746 12.7651 1.34996 12.8701 1.23746C12.9751 1.12496 12.9676 0.944956 12.8551 0.839956L12.0226 0.0824561V0.0749561Z" fill="#1b6a68"/>
<path d="M14.37 2.97001C14.4225 3.02251 14.49 3.04501 14.5575 3.04501C14.6325 3.04501 14.7075 3.01501 14.7675 2.95501C14.8725 2.84251 14.865 2.66251 14.7525 2.55751L13.8075 1.69501C13.695 1.59001 13.515 1.59751 13.41 1.71001C13.305 1.82251 13.3125 2.00251 13.425 2.10751L14.37 2.97001Z" fill="#1b6a68"/>
<path d="M18.3076 3.26254C18.3076 3.42004 18.4351 3.54754 18.5926 3.54754C18.7501 3.54754 18.8776 3.42004 18.8776 3.26254V2.13754C18.8776 1.98004 18.7501 1.85254 18.5926 1.85254H16.3426C16.1851 1.85254 16.0576 1.98004 16.0576 2.13754V3.75004L15.6976 3.42004C15.5851 3.31504 15.4051 3.32254 15.3001 3.43504C15.1951 3.54754 15.2026 3.72754 15.3151 3.83254L16.1476 4.59004C16.2001 4.63504 16.2676 4.66504 16.3351 4.66504C16.3726 4.66504 16.4101 4.65754 16.4476 4.64254C16.5526 4.59754 16.6126 4.50004 16.6126 4.38754V2.42254H18.3001V3.26254H18.3076Z" fill="#1b6a68"/>
<path d="M18.87 6.24747V5.24997C18.87 5.09247 18.7425 4.96497 18.585 4.96497C18.4275 4.96497 18.3 5.09247 18.3 5.24997V6.37497C18.3 6.45747 18.3375 6.53247 18.3975 6.58497L19.2525 7.31997C19.305 7.36497 19.3725 7.38747 19.4325 7.38747C19.515 7.38747 19.59 7.35747 19.6425 7.28997C19.74 7.16997 19.7325 6.99747 19.6125 6.89247L18.855 6.23997L18.87 6.24747Z" fill="#1b6a68"/>
<path d="M21.9149 9.51751C21.9974 9.51751 22.0724 9.48751 22.1249 9.42001C22.2224 9.30001 22.2149 9.12751 22.0949 9.02251L21.2399 8.28751C21.1199 8.19001 20.9474 8.19751 20.8424 8.31751C20.7374 8.43751 20.7524 8.61001 20.8724 8.71501L21.7274 9.45001C21.7799 9.49501 21.8474 9.51751 21.9074 9.51751H21.9149Z" fill="#1b6a68"/>
<path d="M2.02499 10.59C1.86749 10.59 1.73999 10.7175 1.73999 10.875V23.625C1.73999 23.7825 1.86749 23.91 2.02499 23.91C2.18249 23.91 2.30999 23.7825 2.30999 23.625V10.875C2.30999 10.7175 2.18249 10.59 2.02499 10.59Z" fill="#1b6a68"/>
<path d="M3.75009 10.59C3.59259 10.59 3.46509 10.7175 3.46509 10.875V23.625C3.46509 23.7825 3.59259 23.91 3.75009 23.91C3.90759 23.91 4.03509 23.7825 4.03509 23.625V10.875C4.03509 10.7175 3.90759 10.59 3.75009 10.59Z" fill="#1b6a68"/>
<path d="M20.2501 10.59C20.0926 10.59 19.9651 10.7175 19.9651 10.875V23.625C19.9651 23.7825 20.0926 23.91 20.2501 23.91C20.4076 23.91 20.5351 23.7825 20.5351 23.625V10.875C20.5351 10.7175 20.4076 10.59 20.2501 10.59Z" fill="#1b6a68"/>
<path d="M21.9749 10.59C21.8174 10.59 21.6899 10.7175 21.6899 10.875V23.625C21.6899 23.7825 21.8174 23.91 21.9749 23.91C22.1324 23.91 22.2599 23.7825 22.2599 23.625V10.875C22.2599 10.7175 22.1324 10.59 21.9749 10.59Z" fill="#1b6a68"/>
<path d="M6.41244 23.4075H5.28744C5.12994 23.4075 5.00244 23.535 5.00244 23.6925C5.00244 23.85 5.12994 23.9775 5.28744 23.9775H6.41244C6.56994 23.9775 6.69744 23.85 6.69744 23.6925C6.69744 23.535 6.56994 23.4075 6.41244 23.4075Z" fill="#1b6a68"/>
<path d="M15.5925 23.4075H13.2975C13.14 23.4075 13.0125 23.535 13.0125 23.6925C13.0125 23.85 13.14 23.9775 13.2975 23.9775H15.5925C15.75 23.9775 15.8775 23.85 15.8775 23.6925C15.8775 23.535 15.75 23.4075 15.5925 23.4075Z" fill="#1b6a68"/>
<path d="M11.0026 23.4075H8.70761C8.55011 23.4075 8.42261 23.535 8.42261 23.6925C8.42261 23.85 8.55011 23.9775 8.70761 23.9775H11.0026C11.1601 23.9775 11.2876 23.85 11.2876 23.6925C11.2876 23.535 11.1601 23.4075 11.0026 23.4075Z" fill="#1b6a68"/>
<path d="M19.0125 23.4075H17.8875C17.73 23.4075 17.6025 23.535 17.6025 23.6925C17.6025 23.85 17.73 23.9775 17.8875 23.9775H19.0125C19.17 23.9775 19.2975 23.85 19.2975 23.6925C19.2975 23.535 19.17 23.4075 19.0125 23.4075Z" fill="#1b6a68"/>
</svg>
