<svg width="24" height="24" viewBox="0 0 24 24" fill="none" xmlns="http://www.w3.org/2000/svg">
<path d="M7.42506 20.52C3.55506 18.4275 1.69506 14.0625 2.58006 9.96746L4.30506 12.27L4.73256 11.9475L2.81256 9.38996C2.70756 9.25496 2.55756 9.17246 2.39256 9.15746C2.23506 9.14246 2.06256 9.20996 1.94256 9.32996L0.0600586 11.205L0.435059 11.58L2.00256 10.065C1.18506 14.325 3.14256 18.8175 7.16256 20.985C11.3926 23.265 16.5226 22.245 19.5976 18.8175L19.1176 18.555C16.1926 21.72 11.3851 22.6575 7.41756 20.5125L7.42506 20.52Z" fill="#1b6a68"/>
<path d="M23.5574 12.615L21.9899 14.13C22.9124 9.80997 20.9549 5.21248 16.8749 3.00747C12.6449 0.727475 7.51494 1.74747 4.43994 5.17497L4.91994 5.43747C7.84494 2.27247 12.6524 1.33497 16.6199 3.47997C20.5574 5.60247 22.4099 10.0725 21.4274 14.235L19.7024 11.9325L19.2749 12.255L21.1949 14.8125C21.2999 14.9475 21.4499 15.03 21.6149 15.045C21.6299 15.045 21.6449 15.045 21.6524 15.045C21.8024 15.045 21.9524 14.985 22.0574 14.8725L23.9399 12.99L23.5649 12.615H23.5574ZM21.5699 14.43L21.6374 14.4675L21.6149 14.49L21.5699 14.43Z" fill="#1b6a68"/>
<path d="M6.09009 6.08997V17.9025H17.9026V6.08997H6.09009ZM17.3401 17.34H6.65259V6.65247H17.3401V17.34Z" fill="#1b6a68"/>
<path d="M16.4102 7.58997H7.59766V16.4025H16.4102V7.58997ZM15.8402 11.715H12.2777V8.15247H15.8402V11.715ZM11.7152 8.15997V11.7225H8.15266V8.15997H11.7152ZM8.16016 12.285H11.7227V15.8475H8.16016V12.285ZM12.2852 15.84V12.2775H15.8477V15.84H12.2852Z" fill="#1b6a68"/>
</svg>
