<svg width="24" height="24" viewBox="0 0 24 24" fill="none" xmlns="http://www.w3.org/2000/svg">
<path d="M2.95495 11.46C2.81245 11.46 2.69995 11.3325 2.69995 11.175V10.035C2.69995 9.8775 2.81245 9.75 2.95495 9.75C3.09745 9.75 3.20995 9.8775 3.20995 10.035V11.175C3.20995 11.3325 3.09745 11.46 2.95495 11.46Z" fill="#1b6a68"/>
<path d="M2.95495 19.9575C2.81245 19.9575 2.69995 19.83 2.69995 19.6725V17.55C2.69995 17.3925 2.81245 17.265 2.95495 17.265C3.09745 17.265 3.20995 17.3925 3.20995 17.55V19.6725C3.20995 19.83 3.09745 19.9575 2.95495 19.9575ZM2.95495 15.7125C2.81245 15.7125 2.69995 15.585 2.69995 15.4275V13.305C2.69995 13.1475 2.81245 13.02 2.95495 13.02C3.09745 13.02 3.20995 13.1475 3.20995 13.305V15.4275C3.20995 15.585 3.09745 15.7125 2.95495 15.7125Z" fill="#1b6a68"/>
<path d="M3.98245 23.22H2.95495C2.81245 23.22 2.69995 23.0925 2.69995 22.935V21.795C2.69995 21.6375 2.81245 21.51 2.95495 21.51C3.09745 21.51 3.20995 21.6375 3.20995 21.795V22.65H3.98245C4.12495 22.65 4.23745 22.7775 4.23745 22.935C4.23745 23.0925 4.12495 23.22 3.98245 23.22Z" fill="#1b6a68"/>
<path d="M17.73 23.22H15.4425C15.3 23.22 15.1875 23.0925 15.1875 22.935C15.1875 22.7775 15.3 22.65 15.4425 22.65H17.73C17.8725 22.65 17.985 22.7775 17.985 22.935C17.985 23.0925 17.8725 23.22 17.73 23.22ZM13.1475 23.22H10.86C10.7175 23.22 10.605 23.0925 10.605 22.935C10.605 22.7775 10.7175 22.65 10.86 22.65H13.1475C13.29 22.65 13.4025 22.7775 13.4025 22.935C13.4025 23.0925 13.29 23.22 13.1475 23.22ZM8.56496 23.22H6.27746C6.13496 23.22 6.02246 23.0925 6.02246 22.935C6.02246 22.7775 6.13496 22.65 6.27746 22.65H8.56496C8.70746 22.65 8.81996 22.7775 8.81996 22.935C8.81996 23.0925 8.70746 23.22 8.56496 23.22Z" fill="#1b6a68"/>
<path d="M21.045 23.22H20.0175C19.875 23.22 19.7625 23.0925 19.7625 22.935C19.7625 22.7775 19.875 22.65 20.0175 22.65H20.79V21.795C20.79 21.6375 20.9025 21.51 21.045 21.51C21.1875 21.51 21.3 21.6375 21.3 21.795V22.935C21.3 23.0925 21.1875 23.22 21.045 23.22Z" fill="#1b6a68"/>
<path d="M21.045 19.9575C20.9025 19.9575 20.79 19.83 20.79 19.6725V17.55C20.79 17.3925 20.9025 17.265 21.045 17.265C21.1875 17.265 21.3 17.3925 21.3 17.55V19.6725C21.3 19.83 21.1875 19.9575 21.045 19.9575ZM21.045 15.7125C20.9025 15.7125 20.79 15.585 20.79 15.4275V13.305C20.79 13.1475 20.9025 13.02 21.045 13.02C21.1875 13.02 21.3 13.1475 21.3 13.305V15.4275C21.3 15.585 21.1875 15.7125 21.045 15.7125Z" fill="#1b6a68"/>
<path d="M21.045 11.46C20.9025 11.46 20.79 11.3325 20.79 11.175V10.035C20.79 9.8775 20.9025 9.75 21.045 9.75C21.1875 9.75 21.3 9.8775 21.3 10.035V11.175C21.3 11.3325 21.1875 11.46 21.045 11.46Z" fill="#1b6a68"/>
<path d="M2.9549 9.03741C2.8874 9.03741 2.8199 9.00741 2.7674 8.95491C2.6699 8.84991 2.6774 8.69241 2.7824 8.59491L3.5399 7.89741C3.6449 7.79991 3.8099 7.80741 3.8999 7.91241C3.9899 8.01741 3.9899 8.17491 3.8849 8.27241L3.1274 8.96991C3.0749 9.01491 3.0149 9.03741 2.9549 9.03741Z" fill="#1b6a68"/>
<path d="M5.19001 6.98241C5.12251 6.98241 5.05501 6.95241 5.00251 6.89991C4.90501 6.79491 4.91251 6.62991 5.01751 6.53991L6.49501 5.18241C6.60001 5.08491 6.75751 5.09241 6.85501 5.19741C6.95251 5.30241 6.94501 5.46741 6.84001 5.55741L5.36251 6.91491C5.31001 6.95991 5.25001 6.98241 5.19001 6.98241ZM8.14501 4.25991C8.07751 4.25991 8.01001 4.22991 7.95751 4.17741C7.86001 4.07241 7.86751 3.90741 7.97251 3.81741L9.45001 2.45991C9.55501 2.36241 9.72001 2.36991 9.81001 2.47491C9.90751 2.57991 9.90001 2.74491 9.79501 2.83491L8.31751 4.19241C8.26501 4.23741 8.20501 4.25991 8.14501 4.25991Z" fill="#1b6a68"/>
<path d="M11.0924 1.53746C11.0249 1.53746 10.9574 1.50746 10.9049 1.45496C10.8074 1.34996 10.8149 1.18496 10.9199 1.09496L11.6774 0.397456C11.7749 0.307456 11.9249 0.307456 12.0224 0.397456L12.7799 1.08746C12.8849 1.18496 12.8924 1.34246 12.7949 1.44746C12.6974 1.55246 12.5399 1.55996 12.4349 1.46246L11.8499 0.929956L11.2649 1.46246C11.2124 1.50746 11.1524 1.52996 11.0924 1.52996V1.53746Z" fill="#1b6a68"/>
<path d="M14.3323 3.11251C14.2723 3.11251 14.2123 3.09001 14.1598 3.04501L13.2973 2.25751C13.1923 2.16001 13.1848 2.00251 13.2823 1.89751C13.3798 1.79251 13.5373 1.78501 13.6423 1.88251L14.5048 2.67001C14.6098 2.76751 14.6173 2.92501 14.5198 3.03001C14.4673 3.08251 14.3998 3.11251 14.3323 3.11251Z" fill="#1b6a68"/>
<path d="M15.9524 4.58994C15.8924 4.58994 15.8249 4.56744 15.7799 4.52244L15.0224 3.83244C14.9174 3.73494 14.9099 3.57744 15.0074 3.47244C15.1049 3.36744 15.2624 3.35994 15.3674 3.45744L15.6974 3.75744V3.31494C15.6974 3.17244 15.8099 3.05994 15.9524 3.05994C16.0949 3.05994 16.2074 3.17244 16.2074 3.31494V4.34244C16.2074 4.44744 16.1474 4.53744 16.0574 4.57494C16.0274 4.58994 15.9899 4.59744 15.9524 4.59744V4.58994Z" fill="#1b6a68"/>
<path d="M15.9525 3.5624C15.81 3.5624 15.6975 3.4499 15.6975 3.3074V2.2799C15.6975 2.1374 15.81 2.0249 15.9525 2.0249H16.98C17.1225 2.0249 17.235 2.1374 17.235 2.2799C17.235 2.4224 17.1225 2.5349 16.98 2.5349H16.2075V3.3074C16.2075 3.4499 16.095 3.5624 15.9525 3.5624Z" fill="#1b6a68"/>
<path d="M18.0074 3.5624C17.8649 3.5624 17.7524 3.4499 17.7524 3.3074V2.5349H16.9799C16.8374 2.5349 16.7249 2.4224 16.7249 2.2799C16.7249 2.1374 16.8374 2.0249 16.9799 2.0249H18.0074C18.1499 2.0249 18.2624 2.1374 18.2624 2.2799V3.3074C18.2624 3.4499 18.1499 3.5624 18.0074 3.5624Z" fill="#1b6a68"/>
<path d="M18.7874 7.07243C18.7274 7.07243 18.6674 7.04993 18.6224 7.01243L17.8424 6.34493C17.7824 6.29243 17.7524 6.22493 17.7524 6.14993V5.12243C17.7524 4.97993 17.8649 4.86743 18.0074 4.86743C18.1499 4.86743 18.2624 4.97993 18.2624 5.12243V6.02993L18.9524 6.62243C19.0574 6.71243 19.0724 6.87743 18.9824 6.98243C18.9299 7.04243 18.8624 7.07243 18.7874 7.07243Z" fill="#1b6a68"/>
<path d="M21.0448 9.01498C20.9848 9.01498 20.9248 8.99247 20.8798 8.95497L20.0998 8.28747C19.9948 8.19747 19.9798 8.03247 20.0698 7.92747C20.1598 7.82247 20.3248 7.80747 20.4298 7.89747L21.2098 8.56497C21.3148 8.65497 21.3298 8.81997 21.2398 8.92497C21.1873 8.98497 21.1198 9.01498 21.0448 9.01498Z" fill="#1b6a68"/>
<path d="M19.8751 19.41H4.12509C3.96759 19.41 3.84009 19.2825 3.84009 19.125C3.84009 18.9675 3.96759 18.84 4.12509 18.84H19.8751C20.0326 18.84 20.1601 18.9675 20.1601 19.125C20.1601 19.2825 20.0326 19.41 19.8751 19.41Z" fill="#1b6a68"/>
<path d="M19.8751 17.91H4.12509C3.96759 17.91 3.84009 17.7825 3.84009 17.625C3.84009 17.4675 3.96759 17.34 4.12509 17.34H19.8751C20.0326 17.34 20.1601 17.4675 20.1601 17.625C20.1601 17.7825 20.0326 17.91 19.8751 17.91Z" fill="#1b6a68"/>
</svg>
