<svg width="24" height="24" viewBox="0 0 24 24" fill="none" xmlns="http://www.w3.org/2000/svg">
<path d="M22.8675 19.6799C22.74 19.0949 22.455 18.5399 21.9975 18.0899C21.5625 17.6549 21.03 17.3699 20.4675 17.2349C19.9575 17.1149 19.425 17.1224 18.915 17.2574L13.2225 11.5649C13.3575 11.0549 13.365 10.5224 13.245 10.0124C13.11 9.44994 12.825 8.91744 12.39 8.48244C11.94 8.03244 11.385 7.73994 10.8 7.61244C10.2075 7.48494 9.58499 7.52994 9.00749 7.73994C8.95499 7.75494 8.90249 7.78494 8.86499 7.82244C8.72999 7.95744 8.72999 8.16744 8.86499 8.30244L10.7925 10.2299C10.86 10.2974 10.8975 10.3874 10.8975 10.4774C10.8975 10.5674 10.86 10.6574 10.7925 10.7249L10.1025 11.4149C10.035 11.4824 9.94499 11.5199 9.85499 11.5199C9.76499 11.5199 9.67499 11.4824 9.60749 11.4149L7.67999 9.48744C7.67999 9.48744 7.60499 9.42744 7.55999 9.41244C7.38749 9.34494 7.19249 9.43494 7.12499 9.60744C6.90749 10.1849 6.86249 10.8149 6.98999 11.4149C7.11749 11.9999 7.40249 12.5549 7.85999 13.0049C8.29499 13.4399 8.82749 13.7249 9.38999 13.8599C9.89999 13.9799 10.4325 13.9724 10.9425 13.8374L16.635 19.5299C16.5 20.0399 16.4925 20.5724 16.6125 21.0824C16.7475 21.6449 17.0325 22.1774 17.4675 22.6124C17.9175 23.0624 18.4725 23.3549 19.0575 23.4824C19.65 23.6099 20.2725 23.5649 20.85 23.3549C20.9025 23.3399 20.955 23.3099 20.9925 23.2724C21.1275 23.1374 21.1275 22.9274 20.9925 22.7924L19.065 20.8649C18.9975 20.7974 18.96 20.7074 18.96 20.6174C18.96 20.5274 18.9975 20.4374 19.065 20.3699L19.755 19.6799C19.8225 19.6124 19.9125 19.5749 20.0025 19.5749C20.0925 19.5749 20.1825 19.6124 20.25 19.6799L22.1775 21.6074C22.1775 21.6074 22.2525 21.6674 22.2975 21.6824C22.47 21.7499 22.665 21.6599 22.7325 21.4874C22.95 20.9099 22.995 20.2799 22.8675 19.6799ZM22.245 20.7149L20.7375 19.2074C20.535 19.0049 20.2725 18.9074 20.01 18.9074C19.7475 18.9074 19.485 19.0049 19.2825 19.2074L18.5925 19.8974C18.39 20.0999 18.2925 20.3624 18.2925 20.6249C18.2925 20.8874 18.39 21.1499 18.5925 21.3524L20.1 22.8599C19.8 22.9049 19.5 22.8899 19.2 22.8299C18.7425 22.7324 18.3 22.4999 17.9475 22.1474C17.595 21.7949 17.3775 21.3824 17.2725 20.9399C17.1675 20.4824 17.1825 19.9949 17.3325 19.5524C17.37 19.4249 17.3325 19.2974 17.25 19.2074L11.28 13.2374C11.1825 13.1399 11.0325 13.1174 10.9125 13.1699C10.47 13.3124 9.99749 13.3274 9.54749 13.2224C9.10499 13.1174 8.68499 12.8924 8.33999 12.5474C7.99499 12.2024 7.75499 11.7524 7.65749 11.2949C7.59749 11.0024 7.58249 10.6949 7.62749 10.3949L9.13499 11.9024C9.33749 12.1049 9.59999 12.2024 9.86249 12.2024C10.125 12.2024 10.3875 12.1049 10.59 11.9024L11.28 11.2124C11.4825 11.0099 11.58 10.7474 11.58 10.4849C11.58 10.2224 11.4825 9.95994 11.28 9.75744L9.77249 8.24994C10.0725 8.20494 10.3725 8.21994 10.6725 8.27994C11.13 8.37744 11.5725 8.60994 11.925 8.96244C12.27 9.30744 12.495 9.72744 12.6 10.1699C12.705 10.6274 12.69 11.1149 12.54 11.5574C12.5025 11.6849 12.54 11.8124 12.6225 11.9024L18.5925 17.8724C18.69 17.9699 18.84 17.9924 18.96 17.9399C19.4025 17.7974 19.875 17.7824 20.325 17.8874C20.7675 17.9924 21.1875 18.2174 21.5325 18.5624C21.8775 18.9074 22.1175 19.3574 22.215 19.8149C22.275 20.1074 22.29 20.4149 22.245 20.7149Z" fill="#1b6a68"/>
<path d="M1.8075 7.82255L9.69 1.33505L17.565 7.82255V13.8601H18.315V7.46255L9.69 0.367554L1.0575 7.46255V20.2426H14.94V19.4851H1.8075V7.82255Z" fill="#1b6a68"/>
</svg>
