<svg width="32" height="32" viewBox="0 0 32 32" fill="none" xmlns="http://www.w3.org/2000/svg">
<path d="M2.86 12.7199C2.76 12.7199 2.66 12.6799 2.58 12.5999C2.44 12.4499 2.45 12.2099 2.6 12.0699L15.6 0.0999414C15.74 -0.0300586 15.96 -0.0300586 16.11 0.0999414L21.48 4.99994V2.84994C21.48 2.63994 21.65 2.46994 21.86 2.46994H24.86C25.07 2.46994 25.24 2.63994 25.24 2.84994V8.32994L29.55 12.0299C29.71 12.1599 29.72 12.3999 29.59 12.5599C29.45 12.7199 29.22 12.7299 29.06 12.5999L24.62 8.77994C24.54 8.70994 24.49 8.60994 24.49 8.49994V3.21994H22.24V5.83994C22.24 5.98994 22.15 6.11994 22.02 6.17994C21.88 6.23994 21.73 6.20994 21.62 6.10994L15.86 0.879941L3.11 12.6299C3.04 12.6999 2.95 12.7299 2.86 12.7299V12.7199Z" fill="#1C1917"/>
<path d="M2.85998 16.46C2.64998 16.46 2.47998 16.29 2.47998 16.08V14.58C2.47998 14.37 2.64998 14.2 2.85998 14.2C3.06998 14.2 3.23998 14.37 3.23998 14.58V16.08C3.23998 16.29 3.06998 16.46 2.85998 16.46Z" fill="#1C1917"/>
<path d="M2.85998 27.67C2.64998 27.67 2.47998 27.5 2.47998 27.29V24.49C2.47998 24.28 2.64998 24.11 2.85998 24.11C3.06998 24.11 3.23998 24.28 3.23998 24.49V27.29C3.23998 27.5 3.06998 27.67 2.85998 27.67ZM2.85998 22.06C2.64998 22.06 2.47998 21.89 2.47998 21.68V18.88C2.47998 18.67 2.64998 18.5 2.85998 18.5C3.06998 18.5 3.23998 18.67 3.23998 18.88V21.68C3.23998 21.89 3.06998 22.06 2.85998 22.06Z" fill="#1C1917"/>
<path d="M4.35998 31.9599H2.85998C2.64998 31.9599 2.47998 31.79 2.47998 31.58V30.08C2.47998 29.87 2.64998 29.7 2.85998 29.7C3.06998 29.7 3.23998 29.87 3.23998 30.08V31.2H4.35998C4.56998 31.2 4.73998 31.37 4.73998 31.58C4.73998 31.79 4.56998 31.9599 4.35998 31.9599Z" fill="#1C1917"/>
<path d="M24.4499 31.9599H21.0999C20.8899 31.9599 20.7199 31.79 20.7199 31.58C20.7199 31.37 20.8899 31.2 21.0999 31.2H24.4499C24.6599 31.2 24.8299 31.37 24.8299 31.58C24.8299 31.79 24.6599 31.9599 24.4499 31.9599ZM17.7499 31.9599H14.3999C14.1899 31.9599 14.0199 31.79 14.0199 31.58C14.0199 31.37 14.1899 31.2 14.3999 31.2H17.7499C17.9599 31.2 18.1299 31.37 18.1299 31.58C18.1299 31.79 17.9599 31.9599 17.7499 31.9599ZM11.0499 31.9599H7.69995C7.48995 31.9599 7.31995 31.79 7.31995 31.58C7.31995 31.37 7.48995 31.2 7.69995 31.2H11.0499C11.2599 31.2 11.4299 31.37 11.4299 31.58C11.4299 31.79 11.2599 31.9599 11.0499 31.9599Z" fill="#1C1917"/>
<path d="M29.2999 31.9599H27.7999C27.5899 31.9599 27.4199 31.79 27.4199 31.58C27.4199 31.37 27.5899 31.2 27.7999 31.2H28.9199V30.08C28.9199 29.87 29.0899 29.7 29.2999 29.7C29.5099 29.7 29.6799 29.87 29.6799 30.08V31.58C29.6799 31.79 29.5099 31.9599 29.2999 31.9599Z" fill="#1C1917"/>
<path d="M29.2999 27.67C29.0899 27.67 28.9199 27.5 28.9199 27.29V24.49C28.9199 24.28 29.0899 24.11 29.2999 24.11C29.5099 24.11 29.6799 24.28 29.6799 24.49V27.29C29.6799 27.5 29.5099 27.67 29.2999 27.67ZM29.2999 22.06C29.0899 22.06 28.9199 21.89 28.9199 21.68V18.88C28.9199 18.67 29.0899 18.5 29.2999 18.5C29.5099 18.5 29.6799 18.67 29.6799 18.88V21.68C29.6799 21.89 29.5099 22.06 29.2999 22.06Z" fill="#1C1917"/>
<path d="M29.2999 16.46C29.0899 16.46 28.9199 16.29 28.9199 16.08V14.58C28.9199 14.37 29.0899 14.2 29.2999 14.2C29.5099 14.2 29.6799 14.37 29.6799 14.58V16.08C29.6799 16.29 29.5099 16.46 29.2999 16.46Z" fill="#1C1917"/>
<path d="M5.57996 13.12C5.47996 13.12 5.37996 13.08 5.30996 13C5.16996 12.85 5.16996 12.61 5.31996 12.47L15.36 2.97996C15.5 2.84996 15.72 2.83996 15.86 2.96996L26.82 12.47C26.98 12.61 26.99 12.84 26.86 13C26.72 13.16 26.49 13.17 26.33 13.04L15.63 3.75996L5.82996 13.02C5.75996 13.09 5.65996 13.12 5.56996 13.12H5.57996Z" fill="#1C1917"/>
</svg>
