<?xml version="1.0" encoding="UTF-8"?>
<svg id="Layer_1" data-name="Layer 1" xmlns="http://www.w3.org/2000/svg" viewBox="0 0 32 32">
  <path d="M28.3,11.75l-3.95-3.42V3.35c0-.21-.17-.38-.38-.38h-2.74c-.21,0-.38.17-.38.38v1.78L16.05.85c-.14-.13-.36-.13-.5,0L3.69,11.76c-.08.07-.12.17-.12.28v18.84c0,.21.17.38.38.38h9.56c.21,0,.38-.17.38-.38s-.17-.38-.38-.38h-2.12v-2.12c0-.21-.17-.38-.38-.38s-.38.17-.38.38v2.12h-6.31V12.2L15.81,1.63l5.19,4.61c.11.1.27.12.4.06.13-.06.22-.19.22-.34v-2.24h1.99v4.78c0,.11.05.21.13.28l3.95,3.42v18.29h-6.31v-2.12c0-.21-.17-.38-.38-.38s-.38.17-.38.38v2.12h-2.12c-.21,0-.38.17-.38.38s.17.38.38.38h9.56c.21,0,.38-.17.38-.38V12.03c0-.11-.05-.21-.13-.28Z"/>
  <path d="M11,22c-.21,0-.38.17-.38.38v3c0,.21.17.38.38.38s.38-.17.38-.38v-3c0-.21-.17-.38-.38-.38Z"/>
  <path d="M11.38,17.25h2.12c.21,0,.38-.17.38-.38s-.17-.38-.38-.38h-2.5c-.21,0-.38.17-.38.38v2.5c0,.21.17.38.38.38s.38-.17.38-.38v-2.12Z"/>
  <path d="M21.38,16.87c0-.21-.17-.38-.38-.38h-2.5c-.21,0-.38.17-.38.38s.17.38.38.38h2.12v2.12c0,.21.17.38.38.38s.38-.17.38-.38v-2.5Z"/>
  <path d="M21,22c-.21,0-.38.17-.38.38v3c0,.21.17.38.38.38s.38-.17.38-.38v-3c0-.21-.17-.38-.38-.38Z"/>
</svg>