<svg width="32" height="32" viewBox="0 0 32 32" fill="none" xmlns="http://www.w3.org/2000/svg">
<path d="M3.63005 11.06L2.53005 12.08C2.38005 12.22 2.37005 12.46 2.51005 12.61C2.58005 12.69 2.68005 12.73 2.79005 12.73C2.88005 12.73 2.97005 12.7 3.04005 12.63L4.14005 11.61C4.29005 11.47 4.30005 11.23 4.16005 11.08C4.02005 10.93 3.78005 10.92 3.63005 11.06Z" fill="#1C1917"/>
<path d="M12.79 3.13003C12.65 2.98003 12.41 2.97003 12.26 3.11003L10.1 5.10003C9.95 5.24003 9.94 5.48003 10.08 5.63003C10.15 5.71003 10.25 5.75003 10.36 5.75003C10.45 5.75003 10.54 5.72003 10.61 5.65003L12.77 3.66003C12.92 3.52003 12.93 3.28003 12.79 3.13003Z" fill="#1C1917"/>
<path d="M8.47994 7.1C8.33994 6.95 8.09994 6.94 7.94994 7.08L5.78994 9.07C5.63994 9.21 5.62994 9.45 5.76994 9.6C5.83994 9.68 5.93994 9.72 6.04994 9.72C6.13994 9.72 6.22994 9.69 6.29994 9.62L8.45994 7.63C8.60994 7.49 8.61994 7.25 8.47994 7.1Z" fill="#1C1917"/>
<path d="M16.0299 0.0999414C15.8899 -0.0300586 15.6699 -0.0300586 15.5199 0.0999414L14.4199 1.11994C14.2699 1.25994 14.2599 1.49994 14.3999 1.64994C14.4699 1.72994 14.5699 1.76994 14.6799 1.76994C14.7699 1.76994 14.8599 1.73994 14.9299 1.66994L15.7799 0.889941L16.6299 1.66994C16.7799 1.80994 17.0199 1.79994 17.1599 1.64994C17.2999 1.49994 17.2899 1.25994 17.1399 1.11994L16.0299 0.109941V0.0999414Z" fill="#1C1917"/>
<path d="M19.16 3.96005C19.23 4.03005 19.32 4.06005 19.41 4.06005C19.51 4.06005 19.61 4.02005 19.69 3.94005C19.83 3.79005 19.82 3.55005 19.67 3.41005L18.41 2.26005C18.26 2.12005 18.02 2.13005 17.88 2.28005C17.74 2.43005 17.75 2.67005 17.9 2.81005L19.16 3.96005Z" fill="#1C1917"/>
<path d="M24.4099 4.34997C24.4099 4.55997 24.5799 4.72997 24.7899 4.72997C24.9999 4.72997 25.1699 4.55997 25.1699 4.34997V2.84997C25.1699 2.63997 24.9999 2.46997 24.7899 2.46997H21.7899C21.5799 2.46997 21.4099 2.63997 21.4099 2.84997V4.99997L20.9299 4.55997C20.7799 4.41997 20.5399 4.42997 20.3999 4.57997C20.2599 4.72997 20.2699 4.96997 20.4199 5.10997L21.5299 6.11997C21.5999 6.17997 21.6899 6.21997 21.7799 6.21997C21.8299 6.21997 21.8799 6.20997 21.9299 6.18997C22.0699 6.12997 22.1499 5.99997 22.1499 5.84997V3.22997H24.3999V4.34997H24.4099Z" fill="#1C1917"/>
<path d="M25.16 8.33V7C25.16 6.79 24.99 6.62 24.78 6.62C24.57 6.62 24.4 6.79 24.4 7V8.5C24.4 8.61 24.45 8.71 24.53 8.77999L25.67 9.76C25.74 9.82 25.83 9.85 25.91 9.85C26.02 9.85 26.12 9.81 26.19 9.72C26.32 9.56 26.31 9.32999 26.15 9.18999L25.14 8.31999L25.16 8.33Z" fill="#1C1917"/>
<path d="M29.22 12.69C29.33 12.69 29.43 12.65 29.5 12.56C29.63 12.4 29.62 12.17 29.46 12.03L28.32 11.05C28.16 10.92 27.93 10.93 27.79 11.09C27.65 11.25 27.67 11.48 27.83 11.62L28.97 12.6C29.04 12.66 29.13 12.69 29.21 12.69H29.22Z" fill="#1C1917"/>
<path d="M2.69995 14.12C2.48995 14.12 2.31995 14.29 2.31995 14.5V31.5C2.31995 31.71 2.48995 31.88 2.69995 31.88C2.90995 31.88 3.07995 31.71 3.07995 31.5V14.5C3.07995 14.29 2.90995 14.12 2.69995 14.12Z" fill="#1C1917"/>
<path d="M5 14.12C4.79 14.12 4.62 14.29 4.62 14.5V31.5C4.62 31.71 4.79 31.88 5 31.88C5.21 31.88 5.38 31.71 5.38 31.5V14.5C5.38 14.29 5.21 14.12 5 14.12Z" fill="#1C1917"/>
<path d="M27 14.12C26.79 14.12 26.62 14.29 26.62 14.5V31.5C26.62 31.71 26.79 31.88 27 31.88C27.21 31.88 27.38 31.71 27.38 31.5V14.5C27.38 14.29 27.21 14.12 27 14.12Z" fill="#1C1917"/>
<path d="M29.3 14.12C29.09 14.12 28.92 14.29 28.92 14.5V31.5C28.92 31.71 29.09 31.88 29.3 31.88C29.51 31.88 29.68 31.71 29.68 31.5V14.5C29.68 14.29 29.51 14.12 29.3 14.12Z" fill="#1C1917"/>
<path d="M8.55004 31.21H7.05004C6.84004 31.21 6.67004 31.38 6.67004 31.59C6.67004 31.8 6.84004 31.97 7.05004 31.97H8.55004C8.76004 31.97 8.93004 31.8 8.93004 31.59C8.93004 31.38 8.76004 31.21 8.55004 31.21Z" fill="#1C1917"/>
<path d="M20.79 31.21H17.73C17.52 31.21 17.35 31.38 17.35 31.59C17.35 31.8 17.52 31.97 17.73 31.97H20.79C21 31.97 21.17 31.8 21.17 31.59C21.17 31.38 21 31.21 20.79 31.21Z" fill="#1C1917"/>
<path d="M14.67 31.21H11.61C11.4 31.21 11.23 31.38 11.23 31.59C11.23 31.8 11.4 31.97 11.61 31.97H14.67C14.88 31.97 15.05 31.8 15.05 31.59C15.05 31.38 14.88 31.21 14.67 31.21Z" fill="#1C1917"/>
<path d="M25.35 31.21H23.85C23.64 31.21 23.47 31.38 23.47 31.59C23.47 31.8 23.64 31.97 23.85 31.97H25.35C25.56 31.97 25.73 31.8 25.73 31.59C25.73 31.38 25.56 31.21 25.35 31.21Z" fill="#1C1917"/>
</svg>
