<svg width="32" height="32" viewBox="0 0 32 32" fill="none" xmlns="http://www.w3.org/2000/svg">
<path d="M9.89996 27.3599C4.73996 24.5699 2.25996 18.7499 3.43996 13.2899L5.73996 16.3599L6.30996 15.9299L3.74996 12.5199C3.60996 12.3399 3.40996 12.2299 3.18996 12.2099C2.97996 12.1899 2.74996 12.2799 2.58996 12.4399L0.0799561 14.9399L0.579956 15.4399L2.66996 13.4199C1.57996 19.0999 4.18996 25.0899 9.54996 27.9799C15.19 31.0199 22.03 29.6599 26.13 25.0899L25.49 24.7399C21.59 28.9599 15.18 30.2099 9.88996 27.3499L9.89996 27.3599Z" fill="#1C1917"/>
<path d="M31.4099 16.82L29.3199 18.84C30.5499 13.08 27.9399 6.94997 22.4999 4.00997C16.8599 0.969967 10.0199 2.32997 5.91992 6.89997L6.55992 7.24997C10.4599 3.02997 16.8699 1.77997 22.1599 4.63997C27.4099 7.46997 29.8799 13.43 28.5699 18.98L26.2699 15.91L25.6999 16.34L28.2599 19.75C28.3999 19.93 28.5999 20.04 28.8199 20.06C28.8399 20.06 28.8599 20.06 28.8699 20.06C29.0699 20.06 29.2699 19.98 29.4099 19.83L31.9199 17.32L31.4199 16.82H31.4099ZM28.7599 19.24L28.8499 19.29L28.8199 19.32L28.7599 19.24Z" fill="#1C1917"/>
<path d="M8.12 8.12V23.87H23.87V8.12H8.12ZM23.12 23.12H8.87V8.87H23.12V23.12Z" fill="#1C1917"/>
<path d="M21.88 10.12H10.13V21.87H21.88V10.12ZM21.12 15.62H16.37V10.87H21.12V15.62ZM15.62 10.88V15.63H10.87V10.88H15.62ZM10.88 16.38H15.63V21.13H10.88V16.38ZM16.38 21.12V16.37H21.13V21.12H16.38Z" fill="#1C1917"/>
</svg>
