<svg width="32" height="32" viewBox="0 0 32 32" fill="none" xmlns="http://www.w3.org/2000/svg">
<path d="M3.93998 15.28C3.74998 15.28 3.59998 15.11 3.59998 14.9V13.38C3.59998 13.17 3.74998 13 3.93998 13C4.12998 13 4.27998 13.17 4.27998 13.38V14.9C4.27998 15.11 4.12998 15.28 3.93998 15.28Z" fill="#1C1917"/>
<path d="M3.93998 26.61C3.74998 26.61 3.59998 26.44 3.59998 26.23V23.4C3.59998 23.19 3.74998 23.02 3.93998 23.02C4.12998 23.02 4.27998 23.19 4.27998 23.4V26.23C4.27998 26.44 4.12998 26.61 3.93998 26.61ZM3.93998 20.95C3.74998 20.95 3.59998 20.78 3.59998 20.57V17.74C3.59998 17.53 3.74998 17.36 3.93998 17.36C4.12998 17.36 4.27998 17.53 4.27998 17.74V20.57C4.27998 20.78 4.12998 20.95 3.93998 20.95Z" fill="#1C1917"/>
<path d="M5.30998 30.9601H3.93998C3.74998 30.9601 3.59998 30.7901 3.59998 30.5801V29.0601C3.59998 28.8501 3.74998 28.6801 3.93998 28.6801C4.12998 28.6801 4.27998 28.8501 4.27998 29.0601V30.2001H5.30998C5.49998 30.2001 5.64998 30.3701 5.64998 30.5801C5.64998 30.7901 5.49998 30.9601 5.30998 30.9601Z" fill="#1C1917"/>
<path d="M23.64 30.9599H20.59C20.4 30.9599 20.25 30.79 20.25 30.58C20.25 30.37 20.4 30.2 20.59 30.2H23.64C23.83 30.2 23.98 30.37 23.98 30.58C23.98 30.79 23.83 30.9599 23.64 30.9599ZM17.53 30.9599H14.48C14.29 30.9599 14.14 30.79 14.14 30.58C14.14 30.37 14.29 30.2 14.48 30.2H17.53C17.72 30.2 17.87 30.37 17.87 30.58C17.87 30.79 17.72 30.9599 17.53 30.9599ZM11.42 30.9599H8.37003C8.18003 30.9599 8.03003 30.79 8.03003 30.58C8.03003 30.37 8.18003 30.2 8.37003 30.2H11.42C11.61 30.2 11.76 30.37 11.76 30.58C11.76 30.79 11.61 30.9599 11.42 30.9599Z" fill="#1C1917"/>
<path d="M28.06 30.9601H26.69C26.5 30.9601 26.35 30.7901 26.35 30.5801C26.35 30.3701 26.5 30.2001 26.69 30.2001H27.72V29.0601C27.72 28.8501 27.87 28.6801 28.06 28.6801C28.25 28.6801 28.4 28.8501 28.4 29.0601V30.5801C28.4 30.7901 28.25 30.9601 28.06 30.9601Z" fill="#1C1917"/>
<path d="M28.06 26.61C27.87 26.61 27.72 26.44 27.72 26.23V23.4C27.72 23.19 27.87 23.02 28.06 23.02C28.25 23.02 28.4 23.19 28.4 23.4V26.23C28.4 26.44 28.25 26.61 28.06 26.61ZM28.06 20.95C27.87 20.95 27.72 20.78 27.72 20.57V17.74C27.72 17.53 27.87 17.36 28.06 17.36C28.25 17.36 28.4 17.53 28.4 17.74V20.57C28.4 20.78 28.25 20.95 28.06 20.95Z" fill="#1C1917"/>
<path d="M28.06 15.28C27.87 15.28 27.72 15.11 27.72 14.9V13.38C27.72 13.17 27.87 13 28.06 13C28.25 13 28.4 13.17 28.4 13.38V14.9C28.4 15.11 28.25 15.28 28.06 15.28Z" fill="#1C1917"/>
<path d="M3.93995 12.0499C3.84995 12.0499 3.75995 12.0099 3.68995 11.9399C3.55995 11.7999 3.56995 11.5899 3.70995 11.4599L4.71995 10.5299C4.85995 10.3999 5.07995 10.4099 5.19995 10.5499C5.31995 10.6899 5.31995 10.8999 5.17995 11.0299L4.16995 11.9599C4.09995 12.0199 4.01995 12.0499 3.93995 12.0499Z" fill="#1C1917"/>
<path d="M6.91993 9.30992C6.82993 9.30992 6.73993 9.26992 6.66993 9.19992C6.53993 9.05992 6.54993 8.83992 6.68993 8.71992L8.65993 6.90992C8.79993 6.77992 9.00993 6.78992 9.13993 6.92992C9.26993 7.06992 9.25993 7.28992 9.11993 7.40992L7.14993 9.21992C7.07993 9.27992 6.99993 9.30992 6.91993 9.30992ZM10.8599 5.67992C10.7699 5.67992 10.6799 5.63992 10.6099 5.56992C10.4799 5.42992 10.4899 5.20992 10.6299 5.08992L12.5999 3.27992C12.7399 3.14992 12.9599 3.15992 13.0799 3.29992C13.2099 3.43992 13.1999 3.65992 13.0599 3.77992L11.0899 5.58992C11.0199 5.64992 10.9399 5.67992 10.8599 5.67992Z" fill="#1C1917"/>
<path d="M14.7899 2.04994C14.6999 2.04994 14.6099 2.00994 14.5399 1.93994C14.4099 1.79994 14.4199 1.57994 14.5599 1.45994L15.5699 0.529941C15.6999 0.409941 15.8999 0.409941 16.0299 0.529941L17.0399 1.44994C17.1799 1.57994 17.1899 1.78994 17.0599 1.92994C16.9299 2.06994 16.7199 2.07994 16.5799 1.94994L15.7999 1.23994L15.0199 1.94994C14.9499 2.00994 14.8699 2.03994 14.7899 2.03994V2.04994Z" fill="#1C1917"/>
<path d="M19.11 4.1499C19.03 4.1499 18.95 4.1199 18.88 4.0599L17.73 3.0099C17.59 2.8799 17.58 2.6699 17.71 2.5299C17.84 2.3899 18.05 2.3799 18.19 2.5099L19.34 3.5599C19.48 3.6899 19.49 3.8999 19.36 4.0399C19.29 4.1099 19.2 4.1499 19.11 4.1499Z" fill="#1C1917"/>
<path d="M21.2699 6.11996C21.1899 6.11996 21.0999 6.08996 21.0399 6.02996L20.0299 5.10996C19.8899 4.97996 19.8799 4.76996 20.0099 4.62996C20.1399 4.48996 20.3499 4.47996 20.4899 4.60996L20.9299 5.00996V4.41996C20.9299 4.22996 21.0799 4.07996 21.2699 4.07996C21.4599 4.07996 21.6099 4.22996 21.6099 4.41996V5.78996C21.6099 5.92996 21.5299 6.04996 21.4099 6.09996C21.3699 6.11996 21.3199 6.12996 21.2699 6.12996V6.11996Z" fill="#1C1917"/>
<path d="M21.2699 4.74995C21.0799 4.74995 20.9299 4.59995 20.9299 4.40995V3.03995C20.9299 2.84995 21.0799 2.69995 21.2699 2.69995H22.6399C22.8299 2.69995 22.9799 2.84995 22.9799 3.03995C22.9799 3.22995 22.8299 3.37995 22.6399 3.37995H21.6099V4.40995C21.6099 4.59995 21.4599 4.74995 21.2699 4.74995Z" fill="#1C1917"/>
<path d="M24.0099 4.74995C23.8199 4.74995 23.6699 4.59995 23.6699 4.40995V3.37995H22.6399C22.4499 3.37995 22.2999 3.22995 22.2999 3.03995C22.2999 2.84995 22.4499 2.69995 22.6399 2.69995H24.0099C24.1999 2.69995 24.3499 2.84995 24.3499 3.03995V4.40995C24.3499 4.59995 24.1999 4.74995 24.0099 4.74995Z" fill="#1C1917"/>
<path d="M25.0499 9.42999C24.9699 9.42999 24.8899 9.39999 24.8299 9.34999L23.7899 8.45999C23.7099 8.38999 23.6699 8.29999 23.6699 8.19999V6.82999C23.6699 6.63999 23.8199 6.48999 24.0099 6.48999C24.1999 6.48999 24.3499 6.63999 24.3499 6.82999V8.03999L25.2699 8.82999C25.4099 8.94999 25.4299 9.16999 25.3099 9.30999C25.2399 9.38999 25.1499 9.42999 25.0499 9.42999Z" fill="#1C1917"/>
<path d="M28.0599 12.02C27.9799 12.02 27.8999 11.99 27.8399 11.94L26.7999 11.05C26.6599 10.93 26.6399 10.71 26.7599 10.57C26.8799 10.43 27.0999 10.41 27.2399 10.53L28.2799 11.42C28.4199 11.54 28.4399 11.76 28.3199 11.9C28.2499 11.98 28.1599 12.02 28.0599 12.02Z" fill="#1C1917"/>
<path d="M26.5 25.88H5.5C5.29 25.88 5.12 25.71 5.12 25.5C5.12 25.29 5.29 25.12 5.5 25.12H26.5C26.71 25.12 26.88 25.29 26.88 25.5C26.88 25.71 26.71 25.88 26.5 25.88Z" fill="#1C1917"/>
<path d="M26.5 23.88H5.5C5.29 23.88 5.12 23.71 5.12 23.5C5.12 23.29 5.29 23.12 5.5 23.12H26.5C26.71 23.12 26.88 23.29 26.88 23.5C26.88 23.71 26.71 23.88 26.5 23.88Z" fill="#1C1917"/>
</svg>
