<svg width="32" height="32" viewBox="0 0 32 32" fill="none" xmlns="http://www.w3.org/2000/svg">
<path d="M30.4901 26.24C30.3201 25.46 29.9401 24.72 29.3301 24.12C28.7501 23.54 28.0401 23.16 27.2901 22.98C26.6101 22.82 25.9001 22.83 25.2201 23.01L17.6301 15.42C17.8101 14.74 17.8201 14.03 17.6601 13.35C17.4801 12.6 17.1001 11.89 16.5201 11.31C15.9201 10.71 15.1801 10.32 14.4001 10.15C13.6101 9.98005 12.7801 10.04 12.0101 10.32C11.9401 10.34 11.8701 10.38 11.8201 10.43C11.6401 10.61 11.6401 10.89 11.8201 11.07L14.3901 13.64C14.4801 13.73 14.5301 13.85 14.5301 13.97C14.5301 14.09 14.4801 14.21 14.3901 14.3L13.4701 15.22C13.3801 15.31 13.2601 15.36 13.1401 15.36C13.0201 15.36 12.9001 15.31 12.8101 15.22L10.2401 12.65C10.2401 12.65 10.1401 12.57 10.0801 12.55C9.85007 12.46 9.59007 12.58 9.50007 12.81C9.21007 13.58 9.15007 14.42 9.32007 15.22C9.49007 16 9.87007 16.74 10.4801 17.34C11.0601 17.92 11.7701 18.3 12.5201 18.48C13.2001 18.64 13.9101 18.63 14.5901 18.45L22.1801 26.04C22.0001 26.72 21.9901 27.43 22.1501 28.11C22.3301 28.86 22.7101 29.57 23.2901 30.15C23.8901 30.75 24.6301 31.14 25.4101 31.31C26.2001 31.48 27.0301 31.42 27.8001 31.14C27.8701 31.12 27.9401 31.08 27.9901 31.03C28.1701 30.85 28.1701 30.57 27.9901 30.39L25.4201 27.82C25.3301 27.73 25.2801 27.61 25.2801 27.49C25.2801 27.37 25.3301 27.25 25.4201 27.16L26.3401 26.24C26.4301 26.15 26.5501 26.1 26.6701 26.1C26.7901 26.1 26.9101 26.15 27.0001 26.24L29.5701 28.81C29.5701 28.81 29.6701 28.89 29.7301 28.91C29.9601 29 30.2201 28.88 30.3101 28.65C30.6001 27.88 30.6601 27.04 30.4901 26.24ZM29.6601 27.62L27.6501 25.61C27.3801 25.34 27.0301 25.21 26.6801 25.21C26.3301 25.21 25.9801 25.34 25.7101 25.61L24.7901 26.53C24.5201 26.8 24.3901 27.15 24.3901 27.5C24.3901 27.85 24.5201 28.2 24.7901 28.47L26.8001 30.48C26.4001 30.54 26.0001 30.52 25.6001 30.44C24.9901 30.31 24.4001 30 23.9301 29.53C23.4601 29.06 23.1701 28.51 23.0301 27.92C22.8901 27.31 22.9101 26.66 23.1101 26.07C23.1601 25.9 23.1101 25.73 23.0001 25.61L15.0401 17.65C14.9101 17.52 14.7101 17.49 14.5501 17.56C13.9601 17.75 13.3301 17.77 12.7301 17.63C12.1401 17.49 11.5801 17.19 11.1201 16.73C10.6601 16.27 10.3401 15.67 10.2101 15.06C10.1301 14.67 10.1101 14.26 10.1701 13.86L12.1801 15.87C12.4501 16.14 12.8001 16.27 13.1501 16.27C13.5001 16.27 13.8501 16.14 14.1201 15.87L15.0401 14.95C15.3101 14.68 15.4401 14.33 15.4401 13.98C15.4401 13.63 15.3101 13.28 15.0401 13.01L13.0301 11C13.4301 10.94 13.8301 10.96 14.2301 11.04C14.8401 11.17 15.4301 11.48 15.9001 11.95C16.3601 12.41 16.6601 12.97 16.8001 13.56C16.9401 14.17 16.9201 14.82 16.7201 15.41C16.6701 15.58 16.7201 15.75 16.8301 15.87L24.7901 23.83C24.9201 23.96 25.1201 23.99 25.2801 23.92C25.8701 23.73 26.5001 23.71 27.1001 23.85C27.6901 23.99 28.2501 24.29 28.7101 24.75C29.1701 25.21 29.4901 25.81 29.6201 26.42C29.7001 26.81 29.7201 27.22 29.6601 27.62Z" fill="#1C1917"/>
<path d="M2.40991 10.43L12.9199 1.77999L23.4199 10.43V18.48H24.4199V9.94999L12.9199 0.48999L1.40991 9.94999V26.99H19.9199V25.98H2.40991V10.43Z" fill="#1C1917"/>
</svg>
