<svg width="217" height="130" viewBox="0 0 217 130" fill="none" xmlns="http://www.w3.org/2000/svg">
<g clip-path="url(#clip0_67_5046)">
<path d="M-0.000366211 130H217V0.000488281H-0.000366211V130Z" fill="white"/>
<path fill-rule="evenodd" clip-rule="evenodd" d="M199.513 106.992C195.407 106.022 191.783 105.735 190.536 102.592C189.555 100.112 186.376 100.717 187.903 96.6047C188.807 94.1754 186.137 91.8479 186.986 89.9088C188.289 86.9447 187.852 86.8279 186.889 83.775C185.499 79.3754 190.517 79.7863 189.819 73.2118C189.259 67.9346 192.744 68.1221 192.878 64.2599C192.993 60.6307 193.247 60.6638 195.274 57.6231C196.941 55.1319 195.968 49.5732 198.967 49.1606C203.186 49.177 201.44 55.1319 203.103 57.6231C205.129 60.6638 205.376 60.6307 205.502 64.2599C205.634 68.1221 209.123 67.9346 208.562 73.2118C207.863 79.7863 212.881 79.3754 211.492 83.775C210.529 86.8279 210.095 86.9447 211.394 89.9088C212.245 91.8479 209.579 94.1754 210.483 96.6047C212.005 100.717 208.83 100.112 207.844 102.592C206.599 105.735 203.619 106.022 199.513 106.992Z" fill="#4ADE80"/>
<path fill-rule="evenodd" clip-rule="evenodd" d="M198.229 87.5372C198.229 87.5372 193.909 80.4635 192.432 78.0416C192.158 77.5984 192.302 77.0199 192.748 76.75C193.191 76.4805 193.768 76.6203 194.042 77.0635C195.236 79.029 198.229 83.9258 198.229 83.9258V72.0766C198.229 71.5579 198.648 71.1361 199.167 71.1361C199.683 71.1361 200.105 71.5579 200.105 72.0766V97.1121C200.105 97.1121 203.659 91.2856 204.986 89.1151C205.255 88.6722 205.834 88.532 206.28 88.8024C206.723 89.0728 206.863 89.6502 206.591 90.0931C205.005 92.6941 200.105 100.724 200.105 100.724V110.994H198.225L198.229 87.5372Z" fill="#18743A"/>
<path fill-rule="evenodd" clip-rule="evenodd" d="M199.044 49.162C203.168 49.2455 201.452 55.1471 203.105 57.6237C205.133 60.6644 205.38 60.6312 205.506 64.2604C205.638 68.1226 209.125 67.9352 208.566 73.2123C207.867 79.7869 212.885 79.376 211.496 83.7756C210.533 86.8284 210.099 86.9452 211.398 89.9093C212.249 91.8485 209.583 94.1769 210.485 96.606C212.009 100.718 208.832 100.113 207.848 102.593C206.915 104.954 204.995 105.704 202.357 106.342C202.291 102.344 206.464 101.17 206.355 97.9671C206.257 94.8856 206.81 95.0035 208.13 92.4676C208.447 91.8609 208.849 88.8927 206.597 86.1995C204.219 83.356 203.697 83.0656 205.373 78.6295C207.33 73.4387 201.424 73.9467 202.357 65.2392C202.795 61.1534 198.355 60.1836 199.145 56.0522C199.765 52.7845 199.892 52.0922 199.048 49.162" fill="#359859"/>
<path fill-rule="evenodd" clip-rule="evenodd" d="M18.128 106.992C14.0223 106.022 10.3978 105.735 9.15115 102.592C8.17024 100.112 4.99055 100.717 6.51768 96.6047C7.42149 94.1754 4.75334 91.8479 5.60302 89.9088C6.90542 86.9447 6.46656 86.8279 5.5037 83.775C4.11436 79.3754 9.13229 79.7863 8.43351 73.2118C7.87417 67.9346 11.3586 68.1221 11.4931 64.2599C11.6079 60.6307 11.862 60.6638 13.8895 57.6231C15.556 55.1319 14.5833 49.5732 17.5818 49.1606C21.8006 49.177 20.0545 55.1319 21.7178 57.6231C23.7436 60.6638 23.9911 60.6307 24.1174 64.2599C24.2486 68.1221 27.7379 67.9346 27.1769 73.2118C26.4782 79.7863 31.4961 79.3754 30.1068 83.775C29.1439 86.8279 28.7099 86.9447 30.009 89.9088C30.8604 91.8479 28.1938 94.1754 29.0976 96.6047C30.6198 100.717 27.4451 100.112 26.4593 102.592C25.2143 105.735 22.2337 106.022 18.128 106.992Z" fill="#4ADE80"/>
<path fill-rule="evenodd" clip-rule="evenodd" d="M16.8458 87.5372C16.8458 87.5372 12.5249 80.4635 11.0486 78.0416C10.7747 77.5984 10.9181 77.0199 11.3642 76.75C11.8055 76.4805 12.3846 76.6203 12.6585 77.0635C13.8527 79.029 16.8458 83.9258 16.8458 83.9258V72.0766C16.8458 71.5579 17.2646 71.1361 17.7829 71.1361C18.2996 71.1361 18.7216 71.5579 18.7216 72.0766V97.1121C18.7216 97.1121 22.2755 91.2856 23.6025 89.1151C23.8715 88.6722 24.4506 88.532 24.8968 88.8024C25.3397 89.0728 25.4798 89.6502 25.2075 90.0931C23.6214 92.6941 18.7216 100.724 18.7216 100.724V110.994H16.841L16.8458 87.5372Z" fill="#18743A"/>
<path fill-rule="evenodd" clip-rule="evenodd" d="M17.6608 49.162C21.7845 49.2455 20.0681 55.1471 21.7215 57.6237C23.7489 60.6644 23.9964 60.6312 24.1227 64.2604C24.2539 68.1226 27.7416 67.9352 27.1823 73.2123C26.4835 79.7869 31.5014 79.376 30.1121 83.7756C29.1492 86.8284 28.7152 86.9452 30.0144 89.9093C30.8657 91.8485 28.1991 94.1769 29.1013 96.606C30.6251 100.718 27.4488 100.113 26.4646 102.593C25.5313 104.954 23.611 105.704 20.9734 106.342C20.9078 102.344 25.0799 101.17 24.9717 97.9671C24.8733 94.8856 25.4261 95.0035 26.7466 92.4676C27.0631 91.8609 27.4657 88.8927 25.2136 86.1995C22.8351 83.356 22.3149 83.0656 23.9913 78.6295C25.9482 73.4387 20.0401 73.9467 20.9734 65.2392C21.4114 61.1534 16.9711 60.1836 17.7617 56.0522C18.3817 52.7845 18.5087 52.0922 17.664 49.162" fill="#359859"/>
<path fill-rule="evenodd" clip-rule="evenodd" d="M33.1859 95.1807H183.806V110.411H33.1859V95.1807Z" fill="#1F2937"/>
<path fill-rule="evenodd" clip-rule="evenodd" d="M42.4125 36.4686H174.582V95.1805H42.4125V36.4686Z" fill="#DCFCE7"/>
<path fill-rule="evenodd" clip-rule="evenodd" d="M42.4154 36.4694H174.585V95.1805H153.676L157.928 77.4214C160.372 67.2039 155.251 57.1931 146.41 51.4982L42.4154 36.4694Z" fill="#B7E8C8"/>
<path fill-rule="evenodd" clip-rule="evenodd" d="M77.2656 41.8729V72.3585C77.2656 73.1064 76.6584 73.7124 75.9121 73.7124H52.8468C52.0955 73.7124 51.4884 73.1064 51.4884 72.3585V41.8729C51.4884 41.125 52.0955 40.519 52.8468 40.519H75.9121C76.6584 40.519 77.2656 41.125 77.2656 41.8729Z" fill="#8CD1A4"/>
<path fill-rule="evenodd" clip-rule="evenodd" d="M54.2023 43.2267V55.7612H74.5524V43.2267H54.2023ZM54.2023 58.4698V71.0028H74.5524V58.4698H54.2023Z" fill="#769A83"/>
<path fill-rule="evenodd" clip-rule="evenodd" d="M165.503 41.8729V72.3585C165.503 73.1064 164.896 73.7124 164.148 73.7124H141.084C140.333 73.7124 139.726 73.1064 139.726 72.3585V41.8729C139.726 41.125 140.333 40.519 141.084 40.519H164.148C164.896 40.519 165.503 41.125 165.503 41.8729Z" fill="#8CD1A4"/>
<path fill-rule="evenodd" clip-rule="evenodd" d="M142.44 43.2267V55.7612H162.792V43.2267H142.44ZM142.44 58.4698V71.0028H162.792V58.4698H142.44Z" fill="#769A83"/>
<path fill-rule="evenodd" clip-rule="evenodd" d="M189.882 36.4692H27.1152L67.8042 5.32556H149.193L189.882 36.4692Z" fill="#1F98A4"/>
<path fill-rule="evenodd" clip-rule="evenodd" d="M145.462 5.32556H149.19L189.882 36.4684H27.1099L27.1755 36.4181L137.413 28.968C142.685 28.6113 147.268 25.2211 149.143 20.288C151.023 15.3545 149.847 9.7817 146.14 6.0205L145.462 5.32556Z" fill="#117D88"/>
<path fill-rule="evenodd" clip-rule="evenodd" d="M108.498 40.4215L131.942 63.6273H85.0597L108.498 40.4215Z" fill="#1F98A4"/>
<path fill-rule="evenodd" clip-rule="evenodd" d="M90.4481 63.6269L108.496 45.7631L126.549 63.6269V110.411H90.4481V63.6269Z" fill="#BAE9CA"/>
<path fill-rule="evenodd" clip-rule="evenodd" d="M101.917 52.2775L108.5 45.7623L126.55 63.6269V97.5672L122.526 98.1957L123.55 63.6757L101.917 52.2775Z" fill="#9FDBB4"/>
<path fill-rule="evenodd" clip-rule="evenodd" d="M99.0454 64.2474H117.952V95.1808H99.0454V64.2474Z" fill="#4ADE80"/>
<path fill-rule="evenodd" clip-rule="evenodd" d="M114.914 64.2474H117.951V95.1808H109.932L114.914 64.2474Z" fill="#39BE6A"/>
<path fill-rule="evenodd" clip-rule="evenodd" d="M114.583 78.4391C115.511 78.4391 116.265 79.2129 116.265 80.1672C116.265 81.1218 115.511 81.8962 114.583 81.8962C113.654 81.8962 112.901 81.1218 112.901 80.1672C112.901 79.2129 113.654 78.4391 114.583 78.4391Z" fill="white"/>
<path fill-rule="evenodd" clip-rule="evenodd" d="M96.1785 108.73C95.9276 108.73 95.7252 108.528 95.7252 108.279C95.7252 108.03 95.9276 107.827 96.1785 107.827H120.82C121.068 107.827 121.272 108.03 121.272 108.279C121.272 108.528 121.068 108.73 120.82 108.73H96.1785ZM96.1785 103.188C95.9276 103.188 95.7252 102.986 95.7252 102.736C95.7252 102.487 95.9276 102.285 96.1785 102.285H120.82C121.068 102.285 121.272 102.487 121.272 102.736C121.272 102.986 121.068 103.188 120.82 103.188H96.1785ZM96.1785 105.819C95.9276 105.819 95.7252 105.617 95.7252 105.368C95.7252 105.12 95.9276 104.917 96.1785 104.917H120.82C121.068 104.917 121.272 105.12 121.272 105.368C121.272 105.617 121.068 105.819 120.82 105.819H96.1785ZM96.1785 100.277C95.9276 100.277 95.7252 100.075 95.7252 99.8255C95.7252 99.5763 95.9276 99.3745 96.1785 99.3745H120.82C121.068 99.3745 121.272 99.5763 121.272 99.8255C121.272 100.075 121.068 100.277 120.82 100.277H96.1785Z" fill="#1F2937"/>
<path fill-rule="evenodd" clip-rule="evenodd" d="M90.6902 85.849C89.9061 85.849 89.1526 86.1596 88.5982 86.7135C88.0454 87.2672 87.7316 88.0188 87.7316 88.8023V110.412H96.1766V88.8023C96.1766 88.0188 95.8644 87.2672 95.31 86.7135C94.7556 86.1596 94.0004 85.849 93.2164 85.849H90.6902ZM123.778 85.849C122.994 85.849 122.239 86.1596 121.685 86.7135C121.132 87.2672 120.818 88.0188 120.818 88.8023V110.412H129.263V88.8023C129.263 88.0188 128.951 87.2672 128.397 86.7135C127.842 86.1596 127.089 85.849 126.305 85.849H123.778Z" fill="#1F98A4"/>
<path fill-rule="evenodd" clip-rule="evenodd" d="M48.9731 103.642C49.3421 102.814 49.9455 101.999 51.512 101.406C51.8155 99.4283 52.4584 96.8766 55.2748 96.6842C55.7652 94.8248 56.7634 94.5997 58.2479 94.9728C58.8252 93.3907 60.0225 91.2796 62.6306 90.7328C65.3387 90.1638 67.0846 91.2394 67.8703 91.8907C68.387 91.2078 69.3753 90.5073 71.1845 91.1806C71.8702 89.9162 73.425 88.302 76.9352 87.9402C80.3946 87.584 82.1352 88.4139 83.0111 89.0966C83.7443 87.9339 85.1423 86.8427 87.8471 87.9938C87.7651 88.2542 87.7318 88.5267 87.7318 88.8023V110.411H41.3193C41.4342 109.618 42.2757 103.718 48.9731 103.642Z" fill="#4ADE80"/>
<path fill-rule="evenodd" clip-rule="evenodd" d="M87.731 91.2502V110.411H49.0364C50.8981 106.734 53.2507 107.508 55.9933 107.639C56.8872 106.623 56.8921 106.415 60.6419 106.187C61.3882 104.541 61.8051 102.055 65.3466 101.256C69.8427 100.242 71.421 102.642 72.6447 101.055C74.4162 98.7684 77.3503 100.428 77.6505 99.6967C78.7052 97.1413 79.0646 97.2389 81.8122 96.8282C83.1014 96.6357 83.2399 92.0515 87.731 91.2502Z" fill="#359859"/>
<path fill-rule="evenodd" clip-rule="evenodd" d="M140.802 110.412C138.363 108.568 134.678 105.203 136.4 102.721C138.779 99.2953 144.227 103.947 145.382 104.806C144.201 103.104 140.185 98.1773 142.95 97.2209C144.899 96.5476 148.135 98.5799 148.224 98.622C147.412 94.6642 144.852 87.5831 149.768 86.1714C157.09 84.0714 158.474 99.9659 158.67 101.094C158.735 100.943 160.892 95.646 164.837 96.6739C167.474 97.3619 166.578 102.103 166.629 102.544C167.02 102.067 172.089 95.7512 176.229 97.3696C178.027 98.0726 177.593 100.38 177.237 101.7C176.346 104.993 174.207 108.387 172.819 110.412H140.802Z" fill="#4ADE80"/>
<path fill-rule="evenodd" clip-rule="evenodd" d="M149.581 86.2281C149.646 86.2085 149.712 86.1894 149.768 86.1714C157.089 84.0714 158.473 99.9651 158.668 101.093C158.734 100.942 160.89 95.6452 164.835 96.6731C167.475 97.3611 166.577 102.102 166.629 102.543C167.02 102.067 172.088 95.7512 176.228 97.3696C178.026 98.0724 177.591 100.38 177.235 101.699C176.346 104.993 174.205 108.386 172.817 110.411H166.29C167.969 108.697 168.569 107.773 168.504 106.337C168.422 104.587 165.686 105.24 165.482 105.138C164.441 104.614 164.875 102.749 163.781 101.807C161.363 99.7301 159.029 104.536 156.611 102.589C155.253 101.494 154.715 89.3126 149.581 86.2281Z" fill="#359859"/>
<path fill-rule="evenodd" clip-rule="evenodd" d="M150.464 89.1925C150.431 89.1925 150.382 89.1929 150.349 89.2093C150.217 89.2601 150.135 89.4139 150.184 89.5548L157.615 110.413H158.191L150.696 89.374C150.664 89.2692 150.566 89.2015 150.459 89.1949L150.464 89.1925ZM145.553 99.7814C145.504 99.7814 145.455 99.8006 145.405 99.8334C145.291 99.9218 145.257 100.091 145.356 100.212L152.852 110.411L153.517 110.41L145.788 99.8909C145.739 99.8156 145.641 99.7781 145.553 99.7814ZM163.005 99.7814C162.874 99.7814 162.777 99.8814 162.747 100.011L161.131 110.412H161.679L163.285 100.093C163.302 99.9459 163.202 99.8067 163.058 99.7838C163.042 99.7838 163.026 99.7838 163.01 99.7838L163.005 99.7814ZM173.951 99.7814C173.852 99.7814 173.761 99.8273 173.704 99.9173L167.61 110.412L168.243 110.413L174.175 100.189C174.257 100.06 174.208 99.8935 174.077 99.8182C174.028 99.7936 173.995 99.7838 173.946 99.7822L173.951 99.7814ZM139.77 103.992C139.704 103.992 139.654 104.018 139.599 104.061C139.484 104.161 139.484 104.331 139.583 104.443L144.917 110.411H145.634L139.98 104.082C139.931 104.02 139.849 103.989 139.77 103.992Z" fill="white"/>
<path fill-rule="evenodd" clip-rule="evenodd" d="M216.999 110.5H-0.000244141V130H216.999V110.5Z" fill="white"/>
<path fill-rule="evenodd" clip-rule="evenodd" d="M216.999 115.267H-0.000244141V110.5H216.999V115.267Z" fill="#4ADE80"/>
<path fill-rule="evenodd" clip-rule="evenodd" d="M108.499 110.995C161.61 110.995 204.665 114.191 204.665 118.134C204.665 122.077 161.61 125.273 108.499 125.273C55.387 125.273 12.3322 122.077 12.3322 118.134C12.3322 114.191 55.387 110.995 108.499 110.995Z" fill="#1F2937"/>
<path fill-rule="evenodd" clip-rule="evenodd" d="M108.499 110.995C69.128 110.995 35.3025 112.751 20.4249 115.267H196.571C181.695 112.751 147.869 110.995 108.499 110.995Z" fill="#26BF5E"/>
</g>
<defs>
<clipPath id="clip0_67_5046">
<rect width="217" height="130" fill="white"/>
</clipPath>
</defs>
</svg>
