<svg width="244" height="130" viewBox="0 0 244 130" fill="none" xmlns="http://www.w3.org/2000/svg">
<g clip-path="url(#clip0_67_5096)">
<mask id="mask0_67_5096" style="mask-type:luminance" maskUnits="userSpaceOnUse" x="0" y="0" width="244" height="130">
<path d="M0 0H244V130H0V0Z" fill="white"/>
</mask>
<g mask="url(#mask0_67_5096)">
<path d="M0 130H244V0H0V130Z" fill="white"/>
</g>
<path d="M92.2194 68.506C90.4102 67.6431 88.8195 66.451 88.7598 66.352C88.7001 66.2526 88.0837 64.8442 87.9045 64.7735C87.7258 64.7033 83.5105 65.6368 83.5105 65.6368C83.5105 65.6368 84.5343 68.6858 85.3646 69.5351C86.1945 70.3845 87.0696 70.6921 88.1036 70.9058C89.1376 71.1191 91.6229 71.6955 91.7026 71.5761C91.7822 71.4572 92.2194 68.506 92.2194 68.506Z" fill="#E48F6B"/>
<path d="M92.0304 67.5835C93.0597 68.1049 94.7745 68.5073 95.6696 68.7159C96.5642 68.9245 97.9062 69.1924 98.1896 69.2969C98.473 69.401 98.8457 70.0714 99.0101 70.2203C99.174 70.3693 98.2942 72.6189 97.8316 72.8576C97.3695 73.0958 95.1718 73.4534 94.7719 73.2748C94.3721 73.0958 93.119 72.5744 92.6569 72.4403C92.1947 72.3062 90.957 71.927 90.7481 71.8559C90.5393 71.7848 90.4647 70.5779 91.0612 69.6841C91.6576 68.7904 92.0304 67.5835 92.0304 67.5835Z" fill="#1F2937"/>
<path d="M102.693 68.7608C101.784 69.2969 93.7159 74.4665 93.4923 74.5409C93.2682 74.6154 92.5972 73.4682 92.7166 73.0734C92.8361 72.679 101.948 67.107 102.067 67.0621C102.186 67.0173 102.693 68.7608 102.693 68.7608Z" fill="#1F2937"/>
<path d="M97.3535 69.9225C97.3297 70.7815 97.5335 71.1395 97.2925 71.5665C97.0514 71.9935 96.4249 71.8941 96.2462 71.616C96.067 71.338 96.0077 71.1594 95.8785 71.0498C95.7488 70.9406 95.1029 71.0498 94.6754 70.5534C94.2476 70.0566 94.3569 69.1328 95.0728 69.0237C95.7887 68.9145 97.3535 69.9225 97.3535 69.9225Z" fill="#1F2937"/>
<path d="M97.8469 71.6557C97.4589 72.1623 97.2302 72.1623 97.1806 72.2021C97.131 72.2418 96.4151 71.7649 96.0771 71.6557C95.7391 71.5466 95.5273 71.9532 95.4921 72.0501C95.4565 72.1471 95.3938 72.2071 95.3091 72.2321C95.224 72.2571 94.8876 72.3235 94.8063 72.5457C94.725 72.7683 94.8453 72.8775 94.8453 72.8775C94.8453 72.8775 94.5411 73.0163 94.4242 73.2846C94.3073 73.5528 95.3388 74.0196 95.7725 74.1885C96.2063 74.3573 96.5342 74.3374 96.7731 74.268C97.0116 74.1982 97.0514 74.0395 97.1111 74.0196C97.1709 73.9997 97.608 73.9896 97.8469 73.7911C98.0854 73.5926 98.3142 73.2846 98.3142 73.2846C98.3142 73.2846 98.6323 72.9769 98.7018 72.8474C98.7712 72.7183 99.1991 72.0929 99.388 71.7404C99.5765 71.3875 99.2885 70.8416 99.2885 70.8416L97.8469 71.6557Z" fill="#1F2937"/>
<path d="M97.4153 73.5448C97.1361 73.5448 96.9489 73.4453 96.7193 73.3243L96.6113 73.2676C96.233 73.0729 95.726 72.7885 95.4574 72.5376C95.3693 72.4559 95.332 72.3417 95.349 72.2071C95.3778 71.9811 95.5569 71.7365 95.6997 71.6591C95.7446 71.6345 95.8009 71.651 95.8255 71.6959C95.8501 71.7408 95.8331 71.797 95.7882 71.8216C95.7001 71.8694 95.554 72.0624 95.5328 72.2304C95.5231 72.3057 95.54 72.3616 95.5836 72.4026C95.784 72.5896 96.1686 72.8317 96.696 73.103L96.8057 73.1605C97.2145 73.3763 97.4394 73.4952 98.362 73.1C98.4091 73.0797 98.4633 73.1017 98.4836 73.1487C98.504 73.1956 98.4819 73.2502 98.4349 73.2701C97.9685 73.4699 97.6576 73.5448 97.4153 73.5448Z" fill="#1F2937"/>
<path d="M96.7731 74.0377L96.765 74.0373C96.5909 74.0224 94.8326 73.1092 94.7203 72.8663C94.6644 72.7457 94.6657 72.6171 94.7233 72.5037C94.8173 72.3175 95.0516 72.1854 95.4192 72.1114C95.4688 72.0999 95.5184 72.1334 95.5285 72.1837C95.5387 72.2337 95.5061 72.2823 95.4561 72.2925C95.0706 72.3704 94.9346 72.4956 94.8885 72.587C94.8482 72.6666 94.8664 72.7402 94.8885 72.7885C94.9914 72.9582 96.5922 73.8265 96.7816 73.8527C96.8311 73.8599 96.8684 73.9052 96.8629 73.9552C96.8578 74.0021 96.8197 74.0377 96.7731 74.0377Z" fill="#1F2937"/>
<path d="M97.2945 70.4023C97.247 70.4023 97.2068 70.3663 97.2026 70.3181C97.2013 70.3029 97.1729 69.9503 97.3267 69.5052C97.3432 69.4569 97.3957 69.4311 97.4444 69.4476C97.4927 69.4645 97.5186 69.517 97.5016 69.5653C97.3614 69.9715 97.3868 70.2986 97.3872 70.302C97.3915 70.3528 97.3534 70.3976 97.3025 70.4019L97.2945 70.4023Z" fill="#1F2937"/>
<path d="M95.0731 71.4602H95.0672C94.2471 71.4085 93.9311 70.8758 93.7646 70.4797C93.7447 70.4323 93.7671 70.3781 93.8142 70.3586C93.8608 70.3387 93.9154 70.3608 93.9353 70.4081C94.1052 70.8123 94.3737 71.2312 95.0786 71.2752C95.1294 71.2782 95.1684 71.3222 95.1654 71.3734C95.1621 71.4225 95.1214 71.4602 95.0731 71.4602Z" fill="#1F2937"/>
<path d="M103.673 64.4845C104.667 66.6698 105.635 68.9643 105.496 69.1031C105.357 69.2419 104.09 70.0468 103.931 70.1259C103.772 70.2055 102.559 70.0366 102.44 69.9224C102.321 69.8085 100.829 65.5175 100.829 65.4181C100.829 65.319 102.36 64.5243 102.798 64.4845C103.236 64.4452 103.673 64.4845 103.673 64.4845Z" fill="#C5D7E8"/>
<path d="M103.756 70.1466C103.372 70.1466 102.538 70.0163 102.44 69.9223C102.409 69.8923 102.282 69.5736 102.113 69.1179C101.935 68.638 101.709 68.0066 101.497 67.401C101.145 66.3964 100.829 65.4637 100.829 65.418C100.829 65.3994 100.884 65.3558 100.976 65.297C100.976 65.2966 100.977 65.2961 100.978 65.2957C100.979 65.2953 100.979 65.2949 100.98 65.2944C101.256 65.1188 101.857 64.8112 102.316 64.6296C102.317 64.6318 103.946 68.9097 103.946 69.103C103.946 69.1678 104.098 69.1894 104.309 69.1894C104.728 69.1894 105.377 69.103 105.496 69.103C105.495 69.1043 105.493 69.1052 105.492 69.1064C105.337 69.2545 104.089 70.0472 103.931 70.1259C103.903 70.1403 103.84 70.1466 103.756 70.1466Z" fill="#A3B5C5"/>
<path d="M102.52 69.9664C102.489 69.9664 102.459 69.9499 102.443 69.9211C102.42 69.8784 102.436 69.825 102.478 69.8022L103.904 69.0261C103.947 69.0028 104 69.0189 104.023 69.0612C104.046 69.1039 104.031 69.1568 103.988 69.1801L102.562 69.9558C102.548 69.963 102.535 69.9664 102.52 69.9664Z" fill="#768997"/>
<path d="M86.6024 68.6157C86.5579 68.6157 86.5151 68.592 86.4931 68.5497C86.4613 68.4896 86.4846 68.4152 86.5448 68.3834C86.8485 68.2235 87.1171 67.8485 87.4276 67.4148C87.6525 67.0999 87.9079 66.7436 88.2134 66.4258C88.2608 66.3763 88.3387 66.375 88.3879 66.422C88.437 66.4694 88.4387 66.5473 88.3917 66.5963C88.0981 66.9019 87.8592 67.2353 87.6284 67.5578C87.2996 68.0178 87.0154 68.4147 86.66 68.6014C86.6414 68.6115 86.6219 68.6157 86.6024 68.6157Z" fill="#CE5C48"/>
<path d="M63.848 80.1737C64.0603 83.1461 64.9104 83.783 69.6921 83.783C72.3074 83.783 74.2678 83.8541 75.6992 84.0209C77.1856 84.1952 78.1036 84.472 78.5945 84.885C78.7169 84.987 78.8127 85.0974 78.8838 85.2159C78.9389 85.3086 79.1206 85.9827 79.3875 87.0398C79.5519 87.6906 79.7484 88.4866 79.9674 89.3817C80.6541 92.181 81.5627 95.9439 82.3955 99.2391C83.3414 102.975 84.1912 106.107 84.5152 106.553C84.8329 106.989 85.883 106.841 87.0742 106.484C87.5906 106.329 88.1345 106.134 88.6564 105.932C90.1547 105.349 91.4755 104.695 91.4755 104.695C91.4755 104.695 91.3924 104.225 91.245 103.413C90.8498 101.225 89.9886 96.5562 89.0368 91.9355C88.919 91.3655 88.8 90.7963 88.6797 90.2331C87.9816 86.9399 87.2589 83.8351 86.6523 81.8618C86.5727 81.6028 86.4951 81.3637 86.4197 81.1462C86.1846 80.4649 85.9711 79.9956 85.7907 79.8026C85.7907 79.8026 85.7831 79.7937 85.767 79.7768L85.7437 79.7535C85.4802 79.4882 85.1019 79.2165 84.6427 78.9457C82.911 77.9233 80.0238 76.9077 77.8032 76.2069C76.5438 75.8087 75.4992 75.5137 75.0007 75.377C74.799 75.3208 74.6863 75.2907 74.6863 75.2907L73.5557 74.9767L68.3747 73.5392L65.1231 72.637C65.1231 72.637 65.0167 72.9641 64.8638 73.5002C64.8117 73.6847 64.7541 73.8938 64.6935 74.1232C64.2729 75.7156 63.712 78.2707 63.848 80.1737Z" fill="#1F98A4"/>
<path d="M78.5348 83.1903C78.9864 84.351 79.2444 85.6134 79.4888 86.8317C79.5354 87.0644 79.1838 87.1652 79.13 86.9307C78.85 85.7065 78.4645 84.5093 78.1824 83.2872C78.1286 83.054 78.451 82.9744 78.5348 83.1903Z" fill="#1F98A4"/>
<path d="M80.2128 84.8839C81.6954 89.8994 83.12 94.9322 84.5945 99.9502C85.0101 101.364 85.4277 102.778 85.8471 104.192C85.881 104.307 85.7014 104.356 85.6671 104.241C84.1654 99.2313 82.6925 94.2128 81.2434 89.1871C80.8346 87.7708 80.4288 86.3536 80.0382 84.9317C80.0073 84.8195 80.1797 84.7726 80.2128 84.8839Z" fill="#1F98A4"/>
<path d="M67.9346 79.6271C69.6595 80.7896 71.6962 81.2894 73.7024 81.7273C74.2751 81.8526 74.8656 82.0231 75.4489 81.8661C75.8187 81.7667 76.2211 81.6046 76.5664 81.8577C76.7104 81.9635 76.7981 82.126 76.9374 82.2352C77.253 82.4836 77.5288 82.1641 77.7008 81.9131C77.8931 81.6321 78.1201 81.3401 78.4984 81.3651C78.958 81.396 79.2817 81.8433 79.4888 82.2055C79.7514 82.6647 79.909 83.1666 79.9785 83.6896C79.992 83.7924 79.8107 83.8178 79.7959 83.7142C79.7235 83.219 79.5693 82.74 79.3181 82.3054C79.0749 81.8852 78.5378 81.2445 78.06 81.7739C77.816 82.0439 77.6677 82.4632 77.2619 82.5343C76.9078 82.597 76.7396 82.3012 76.5176 82.0917C76.1241 81.721 75.5107 82.1213 75.0465 82.1421C74.5458 82.1645 74.0417 82.0164 73.5571 81.9106C72.6014 81.7015 71.6466 81.4794 70.7164 81.1755C69.6993 80.8433 68.7157 80.4096 67.83 79.8053C67.7211 79.7308 67.8236 79.5522 67.9346 79.6271Z" fill="#1F98A4"/>
<path d="M88.6187 103.981C88.6187 103.981 84.4094 105.704 84.5153 106.553C84.6216 107.402 87.9901 106.229 88.5374 106.019C89.0847 105.81 88.6187 103.981 88.6187 103.981Z" fill="#1F2937"/>
<path d="M97.7788 112.037V112.04C97.7788 112.04 97.7724 112.039 97.7618 112.039H97.7597C97.2692 111.981 87.5843 110.84 87.2535 111.56C87.2484 111.572 87.242 111.585 87.2357 111.596C87.0463 111.984 86.9324 111.781 86.8773 111.331C86.799 110.699 86.835 109.578 86.9366 108.919C87.0031 108.487 86.9777 107.995 86.9082 107.509C86.757 106.448 86.3923 105.385 86.3025 105.082C86.94 104.657 90.3538 102.989 91.2354 103.464C91.6064 104.736 92.1813 105.909 92.6798 106.686C92.8162 106.899 92.9463 107.082 93.0657 107.229C93.6342 107.93 96.2652 110.326 96.9714 110.527C97.6551 110.722 97.7711 111.954 97.7788 112.037Z" fill="#E7876F"/>
<path d="M77.6936 75.7207C79.4308 76.4799 81.1548 77.262 82.9141 77.9695C84.1446 78.4646 85.4883 78.9542 86.2758 80.0896C86.7333 80.7494 86.9603 81.5509 87.1887 82.3109C87.4403 83.15 87.6576 83.9994 87.8516 84.8533C88.243 86.5752 88.5709 88.3268 88.7962 90.0787C88.82 90.2649 88.5073 90.3055 88.4684 90.1232C88.1159 88.4745 87.8596 86.808 87.4924 85.1618C87.309 84.3396 87.1048 83.5224 86.8697 82.7133C86.6401 81.9228 86.4249 81.071 85.9653 80.377C85.1071 79.0816 83.4021 78.6259 82.0423 78.0673C80.511 77.4384 78.9805 76.7927 77.4958 76.0584C77.2666 75.945 77.4674 75.6217 77.6936 75.7207Z" fill="#1F98A4"/>
<path d="M97.7788 112.037L97.7618 112.039H97.7597C96.2716 112.177 94.3094 112.215 92.424 112.105C89.7832 111.951 87.9965 111.912 87.2357 111.596C87.0624 111.525 86.9417 111.438 86.8773 111.331C86.799 110.699 86.835 109.578 86.9366 108.919C87.0031 108.487 86.9777 107.995 86.9082 107.509C88.7077 107.147 90.8274 106.914 92.6798 106.686C92.8162 106.899 92.9463 107.082 93.0657 107.229C93.6342 107.93 96.2652 110.326 96.9714 110.527C97.6551 110.722 97.7711 111.954 97.7788 112.037Z" fill="white"/>
<path d="M86.9785 108.46C86.9785 108.46 90.2962 109.795 91.4022 109.384C92.5083 108.974 91.8047 107.537 92.1063 107.331C92.4079 107.126 93.6143 106.921 93.9159 107.126C94.2175 107.331 95.9496 109.138 97.4598 109.54C99.0538 109.965 100.115 110.308 100.618 110.822C101.121 111.335 101.121 111.848 101.02 111.951C100.92 112.054 98.742 112.772 94.2175 112.669C89.693 112.567 86.8777 112.361 86.6769 112.054C86.4757 111.746 86.8777 109.487 86.9785 108.46Z" fill="#A44B1A"/>
<path d="M94.2175 112.669C89.693 112.567 86.8778 112.361 86.677 112.054C86.5897 111.92 86.616 111.422 86.6812 110.817C87.353 110.905 88.4976 111.05 90.0955 111.233C92.8099 111.54 92.5083 111.848 95.022 112.054C97.2395 112.235 99.9646 111.9 101.051 111.567C101.092 111.759 101.068 111.902 101.02 111.951C100.92 112.054 98.742 112.772 94.2175 112.669Z" fill="#1F2937"/>
<path d="M64.6279 74.0585C64.6406 74.0894 64.6631 74.1105 64.6936 74.1232C64.8702 74.2028 65.3036 74.0204 65.448 74.0014C65.7945 73.9578 66.1465 73.9641 66.4918 74.0064C67.1844 74.0923 67.8528 74.3166 68.5149 74.5384C69.1228 74.7432 69.7328 74.948 70.3415 75.152L70.3436 75.1528C70.6689 75.2624 70.993 75.3716 71.3179 75.4808C71.8588 75.6627 72.418 75.846 72.9852 75.7986C73.4058 75.7635 73.8044 75.6018 74.2145 75.5002C74.4729 75.4363 74.7364 75.397 75.0007 75.3771C75.3815 75.3475 75.7662 75.3576 76.1453 75.3961C76.5863 75.4406 77.023 75.5223 77.464 75.5574C77.8444 75.5883 78.2269 75.5849 78.6085 75.5819C79.6476 75.5735 80.6867 75.5637 81.7263 75.5553C81.7538 75.4744 81.7826 75.3919 81.8059 75.309C81.8686 75.0999 81.908 74.8841 81.8665 74.6721C81.8101 74.3843 81.6136 74.1486 81.4712 73.893C81.4361 73.8304 81.4128 73.7665 81.3967 73.7039C81.3861 73.6637 81.3789 73.6235 81.3734 73.5828C81.3382 73.3272 81.3806 73.086 81.1832 72.8931C80.9375 72.6531 80.5063 72.5152 80.1852 72.4166C79.7497 72.2816 79.299 72.2113 78.8445 72.1656C78.5395 72.1351 78.2324 72.1136 77.9274 72.0916C77.7317 72.0767 77.5351 72.0607 77.3398 72.0437C75.7204 71.9003 74.1103 71.6722 72.5006 71.4441C71.1734 71.2549 69.8421 71.0662 68.5501 70.7061C68.06 70.5694 67.5787 70.409 67.0941 70.2529C66.7625 70.1466 66.1262 69.825 65.7958 70.0798C65.7276 70.1331 65.6831 70.2105 65.6458 70.288C65.3048 70.9756 65.257 71.7657 65.0549 72.5075C65.038 72.5744 65.0189 72.6404 64.9977 72.706C64.9147 72.9671 64.8063 73.221 64.7215 73.4808C64.6821 73.6031 64.6483 73.7263 64.6237 73.8528C64.611 73.9218 64.6012 73.9937 64.6279 74.0585Z" fill="#1F98A4"/>
<path d="M83.8244 55.4667C86.2741 57.1848 86.8409 58.1678 87.1988 59.062C87.5568 59.9557 88.1532 64.4964 88.1833 64.7736C88.2129 65.0508 87.597 65.8552 86.6968 66.0042C85.7971 66.1531 84.3886 66.1163 84.3886 66.1163C84.3886 66.1163 82.0325 70.5796 81.8834 70.8026C81.7343 71.0265 75.8945 73.472 74.4759 73.323C73.0572 73.1741 68.4141 74.3818 66.893 73.6925C66.8315 73.6645 68.1396 63.6505 69.3329 62.995C70.5258 62.3395 74.1349 54.8522 74.8804 54.454C75.6264 54.0562 77.6898 53.6322 78.1045 53.6952C78.5192 53.7583 83.8244 55.4667 83.8244 55.4667Z" fill="#1F2937"/>
<path d="M78.24 53.3376C76.0436 53.5196 73.5922 54.0685 71.8029 55.2394C70.0132 56.4099 68.3188 58.6743 67.3644 60.373C66.41 62.0712 65.1371 64.1629 65.0778 64.7588C65.0181 65.3546 69.909 68.7426 70.0785 68.4925C70.2475 68.2419 72.7929 65.0211 74.1946 62.6971C75.5963 60.373 78.24 53.3376 78.24 53.3376Z" fill="#1F2937"/>
<path d="M74.4928 54.0203C76.0602 55.4667 76.1885 57.9504 75.8772 59.9558C75.3421 63.4026 72.8412 70.8344 67.4178 68.9542C65.6014 68.3245 67.7025 74.5444 67.7025 74.5444C67.7025 74.5444 79.6299 74.8622 81.0032 72.5804C82.5256 70.0507 84.1451 66.89 84.3369 64.7699C84.5657 62.2414 83.2318 56.1717 83.2318 56.1717C83.2318 56.1717 82.5951 56.859 82.6747 57.0177C82.7544 57.1768 83.325 60.9219 82.4684 63.4462C82.0601 64.6501 76.308 64.0602 76.1885 63.8816C76.0695 63.7026 77.0048 60.7226 77.045 58.9355C77.123 55.4667 76.0602 53.6382 76.0602 53.6382L74.4928 54.0203Z" fill="#1F98A4"/>
<path d="M84.5187 66.6342C84.506 66.6342 84.4933 66.6321 84.4806 66.6283C84.4158 66.6071 84.3802 66.5377 84.4009 66.473C85.2113 63.969 85.7222 62.1092 85.8386 61.2357C85.8475 61.168 85.9111 61.1194 85.9772 61.1295C86.0449 61.1384 86.0924 61.2006 86.0835 61.2679C85.9649 62.1561 85.4506 64.0312 84.636 66.5487C84.6191 66.6008 84.5708 66.6342 84.5187 66.6342Z" fill="#1F2937"/>
<path d="M83.2241 55.393C83.2241 55.393 83.7561 55.4472 83.3956 55.9927C81.8609 58.3168 82.5061 59.5089 81.658 60.0992C81.3666 60.3019 80.3317 60.0721 79.4735 58.3468C78.0421 55.4675 78.0053 53.3406 77.9583 53.3626C77.9659 53.3592 78.9516 53.3377 79.2651 52.6974C79.7408 51.7241 79.487 50.3179 79.487 50.3179L82.3849 54.2543L83.2241 55.393Z" fill="#D47F61"/>
<path d="M86.0038 47.4606C85.5039 47.0899 84.6347 46.3879 82.9216 46.0849C82.3972 45.9922 81.9219 46.0642 81.5144 46.208C81.5174 46.1932 81.5204 46.1784 81.5208 46.1615C81.5246 45.6207 81.5462 45.0121 80.9315 44.809C80.4537 44.6512 80.0288 44.8992 79.7704 45.2804C78.9601 44.9986 78.0328 45.313 77.7189 46.1725C77.4046 47.0315 77.9638 47.9803 78.8847 48.0755C78.9211 48.0793 78.9525 48.0738 78.98 48.0628C78.9897 48.0628 78.9999 48.062 79.0101 48.0603C78.6674 48.7145 79.0359 51.0043 79.0359 51.0043L81.359 52.5574C81.359 52.5574 85.6729 52.8147 86.3571 50.8668C87.153 48.5986 86.5549 47.8694 86.0038 47.4606Z" fill="#1F2937"/>
<path d="M80.7875 46.2758C80.0771 46.6198 79.1295 47.1509 78.8304 47.9274C78.7411 48.1589 79.0897 48.3273 79.1812 48.0942C79.4468 47.4196 80.2948 46.9309 80.9108 46.6101C81.1099 46.5064 80.9968 46.1746 80.7875 46.2758Z" fill="#1F2937"/>
<path d="M85.6264 53.4108C85.4633 53.966 85.2705 54.5293 85.1697 55.1002C85.0088 56.0062 84.248 58.1115 81.481 57.1471C79.435 56.434 79.2007 53.0059 79.2007 53.0059C79.2007 53.0059 77.6775 52.2175 78.467 50.6962C79.2562 49.1744 80.0615 51.0817 80.0615 51.0817C80.0615 51.0817 80.2449 52.1007 80.2805 51.8992C80.3161 51.6978 80.6783 50.8273 81.0341 50.5789C81.3899 50.3305 81.9118 50.3187 81.983 49.9162C82.0541 49.5134 81.5746 48.7017 81.628 48.4C81.6818 48.0978 82.1024 48.0682 82.3218 48.0035C82.5413 47.9383 83.3241 48.9539 84.7042 49.5151C85.0808 49.6678 85.484 49.824 85.8941 49.8121C86.3168 49.7999 86.6578 49.5891 86.6968 49.557C86.7023 49.6336 86.5587 50.2307 86.502 50.4384C86.4126 50.7672 86.3177 51.0944 86.2215 51.4215C86.1199 51.7672 86.0169 52.1125 85.9132 52.4578C85.8335 52.7227 85.753 52.9877 85.6738 53.2526C85.6577 53.3055 85.642 53.3579 85.6264 53.4108Z" fill="#E48F6B"/>
<path d="M82.7272 51.5709C82.6811 51.51 82.6226 51.4715 82.5519 51.4694L82.5282 51.466L82.5193 51.4639L82.5112 51.4647C82.2672 51.4537 82.1537 51.7728 82.2426 51.9734C82.2511 52.0195 82.2685 52.0627 82.3045 52.094C82.3392 52.1244 82.3854 52.1422 82.4324 52.1465L82.4443 52.1536C82.5536 52.1913 82.6408 52.1384 82.6976 52.0487C82.8196 51.9302 82.8348 51.7144 82.7272 51.5709Z" fill="#1F2937"/>
<path d="M84.1031 53.8765C84.1091 53.7935 84.0434 53.7161 83.9595 53.711C83.8769 53.7059 83.7943 53.7008 83.7117 53.6953C83.6283 53.6903 83.552 53.755 83.5457 53.8392C83.5397 53.9222 83.6058 53.9996 83.6893 54.0047C83.7723 54.0098 83.8545 54.0153 83.9371 54.0203C84.0209 54.0254 84.0968 53.9607 84.1031 53.8765Z" fill="#CB7453"/>
<path d="M81.9664 50.9208C81.9787 50.9136 81.9906 50.9064 82.0029 50.8992L82.005 50.898L82.0046 50.8984C82.0512 50.8722 82.0982 50.8468 82.1469 50.8248C82.1969 50.8019 82.2452 50.7808 82.2922 50.7592C82.382 50.7232 82.4879 50.6817 82.6124 50.636C82.8162 50.5611 83.0314 50.5307 83.2385 50.4668C83.4296 50.4079 83.5333 50.7004 83.3423 50.7588C83.1352 50.8226 82.9204 50.854 82.7162 50.928C82.5091 51.0038 82.3125 51.1062 82.1092 51.1904C81.9389 51.2606 81.8394 51.0194 81.9664 50.9208Z" fill="#1F2937"/>
<path d="M84.7719 56.1954C84.8329 55.9792 84.8236 55.7456 84.8329 55.5272C84.8469 55.1975 84.9159 54.7909 84.6864 54.5289C83.9442 54.3161 82.717 54.0524 82.4785 54.1569C82.1405 54.3046 81.1319 55.8916 80.9303 55.8556C80.7286 55.82 80.48 55.4646 80.2017 54.6885C79.9234 53.9128 80.524 51.1118 80.5418 51.0111L80.1741 50.7385C80.1741 50.7385 79.3752 54.1222 79.8158 55.399C80.2567 56.6757 81.6822 58.0654 83.3753 57.4235C83.7765 57.2711 84.1391 57.0286 84.433 56.7163C84.5716 56.5691 84.7037 56.4167 84.7643 56.2208L84.7719 56.1954Z" fill="#1F2937"/>
<path d="M84.2602 54.9251C84.2602 54.9251 82.6827 54.3648 82.6751 54.4668C82.6675 54.5687 82.8073 55.4887 83.1301 55.4663C83.5507 55.4367 84.2602 54.9251 84.2602 54.9251Z" fill="white"/>
<path d="M85.8983 52.4343C85.8335 52.2925 85.6615 52.2337 85.5247 52.3099C85.5124 52.3166 85.501 52.3251 85.4904 52.334C85.4544 52.3619 85.4286 52.4017 85.4201 52.4495L85.4175 52.466L85.4167 52.4711C85.4112 52.5562 85.4078 52.6433 85.4421 52.7233C85.509 52.8782 85.7047 52.8972 85.8263 52.7974C85.9322 52.7106 85.9534 52.5553 85.8983 52.4343Z" fill="#1F2937"/>
<path d="M86.3059 51.9451C86.2394 51.7631 86.1157 51.6548 85.9679 51.5375C85.8124 51.414 85.6019 51.6421 85.759 51.7665C85.8569 51.8439 85.9645 51.9129 86.0089 52.0348C86.0776 52.2218 86.3749 52.1325 86.3059 51.9451Z" fill="#1F2937"/>
<path d="M73.2402 58.2016C73.2139 58.2016 73.1876 58.1936 73.1656 58.1766C73.111 58.1356 73.1004 58.0586 73.1415 58.004C73.1762 57.9583 74.0086 56.872 75.6771 55.7705C75.7343 55.7332 75.811 55.7489 75.8483 55.8056C75.886 55.8623 75.8703 55.9389 75.8136 55.9765C74.1827 57.0531 73.3469 58.1419 73.3384 58.1529C73.3143 58.1851 73.2774 58.2016 73.2402 58.2016Z" fill="#1F2937"/>
<path d="M81.8012 75.3172C80.1742 75.726 78.7381 75.8284 77.0734 76.0184C72.8484 76.5008 68.9673 76.1974 64.8062 75.2694C64.7796 75.263 64.752 75.2575 64.7253 75.2512C64.0577 74.6697 64.8321 73.7675 64.8321 73.7675C65.8076 73.9875 66.3727 74.2486 67.3614 74.3866C70.5626 74.8369 73.8159 74.8639 77.0204 74.475C78.6568 74.2766 80.0623 74.1666 81.6602 73.7527C81.9097 74.0426 82.2956 74.6405 81.8012 75.3172Z" fill="#1F2937"/>
<path d="M69.6909 67.762C70.2276 68.2986 70.1382 68.5369 70.0637 68.6266C69.9891 68.7159 69.8997 68.7895 68.4383 67.9411C66.344 66.7253 65.0427 65.1671 65.0778 64.7588C65.1126 64.3508 65.8814 64.7131 66.1237 64.8544C66.3664 64.9957 69.6909 67.762 69.6909 67.762Z" fill="#1F2937"/>
<path d="M69.6909 67.762C68.1994 69.4306 67.3047 70.3844 67.3047 70.563C67.3047 70.742 68.8259 76.5222 68.8555 76.7905C68.8856 77.0587 65.6332 78.2504 65.3655 78.0122C65.0977 77.7739 62.7116 72.2316 62.5625 70.8909C62.4134 69.5499 65.3638 65.0329 65.7823 64.7735C66.2012 64.5145 69.6909 67.762 69.6909 67.762Z" fill="#E48F6B"/>
<path d="M67.3046 70.2693C67.2665 70.2693 67.2288 70.2516 67.2047 70.2186C66.4591 69.1941 64.6491 69.3337 64.6304 69.3354C64.5635 69.3392 64.5029 69.2905 64.497 69.2228C64.4915 69.1551 64.5419 69.095 64.6101 69.0895C64.6897 69.0828 66.5773 68.9376 67.4042 70.0734C67.4444 70.1284 67.4326 70.2059 67.3771 70.2457C67.3555 70.2617 67.3301 70.2693 67.3046 70.2693Z" fill="#CE5C48"/>
<path d="M70.078 68.6156C70.0521 68.6156 70.0263 68.6075 70.0039 68.5906C69.9496 68.55 69.9386 68.4725 69.9797 68.4184C69.9954 68.3968 71.586 66.2834 72.3201 65.2742C72.3858 65.1844 72.4557 65.0913 72.529 64.9944C73.2923 63.9801 74.3382 62.5908 73.8053 59.9802C73.7913 59.9138 73.8345 59.8486 73.9014 59.8346C73.9675 59.8207 74.0336 59.8643 74.0472 59.9311C74.6025 62.6505 73.4732 64.1502 72.7264 65.1425C72.6539 65.2386 72.5849 65.3309 72.5201 65.4193C71.7847 66.4303 70.1928 68.5453 70.1771 68.5665C70.1525 68.5986 70.1157 68.6156 70.078 68.6156Z" fill="#1F2937"/>
<path d="M72.1367 57.844C72.1037 57.844 72.0711 57.8313 72.0469 57.8055C71.0976 56.8017 69.7429 57.2342 69.7298 57.2389C69.6642 57.26 69.5951 57.2249 69.5735 57.1606C69.5519 57.0958 69.5871 57.026 69.6523 57.0044C69.7133 56.9841 71.1701 56.519 72.2261 57.6362C72.2731 57.6857 72.271 57.764 72.2214 57.8106C72.1977 57.833 72.1668 57.844 72.1367 57.844Z" fill="#1F2937"/>
<path d="M64.3966 78.3846C65.709 80.3363 66.6934 81.7962 67.081 82.2283C67.4686 82.6603 68.3336 85.163 68.8258 85.7593C69.3181 86.3551 70.3123 85.948 70.3123 85.948C70.3123 85.948 70.6401 86.1562 71.0527 86.1913C71.4653 86.226 71.719 86.1664 71.719 86.1664C71.719 86.1664 71.9825 86.4148 72.5493 86.4097C73.1157 86.4046 73.2749 86.1664 73.2749 86.1664C73.2749 86.1664 73.2699 86.4694 73.7074 86.5091C74.145 86.5485 74.4877 85.6894 74.5424 85.2625C74.597 84.8355 74.7614 84.4483 74.1645 83.2363C73.5681 82.0247 72.1562 80.7336 71.5797 80.1179C71.0032 79.5017 69.5913 77.1777 69.0944 76.4629C68.5971 75.7477 67.6029 75.529 66.2308 76.4629C64.8588 77.3964 64.2513 78.1687 64.3966 78.3846Z" fill="#1F2937"/>
<path d="M73.0607 86.0696H73.0581C73.0069 86.0684 72.9666 86.0261 72.9683 85.9749C72.9874 85.3282 72.7438 84.2005 72.7417 84.1895C72.7307 84.1395 72.7624 84.09 72.8124 84.0794C72.8616 84.0689 72.9115 84.1002 72.9226 84.1501C72.9327 84.1971 73.1733 85.3109 73.1534 85.9799C73.1517 86.0303 73.1106 86.0696 73.0607 86.0696Z" fill="#1F2937"/>
<path d="M71.5293 86.02C71.4814 86.02 71.4408 85.9831 71.4374 85.9345C71.3887 85.2921 71.3001 84.8071 71.2993 84.802C71.29 84.7517 71.3234 84.7034 71.3738 84.6946C71.4243 84.6857 71.4721 84.7187 71.4814 84.7686C71.4823 84.7737 71.5725 85.2675 71.6221 85.9205C71.6259 85.9717 71.5878 86.0157 71.5365 86.0195L71.5293 86.02Z" fill="#1F2937"/>
<path d="M70.1971 85.8512C70.1551 85.8512 70.117 85.8224 70.1073 85.7796C70.0297 85.4419 69.9615 85.2452 69.9607 85.2431C69.9438 85.1948 69.9692 85.1419 70.0175 85.125C70.0666 85.1089 70.1187 85.1339 70.1356 85.1821C70.1386 85.1902 70.2077 85.3895 70.2877 85.7382C70.2992 85.7881 70.2678 85.8376 70.2178 85.849L70.1971 85.8512Z" fill="#1F2937"/>
<path d="M67.6029 82.0777C67.5754 82.0777 67.5483 82.0654 67.53 82.0421C67.4987 82.0019 67.5055 81.9439 67.5457 81.9122C67.5542 81.9059 68.3972 81.2465 69.2494 80.7912C69.2944 80.7667 69.3507 80.784 69.3748 80.8289C69.399 80.8741 69.382 80.9304 69.3367 80.9541C68.4984 81.4023 67.6686 82.0514 67.6601 82.0578C67.6431 82.0709 67.6232 82.0777 67.6029 82.0777Z" fill="#1F2937"/>
<path d="M39.659 78.7461H36.0067L36.0105 80.4325L40.3499 80.3241L39.659 78.7461Z" fill="#1F2937"/>
<path d="M39.0669 63.4619C39.0669 63.4619 40.1526 61.8838 40.5474 61.7852C40.9426 61.6866 44.5945 61.6866 44.7923 61.8838C44.9893 62.081 45.088 62.2782 45.088 62.2782C45.088 62.2782 44.3971 63.3628 44.1997 63.6586C44.0023 63.9549 39.0669 63.4619 39.0669 63.4619Z" fill="#53AFB8"/>
<path d="M53.6761 74.3087C53.5834 75.2337 51.7017 75.7877 51.7017 75.7877C51.7017 75.7877 49.7099 75.8215 47.1188 75.8452C44.8512 75.8639 42.1262 75.8749 39.8734 75.8469C37.4856 75.8177 35.6298 75.7437 35.4146 75.5909C34.7661 75.1279 32.4591 66.2789 32.5523 65.631C32.6447 64.9831 33.86 62.574 34.2302 62.574C34.6004 62.574 48.4866 63.0729 49.1355 63.1656C49.7837 63.2587 53.7689 73.384 53.6761 74.3087Z" fill="#53AFB8"/>
<path d="M48.9377 63.7572C48.7403 63.5605 35.0198 62.9684 34.8224 63.1656C34.6529 63.3349 36.9539 70.8345 37.6109 72.9618C37.6508 73.0913 37.7897 73.1624 37.9185 73.1192L37.9227 73.1179C38.043 73.0777 38.1112 72.952 38.0803 72.8297C37.608 70.969 35.9267 65.97 36.0068 65.7297C36.1055 65.4339 47.0624 65.9269 47.4572 65.9269C47.852 65.9269 50.8134 74.9003 50.8134 74.9003C50.8134 74.9003 53.1826 75.591 53.1826 74.4073C53.1826 73.2241 49.1355 63.9549 48.9377 63.7572Z" fill="#1F98A4"/>
<path d="M39.8734 75.8469C37.4855 75.8177 35.6297 75.7436 35.4146 75.5909C35.908 75.5909 37.8825 73.717 37.8825 73.717L39.0669 74.1114L39.8734 75.8469Z" fill="#1F98A4"/>
<path d="M39.7578 63.4617C39.7578 63.4617 40.646 62.1794 40.8439 62.0808C41.0413 61.9822 44.9893 62.1794 45.088 62.278C45.1871 62.3766 44.1997 63.757 44.1997 63.757L39.7294 63.5201L39.7578 63.4617Z" fill="#1F98A4"/>
<path d="M43.0475 71.3522C42.5404 71.6154 42.044 71.0513 42.0211 70.5376C42.0186 70.5198 42.0186 70.502 42.0207 70.4847C42.0232 70.351 42.0597 70.2227 42.1384 70.1161C42.2384 69.9811 42.3879 69.9786 42.5015 70.0429C42.5951 70.0264 42.6972 70.059 42.7683 70.1246C42.9352 70.1572 43.0932 70.2439 43.2106 70.3764C43.4732 70.6717 43.4097 71.1643 43.0475 71.3522ZM42.9374 69.125C42.4045 68.9071 41.6538 69.2211 41.0604 69.91C40.4665 70.5994 44.1836 75.3195 44.1836 75.3195L45.9483 74.4516C45.9483 74.4516 43.4698 69.3434 42.9374 69.125Z" fill="#6BDD95"/>
<path d="M44.4034 75.1C43.1225 73.6367 42.1198 71.9766 41.4344 70.1565C41.3552 69.9453 41.0379 70.0888 41.115 70.2991C41.7919 72.1513 42.8031 73.8589 44.1128 75.3345C44.2717 75.5135 44.5623 75.2816 44.4034 75.1Z" fill="#167639"/>
<path d="M50.5172 74.703C50.5172 74.703 54.1695 69.5754 55.0578 69.674C55.9461 69.7726 58.1179 71.4488 58.1179 71.8436C58.1179 72.238 57.8218 72.9282 57.3283 73.0268C56.8348 73.1254 55.5513 71.6464 55.1565 71.745C54.7617 71.8436 51.96 75.5621 51.96 75.5621L50.5172 74.703Z" fill="#9FECBC"/>
<path d="M48.7402 74.9989C48.7402 74.9003 53.0839 63.9548 53.2813 63.9548C53.4787 63.9548 54.367 64.3492 54.367 64.3492L50.0238 75.1961L48.7402 74.9989Z" fill="#3DBC6C"/>
<path d="M44.7923 73.9142C44.7923 73.9142 40.5473 72.5338 39.9551 72.8296C39.3629 73.1254 39.0546 74.3535 39.0546 74.3535L44.7923 73.9142Z" fill="#A8BACD"/>
<path d="M46.2727 74.1114C46.2727 74.0128 46.174 70.7585 46.8649 70.7585C47.5558 70.7585 47.9506 70.8571 47.9506 71.1529C47.9506 71.4487 47.4571 72.731 47.4571 72.731C47.4571 72.731 48.3454 72.4352 48.6415 72.6324C48.9376 72.8296 48.6415 74.21 48.6415 74.21L46.2727 74.1114Z" fill="#E2E7E9"/>
<path d="M60.0411 73.5199C60.0411 73.5199 59.3219 83.6986 58.9622 83.8183C58.6026 83.9381 39.4235 84.2974 38.944 83.8183C38.8478 83.7223 38.8203 83.5314 38.789 83.4066C38.7178 83.1218 38.6674 82.8315 38.6191 82.5416C38.4751 81.6732 38.3683 80.799 38.2658 79.9251C38.148 78.9234 38.0426 77.9205 37.9426 76.9171C37.8613 76.1008 37.7837 75.2841 37.7096 74.467C37.6859 74.208 37.5944 73.85 37.8524 73.6798C38.1383 73.4911 38.503 73.5199 38.8292 73.5199C39.0923 73.5199 39.3557 73.5199 39.6188 73.5199C40.2974 73.5199 40.976 73.5199 41.6546 73.5199C42.4874 73.5199 43.3202 73.5199 44.1526 73.5199C45.0816 73.5199 46.0106 73.5199 46.9395 73.5199C47.9062 73.5199 48.8733 73.5199 49.8399 73.5199C50.7867 73.5199 51.7334 73.5199 52.6802 73.5199C53.5486 73.5199 54.4174 73.5199 55.2858 73.5199C56.0178 73.5199 56.7497 73.5199 57.4817 73.5199C58.0197 73.5199 58.5573 73.5199 59.0948 73.5199C59.3799 73.5199 59.6646 73.5199 59.9497 73.5199C59.9802 73.5199 60.0106 73.5199 60.0411 73.5199Z" fill="#1F2937"/>
<path d="M47.1017 74.4073C47.1966 77.3488 47.3017 80.3394 47.2991 83.2825C47.2987 83.5712 47.0043 83.3883 46.9882 83.1107C46.82 80.1726 46.8124 77.2176 46.7417 74.2756C46.7349 73.9947 47.0928 74.1292 47.1017 74.4073Z" fill="#1F2937"/>
<path d="M41.436 74.3085C40.516 74.8337 39.6221 75.4126 38.7237 75.9725C37.5202 76.7223 36.2274 77.4383 35.1324 78.3448C34.6808 78.7184 34.7448 79.36 34.9926 79.853C35.0654 79.9981 35.154 80.1378 35.2756 80.2448C35.6996 80.6185 36.501 80.4395 37.014 80.4073C37.3698 80.3849 37.7253 80.3583 38.0798 80.324L37.8824 78.746L36.8954 78.8446C36.8954 78.8446 42.9165 75.3931 43.0152 75.0977C43.1139 74.8015 42.8178 73.5197 41.436 74.3085Z" fill="#1F2937"/>
<path d="M183.065 83.7019C183.101 84.3942 175.728 84.5263 168.352 84.5699C156.235 84.6414 150.224 84.7328 150.183 83.8754C150.152 83.2132 161.787 83.3549 168.304 83.3549C174.822 83.3549 183.018 82.7443 183.065 83.7019Z" fill="#1F2937"/>
<path d="M172.219 42.6193C172.219 42.6193 172.077 42.153 169.771 43.5516C169.186 43.9066 168.43 44.3061 167.759 44.7716C167.09 45.2371 166.322 46.4275 166.322 46.4275L169.216 51.9851L179.908 60.9281L181.095 60.0813C181.095 60.0813 181.819 59.626 181.781 59.2451C181.744 58.8643 181.298 58.6391 181.451 58.2396C181.604 57.8402 181.841 57.8939 181.975 57.3044C182.11 56.7145 181.999 56.3794 181.933 55.3096C181.866 54.2402 182.546 50.983 181.765 48.1384C180.985 45.2942 178.82 43.6235 177.884 43.1005C176.947 42.5774 175.565 41.8293 175.101 41.4137C174.637 40.9977 172.219 42.6193 172.219 42.6193Z" fill="#1F2937"/>
<path d="M171.754 51.9362L168.532 52.5176L166.891 52.8143C166.891 52.8143 166.386 52.9954 165.699 53.2501C164.42 53.722 162.51 54.4465 162.025 54.7258C161.28 55.1553 160.975 55.1049 159.991 54.7977C159.007 54.4905 157.813 55.5912 156.736 55.7016C155.986 55.7786 150.375 54.6344 146.901 53.6471C146.815 53.623 146.729 53.5988 146.645 53.5739C145.562 53.259 144.721 52.9645 144.352 52.736C144.248 52.6721 144.176 52.6116 144.139 52.5578C143.911 52.2167 144.42 51.4715 145.119 50.6929C146.194 49.4961 147.914 48.2292 147.914 48.2292C147.914 48.2292 155.938 49.7742 156.98 49.5863C158.022 49.398 167.126 45.0139 168.141 44.5564L171.754 51.9362Z" fill="#1F2937"/>
<path d="M144.432 52.8204C144.322 52.7692 144.243 52.718 144.2 52.6689C143.934 52.3571 144.055 51.9305 144.954 50.7012L146.89 51.4299C146.44 51.8835 145.166 52.7117 144.432 52.8204Z" fill="#1F2937"/>
<path d="M141.442 47.3818C141.447 47.4402 141.452 47.4982 141.45 47.5553C141.444 47.7301 141.379 47.8977 141.293 48.0496C141.232 48.1583 141.159 48.2645 141.14 48.3877C141.109 48.6044 141.253 48.8062 141.408 48.9619C141.606 49.1621 141.841 49.3365 142.112 49.4143C142.286 49.4643 142.47 49.4727 142.651 49.4702C143.158 49.4626 143.707 49.3466 144.038 48.9615C144.133 48.8511 144.206 48.7233 144.289 48.6035C144.489 48.3183 144.756 48.0817 145.059 47.912C145.211 47.827 145.373 47.7588 145.538 47.7093C145.656 47.6746 145.862 47.6801 145.956 47.612C145.775 47.4829 145.518 47.4106 145.315 47.3209C144.929 47.1499 144.542 46.9811 144.153 46.8169C143.885 46.7039 143.617 46.5892 143.342 46.4936C142.71 46.2748 142.093 46.246 141.698 46.5841C141.573 46.6908 141.481 46.8346 141.438 46.9942C141.406 47.1211 141.428 47.2519 141.442 47.3818Z" fill="#F6997C"/>
<path d="M143.892 51.055L146.386 51.92C146.386 51.92 147.845 50.6775 148.028 50.1477C148.212 49.6183 143.963 47.9772 143.963 47.9772L142.081 47.5515L141.45 48.3302L143.892 51.055Z" fill="#F6997C"/>
<path d="M141.872 41.8298C142.206 42.8306 145.572 51.7961 145.598 52.0301C145.624 52.2645 144.36 52.6792 143.999 52.4799C143.638 52.2806 140.097 42.2111 140.077 42.085C140.059 41.9593 141.872 41.8298 141.872 41.8298Z" fill="#1F2937"/>
<path d="M137.892 39.9759C140.24 39.4634 142.687 38.9992 142.795 39.1647C142.902 39.3297 143.424 40.7355 143.468 40.9073C143.513 41.0791 143.092 42.2289 142.956 42.3212C142.819 42.4138 138.307 42.9699 138.209 42.9492C138.113 42.9284 137.656 41.2662 137.709 40.8303C137.762 40.3949 137.892 39.9759 137.892 39.9759Z" fill="#C5D7E8"/>
<path d="M138.218 42.95C138.214 42.95 138.211 42.9496 138.209 42.9492C138.185 42.9441 138.138 42.8354 138.082 42.6682C138.138 42.8354 138.185 42.9437 138.209 42.9492C138.211 42.9496 138.214 42.9496 138.218 42.9496C138.332 42.9496 139.275 42.8409 140.29 42.7131C139.275 42.8409 138.332 42.95 138.218 42.95Z" fill="#C4CCD2"/>
<path d="M138.218 42.9494C138.214 42.9494 138.211 42.9494 138.209 42.949C138.185 42.9435 138.138 42.8352 138.082 42.668C137.97 42.3341 137.822 41.7671 137.749 41.3316C137.751 41.3312 142.026 40.6761 142.444 40.6761C142.455 40.6761 142.464 40.677 142.47 40.6778C142.473 40.6787 142.475 40.6787 142.478 40.6787C142.663 40.6787 142.758 39.3355 142.795 39.1646C142.902 39.3296 143.424 40.7354 143.468 40.9072C143.471 40.9161 143.472 40.9271 143.472 40.9406C143.471 41.1933 143.086 42.2334 142.956 42.321C142.954 42.3219 142.953 42.3227 142.951 42.3236C142.949 42.3248 142.946 42.3261 142.941 42.3274C142.939 42.3286 142.936 42.3295 142.932 42.3308C142.929 42.3316 142.926 42.3325 142.923 42.3333C142.923 42.3333 142.922 42.3337 142.921 42.3337C142.912 42.3363 142.901 42.3388 142.89 42.3418C142.888 42.3422 142.887 42.3422 142.885 42.3426C142.882 42.3435 142.879 42.3443 142.874 42.3451C142.873 42.3456 142.872 42.3456 142.871 42.346C142.736 42.3752 142.457 42.4196 142.1 42.4717C141.593 42.5449 140.927 42.6325 140.29 42.7129C139.275 42.8407 138.332 42.9494 138.218 42.9494Z" fill="#A3B5C5"/>
<path d="M142.929 42.3214C142.893 42.3214 142.857 42.2965 142.846 42.2584L142.386 40.7028C142.372 40.6562 142.399 40.6076 142.445 40.594C142.492 40.58 142.54 40.6071 142.554 40.6533L143.014 42.2089C143.028 42.2554 143.001 42.3041 142.954 42.3176L142.929 42.3214Z" fill="#768997"/>
<path d="M143.862 50.6738C143.73 50.4538 143.994 50.3949 143.979 50.2041C143.964 50.0137 143.685 49.8816 143.524 49.7796C143.361 49.6768 143.655 49.5008 143.552 49.1631C143.511 49.0294 143.342 48.9278 143.234 48.8542C143.187 48.8224 143.141 48.7919 143.093 48.7623C143.184 48.7187 143.246 48.5465 143.292 48.4695C143.827 48.8398 144.314 48.8542 144.314 48.8542C144.314 48.8542 144.801 49.9096 145.344 50.4808C145.889 51.0521 146.508 51.772 146.508 51.772C146.508 51.772 149.59 49.4445 147.922 48.2245C147.854 48.1745 145.663 47.4441 145.385 47.3125C145.105 47.1809 144.401 47.5046 143.813 47.3586C143.225 47.2127 142.624 46.8762 142.419 47.1991C142.394 47.2385 142.375 47.2795 142.364 47.3218C142.2 47.1754 142.041 47.0231 141.884 46.8656C141.668 46.649 141.372 46.9359 141.489 47.1822C141.618 47.4556 141.831 47.679 142.051 47.8821C142.149 47.9714 142.248 48.0573 142.346 48.1445C142.333 48.147 142.32 48.1496 142.307 48.153C142.277 48.1601 142.248 48.1703 142.219 48.1817C142.181 48.1974 142.149 48.2156 142.119 48.2359L142.108 48.2308C142.04 48.202 141.481 47.9079 141.456 47.9325C141.373 48.0146 141.269 48.1009 141.171 48.1987C140.922 48.4483 141.187 48.888 141.32 49.1076C141.452 49.3277 141.452 49.3277 141.277 49.5334C141.1 49.739 141.321 50.1055 141.645 50.3103C141.967 50.5151 141.689 50.8824 141.984 51.2045C142.278 51.5269 144.083 51.5388 144.142 51.3039C144.2 51.0695 143.994 50.8934 143.862 50.6738Z" fill="#F6997C"/>
<path d="M143.387 50.4854C143.037 50.4892 142.6 50.523 142.268 50.3897C142.09 50.3182 141.939 50.5721 142.122 50.6585C142.493 50.8353 142.988 50.829 143.392 50.8036C143.595 50.7909 143.593 50.4833 143.387 50.4854Z" fill="#E78265"/>
<path d="M142.977 49.5888C142.602 49.5363 142.232 49.4491 141.881 49.3052C141.702 49.232 141.552 49.4944 141.734 49.5727C142.122 49.7394 142.522 49.8511 142.941 49.8968C143.117 49.9159 143.153 49.6133 142.977 49.5888Z" fill="#E78265"/>
<path d="M142.555 48.4331C142.319 48.3142 142.083 48.2033 141.858 48.0628C141.688 47.9557 141.54 48.2283 141.709 48.3362C141.942 48.4851 142.184 48.6205 142.447 48.7094C142.608 48.7644 142.706 48.5088 142.555 48.4331Z" fill="#E78265"/>
<path d="M144.883 47.078C144.495 47.092 144.11 47.1148 143.721 47.1047C143.518 47.0996 143.527 47.4047 143.725 47.4174C144.112 47.4424 144.504 47.45 144.888 47.4001C145.088 47.3738 145.096 47.0704 144.883 47.078Z" fill="#E78265"/>
<path d="M145.6 50.4228C145.187 50.0305 145.075 49.5675 144.877 49.0572C144.762 48.7622 144.619 48.7677 144.315 48.7385C144.143 48.7216 144.112 49.006 144.281 49.0386C144.368 49.0563 144.455 49.0724 144.544 49.0864C144.562 49.1774 144.587 49.2666 144.617 49.3547C144.673 49.5383 144.738 49.7199 144.817 49.8955C144.95 50.193 145.123 50.4515 145.369 50.6648C145.531 50.8049 145.758 50.5717 145.6 50.4228Z" fill="#E78265"/>
<path d="M146.901 53.6469C146.815 53.6228 146.729 53.5987 146.645 53.5737C147.447 53.1988 148.201 52.7362 148.886 52.1616C149.686 51.4913 150.727 50.4566 150.228 49.3111C150.187 49.218 150.331 49.1528 150.372 49.2459C150.857 50.3533 150.013 51.3829 149.231 52.0803C148.537 52.7011 147.747 53.2381 146.901 53.6469Z" fill="#867C3A"/>
<path d="M158.986 49.2448C157.264 49.1762 156.122 49.2008 154.743 48.9993C154.553 48.9714 154.676 49.3383 154.864 49.3688C156.246 49.5939 157.655 49.7043 159.056 49.6273C159.234 49.6176 159.369 49.26 158.986 49.2448Z" fill="white"/>
<path d="M168.117 44.5407C168.096 44.5948 167.637 46.106 167.983 49.224C168.328 52.3415 169.65 55.1429 169.497 55.5424C169.344 55.9419 176.167 60.4504 176.167 60.4504L178.431 52.9632L174.737 49.8287C174.737 49.8287 175.921 45.4458 176.925 44.3092C177.929 43.173 178.425 43.4387 178.425 43.4387C178.425 43.4387 178.334 42.9631 177.601 42.9474C176.866 42.9313 175.661 44.2897 174.922 46.1691C174.184 48.048 173.851 51.6936 173.56 51.876C173.27 52.058 169.656 51.2988 169.329 51.1003C169.001 50.9019 167.936 46.7082 168.76 44.1784C168.76 44.1784 168.26 44.2021 168.117 44.5407Z" fill="#1F98A4"/>
<path d="M174.542 40.4362C174.542 40.4362 174.745 39.8099 174.753 39.2394C174.759 38.6686 175.282 38.1671 174.852 37.3254C174.534 36.6995 174.586 34.3814 174.379 33.6819C174.215 33.1305 174.825 34.0153 174.353 33.6852C174.305 33.6518 174.255 33.6196 174.214 33.5778C174.168 33.5308 174.136 33.4737 174.1 33.4186C173.669 32.7576 172.826 32.3053 172.083 32.0861C171.758 31.99 171.413 31.9316 171.072 31.9684C170.911 31.9862 170.75 32.0255 170.601 32.0924C170.528 32.125 170.458 32.1635 170.392 32.2075C170.351 32.2342 170.237 32.3611 170.197 32.3632C170.197 32.3632 170.716 32.1525 169.733 32.8122C168.75 33.4724 166.916 34.2806 167.228 36.2874C167.594 38.6406 172.438 40.5289 172.438 40.5289L174.542 40.4362Z" fill="#1F2937"/>
<path d="M174.097 43.9148C174.436 43.517 174.807 43.1738 175.141 42.8983L175.201 42.8619L175.197 42.8526C175.752 42.4011 176.192 42.1434 176.192 42.1434C176.192 42.1434 175.461 41.7435 175.208 41.4748C175.055 41.3135 174.873 41.0089 174.752 40.7901C174.67 40.6153 174.567 40.4109 174.567 40.4109C174.269 40.4185 173.883 40.3292 173.598 40.2463C173.314 40.1638 173.031 40.0614 172.798 39.8798C172.565 39.6979 172.389 39.4253 172.383 39.1308C172.774 38.9806 173.108 38.6958 173.324 38.3386C173.582 37.9142 173.487 37.1046 172.93 36.9607C172.693 36.8998 172.439 36.9667 172.23 37.0852C172.106 37.1558 171.992 37.2477 171.895 37.3539C171.814 37.4394 171.646 37.6112 171.632 37.733L171.537 38.5379C171.537 38.5379 171.115 38.8519 170.999 38.6657C170.907 38.5185 170.928 38.2307 170.912 38.0635C170.884 37.7978 170.855 37.5312 170.828 37.2646C170.823 37.2096 170.816 37.152 170.783 37.1067C170.76 37.0754 170.725 37.053 170.692 37.0314C170.244 36.7415 169.877 36.3264 169.645 35.8465C169.614 35.7809 169.581 35.7115 169.517 35.6764C169.483 35.6582 169.443 35.6527 169.402 35.6485C169.165 35.6222 168.922 35.6227 168.694 35.5499C168.402 35.4568 167.314 35.6684 167.369 35.5029C167.519 35.0577 167.373 35.5537 167.266 35.621C167.121 35.7119 167.04 36.0657 167.024 36.6823C167.013 37.1076 167.013 37.3378 167.056 37.7601C167.074 37.9484 166.771 38.3995 166.558 38.8985C166.415 39.237 166.225 39.416 166.372 39.6428C166.426 39.7262 166.744 39.7905 166.97 39.7931C167.003 39.8134 167.04 40.0525 167.079 40.4972C167.086 40.5861 167.244 40.6339 167.255 40.7283C167.193 40.826 167.182 41.1197 167.228 41.1548C167.495 41.3542 167.47 41.7549 167.537 41.9589C167.752 42.6076 168.39 42.5175 168.659 42.4963C169.469 42.4333 170.007 42.0147 170.39 41.9047C170.46 41.884 170.512 41.8798 170.539 41.8971C170.636 41.9563 170.722 42.0334 170.802 42.1243C170.825 42.1502 170.847 42.1772 170.867 42.2052C170.911 42.272 171.014 42.4574 170.971 42.6457C170.917 42.8818 170.555 43.1095 170.555 43.1095C170.078 44.3376 170.611 46.4094 171.391 46.525C172.358 46.668 173.165 45.0053 174.097 43.9148Z" fill="#F6997C"/>
<path d="M167.848 36.8524C167.873 36.8558 167.897 36.863 167.922 36.8702C168.07 36.9142 168.214 36.9679 168.359 37.0212C168.527 37.0839 168.7 37.1478 168.84 37.2603C168.866 37.2815 168.892 37.3056 168.905 37.3369C168.96 37.4664 168.765 37.5109 168.68 37.4707C168.447 37.3611 168.206 37.2498 167.957 37.1702C167.863 37.1402 167.749 37.1364 167.704 37.0344C167.671 36.9595 167.708 36.8647 167.793 36.852C167.811 36.849 167.83 36.8499 167.848 36.8524Z" fill="#1F2937"/>
<path d="M168.34 37.8244C168.41 37.8117 168.472 37.8481 168.511 37.9061C168.563 37.984 168.576 38.1041 168.568 38.1955C168.555 38.317 168.504 38.4469 168.363 38.4613C168.097 38.4896 168.041 38.1299 168.094 37.9404C168.121 37.8447 168.246 37.7774 168.34 37.8244Z" fill="#1F2937"/>
<path d="M170.389 41.9044C170.459 41.8841 170.511 41.8794 170.539 41.8968C170.636 41.956 170.722 42.033 170.802 42.124C170.988 42.0381 171.173 41.9518 171.359 41.868C171.564 41.7749 171.411 41.4689 171.208 41.5574C170.937 41.6746 170.663 41.7872 170.389 41.9044Z" fill="#E78265"/>
<path d="M166.995 39.2394C167.081 39.247 167.158 39.2737 167.234 39.3147C167.334 39.3693 167.241 39.5187 167.14 39.4658C167.086 39.4375 167.027 39.4214 166.969 39.4078C166.874 39.3863 166.897 39.2301 166.995 39.2394Z" fill="#E78265"/>
<path d="M167.079 40.4973C167.086 40.5861 167.191 40.6648 167.255 40.7283C167.586 40.6411 167.53 40.7165 167.854 40.6009C168.019 40.5425 167.93 40.4156 167.764 40.474C167.451 40.5853 167.398 40.4173 167.079 40.4973Z" fill="#D07359"/>
<path d="M175.576 37.8093C175.576 37.8093 174.376 36.9828 171.587 36.4754C168.801 35.968 165.431 35.9126 165.226 35.4247C165.022 34.9372 166.103 34.1814 166.103 34.1814C166.103 34.1814 167.268 31.36 169.674 30.7718C172.08 30.1836 175.296 30.8446 176.014 33.2868C176.434 34.7146 175.576 37.8093 175.576 37.8093Z" fill="#1F98A4"/>
<path d="M172.308 33.5893C172.336 33.4658 172.255 33.3519 172.139 33.3198C171.93 33.2627 171.717 33.2407 171.502 33.2246C171.389 33.2161 171.291 33.3287 171.283 33.4319C171.274 33.5339 171.343 33.6659 171.459 33.6769C171.653 33.6964 171.846 33.7303 172.039 33.7586C172.159 33.7764 172.28 33.7142 172.308 33.5893Z" fill="#1F98A4"/>
<path d="M172.135 34.2988C172.154 34.2167 172.108 34.1389 172.052 34.083C171.988 34.0191 171.911 33.9975 171.825 33.9768C171.693 33.9446 171.558 33.9167 171.424 33.8956C171.306 33.8769 171.188 33.94 171.159 34.0619C171.13 34.1897 171.212 34.2866 171.326 34.3268C171.454 34.372 171.587 34.411 171.717 34.4457C171.802 34.4681 171.881 34.4838 171.967 34.455C172.042 34.4292 172.117 34.3809 172.135 34.2988Z" fill="#1F98A4"/>
<path d="M173.645 33.9114C173.696 33.8022 173.669 33.627 173.539 33.5788C173.388 33.5221 173.235 33.4687 173.083 33.4146C172.97 33.3748 172.842 33.4658 172.805 33.5669C172.768 33.6698 172.806 33.8183 172.918 33.8623C173.049 33.9139 173.179 33.9668 173.312 34.0163C173.432 34.0612 173.583 34.0422 173.645 33.9114Z" fill="#1F98A4"/>
<path d="M173.595 34.5096C173.633 34.4085 173.595 34.2608 173.484 34.2176C173.333 34.1597 173.181 34.1135 173.026 34.0678C172.903 34.0314 172.757 34.1279 172.734 34.2523C172.708 34.3907 172.787 34.5041 172.918 34.5447C173.051 34.5866 173.184 34.6294 173.322 34.6599C173.438 34.6857 173.555 34.6197 173.595 34.5096Z" fill="#1F98A4"/>
<path d="M169.031 35.5346C168.274 35.3713 167.555 35.1187 166.871 34.7556C166.698 34.6638 166.586 34.9384 166.752 35.0332C167.447 35.4293 168.119 35.5672 168.909 35.7048C169.111 35.7399 169.228 35.577 169.031 35.5346Z" fill="#1F98A4"/>
<path d="M177.605 57.5868C178.924 59.5787 181.714 59.0295 181.714 59.0295C181.714 59.0295 181.761 64.5676 181.648 65.8693C181.534 67.1714 170.926 65.8396 169.565 65.097C168.205 64.3539 169.497 55.5425 169.497 55.5425L177.605 57.5868Z" fill="#1F98A4"/>
<path d="M158.687 84.1098C158.687 84.1098 152.78 84.453 152.313 83.7657C151.845 83.0785 153.999 81.9702 155.845 81.627C157.691 81.2842 158.687 84.1098 158.687 84.1098Z" fill="#1F2937"/>
<path d="M158.227 79.3212C156.521 76.4669 155.032 73.4061 153.94 70.2661C153.63 69.3749 153.356 68.4688 153.156 67.5463C152.978 66.7199 152.656 65.5764 152.952 64.7656C153.409 63.513 154.255 62.3963 155.332 61.6079C156.025 61.1009 157.116 61.0933 157.963 61.0599C160.099 60.9752 162.054 61.5529 164.148 61.9494C166.386 62.3734 168.874 62.9654 170.985 63.3459L173.422 62.1275L172.98 69.4972L158.227 79.3212Z" fill="#1F98A4"/>
<path d="M180.76 71.1881C179.925 72.9747 177.955 73.7957 176.023 74.3898C176.173 74.8477 176.323 75.6069 176.452 76.479C176.769 78.6415 176.948 81.4958 176.651 82.1505C176.629 82.1966 176.574 82.244 176.488 82.2914C174.603 83.3277 157.839 84.5486 156.637 84.1787C155.379 83.7924 151.737 81.0832 154.123 77.2247C156.154 73.9408 173.17 62.9302 173.17 62.9302L181.775 63.0267C181.775 63.0267 182.681 67.0735 180.76 71.1881Z" fill="#1F98A4"/>
<path d="M176.651 82.1504C176.629 82.1965 176.574 82.2439 176.488 82.2913C175.846 82.1051 175.1 78.0261 175.1 78.0261L176.452 76.479C176.769 78.6414 176.948 81.4958 176.651 82.1504Z" fill="#1F2937"/>
<path d="M177.162 74.1643L175.152 74.5684C175.152 74.5684 174.476 75.631 175.249 78.8184C175.249 78.8184 176.893 78.5285 177.375 78.625C177.859 78.7215 179.116 76.8866 179.116 76.8866L178.535 74.7618L177.162 74.1643Z" fill="white"/>
<path d="M182.152 83.7481C181.597 84.1124 178.642 84.1124 178.549 83.839C178.364 83.2923 179.472 82.3808 179.472 82.3808C179.38 81.5602 178.456 80.7532 177.718 80.3889C177.28 80.1726 176.793 80.1041 176.327 79.9691C175.794 79.8142 175.739 79.6289 175.703 79.0961C175.692 78.9353 175.682 78.7673 175.746 78.6183C175.79 78.5167 175.864 78.4313 175.942 78.3513C176.384 77.893 177.048 77.6124 177.164 76.9252C177.348 75.8313 175.644 75.2816 175.828 74.37C175.828 74.37 176.992 73.9875 177.902 73.8263C178.25 73.7645 178.552 73.8068 178.812 73.8914C180.156 74.3273 180.408 76.309 180.95 77.8367C181.521 79.4435 182.706 83.3833 182.152 83.7481Z" fill="#1F2937"/>
<path d="M182.152 83.748C181.597 84.1124 178.642 84.1124 178.549 83.839C179.566 84.0214 180.497 83.7387 180.775 83.5563C181.051 83.3739 180.266 81.7616 179.902 80.6855C179.585 79.7502 178.734 77.1075 178.456 75.3754C178.254 74.1114 178.605 73.9087 178.811 73.8914H178.812C180.156 74.3272 180.523 76.1913 181.065 77.719C181.636 79.3262 182.706 83.3832 182.152 83.748Z" fill="#1F2937"/>
<path d="M174.705 74.7809C171.826 75.5155 168.895 76.0572 165.943 76.4139C165.925 76.4334 165.901 76.4499 165.869 76.46C163.59 77.1955 161.246 77.7232 158.865 77.9932C158.646 78.0177 158.631 77.6792 158.848 77.6508C160.635 77.4181 162.4 77.0762 164.136 76.6086C163.056 76.7114 161.975 76.7905 160.893 76.8443C160.663 76.8557 160.644 76.5002 160.874 76.4871C165.507 76.223 170.086 75.5333 174.599 74.463C174.807 74.4135 174.916 74.7271 174.705 74.7809Z" fill="#1F98A4"/>
<path d="M177.162 69.2359C176.269 68.4518 175.407 67.6004 175.227 66.371C175.194 66.1493 174.86 66.2449 174.891 66.4641C175.069 67.7417 175.96 68.6892 176.909 69.489C177.083 69.6358 177.336 69.3891 177.162 69.2359Z" fill="#1F98A4"/>
<path d="M169.974 63.1561C169.974 63.1561 178.849 64.6584 182.076 66.0879C182.076 66.0879 182.579 65.4908 182.104 64.5243C182.104 64.5243 173.605 62.0123 170.027 62.1092C170.027 62.1092 169.534 62.5616 169.974 63.1561Z" fill="#1F2937"/>
<path d="M180.688 63.5473C180.667 63.0958 179.967 63.0907 179.981 63.5473C179.999 64.1834 179.98 64.7703 179.777 65.3793C179.652 65.7521 180.239 66.006 180.417 65.6493C180.743 64.9942 180.722 64.2608 180.688 63.5473Z" fill="#1F98A4"/>
<path d="M173.442 62.1152C173.251 62.7123 173.099 63.3635 173.107 63.9941C173.113 64.4647 173.774 64.4414 173.822 63.9941C173.888 63.4152 173.949 62.8617 174.114 62.3005C174.242 61.8685 173.578 61.6895 173.442 62.1152Z" fill="#1F98A4"/>
<path d="M170.322 64.3764C167.899 65.8397 165.532 67.408 163.23 69.0668C161.598 68.3627 159.994 67.5993 158.414 66.7842C158.209 66.6784 158.024 66.9835 158.229 67.0923C159.319 67.6704 160.431 68.2061 161.56 68.7038C159.868 68.5413 158.313 67.7643 156.8 67.0111C156.601 66.9116 156.415 67.2163 156.62 67.3119C158.522 68.1938 160.359 68.9666 162.265 69.0956C162.311 69.0986 162.348 69.0795 162.377 69.0563C162.56 69.1337 162.744 69.2103 162.928 69.2856C160.807 70.826 158.741 72.4425 156.742 74.1268C156.498 74.332 156.843 74.6748 157.085 74.478C161.393 70.9885 165.895 67.7931 170.593 64.8503C170.889 64.6645 170.625 64.1935 170.322 64.3764Z" fill="#1F98A4"/>
<path d="M161.116 61.8339C161.116 61.8339 159.533 61.9702 158.13 61.5893C157.195 61.3358 157.158 61.4924 156.941 61.6295C156.711 61.7734 156.281 62.3476 156.281 62.3476L157.491 63.4657L160.747 62.3701L161.116 61.8339Z" fill="#F6997C"/>
<path d="M158.355 62.7112C158.355 62.7112 148.794 58.7075 148.417 58.9098C148.039 59.1116 145.615 64.4614 145.853 64.7225C146.091 64.984 159.042 69.4266 159.308 69.3809C159.577 69.3351 160.722 65.1317 160.722 65.1317L158.355 62.7112Z" fill="#1F2937"/>
<path d="M160.985 61.866C160.985 61.866 157.614 62.1364 157.488 62.4978C157.376 62.8211 156.441 62.7072 156.204 62.6988C155.652 62.6789 155.102 62.6387 154.551 62.6116C154.251 62.5968 153.767 62.543 153.802 62.995C153.819 63.2316 154.052 63.3886 154.27 63.4817C154.547 63.5993 154.84 63.6742 155.131 63.7483C155.388 63.8139 155.645 63.8794 155.903 63.945C156.074 63.9882 156.248 64.0335 156.397 64.1291C156.908 64.4592 156.413 64.6666 156.106 64.9801C155.523 65.4008 155.195 65.5087 154.782 65.8464C154.688 65.9234 154.596 66.0292 154.61 66.1502C154.627 66.3114 154.814 66.391 154.974 66.4198C155.133 66.4486 155.32 66.4748 155.404 66.614C155.479 66.7401 155.435 66.9069 155.488 67.044C155.565 67.245 155.818 67.3127 156.033 67.3101C156.37 67.3063 156.518 67.3338 156.809 67.4841C157.052 67.6097 157.331 67.6009 157.59 67.5167C158.266 67.2958 158.842 66.7583 159.468 66.4253C159.837 66.2285 160.491 65.887 160.905 65.8451C161.921 65.7418 162.946 65.7165 163.955 65.5628C163.118 64.6407 162.335 63.6691 161.613 62.6548C161.433 62.4013 160.95 62.1749 160.985 61.866Z" fill="#F6997C"/>
<path d="M181.655 50.5324C181.655 50.5324 178.951 59.4082 176.154 61.874C173.357 64.3394 163.519 67.0943 162.857 67.0055C162.194 66.917 160.596 63.5764 160.925 61.8524C160.925 61.8524 171.291 58.412 172.232 57.0125C173.171 55.6135 174.966 47.4614 176.275 45.5263C177.586 43.5911 178.342 44.6312 178.342 44.6312L181.655 50.5324Z" fill="#1F2937"/>
<path d="M178.969 57.6262C179.618 56.6419 180.175 55.5928 180.665 54.5218C181.138 53.4896 181.589 52.4148 181.864 51.3115C181.906 51.144 181.67 51.0763 181.61 51.2358C181.196 52.3301 180.82 53.4279 180.323 54.4896C179.842 55.5145 179.283 56.4933 178.694 57.4595C178.585 57.6368 178.855 57.7993 178.969 57.6262Z" fill="#867C3A"/>
<path d="M173.215 56.5564C173.364 56.4367 173.209 56.1815 173.055 56.3017C172.424 56.7972 171.761 57.242 171.079 57.6647C170.907 57.7722 171.072 58.0342 171.247 57.9317C171.94 57.5263 172.591 57.0596 173.215 56.5564Z" fill="#867C3A"/>
<path d="M164.746 66.6076C163.372 65.526 162.967 63.6674 162.699 62.0047C162.685 61.9087 162.532 61.9235 162.548 62.02C162.809 63.6775 163.21 65.5577 164.551 66.6588L164.746 66.6076Z" fill="#867C3A"/>
<path d="M180.669 46.1433C180.09 45.6126 179.348 45.1222 178.566 44.9618C177.722 44.7887 177.095 45.3291 176.543 45.8936C176.474 45.9652 176.588 46.0701 176.658 45.9986C176.93 45.7239 177.211 45.4396 177.557 45.2593C177.911 45.0756 178.286 45.0528 178.665 45.1569C179.368 45.349 180.024 45.7802 180.558 46.2648C180.636 46.3359 180.747 46.2152 180.669 46.1433Z" fill="#867C3A"/>
<mask id="mask1_67_5096" style="mask-type:luminance" maskUnits="userSpaceOnUse" x="11" y="83" width="77" height="39">
<path d="M11.0133 83.5249H87.1878V121.576H11.0133V83.5249Z" fill="white"/>
</mask>
<g mask="url(#mask1_67_5096)">
<path d="M22.9682 83.5647L-7.61169 228.612H87.1865L22.9682 83.5647Z" fill="#DCFCE7"/>
</g>
<mask id="mask2_67_5096" style="mask-type:luminance" maskUnits="userSpaceOnUse" x="11" y="83" width="19" height="39">
<path d="M11.0133 83.5249H29.7133V121.576H11.0133V83.5249Z" fill="white"/>
</mask>
<g mask="url(#mask2_67_5096)">
<path d="M29.6383 98.6298L22.9682 83.5647L-7.61169 228.612H2.23412L29.6383 98.6298Z" fill="#30A85C"/>
</g>
<mask id="mask3_67_5096" style="mask-type:luminance" maskUnits="userSpaceOnUse" x="22" y="83" width="186" height="39">
<path d="M22.8813 83.5249H207.776V121.576H22.8813V83.5249Z" fill="white"/>
</mask>
<g mask="url(#mask3_67_5096)">
<path d="M61.3822 228.612L22.9681 83.5647H207.723L61.3822 228.612Z" fill="#4ADE80"/>
</g>
<mask id="mask4_67_5096" style="mask-type:luminance" maskUnits="userSpaceOnUse" x="116" y="90" width="14" height="2">
<path d="M116.467 90.4583H129.589V91.2166H116.467V90.4583Z" fill="white"/>
</mask>
<g mask="url(#mask4_67_5096)">
<mask id="mask5_67_5096" style="mask-type:luminance" maskUnits="userSpaceOnUse" x="22" y="83" width="186" height="146">
<path d="M61.3823 228.612L22.9683 83.5647H207.723L61.3823 228.612Z" fill="white"/>
</mask>
<g mask="url(#mask5_67_5096)">
<path d="M129.209 91.1501H116.861C116.68 91.1501 116.533 91.0037 116.533 90.823C116.533 90.6428 116.68 90.4963 116.861 90.4963H129.209C129.389 90.4963 129.536 90.6428 129.536 90.823C129.536 91.0037 129.389 91.1501 129.209 91.1501Z" fill="#3DBC6C"/>
</g>
</g>
<mask id="mask6_67_5096" style="mask-type:luminance" maskUnits="userSpaceOnUse" x="89" y="90" width="14" height="2">
<path d="M89.3567 90.4583H102.478V91.2166H89.3567V90.4583Z" fill="white"/>
</mask>
<g mask="url(#mask6_67_5096)">
<mask id="mask7_67_5096" style="mask-type:luminance" maskUnits="userSpaceOnUse" x="22" y="83" width="186" height="146">
<path d="M61.3823 228.612L22.9683 83.5647H207.723L61.3823 228.612Z" fill="white"/>
</mask>
<g mask="url(#mask7_67_5096)">
<path d="M102.119 91.1501H89.7705C89.59 91.1501 89.4435 91.0037 89.4435 90.823C89.4435 90.6428 89.59 90.4963 89.7705 90.4963H102.119C102.3 90.4963 102.446 90.6428 102.446 90.823C102.446 91.0037 102.3 91.1501 102.119 91.1501Z" fill="#3DBC6C"/>
</g>
</g>
<mask id="mask8_67_5096" style="mask-type:luminance" maskUnits="userSpaceOnUse" x="62" y="90" width="14" height="2">
<path d="M62.246 90.4583H75.3675V91.2166H62.246V90.4583Z" fill="white"/>
</mask>
<g mask="url(#mask8_67_5096)">
<mask id="mask9_67_5096" style="mask-type:luminance" maskUnits="userSpaceOnUse" x="22" y="83" width="186" height="146">
<path d="M61.3822 228.612L22.9681 83.5647H207.723L61.3822 228.612Z" fill="white"/>
</mask>
<g mask="url(#mask9_67_5096)">
<path d="M75.0295 91.1501H62.681C62.5006 91.1501 62.354 91.0037 62.354 90.823C62.354 90.6428 62.5006 90.4963 62.681 90.4963H75.0295C75.2099 90.4963 75.3565 90.6428 75.3565 90.823C75.3565 91.0037 75.2099 91.1501 75.0295 91.1501Z" fill="#3DBC6C"/>
</g>
</g>
<mask id="mask10_67_5096" style="mask-type:luminance" maskUnits="userSpaceOnUse" x="35" y="90" width="14" height="2">
<path d="M35.2438 90.4583H48.3653V91.2166H35.2438V90.4583Z" fill="white"/>
</mask>
<g mask="url(#mask10_67_5096)">
<mask id="mask11_67_5096" style="mask-type:luminance" maskUnits="userSpaceOnUse" x="22" y="83" width="186" height="146">
<path d="M61.3822 228.612L22.9681 83.5647H207.723L61.3822 228.612Z" fill="white"/>
</mask>
<g mask="url(#mask11_67_5096)">
<path d="M47.9395 91.1501H35.5911C35.4106 91.1501 35.264 91.0037 35.264 90.823C35.264 90.6428 35.4106 90.4963 35.5911 90.4963H47.9395C48.1204 90.4963 48.267 90.6428 48.267 90.823C48.267 91.0037 48.1204 91.1501 47.9395 91.1501Z" fill="#3DBC6C"/>
</g>
</g>
<mask id="mask12_67_5096" style="mask-type:luminance" maskUnits="userSpaceOnUse" x="130" y="97" width="14" height="2">
<path d="M130.023 97.3916H143.144V98.1499H130.023V97.3916Z" fill="white"/>
</mask>
<g mask="url(#mask12_67_5096)">
<mask id="mask13_67_5096" style="mask-type:luminance" maskUnits="userSpaceOnUse" x="22" y="83" width="186" height="146">
<path d="M61.3823 228.612L22.9683 83.5647H207.723L61.3823 228.612Z" fill="white"/>
</mask>
<g mask="url(#mask13_67_5096)">
<path d="M142.754 98.1025H130.406C130.224 98.1025 130.078 97.9561 130.078 97.7758C130.078 97.5956 130.224 97.4487 130.406 97.4487H142.754C142.934 97.4487 143.081 97.5956 143.081 97.7758C143.081 97.9561 142.934 98.1025 142.754 98.1025Z" fill="#3DBC6C"/>
</g>
</g>
<mask id="mask14_67_5096" style="mask-type:luminance" maskUnits="userSpaceOnUse" x="102" y="97" width="15" height="2">
<path d="M102.912 97.3916H116.034V98.1499H102.912V97.3916Z" fill="white"/>
</mask>
<g mask="url(#mask14_67_5096)">
<mask id="mask15_67_5096" style="mask-type:luminance" maskUnits="userSpaceOnUse" x="22" y="83" width="186" height="146">
<path d="M61.3823 228.612L22.9683 83.5647H207.723L61.3823 228.612Z" fill="white"/>
</mask>
<g mask="url(#mask15_67_5096)">
<path d="M115.664 98.1025H103.316C103.135 98.1025 102.988 97.9561 102.988 97.7758C102.988 97.5956 103.135 97.4487 103.316 97.4487H115.664C115.845 97.4487 115.991 97.5956 115.991 97.7758C115.991 97.9561 115.845 98.1025 115.664 98.1025Z" fill="#3DBC6C"/>
</g>
</g>
<mask id="mask16_67_5096" style="mask-type:luminance" maskUnits="userSpaceOnUse" x="75" y="97" width="14" height="2">
<path d="M75.8013 97.3916H88.9228V98.1499H75.8013V97.3916Z" fill="white"/>
</mask>
<g mask="url(#mask16_67_5096)">
<mask id="mask17_67_5096" style="mask-type:luminance" maskUnits="userSpaceOnUse" x="22" y="83" width="186" height="146">
<path d="M61.3822 228.612L22.9681 83.5647H207.723L61.3822 228.612Z" fill="white"/>
</mask>
<g mask="url(#mask17_67_5096)">
<path d="M88.5742 98.1025H76.2257C76.0452 98.1025 75.8987 97.9561 75.8987 97.7758C75.8987 97.5956 76.0452 97.4487 76.2257 97.4487H88.5742C88.7546 97.4487 88.9012 97.5956 88.9012 97.7758C88.9012 97.9561 88.7546 98.1025 88.5742 98.1025Z" fill="#3DBC6C"/>
</g>
</g>
<mask id="mask18_67_5096" style="mask-type:luminance" maskUnits="userSpaceOnUse" x="48" y="97" width="14" height="2">
<path d="M48.7991 97.3916H61.8122V98.1499H48.7991V97.3916Z" fill="white"/>
</mask>
<g mask="url(#mask18_67_5096)">
<mask id="mask19_67_5096" style="mask-type:luminance" maskUnits="userSpaceOnUse" x="22" y="83" width="186" height="146">
<path d="M61.3822 228.612L22.9681 83.5647H207.723L61.3822 228.612Z" fill="white"/>
</mask>
<g mask="url(#mask19_67_5096)">
<path d="M61.4843 98.1025H49.1363C48.9554 98.1025 48.8088 97.9561 48.8088 97.7758C48.8088 97.5956 48.9554 97.4487 49.1363 97.4487H61.4843C61.6652 97.4487 61.8118 97.5956 61.8118 97.7758C61.8118 97.9561 61.6652 98.1025 61.4843 98.1025Z" fill="#3DBC6C"/>
</g>
</g>
<mask id="mask20_67_5096" style="mask-type:luminance" maskUnits="userSpaceOnUse" x="116" y="104" width="14" height="2">
<path d="M116.467 104.325H129.589V105.083H116.467V104.325Z" fill="white"/>
</mask>
<g mask="url(#mask20_67_5096)">
<mask id="mask21_67_5096" style="mask-type:luminance" maskUnits="userSpaceOnUse" x="22" y="83" width="186" height="146">
<path d="M61.3823 228.612L22.9683 83.5647H207.723L61.3823 228.612Z" fill="white"/>
</mask>
<g mask="url(#mask21_67_5096)">
<path d="M129.209 105.055H116.861C116.68 105.055 116.533 104.909 116.533 104.729C116.533 104.548 116.68 104.402 116.861 104.402H129.209C129.389 104.402 129.536 104.548 129.536 104.729C129.536 104.909 129.389 105.055 129.209 105.055Z" fill="#3DBC6C"/>
</g>
</g>
<mask id="mask22_67_5096" style="mask-type:luminance" maskUnits="userSpaceOnUse" x="89" y="104" width="14" height="2">
<path d="M89.3567 104.325H102.478V105.083H89.3567V104.325Z" fill="white"/>
</mask>
<g mask="url(#mask22_67_5096)">
<mask id="mask23_67_5096" style="mask-type:luminance" maskUnits="userSpaceOnUse" x="22" y="83" width="186" height="146">
<path d="M61.3823 228.612L22.9683 83.5647H207.723L61.3823 228.612Z" fill="white"/>
</mask>
<g mask="url(#mask23_67_5096)">
<path d="M102.119 105.055H89.7705C89.59 105.055 89.4435 104.909 89.4435 104.729C89.4435 104.548 89.59 104.402 89.7705 104.402H102.119C102.3 104.402 102.446 104.548 102.446 104.729C102.446 104.909 102.3 105.055 102.119 105.055Z" fill="#3DBC6C"/>
</g>
</g>
<mask id="mask24_67_5096" style="mask-type:luminance" maskUnits="userSpaceOnUse" x="62" y="104" width="14" height="2">
<path d="M62.246 104.325H75.3675V105.083H62.246V104.325Z" fill="white"/>
</mask>
<g mask="url(#mask24_67_5096)">
<mask id="mask25_67_5096" style="mask-type:luminance" maskUnits="userSpaceOnUse" x="22" y="83" width="186" height="146">
<path d="M61.3822 228.612L22.9681 83.5647H207.723L61.3822 228.612Z" fill="white"/>
</mask>
<g mask="url(#mask25_67_5096)">
<path d="M75.0295 105.055H62.681C62.5006 105.055 62.354 104.909 62.354 104.729C62.354 104.548 62.5006 104.402 62.681 104.402H75.0295C75.2099 104.402 75.3565 104.548 75.3565 104.729C75.3565 104.909 75.2099 105.055 75.0295 105.055Z" fill="#3DBC6C"/>
</g>
</g>
<mask id="mask26_67_5096" style="mask-type:luminance" maskUnits="userSpaceOnUse" x="35" y="104" width="14" height="2">
<path d="M35.2438 104.325H48.3653V105.083H35.2438V104.325Z" fill="white"/>
</mask>
<g mask="url(#mask26_67_5096)">
<mask id="mask27_67_5096" style="mask-type:luminance" maskUnits="userSpaceOnUse" x="22" y="83" width="186" height="146">
<path d="M61.3822 228.612L22.9681 83.5647H207.723L61.3822 228.612Z" fill="white"/>
</mask>
<g mask="url(#mask27_67_5096)">
<path d="M47.9395 105.055H35.5911C35.4106 105.055 35.264 104.909 35.264 104.729C35.264 104.548 35.4106 104.402 35.5911 104.402H47.9395C48.1204 104.402 48.267 104.548 48.267 104.729C48.267 104.909 48.1204 105.055 47.9395 105.055Z" fill="#3DBC6C"/>
</g>
</g>
<mask id="mask28_67_5096" style="mask-type:luminance" maskUnits="userSpaceOnUse" x="130" y="111" width="14" height="2">
<path d="M130.023 111.258H143.144V112.017H130.023V111.258Z" fill="white"/>
</mask>
<g mask="url(#mask28_67_5096)">
<mask id="mask29_67_5096" style="mask-type:luminance" maskUnits="userSpaceOnUse" x="22" y="83" width="186" height="146">
<path d="M61.3823 228.612L22.9683 83.5647H207.723L61.3823 228.612Z" fill="white"/>
</mask>
<g mask="url(#mask29_67_5096)">
<path d="M142.754 112.008H130.406C130.224 112.008 130.078 111.862 130.078 111.681C130.078 111.501 130.224 111.355 130.406 111.355H142.754C142.934 111.355 143.081 111.501 143.081 111.681C143.081 111.862 142.934 112.008 142.754 112.008Z" fill="#3DBC6C"/>
</g>
</g>
<mask id="mask30_67_5096" style="mask-type:luminance" maskUnits="userSpaceOnUse" x="102" y="111" width="15" height="2">
<path d="M102.912 111.258H116.034V112.017H102.912V111.258Z" fill="white"/>
</mask>
<g mask="url(#mask30_67_5096)">
<mask id="mask31_67_5096" style="mask-type:luminance" maskUnits="userSpaceOnUse" x="22" y="83" width="186" height="146">
<path d="M61.3823 228.612L22.9683 83.5647H207.723L61.3823 228.612Z" fill="white"/>
</mask>
<g mask="url(#mask31_67_5096)">
<path d="M115.664 112.008H103.316C103.135 112.008 102.988 111.862 102.988 111.681C102.988 111.501 103.135 111.355 103.316 111.355H115.664C115.845 111.355 115.991 111.501 115.991 111.681C115.991 111.862 115.845 112.008 115.664 112.008Z" fill="#3DBC6C"/>
</g>
</g>
<mask id="mask32_67_5096" style="mask-type:luminance" maskUnits="userSpaceOnUse" x="75" y="111" width="14" height="2">
<path d="M75.8013 111.258H88.9228V112.017H75.8013V111.258Z" fill="white"/>
</mask>
<g mask="url(#mask32_67_5096)">
<mask id="mask33_67_5096" style="mask-type:luminance" maskUnits="userSpaceOnUse" x="22" y="83" width="186" height="146">
<path d="M61.3822 228.612L22.9681 83.5647H207.723L61.3822 228.612Z" fill="white"/>
</mask>
<g mask="url(#mask33_67_5096)">
<path d="M88.5742 112.008H76.2257C76.0452 112.008 75.8987 111.862 75.8987 111.681C75.8987 111.501 76.0452 111.355 76.2257 111.355H88.5742C88.7546 111.355 88.9012 111.501 88.9012 111.681C88.9012 111.862 88.7546 112.008 88.5742 112.008Z" fill="#3DBC6C"/>
</g>
</g>
<mask id="mask34_67_5096" style="mask-type:luminance" maskUnits="userSpaceOnUse" x="48" y="111" width="14" height="2">
<path d="M48.7991 111.258H61.8122V112.017H48.7991V111.258Z" fill="white"/>
</mask>
<g mask="url(#mask34_67_5096)">
<mask id="mask35_67_5096" style="mask-type:luminance" maskUnits="userSpaceOnUse" x="22" y="83" width="186" height="146">
<path d="M61.3822 228.612L22.9681 83.5647H207.723L61.3822 228.612Z" fill="white"/>
</mask>
<g mask="url(#mask35_67_5096)">
<path d="M61.4843 112.008H49.1363C48.9554 112.008 48.8088 111.862 48.8088 111.681C48.8088 111.501 48.9554 111.355 49.1363 111.355H61.4843C61.6652 111.355 61.8118 111.501 61.8118 111.681C61.8118 111.862 61.6652 112.008 61.4843 112.008Z" fill="#3DBC6C"/>
</g>
</g>
<mask id="mask36_67_5096" style="mask-type:luminance" maskUnits="userSpaceOnUse" x="116" y="118" width="14" height="2">
<path d="M116.467 118.3H129.589V119.058H116.467V118.3Z" fill="white"/>
</mask>
<g mask="url(#mask36_67_5096)">
<mask id="mask37_67_5096" style="mask-type:luminance" maskUnits="userSpaceOnUse" x="22" y="83" width="186" height="146">
<path d="M61.3823 228.613L22.9683 83.5649H207.723L61.3823 228.613Z" fill="white"/>
</mask>
<g mask="url(#mask37_67_5096)">
<path d="M129.209 118.961H116.861C116.68 118.961 116.533 118.815 116.533 118.634C116.533 118.454 116.68 118.308 116.861 118.308H129.209C129.389 118.308 129.536 118.454 129.536 118.634C129.536 118.815 129.389 118.961 129.209 118.961Z" fill="#3DBC6C"/>
</g>
</g>
<mask id="mask38_67_5096" style="mask-type:luminance" maskUnits="userSpaceOnUse" x="89" y="118" width="14" height="2">
<path d="M89.3567 118.3H102.478V119.058H89.3567V118.3Z" fill="white"/>
</mask>
<g mask="url(#mask38_67_5096)">
<mask id="mask39_67_5096" style="mask-type:luminance" maskUnits="userSpaceOnUse" x="22" y="83" width="186" height="146">
<path d="M61.3823 228.613L22.9683 83.5649H207.723L61.3823 228.613Z" fill="white"/>
</mask>
<g mask="url(#mask39_67_5096)">
<path d="M102.119 118.961H89.7705C89.59 118.961 89.4435 118.815 89.4435 118.634C89.4435 118.454 89.59 118.308 89.7705 118.308H102.119C102.3 118.308 102.446 118.454 102.446 118.634C102.446 118.815 102.3 118.961 102.119 118.961Z" fill="#3DBC6C"/>
</g>
</g>
<mask id="mask40_67_5096" style="mask-type:luminance" maskUnits="userSpaceOnUse" x="62" y="118" width="14" height="2">
<path d="M62.246 118.3H75.3675V119.058H62.246V118.3Z" fill="white"/>
</mask>
<g mask="url(#mask40_67_5096)">
<mask id="mask41_67_5096" style="mask-type:luminance" maskUnits="userSpaceOnUse" x="22" y="83" width="186" height="146">
<path d="M61.3822 228.613L22.9681 83.5649H207.723L61.3822 228.613Z" fill="white"/>
</mask>
<g mask="url(#mask41_67_5096)">
<path d="M75.0295 118.961H62.681C62.5006 118.961 62.354 118.815 62.354 118.634C62.354 118.454 62.5006 118.308 62.681 118.308H75.0295C75.2099 118.308 75.3565 118.454 75.3565 118.634C75.3565 118.815 75.2099 118.961 75.0295 118.961Z" fill="#3DBC6C"/>
</g>
</g>
<mask id="mask42_67_5096" style="mask-type:luminance" maskUnits="userSpaceOnUse" x="35" y="118" width="14" height="2">
<path d="M35.2438 118.3H48.3653V119.058H35.2438V118.3Z" fill="white"/>
</mask>
<g mask="url(#mask42_67_5096)">
<mask id="mask43_67_5096" style="mask-type:luminance" maskUnits="userSpaceOnUse" x="22" y="83" width="186" height="146">
<path d="M61.3822 228.613L22.9681 83.5649H207.723L61.3822 228.613Z" fill="white"/>
</mask>
<g mask="url(#mask43_67_5096)">
<path d="M47.9395 118.961H35.5911C35.4106 118.961 35.264 118.815 35.264 118.634C35.264 118.454 35.4106 118.308 35.5911 118.308H47.9395C48.1204 118.308 48.267 118.454 48.267 118.634C48.267 118.815 48.1204 118.961 47.9395 118.961Z" fill="#3DBC6C"/>
</g>
</g>
<mask id="mask44_67_5096" style="mask-type:luminance" maskUnits="userSpaceOnUse" x="170" y="90" width="14" height="2">
<path d="M170.688 90.4583H183.81V91.2166H170.688V90.4583Z" fill="white"/>
</mask>
<g mask="url(#mask44_67_5096)">
<mask id="mask45_67_5096" style="mask-type:luminance" maskUnits="userSpaceOnUse" x="22" y="83" width="186" height="146">
<path d="M61.3822 228.612L22.9681 83.5647H207.723L61.3822 228.612Z" fill="white"/>
</mask>
<g mask="url(#mask45_67_5096)">
<path d="M183.388 91.1501H171.04C170.859 91.1501 170.712 91.0037 170.712 90.823C170.712 90.6428 170.859 90.4963 171.04 90.4963H183.388C183.568 90.4963 183.716 90.6428 183.716 90.823C183.716 91.0037 183.568 91.1501 183.388 91.1501Z" fill="#3DBC6C"/>
</g>
</g>
<mask id="mask46_67_5096" style="mask-type:luminance" maskUnits="userSpaceOnUse" x="143" y="90" width="14" height="2">
<path d="M143.578 90.4583H156.699V91.2166H143.578V90.4583Z" fill="white"/>
</mask>
<g mask="url(#mask46_67_5096)">
<mask id="mask47_67_5096" style="mask-type:luminance" maskUnits="userSpaceOnUse" x="22" y="83" width="186" height="146">
<path d="M61.3822 228.612L22.9681 83.5647H207.723L61.3822 228.612Z" fill="white"/>
</mask>
<g mask="url(#mask47_67_5096)">
<path d="M156.298 91.1501H143.95C143.77 91.1501 143.624 91.0037 143.624 90.823C143.624 90.6428 143.77 90.4963 143.95 90.4963H156.298C156.479 90.4963 156.626 90.6428 156.626 90.823C156.626 91.0037 156.479 91.1501 156.298 91.1501Z" fill="#3DBC6C"/>
</g>
</g>
<mask id="mask48_67_5096" style="mask-type:luminance" maskUnits="userSpaceOnUse" x="157" y="97" width="14" height="2">
<path d="M157.133 97.3916H170.255V98.1499H157.133V97.3916Z" fill="white"/>
</mask>
<g mask="url(#mask48_67_5096)">
<mask id="mask49_67_5096" style="mask-type:luminance" maskUnits="userSpaceOnUse" x="22" y="83" width="186" height="146">
<path d="M61.3822 228.612L22.9681 83.5647H207.723L61.3822 228.612Z" fill="white"/>
</mask>
<g mask="url(#mask49_67_5096)">
<path d="M169.844 98.1025H157.495C157.314 98.1025 157.168 97.9561 157.168 97.7758C157.168 97.5956 157.314 97.4487 157.495 97.4487H169.844C170.024 97.4487 170.17 97.5956 170.17 97.7758C170.17 97.9561 170.024 98.1025 169.844 98.1025Z" fill="#3DBC6C"/>
</g>
</g>
<mask id="mask50_67_5096" style="mask-type:luminance" maskUnits="userSpaceOnUse" x="130" y="97" width="14" height="2">
<path d="M130.023 97.3916H143.144V98.1499H130.023V97.3916Z" fill="white"/>
</mask>
<g mask="url(#mask50_67_5096)">
<mask id="mask51_67_5096" style="mask-type:luminance" maskUnits="userSpaceOnUse" x="22" y="83" width="186" height="146">
<path d="M61.3823 228.612L22.9683 83.5647H207.723L61.3823 228.612Z" fill="white"/>
</mask>
<g mask="url(#mask51_67_5096)">
<path d="M142.754 98.1025H130.406C130.224 98.1025 130.078 97.9561 130.078 97.7758C130.078 97.5956 130.224 97.4487 130.406 97.4487H142.754C142.934 97.4487 143.081 97.5956 143.081 97.7758C143.081 97.9561 142.934 98.1025 142.754 98.1025Z" fill="#3DBC6C"/>
</g>
</g>
<mask id="mask52_67_5096" style="mask-type:luminance" maskUnits="userSpaceOnUse" x="170" y="104" width="14" height="2">
<path d="M170.688 104.325H183.81V105.083H170.688V104.325Z" fill="white"/>
</mask>
<g mask="url(#mask52_67_5096)">
<mask id="mask53_67_5096" style="mask-type:luminance" maskUnits="userSpaceOnUse" x="22" y="83" width="186" height="146">
<path d="M61.3822 228.612L22.9681 83.5647H207.723L61.3822 228.612Z" fill="white"/>
</mask>
<g mask="url(#mask53_67_5096)">
<path d="M183.388 105.055H171.04C170.859 105.055 170.712 104.909 170.712 104.729C170.712 104.548 170.859 104.402 171.04 104.402H183.388C183.568 104.402 183.716 104.548 183.716 104.729C183.716 104.909 183.568 105.055 183.388 105.055Z" fill="#3DBC6C"/>
</g>
</g>
<mask id="mask54_67_5096" style="mask-type:luminance" maskUnits="userSpaceOnUse" x="143" y="104" width="14" height="2">
<path d="M143.578 104.325H156.699V105.083H143.578V104.325Z" fill="white"/>
</mask>
<g mask="url(#mask54_67_5096)">
<mask id="mask55_67_5096" style="mask-type:luminance" maskUnits="userSpaceOnUse" x="22" y="83" width="186" height="146">
<path d="M61.3822 228.612L22.9681 83.5647H207.723L61.3822 228.612Z" fill="white"/>
</mask>
<g mask="url(#mask55_67_5096)">
<path d="M156.298 105.055H143.95C143.77 105.055 143.624 104.909 143.624 104.729C143.624 104.548 143.77 104.402 143.95 104.402H156.298C156.479 104.402 156.626 104.548 156.626 104.729C156.626 104.909 156.479 105.055 156.298 105.055Z" fill="#3DBC6C"/>
</g>
</g>
<mask id="mask56_67_5096" style="mask-type:luminance" maskUnits="userSpaceOnUse" x="157" y="111" width="14" height="2">
<path d="M157.133 111.258H170.255V112.017H157.133V111.258Z" fill="white"/>
</mask>
<g mask="url(#mask56_67_5096)">
<mask id="mask57_67_5096" style="mask-type:luminance" maskUnits="userSpaceOnUse" x="22" y="83" width="186" height="146">
<path d="M61.3822 228.612L22.9681 83.5647H207.723L61.3822 228.612Z" fill="white"/>
</mask>
<g mask="url(#mask57_67_5096)">
<path d="M169.844 112.008H157.495C157.314 112.008 157.168 111.862 157.168 111.681C157.168 111.501 157.314 111.355 157.495 111.355H169.844C170.024 111.355 170.17 111.501 170.17 111.681C170.17 111.862 170.024 112.008 169.844 112.008Z" fill="#3DBC6C"/>
</g>
</g>
<mask id="mask58_67_5096" style="mask-type:luminance" maskUnits="userSpaceOnUse" x="130" y="111" width="14" height="2">
<path d="M130.023 111.258H143.144V112.017H130.023V111.258Z" fill="white"/>
</mask>
<g mask="url(#mask58_67_5096)">
<mask id="mask59_67_5096" style="mask-type:luminance" maskUnits="userSpaceOnUse" x="22" y="83" width="186" height="146">
<path d="M61.3823 228.612L22.9683 83.5647H207.723L61.3823 228.612Z" fill="white"/>
</mask>
<g mask="url(#mask59_67_5096)">
<path d="M142.754 112.008H130.406C130.224 112.008 130.078 111.862 130.078 111.681C130.078 111.501 130.224 111.355 130.406 111.355H142.754C142.934 111.355 143.081 111.501 143.081 111.681C143.081 111.862 142.934 112.008 142.754 112.008Z" fill="#3DBC6C"/>
</g>
</g>
<mask id="mask60_67_5096" style="mask-type:luminance" maskUnits="userSpaceOnUse" x="143" y="118" width="14" height="2">
<path d="M143.578 118.3H156.699V119.058H143.578V118.3Z" fill="white"/>
</mask>
<g mask="url(#mask60_67_5096)">
<mask id="mask61_67_5096" style="mask-type:luminance" maskUnits="userSpaceOnUse" x="22" y="83" width="186" height="146">
<path d="M61.3822 228.613L22.9681 83.5649H207.723L61.3822 228.613Z" fill="white"/>
</mask>
<g mask="url(#mask61_67_5096)">
<path d="M156.298 118.961H143.95C143.77 118.961 143.624 118.815 143.624 118.634C143.624 118.454 143.77 118.308 143.95 118.308H156.298C156.479 118.308 156.626 118.454 156.626 118.634C156.626 118.815 156.479 118.961 156.298 118.961Z" fill="#3DBC6C"/>
</g>
</g>
<mask id="mask62_67_5096" style="mask-type:luminance" maskUnits="userSpaceOnUse" x="61" y="83" width="165" height="39">
<path d="M61.3784 83.5249H225.651V121.576H61.3784V83.5249Z" fill="white"/>
</mask>
<g mask="url(#mask62_67_5096)">
<path d="M338.518 228.612L298.953 83.5647H199.951L61.3822 228.612H338.518Z" fill="#4ADE80"/>
</g>
<mask id="mask63_67_5096" style="mask-type:luminance" maskUnits="userSpaceOnUse" x="74" y="118" width="116" height="4">
<path d="M74.2831 118.3H189.774V121.576H74.2831V118.3Z" fill="white"/>
</mask>
<g mask="url(#mask63_67_5096)">
<path d="M181.975 118.391L74.3081 231.092H82.0592L189.727 118.391H181.975Z" fill="#C0805C"/>
</g>
<mask id="mask64_67_5096" style="mask-type:luminance" maskUnits="userSpaceOnUse" x="95" y="118" width="116" height="4">
<path d="M95.2125 118.3H210.704V121.576H95.2125V118.3Z" fill="white"/>
</mask>
<g mask="url(#mask64_67_5096)">
<path d="M202.89 118.391L95.224 231.092H102.975L210.642 118.391H202.89Z" fill="#C0805C"/>
</g>
<mask id="mask65_67_5096" style="mask-type:luminance" maskUnits="userSpaceOnUse" x="116" y="118" width="110" height="4">
<path d="M116.033 118.3H225.651V121.576H116.033V118.3Z" fill="white"/>
</mask>
<g mask="url(#mask65_67_5096)">
<path d="M223.806 118.391L116.14 231.092H123.891L231.558 118.391H223.806Z" fill="#C0805C"/>
</g>
<mask id="mask66_67_5096" style="mask-type:luminance" maskUnits="userSpaceOnUse" x="136" y="118" width="90" height="4">
<path d="M136.963 118.3H225.651V121.576H136.963V118.3Z" fill="white"/>
</mask>
<g mask="url(#mask66_67_5096)">
<path d="M244.722 118.391L137.055 231.092H144.806L252.474 118.391H244.722Z" fill="#C0805C"/>
</g>
<mask id="mask67_67_5096" style="mask-type:luminance" maskUnits="userSpaceOnUse" x="116" y="108" width="110" height="14">
<path d="M116.576 108.442H225.651V121.576H116.576V108.442Z" fill="white"/>
</mask>
<g mask="url(#mask67_67_5096)">
<path d="M116.607 170.806H215.61L273.023 110.709L176.142 108.486L116.607 170.806Z" fill="#4ADE80"/>
</g>
<mask id="mask68_67_5096" style="mask-type:luminance" maskUnits="userSpaceOnUse" x="172" y="96" width="54" height="26">
<path d="M172.424 96.0916H225.651V121.576H172.424V96.0916Z" fill="white"/>
</mask>
<g mask="url(#mask68_67_5096)">
<path d="M172.428 229.462H425.478L298.953 96.1711L172.428 229.462Z" fill="white"/>
</g>
<path d="M207.163 91.3461H194.815C194.525 91.3461 194.291 91.1121 194.291 90.8231C194.291 90.5345 194.525 90.3 194.815 90.3H207.163C207.452 90.3 207.686 90.5345 207.686 90.8231C207.686 91.1121 207.452 91.3461 207.163 91.3461Z" fill="#3DBC6C"/>
<mask id="mask69_67_5096" style="mask-type:luminance" maskUnits="userSpaceOnUse" x="221" y="90" width="5" height="2">
<path d="M221.331 90.2417H225.652V91.4334H221.331V90.2417Z" fill="white"/>
</mask>
<g mask="url(#mask69_67_5096)">
<path d="M234.252 91.3461H221.904C221.615 91.3461 221.381 91.1121 221.381 90.8231C221.381 90.5345 221.615 90.3 221.904 90.3H234.252C234.542 90.3 234.776 90.5345 234.776 90.8231C234.776 91.1121 234.542 91.3461 234.252 91.3461Z" fill="#3DBC6C"/>
</g>
<path d="M192.421 98.2986H180.073C179.785 98.2986 179.549 98.0646 179.549 97.776C179.549 97.4869 179.785 97.2529 180.073 97.2529H192.421C192.711 97.2529 192.945 97.4869 192.945 97.776C192.945 98.0646 192.711 98.2986 192.421 98.2986Z" fill="#3DBC6C"/>
<path d="M219.511 98.2986H207.163C206.874 98.2986 206.639 98.0646 206.639 97.776C206.639 97.4869 206.874 97.2529 207.163 97.2529H219.511C219.8 97.2529 220.034 97.4869 220.034 97.776C220.034 98.0646 219.8 98.2986 219.511 98.2986Z" fill="#3DBC6C"/>
<path d="M200.988 108.266H188.64C188.352 108.266 188.116 108.032 188.116 107.743C188.116 107.454 188.352 107.22 188.64 107.22H200.988C201.278 107.22 201.512 107.454 201.512 107.743C201.512 108.032 201.278 108.266 200.988 108.266Z" fill="#3DBC6C"/>
<mask id="mask70_67_5096" style="mask-type:luminance" maskUnits="userSpaceOnUse" x="215" y="107" width="11" height="2">
<path d="M215.15 107.142H225.651V108.333H215.15V107.142Z" fill="white"/>
</mask>
<g mask="url(#mask70_67_5096)">
<path d="M228.078 108.266H215.73C215.441 108.266 215.206 108.032 215.206 107.743C215.206 107.454 215.441 107.22 215.73 107.22H228.078C228.367 107.22 228.602 107.454 228.602 107.743C228.602 108.032 228.367 108.266 228.078 108.266Z" fill="#3DBC6C"/>
</g>
<path d="M186.248 115.219H173.899C173.61 115.219 173.376 114.984 173.376 114.696C173.376 114.406 173.61 114.172 173.899 114.172H186.248C186.536 114.172 186.771 114.406 186.771 114.696C186.771 114.984 186.536 115.219 186.248 115.219Z" fill="#3DBC6C"/>
<path d="M213.337 115.219H200.988C200.7 115.219 200.466 114.984 200.466 114.696C200.466 114.406 200.7 114.172 200.988 114.172H213.337C213.626 114.172 213.86 114.406 213.86 114.696C213.86 114.984 213.626 115.219 213.337 115.219Z" fill="#3DBC6C"/>
</g>
<defs>
<clipPath id="clip0_67_5096">
<rect width="244" height="130" fill="white"/>
</clipPath>
</defs>
</svg>
