<?xml version="1.0" encoding="UTF-8" standalone="no"?>
<svg
   version="1.1"
   x="0px"
   y="0px"
   viewBox="0 0 53.54612 48.474243"
   xml:space="preserve"
   id="svg250"
   sodipodi:docname="noun-plant-in-hand-5556456.svg"
   width="53.54612"
   height="48.474243"
   inkscape:version="1.2.2 (b0a8486541, 2022-12-01)"
   xmlns:inkscape="http://www.inkscape.org/namespaces/inkscape"
   xmlns:sodipodi="http://sodipodi.sourceforge.net/DTD/sodipodi-0.dtd"
   xmlns="http://www.w3.org/2000/svg"
   xmlns:svg="http://www.w3.org/2000/svg"><defs
     id="defs254" /><sodipodi:namedview
     id="namedview252"
     pagecolor="#505050"
     bordercolor="#eeeeee"
     borderopacity="1"
     inkscape:showpageshadow="0"
     inkscape:pageopacity="0"
     inkscape:pagecheckerboard="0"
     inkscape:deskcolor="#505050"
     showgrid="false"
     inkscape:zoom="10.25"
     inkscape:cx="26.682927"
     inkscape:cy="19.121951"
     inkscape:window-width="1920"
     inkscape:window-height="1022"
     inkscape:window-x="0"
     inkscape:window-y="0"
     inkscape:window-maximized="1"
     inkscape:current-layer="g242" /><g
     id="g244"
     transform="translate(-5.2269403,-13.025746)"><g
       id="g242"><g
         id="g417"
         transform="translate(-1.4743593,10.525733)"><path
           d="m 43.360241,19.850691 c 2.176819,-1.31012 4.427917,-2.665161 6.233643,-5.87616 0.135742,-0.240234 0.440429,-0.327148 0.680664,-0.190918 0.240234,0.135681 0.326233,0.44043 0.190429,0.681152 -1.93457,3.441529 -4.407348,4.929871 -6.589111,6.24292 -1.75293,1.054688 -3.409241,2.050843 -4.613403,3.929749 -0.132141,0.206116 -0.244019,0.429138 -0.359558,0.648987 2.507446,0.902343 5.593444,0.441955 8.512207,-1.287171 3.387756,-2.007873 5.734558,-5.238952 6.122253,-8.432922 0.431641,-3.567932 -0.390625,-6.1700441 -1.716858,-9.1467898 -1.054748,2.7520747 -3.540161,4.4611198 -5.955261,6.1208488 -2.169983,1.491761 -4.414185,3.033753 -5.612488,5.323426 -1.299194,2.479492 -1.573364,4.499511 -1.551392,5.836669 1.292054,-1.810485 2.928101,-2.808715 4.658875,-3.849791 z"
           id="path232"
           style="fill:#00604e;fill-opacity:1" /><path
           d="m 24.530529,12.737166 c 2.089905,3.240783 4.250122,6.591979 8.034424,6.735107 1.04248,0.03162 2.199219,-0.203858 3.272156,-0.471497 -1.398499,-4.08728 -4.11615,-7.647766 -7.950989,-10.2407834 -0.228455,-0.1542969 -0.289063,-0.465332 -0.133789,-0.694397 0.15625,-0.2274776 0.46582,-0.2875361 0.694336,-0.1337886 3.834777,2.592712 6.580566,6.115539 8.090637,10.154053 0.312866,-1.079712 0.310547,-2.432617 0.305176,-3.496094 l -0.002,-0.421875 c 0,-3.588989 -1.304748,-6.5861813 -3.774536,-8.6677857 C 30.08247,2.984419 25.494457,1.9639112 20.794079,2.7710401 18.905407,3.0951978 17.091808,4.0753006 16.13673,4.6607498 c 1.200256,0.652832 3.546936,2.0532837 5.299011,3.8633418 1.134766,1.1729127 2.086976,2.6495364 3.094788,4.2130744 z"
           id="path238"
           style="fill:#00604e;fill-opacity:1" /><path
           d="m 36.62672,29.17137 c -0.222534,1.267761 -0.339843,2.531311 -0.407165,3.697389 l 1.00177,-0.01202 c 0.125915,-2.127138 0.711243,-4.393617 1.262329,-6.6662 -0.2948,-3.416382 -1.428894,-6.813904 -1.428894,-6.813904 l -0.927307,0.582947 c 0.826416,2.884216 1.020141,6.00122 0.499267,9.211792 z"
           id="path240"
           inkscape:label="path240"
           style="fill:#00604e;fill-opacity:1" /></g><path
         d="m 57.966198,44.220138 c -0.938477,-0.485351 -2.57135,-0.413574 -3.750122,0.679261 -5.904907,5.483642 -14.001892,7.267517 -14.368652,7.34552 -0.588318,0.264038 -1.267029,0.482666 -2.043946,0.638122 -1.612365,0.322754 -2.954223,0.447754 -4.107605,0.447754 -2.136779,0 -3.625122,-0.429687 -4.994262,-0.824768 -1.903382,-0.54834 -3.548951,-1.02301 -6.560791,-0.374511 -0.282227,0.06006 -0.536133,-0.114258 -0.594727,-0.383301 -0.05762,-0.270081 0.114258,-0.536133 0.383789,-0.594239 3.259888,-0.702209 5.100769,-0.170959 7.049072,0.391114 2.094788,0.60498 4.261841,1.230041 8.629151,0.357361 2.293091,-0.458985 3.681762,-1.465821 3.624145,-2.627991 -0.06934,-1.39209 -2.123108,-2.995667 -5.913269,-3.367737 -4.535278,-0.445312 -6.427917,-1.713928 -8.823486,-3.319946 -1.370178,-0.918946 -2.922974,-1.960022 -5.268799,-2.997193 -5.50415,-2.435485 -14.4345701,3.91333 -15.9997557,5.078125 l 3.8720703,14.544922 c 1.0645754,-0.427002 3.0761724,-1.125061 4.5064084,-0.955383 2.370178,0.278259 4.755005,0.808105 7.060791,1.320801 1.34961,0.300354 2.745117,0.61084 4.11145,0.86383 3.672913,0.680176 7.589112,1.313965 11.510071,0.953614 5.371277,-0.492676 10.595154,-2.888306 15.97229,-7.324952 l 0.273377,-0.225097 c 2.698364,-2.222718 5.757019,-4.741822 6.22583,-8.225403 0.101501,-0.765076 -0.375061,-1.183594 -0.79303,-1.399903 z"
         id="path236"
         style="fill:#00604e;fill-opacity:1" /></g></g></svg>
