<svg width="24" height="24" viewBox="0 0 24 24" fill="none" xmlns="http://www.w3.org/2000/svg">
<path d="M11.865 12.6975C11.835 12.63 11.7675 12.5925 11.6925 12.585C11.6175 12.585 11.55 12.6075 11.505 12.6675C11.385 12.8175 11.2725 12.9525 11.1525 13.0575C11.2575 12.0525 11.0475 11.22 10.515 10.5225C9.96 9.78747 9.135 9.32247 8.4 8.96997C8.3325 8.93247 8.2425 8.93997 8.1825 8.99247C8.1225 9.03747 8.085 9.11247 8.1 9.19497C8.22 9.98997 7.95 10.3275 7.6125 10.77C7.2525 11.2275 6.825 11.7825 6.78 12.96C6.6975 12.78 6.6375 12.5475 6.63 12.2325C6.63 12.15 6.57 12.0675 6.4875 12.0375C6.405 12.0075 6.315 12.0375 6.255 12.0975C5.97 12.42 5.7675 12.75 5.6475 13.11C5.5125 13.485 5.4375 13.875 5.4375 14.28C5.4375 16.155 6.96 17.6775 8.835 17.6775C10.71 17.6775 12.2325 16.155 12.2325 14.28C12.2325 13.7325 12.0975 13.185 11.85 12.705L11.865 12.6975ZM8.8875 17.25C8.8875 17.25 8.8575 17.25 8.85 17.25C7.9875 17.25 7.2825 16.545 7.2825 15.6825C7.2825 15.495 7.3125 15.315 7.38 15.1425C7.5 14.7975 7.755 14.5725 8.025 14.3325C8.3475 14.0475 8.715 13.7325 8.7675 13.1925C9.405 13.5675 9.9075 14.1525 9.6225 15.345C9.6 15.4275 9.63 15.51 9.6975 15.5625C9.765 15.615 9.8475 15.6225 9.9225 15.585C10.05 15.5175 10.2075 15.39 10.35 15.255C10.3875 15.3975 10.41 15.54 10.41 15.69C10.41 16.5375 9.7275 17.235 8.8875 17.2575V17.25ZM10.545 16.7175C10.725 16.4175 10.8375 16.065 10.8375 15.6825C10.8375 15.36 10.7625 15.045 10.6125 14.76C10.5825 14.6925 10.515 14.655 10.44 14.6475C10.365 14.6475 10.2975 14.67 10.2525 14.73C10.215 14.775 10.17 14.8275 10.125 14.88C10.2075 13.575 9.345 12.9825 8.64 12.645C8.5725 12.6075 8.4825 12.615 8.4225 12.6675C8.3625 12.7125 8.325 12.7875 8.34 12.87C8.4225 13.425 8.1225 13.6875 7.7475 14.0175C7.4625 14.2725 7.1325 14.55 6.975 15.0075C6.8925 15.225 6.855 15.4575 6.855 15.69C6.855 16.065 6.96 16.425 7.1475 16.725C6.375 16.185 5.865 15.2925 5.865 14.28C5.865 13.9275 5.925 13.5825 6.045 13.2525C6.0975 13.0875 6.1725 12.9375 6.27 12.78C6.3825 13.26 6.6225 13.53 6.855 13.755C6.915 13.815 7.0125 13.83 7.095 13.8C7.1775 13.7625 7.2225 13.68 7.215 13.59C7.11 12.105 7.5375 11.5575 7.95 11.0325C8.265 10.6275 8.565 10.2375 8.55 9.52497C9.87 10.2075 11.1 11.19 10.6575 13.4775C10.6425 13.56 10.6725 13.635 10.74 13.6875C10.8075 13.7325 10.89 13.74 10.965 13.71C11.1975 13.59 11.4075 13.425 11.6175 13.2C11.7525 13.545 11.82 13.905 11.82 14.2875C11.82 15.3 11.31 16.1925 10.5375 16.7325L10.545 16.7175Z" fill="#78350f"/>
<path d="M22.8226 6.21744C22.6651 6.21744 22.5376 6.34494 22.5376 6.50244V10.2224H20.0926V8.52744C20.0926 8.36994 19.9651 8.24244 19.8076 8.24244H17.9326L16.5826 6.33744C16.5301 6.26244 16.4476 6.21744 16.3501 6.21744H11.6551V3.50994H15.5626C15.6601 3.50994 15.7426 3.38244 15.7426 3.22494C15.7426 3.06744 15.6601 2.93994 15.5626 2.93994H6.91506C6.81756 2.93994 6.73506 3.06744 6.73506 3.22494C6.73506 3.38244 6.81756 3.50994 6.91506 3.50994H11.0926V6.21744H6.45006C6.35256 6.21744 6.26256 6.26244 6.21756 6.34494L4.68006 8.69994H2.81256C2.65506 8.69994 2.52756 8.82744 2.52756 8.98494V12.7124H0.630059V7.52994C0.630059 7.40244 0.502559 7.29744 0.345059 7.29744C0.187559 7.29744 0.0600586 7.40244 0.0600586 7.52994V18.7274C0.0600586 18.8549 0.187559 18.9599 0.345059 18.9599C0.502559 18.9599 0.630059 18.8549 0.630059 18.7274V13.2749H2.53506V17.5274C2.53506 17.6849 2.66256 17.8124 2.82006 17.8124H4.71756L7.14756 20.4449C7.20006 20.5049 7.27506 20.5349 7.35756 20.5349H17.2876C17.3776 20.5349 17.4676 20.4899 17.5201 20.4149L19.3126 17.8124H22.5451V20.2574C22.5451 20.4149 22.6726 20.5424 22.8301 20.5424C22.9876 20.5424 23.1151 20.4149 23.1151 20.2574V6.49494C23.1151 6.33744 22.9876 6.20994 22.8301 6.20994L22.8226 6.21744ZM19.1551 17.2424C19.0651 17.2424 18.9751 17.2874 18.9226 17.3624L17.1301 19.9649H7.47006L5.04006 17.3324C4.98756 17.2724 4.91256 17.2424 4.83006 17.2424H3.09006V9.25494H4.83006C4.92756 9.25494 5.01756 9.20994 5.06256 9.12744L6.60006 6.77244H16.2001L17.5501 8.67744C17.6026 8.75244 17.6851 8.79744 17.7826 8.79744H19.5226V10.4924C19.5226 10.6499 19.6501 10.7774 19.8076 10.7774H22.5301V17.2424H19.1476H19.1551Z" fill="#78350f"/>
<path d="M16.0951 17.4451C16.0951 17.4451 16.0426 17.4451 16.0201 17.4376C15.8701 17.3926 15.7876 17.2426 15.8251 17.0926L16.7776 13.7551L15.1501 14.7901C15.0526 14.8501 14.9251 14.8501 14.8276 14.7751C14.7376 14.7076 14.6926 14.5801 14.7301 14.4676L16.0801 10.0576C16.1251 9.90755 16.2826 9.82505 16.4326 9.87005C16.5826 9.91505 16.6651 10.0726 16.6201 10.2226L15.4876 13.8976L17.1001 12.8776C17.1976 12.8176 17.3251 12.8176 17.4226 12.8926C17.5126 12.9601 17.5576 13.0801 17.5276 13.1926L16.3726 17.2351C16.3351 17.3626 16.2226 17.4376 16.1026 17.4376L16.0951 17.4451Z" fill="#78350f"/>
</svg>
