<svg width="24" height="24" viewBox="0 0 24 24" fill="none" xmlns="http://www.w3.org/2000/svg">
<path d="M12.3751 21.09H1.50009C1.34259 21.09 1.21509 21.2175 1.21509 21.375V23.25C1.21509 23.4075 1.34259 23.535 1.50009 23.535H12.3751C12.5326 23.535 12.6601 23.4075 12.6601 23.25V21.375C12.6601 21.2175 12.5326 21.09 12.3751 21.09ZM12.0901 22.965H1.78509V21.6525H12.0976V22.965H12.0901Z" fill="#1C1917"/>
<path d="M22.2301 21.03H15.3751C15.2176 21.03 15.0901 21.1575 15.0901 21.315V23.19C15.0901 23.3475 15.2176 23.475 15.3751 23.475H22.2301C22.3876 23.475 22.5151 23.3475 22.5151 23.19V21.315C22.5151 21.1575 22.3876 21.03 22.2301 21.03ZM21.9451 22.905H15.6526V21.5925H21.9451V22.905Z" fill="#1C1917"/>
<path d="M3.85507 19.7175H8.62507C8.78257 19.7175 8.91007 19.59 8.91007 19.4325V17.5575C8.91007 17.4 8.78257 17.2725 8.62507 17.2725H3.85507C3.69757 17.2725 3.57007 17.4 3.57007 17.5575V19.4325C3.57007 19.59 3.69757 19.7175 3.85507 19.7175ZM4.13257 17.8425H8.34007V19.155H4.13257V17.8425Z" fill="#1C1917"/>
<path d="M11.0326 19.7175H20.6251C20.7826 19.7175 20.9101 19.59 20.9101 19.4325V17.5575C20.9101 17.4 20.7826 17.2725 20.6251 17.2725H11.0326C10.8751 17.2725 10.7476 17.4 10.7476 17.5575V19.4325C10.7476 19.59 10.8751 19.7175 11.0326 19.7175ZM11.3101 17.8425H20.3401V19.155H11.3101V17.8425Z" fill="#1C1917"/>
<path d="M17.3625 6.72003C17.31 6.61503 17.205 6.54753 17.085 6.53253C16.965 6.52503 16.8525 6.57003 16.7775 6.66753C16.5825 6.92253 16.3875 7.13253 16.1925 7.31253C16.365 5.65503 16.02 4.27503 15.1425 3.12003C14.22 1.90503 12.855 1.14003 11.6475 0.555028C11.5275 0.495028 11.3925 0.510028 11.2875 0.585028C11.1825 0.660028 11.13 0.787528 11.1525 0.915028C11.3475 2.22753 10.905 2.79753 10.35 3.51753C9.7575 4.27503 9.045 5.19003 8.97 7.14003C8.8275 6.84003 8.73 6.45753 8.715 5.93253C8.715 5.79003 8.6175 5.66253 8.4825 5.61753C8.3475 5.57253 8.1975 5.61003 8.1 5.71503C7.6275 6.24753 7.2975 6.79503 7.095 7.38753C6.87 8.01003 6.75 8.65503 6.75 9.32253C6.75 12.4275 9.27 14.9475 12.375 14.9475C15.48 14.9475 18 12.4275 18 9.32253C18 8.41503 17.7825 7.51503 17.3625 6.72003ZM9.7875 11.6625C9.7875 11.355 9.84 11.055 9.945 10.77C9.945 10.77 9.945 10.77 9.945 10.7625C10.14 10.1925 10.5675 9.81753 11.0175 9.42753C11.5575 8.95503 12.1575 8.43753 12.2475 7.54503C13.2975 8.16753 14.1375 9.12753 13.665 11.1C13.635 11.235 13.68 11.37 13.7925 11.46C13.8975 11.5425 14.0475 11.5575 14.1675 11.4975C14.3775 11.3925 14.64 11.1675 14.8725 10.95C14.94 11.1825 14.97 11.4225 14.97 11.67C14.97 13.0725 13.845 14.22 12.45 14.2575C12.4275 14.2575 12.405 14.2575 12.3825 14.2575C10.9575 14.2575 9.795 13.095 9.795 11.67L9.7875 11.6625ZM15.18 13.3725C15.4875 12.8775 15.66 12.2925 15.66 11.6625C15.66 11.13 15.5325 10.605 15.285 10.14C15.2325 10.035 15.1275 9.96753 15.0075 9.95253C14.8875 9.94503 14.775 9.99003 14.7 10.0875C14.64 10.1625 14.565 10.245 14.4825 10.335C14.625 8.18253 13.1925 7.20003 12.03 6.63753C11.91 6.57753 11.775 6.59253 11.67 6.66753C11.565 6.74253 11.5125 6.87003 11.535 6.99753C11.67 7.92003 11.1825 8.34753 10.56 8.88753C10.08 9.30003 9.5475 9.77253 9.285 10.5225C9.15 10.8825 9.0825 11.265 9.0825 11.655C9.0825 12.2775 9.255 12.8625 9.5625 13.365C8.28 12.4725 7.44 10.995 7.44 9.31503C7.44 8.73003 7.545 8.16003 7.74 7.61253C7.74 7.61253 7.74 7.61253 7.74 7.60503C7.83 7.33503 7.95 7.08003 8.1075 6.82503C8.295 7.61253 8.6925 8.07003 9.0675 8.43753C9.1725 8.54253 9.33 8.56503 9.4575 8.50503C9.585 8.44503 9.6675 8.31003 9.66 8.16003C9.4875 5.70753 10.1925 4.80003 10.875 3.93003C11.4 3.26253 11.895 2.61753 11.8725 1.44003C14.055 2.57253 16.0875 4.19253 15.36 7.97253C15.3375 8.10753 15.39 8.23503 15.495 8.31753C15.6 8.40003 15.7425 8.40753 15.8625 8.34753C16.245 8.15253 16.5975 7.87503 16.9425 7.50003C17.1675 8.07003 17.28 8.67003 17.28 9.30003C17.28 10.9725 16.44 12.4575 15.1575 13.35L15.18 13.3725Z" fill="#1C1917"/>
</svg>
