<svg width="24" height="24" viewBox="0 0 24 24" fill="none" xmlns="http://www.w3.org/2000/svg">
<path d="M9.79511 22.1026C5.92511 21.1351 3.92261 16.7626 3.92261 14.0176C3.92261 13.0576 4.08761 12.1201 4.41761 11.2276C4.41761 11.2276 4.41761 11.2201 4.41761 11.2126C4.56761 10.7701 4.77011 10.3501 5.02511 9.93755C5.33261 11.2351 5.98511 11.9776 6.60011 12.5851C6.77261 12.7501 7.02761 12.7951 7.23761 12.6976C7.44761 12.6001 7.58261 12.3751 7.56761 12.1351C7.29011 8.11505 8.44511 6.63005 9.56261 5.19755C10.4176 4.09505 11.2276 3.05255 11.1976 1.11755C14.7751 2.97005 18.1126 5.63255 16.9201 11.8351C16.8751 12.0526 16.9651 12.2701 17.1376 12.3976C17.3101 12.5251 17.5501 12.5476 17.7451 12.4501C18.3676 12.1276 18.9526 11.6701 19.5151 11.0701C19.8826 12.0001 20.0701 12.9901 20.0701 14.0176C20.0701 16.7626 17.3026 20.4451 15.2026 21.9076M7.68761 18.1951C7.68761 17.6401 7.78511 17.0926 7.97261 16.5826C7.97261 16.5826 7.97261 16.5751 7.97261 16.5676C8.32511 15.5326 9.09761 14.8651 9.90761 14.1526C10.8826 13.3051 11.9626 12.3601 12.1276 10.7551C14.0251 11.8726 15.5401 13.6201 14.6851 17.1826C14.6251 17.4226 14.7151 17.6701 14.9101 17.8276C15.1051 17.9776 15.3676 18.0076 15.5851 17.8951C15.9601 17.7001 16.4401 17.3026 16.8526 16.9051C16.9726 17.3251 17.0326 17.7601 17.0326 18.2026C17.0326 20.7451 15.0001 22.8151 12.4726 22.8751C12.4351 22.8751 12.3901 22.8751 12.3526 22.8751C9.77261 22.8751 7.67261 20.7751 7.67261 18.1951H7.68761Z" stroke="#1C1917" stroke-width="0.75" stroke-miterlimit="10"/>
</svg>
