<svg width="24" height="24" viewBox="0 0 24 24" fill="none" xmlns="http://www.w3.org/2000/svg">
<g clip-path="url(#clip0_18_2608)">
<path d="M21.2324 23.25C20.1449 23.25 19.2524 22.4325 19.2524 21.4275C19.2524 20.805 19.5899 20.235 20.1524 19.8825V14.955C20.1524 14.5725 20.5199 14.25 20.9474 14.25H21.4799C21.9224 14.25 22.2749 14.5575 22.2749 14.955V19.8825C22.8524 20.22 23.1749 20.775 23.1749 21.4275C23.1749 22.4325 22.3049 23.25 21.2249 23.25H21.2324ZM20.9474 14.625C20.7374 14.625 20.5574 14.7825 20.5574 14.955V20.0925L20.4599 20.145C19.9574 20.415 19.6574 20.895 19.6574 21.42C19.6574 22.2225 20.3624 22.875 21.2324 22.875C22.1024 22.875 22.7774 22.2225 22.7774 21.42C22.7774 20.8725 22.4849 20.4075 21.9749 20.145L21.8699 20.0925V14.9475C21.8699 14.7525 21.7049 14.6175 21.4799 14.6175H20.9474V14.625Z" fill="#7b2525"/>
<path fill-rule="evenodd" clip-rule="evenodd" d="M21.48 20.3025V16.59H20.9475V20.3025L20.6325 20.445C20.2575 20.6475 20.04 21.0225 20.04 21.42C20.04 22.0275 20.5725 22.515 21.225 22.515C21.8775 22.515 22.41 22.0275 22.41 21.42C22.41 21.015 22.1625 20.64 21.7875 20.445L21.4725 20.3025H21.48Z" fill="#7b2525"/>
<path d="M16.2676 19.5074H5.85759C5.73759 19.5074 5.16009 19.4624 5.16009 18.8099C5.16009 18.1574 5.74509 18.1124 5.85759 18.1124H16.2676C16.7776 18.1124 17.5276 17.7749 17.5276 16.8524C17.5276 15.9299 16.7701 15.5924 16.2676 15.5924H5.85759C5.15259 15.5924 5.04009 14.8199 5.03259 14.7674V14.1899H13.7701V5.12994L7.11759 0.127441L0.465088 5.12994V14.1749H4.46259V14.7899C4.52259 15.2624 4.88259 16.1474 5.85009 16.1474H16.2601C16.3801 16.1474 16.9576 16.1924 16.9576 16.8449C16.9576 17.4974 16.3726 17.5424 16.2601 17.5424H5.85759C5.34759 17.5424 4.59759 17.8799 4.59759 18.8024C4.59759 19.7249 5.35509 20.0624 5.85759 20.0624H16.2676C16.3876 20.0624 16.9726 20.1074 16.9726 20.7674C16.9726 21.4274 16.3876 21.4649 16.2751 21.4649H5.85759V22.0274H16.2751C16.7776 22.0274 17.5351 21.6899 17.5351 20.7674C17.5351 19.8449 16.7776 19.5074 16.2676 19.4999V19.5074ZM1.02759 5.41494L7.11759 0.832441L13.2076 5.40744V13.6049H1.02759V5.41494Z" fill="#7b2525"/>
</g>
<defs>
<clipPath id="clip0_18_2608">
<rect width="24" height="24" fill="white"/>
</clipPath>
</defs>
</svg>
