<svg width="24" height="24" viewBox="0 0 24 24" fill="none" xmlns="http://www.w3.org/2000/svg">
<path d="M13.785 15.9225H0.47998V6.8775L7.13248 1.875L13.785 6.8775V15.9225ZM1.04248 15.36H13.215V7.1625L7.13248 2.58L1.04248 7.155V15.3525V15.36Z" fill="#1C1917"/>
<path d="M20.8275 21.495C19.3125 21.495 18.0825 20.265 18.0825 18.75C18.0825 17.8125 18.5475 16.9575 19.335 16.4325V9.02997C19.335 8.45247 19.8375 7.97247 20.4375 7.97247H21.1725C21.7875 7.97247 22.275 8.43747 22.275 9.02997V16.4325C23.0775 16.935 23.5275 17.775 23.5275 18.75C23.5275 20.265 22.3125 21.495 20.8275 21.495ZM20.4375 8.53497C20.1525 8.53497 19.8975 8.76747 19.8975 9.02997V16.755L19.7625 16.8375C19.065 17.25 18.645 17.9625 18.645 18.7575C18.645 19.9575 19.62 20.94 20.8275 20.94C22.035 20.94 22.965 19.965 22.965 18.7575C22.965 17.9325 22.56 17.235 21.855 16.845L21.7125 16.7625V9.03747C21.7125 8.75247 21.4875 8.54247 21.1725 8.54247H20.4375V8.53497Z" fill="#1C1917"/>
<path fill-rule="evenodd" clip-rule="evenodd" d="M21.1726 17.0625V11.49H20.4376V17.0625L20.0026 17.28C19.4851 17.58 19.1851 18.1425 19.1851 18.75C19.1851 19.6575 19.9201 20.3925 20.8276 20.3925C21.7351 20.3925 22.4701 19.6575 22.4701 18.75C22.4701 18.1425 22.1251 17.58 21.6076 17.28L21.1726 17.0625Z" fill="#1C1917"/>
<path d="M16.8751 19.785H7.50009C5.79759 19.785 5.34009 18.375 5.34009 17.625V15.375H5.90259V17.625C5.90259 17.79 5.95509 19.215 7.49259 19.215H16.8676V19.7775L16.8751 19.785Z" fill="#1C1917"/>
</svg>
