<svg width="24" height="24" viewBox="0 0 24 24" fill="none" xmlns="http://www.w3.org/2000/svg">
<g clip-path="url(#clip0_26_453)">
<path d="M14.1 14.3925H0.80249V5.35504L7.45499 0.352539L14.1075 5.35504V14.4L14.1 14.3925ZM1.36499 13.83H13.5375V5.63254L7.45499 1.05754L1.36499 5.63254V13.83Z" fill="#1C1917"/>
<path d="M7.88241 18.3975H4.50741C2.80491 18.3975 2.34741 16.9875 2.34741 16.2375V13.9875H2.90991V16.2375C2.90991 16.4025 2.96241 17.8275 4.49991 17.8275H7.87491V18.39L7.88241 18.3975Z" fill="#1C1917"/>
<path d="M10.02 17.5351C10.59 17.5351 10.8825 17.2876 11.145 17.0626C11.37 16.8751 11.5425 16.7251 11.9175 16.7251C12.2925 16.7251 12.4575 16.8676 12.69 17.0626C12.945 17.2801 13.2375 17.5351 13.815 17.5351C14.3925 17.5351 14.6775 17.2876 14.94 17.0626C15.1725 16.8676 15.3375 16.7251 15.7125 16.7251C16.0875 16.7251 16.2525 16.8676 16.485 17.0626C16.74 17.2801 17.0325 17.5351 17.61 17.5351C17.76 17.5351 17.88 17.4151 17.88 17.2651C17.88 17.1151 17.76 16.9951 17.61 16.9951C17.235 16.9951 17.07 16.8526 16.8375 16.6576C16.5825 16.4401 16.29 16.1851 15.7125 16.1851C15.135 16.1851 14.85 16.4326 14.5875 16.6576C14.355 16.8526 14.19 16.9951 13.815 16.9951C13.44 16.9951 13.275 16.8526 13.0425 16.6576C12.7875 16.4401 12.495 16.1851 11.9175 16.1851C11.34 16.1851 11.055 16.4326 10.7925 16.6576C10.5675 16.8451 10.395 16.9951 10.02 16.9951C9.87 16.9951 9.75 17.1151 9.75 17.2651C9.75 17.4151 9.87 17.5351 10.02 17.5351Z" fill="#1C1917"/>
<path d="M10.02 20.2425C10.59 20.2425 10.8825 19.995 11.145 19.77C11.37 19.5825 11.5425 19.4325 11.9175 19.4325C12.2925 19.4325 12.4575 19.575 12.69 19.77C12.945 19.9875 13.2375 20.2425 13.815 20.2425C14.3925 20.2425 14.6775 19.995 14.94 19.77C15.1725 19.575 15.3375 19.4325 15.7125 19.4325C16.0875 19.4325 16.2525 19.575 16.485 19.77C16.74 19.9875 17.0325 20.2425 17.61 20.2425C17.76 20.2425 17.88 20.1225 17.88 19.9725C17.88 19.8225 17.76 19.7025 17.61 19.7025C17.235 19.7025 17.07 19.56 16.8375 19.365C16.5825 19.1475 16.29 18.8925 15.7125 18.8925C15.135 18.8925 14.85 19.14 14.5875 19.365C14.355 19.56 14.19 19.7025 13.815 19.7025C13.44 19.7025 13.275 19.56 13.0425 19.365C12.7875 19.1475 12.495 18.8925 11.9175 18.8925C11.34 18.8925 11.055 19.14 10.7925 19.365C10.5675 19.5525 10.395 19.7025 10.02 19.7025C9.87 19.7025 9.75 19.8225 9.75 19.9725C9.75 20.1225 9.87 20.2425 10.02 20.2425Z" fill="#1C1917"/>
<path d="M10.02 22.95C10.59 22.95 10.8825 22.7025 11.145 22.4775C11.37 22.29 11.5425 22.14 11.9175 22.14C12.2925 22.14 12.4575 22.2825 12.69 22.4775C12.945 22.695 13.2375 22.95 13.815 22.95C14.3925 22.95 14.6775 22.7025 14.94 22.4775C15.1725 22.2825 15.3375 22.14 15.7125 22.14C16.0875 22.14 16.2525 22.2825 16.485 22.4775C16.74 22.695 17.0325 22.95 17.61 22.95C17.76 22.95 17.88 22.83 17.88 22.68C17.88 22.53 17.76 22.41 17.61 22.41C17.235 22.41 17.07 22.2675 16.8375 22.0725C16.5825 21.855 16.29 21.6 15.7125 21.6C15.135 21.6 14.85 21.8475 14.5875 22.0725C14.355 22.2675 14.19 22.41 13.815 22.41C13.44 22.41 13.275 22.2675 13.0425 22.0725C12.7875 21.855 12.495 21.6 11.9175 21.6C11.34 21.6 11.055 21.8475 10.7925 22.0725C10.5675 22.26 10.395 22.41 10.02 22.41C9.87 22.41 9.75 22.53 9.75 22.68C9.75 22.83 9.87 22.95 10.02 22.95Z" fill="#1C1917"/>
<path d="M22.0125 23.865C20.925 23.865 20.0325 23.0475 20.0325 22.0425C20.0325 21.42 20.37 20.85 20.9325 20.4975V15.57C20.9325 15.1875 21.3 14.865 21.7275 14.865H22.26C22.7025 14.865 23.055 15.1725 23.055 15.57V20.4975C23.6325 20.835 23.955 21.39 23.955 22.0425C23.955 23.0475 23.085 23.865 22.005 23.865H22.0125ZM21.7275 15.24C21.5175 15.24 21.3375 15.3975 21.3375 15.57V20.7075L21.24 20.76C20.7375 21.03 20.4375 21.51 20.4375 22.035C20.4375 22.8375 21.1425 23.49 22.0125 23.49C22.8825 23.49 23.5575 22.8375 23.5575 22.035C23.5575 21.4875 23.265 21.0225 22.755 20.76L22.65 20.7075V15.5625C22.65 15.3675 22.485 15.2325 22.26 15.2325H21.7275V15.24Z" fill="#1C1917"/>
<path fill-rule="evenodd" clip-rule="evenodd" d="M22.2601 20.9175V17.205H21.7276V20.9175L21.4126 21.06C21.0376 21.2625 20.8201 21.6375 20.8201 22.035C20.8201 22.6425 21.3526 23.13 22.0051 23.13C22.6576 23.13 23.1901 22.6425 23.1901 22.035C23.1901 21.63 22.9426 21.255 22.5676 21.06L22.2526 20.9175H22.2601Z" fill="#1C1917"/>
</g>
<defs>
<clipPath id="clip0_26_453">
<rect width="24" height="24" fill="white"/>
</clipPath>
</defs>
</svg>
