<svg width="24" height="24" viewBox="0 0 24 24" fill="none" xmlns="http://www.w3.org/2000/svg">
<path d="M23.8125 16.98L21.6975 10.0425C21.6675 9.94502 21.585 9.87002 21.48 9.84752L20.28 9.62252L20.9325 8.32502C21 8.19002 20.9475 8.01752 20.805 7.95002C20.67 7.88252 20.4975 7.93502 20.43 8.07752L19.7025 9.51752L18.015 9.20252L16.7025 6.54752C16.665 6.47252 16.59 6.41252 16.5075 6.39752L15.9375 6.27752L17.0025 5.53502C17.13 5.44502 17.16 5.27252 17.07 5.14502C16.98 5.01752 16.8075 4.98752 16.68 5.07752L15.18 6.12002L14.01 5.87252L12.0975 5.05502L11.9175 3.62252C11.895 3.46502 11.76 3.36002 11.6025 3.37502C11.445 3.39752 11.34 3.53252 11.355 3.69002L11.4975 4.80002L9.87751 4.11002C9.81001 4.08002 9.72751 4.08002 9.66001 4.11002C9.59251 4.14002 9.53251 4.20002 9.51001 4.26752L9.03001 5.55002L7.30501 6.13502V5.09252C7.30501 4.93502 7.17751 4.80752 7.02001 4.80752C6.86251 4.80752 6.73501 4.93502 6.73501 5.09252V6.32252L5.91751 6.60002L3.27001 8.22752C3.21751 8.25752 3.18001 8.31002 3.15751 8.37002L2.52001 10.0425C2.52001 10.0425 2.52001 10.05 2.52001 10.0575L2.32501 10.6725L1.61251 10.425C1.46251 10.3725 1.30501 10.455 1.25251 10.5975C1.20001 10.7475 1.28251 10.905 1.42501 10.9575L2.15251 11.2125L0.30001 16.98C0.27751 17.055 0.28501 17.13 0.32251 17.1975C0.36001 17.265 0.42001 17.3175 0.49501 17.3325L3.96751 18.315L4.42501 19.98C4.46251 20.1075 4.57501 20.19 4.69501 20.19C4.71751 20.19 4.74751 20.19 4.77001 20.1825C4.92001 20.145 5.01001 19.9875 4.96501 19.8375L4.59751 18.5025L7.79251 19.4025C7.79251 19.4025 7.84501 19.41 7.86751 19.41C7.86751 19.41 7.88251 19.41 7.89001 19.41L9.20251 19.32L9.07501 19.8375C9.03751 19.9875 9.13501 20.1375 9.28501 20.175C9.30751 20.175 9.33001 20.1825 9.35251 20.1825C9.48001 20.1825 9.59251 20.0925 9.62251 19.965L9.78751 19.275L19.1925 18.645L23.61 17.3325C23.685 17.31 23.745 17.265 23.775 17.1975C23.8125 17.13 23.82 17.055 23.7975 16.98H23.8125ZM19.1025 18.0975L9.93001 18.705L10.0125 18.375C10.05 18.225 9.95251 18.075 9.80251 18.0375C9.65251 18 9.50251 18.0975 9.46501 18.2475L9.34501 18.75L7.90501 18.8475L4.42501 17.865L4.28251 17.34C4.24501 17.19 4.08751 17.1 3.93751 17.145C3.78751 17.1825 3.69751 17.34 3.74251 17.49L3.79501 17.685L0.93001 16.875L2.69251 11.3775L4.18501 11.895C4.18501 11.895 4.24501 11.91 4.27501 11.91C4.39501 11.91 4.50001 11.835 4.53751 11.7225C4.59001 11.5725 4.50751 11.415 4.36501 11.3625L2.85751 10.8375L3.05251 10.2225L3.65251 8.64752L6.15751 7.10252L6.74251 6.90752V8.13002C6.74251 8.28752 6.87001 8.41502 7.02751 8.41502C7.18501 8.41502 7.31251 8.28752 7.31251 8.13002V6.72002L9.34501 6.03752C9.42751 6.00752 9.48751 5.94752 9.51751 5.87252L9.94501 4.74002L11.595 5.44502L11.7225 6.48002C11.7375 6.62252 11.865 6.72752 12 6.72752C12.015 6.72752 12.0225 6.72752 12.0375 6.72752C12.195 6.70502 12.3 6.57002 12.285 6.41252L12.195 5.70002L13.86 6.40502L14.565 6.55502L13.65 7.19252C13.5225 7.28252 13.4925 7.45502 13.5825 7.58252C13.635 7.65752 13.725 7.70252 13.815 7.70252C13.8675 7.70252 13.9275 7.68752 13.9725 7.65002L15.3225 6.71252L16.2675 6.91502L17.58 9.57752C17.6175 9.66002 17.6925 9.71252 17.7825 9.72752L19.4475 10.0425L19.17 10.59C19.1025 10.725 19.155 10.8975 19.2975 10.965C19.335 10.9875 19.38 10.995 19.425 10.995C19.53 10.995 19.6275 10.935 19.6725 10.8375L20.025 10.1475L21.2175 10.3725L23.205 16.875L19.1175 18.0975H19.1025Z" fill="#1C1917"/>
<path d="M6.92238 10.9725C6.92238 10.9725 6.98988 10.995 7.02738 10.995C7.13988 10.995 7.24488 10.9275 7.28988 10.8225C7.34988 10.68 7.28238 10.515 7.13988 10.455L4.80738 9.495C4.66488 9.435 4.49988 9.5025 4.43988 9.645C4.37988 9.7875 4.44738 9.9525 4.58988 10.0125L6.92238 10.9725Z" fill="#1C1917"/>
<path d="M8.19004 9.76498C8.23504 9.76498 8.28004 9.75748 8.32504 9.72748L10.6575 8.44498C10.7925 8.36998 10.845 8.19748 10.77 8.06248C10.695 7.92748 10.5225 7.87498 10.3875 7.94998L8.05504 9.23248C7.92004 9.30748 7.86754 9.47998 7.94254 9.61498C7.99504 9.70498 8.09254 9.75748 8.19004 9.75748V9.76498Z" fill="#1C1917"/>
<path d="M9.87759 11.49C9.80259 11.625 9.85509 11.7975 9.99009 11.8725L13.0351 13.5C13.0801 13.5225 13.1251 13.53 13.1701 13.53C13.2676 13.53 13.3651 13.4775 13.4176 13.38C13.4926 13.245 13.4401 13.0725 13.3051 12.9975L10.2601 11.37C10.1251 11.295 9.95259 11.3475 9.87759 11.4825V11.49Z" fill="#1C1917"/>
<path d="M13.8076 10.95C13.8076 10.95 13.8526 10.95 13.8826 10.9425L16.3201 10.2975C16.4701 10.26 16.5601 10.1025 16.5226 9.95252C16.4851 9.80252 16.3351 9.71252 16.1776 9.75002L13.7401 10.395C13.5901 10.4325 13.5001 10.59 13.5376 10.74C13.5676 10.8675 13.6876 10.95 13.8076 10.95Z" fill="#1C1917"/>
<path d="M18.6451 12.585L14.9926 12.9675C14.8351 12.9825 14.7226 13.125 14.7451 13.275C14.7601 13.4175 14.8801 13.53 15.0226 13.53C15.0301 13.53 15.0451 13.53 15.0526 13.53L18.7051 13.1475C18.8626 13.1325 18.9751 12.99 18.9526 12.84C18.9376 12.6825 18.8026 12.5775 18.6451 12.5925V12.585Z" fill="#1C1917"/>
<path d="M7.28261 12.465C7.21511 12.33 7.04261 12.27 6.90761 12.345L4.15511 13.7475C4.02011 13.815 3.96011 13.9875 4.03511 14.1225C4.08761 14.22 4.18511 14.28 4.28261 14.28C4.32761 14.28 4.37261 14.2725 4.41011 14.25L7.16261 12.8475C7.29761 12.78 7.35761 12.6075 7.28261 12.4725V12.465Z" fill="#1C1917"/>
<path d="M10.185 14.865L7.61996 14.28C7.46246 14.2425 7.31996 14.34 7.28246 14.49C7.24496 14.64 7.34246 14.79 7.49246 14.8275L10.0575 15.4125C10.0575 15.4125 10.1025 15.4125 10.1175 15.4125C10.245 15.4125 10.365 15.3225 10.395 15.195C10.4325 15.045 10.335 14.895 10.185 14.8575V14.865Z" fill="#1C1917"/>
<path d="M20.7975 12.3375C20.655 12.2775 20.49 12.3375 20.43 12.48L19.1625 15.405C19.1025 15.5475 19.1625 15.7125 19.305 15.7725C19.3425 15.7875 19.38 15.795 19.4175 15.795C19.5225 15.795 19.6275 15.735 19.6725 15.6225L20.94 12.6975C21 12.555 20.94 12.39 20.7975 12.33V12.3375Z" fill="#1C1917"/>
<path d="M11.43 13.875C11.3325 13.995 11.3475 14.175 11.4675 14.2725L13.6275 16.0575C13.68 16.1025 13.74 16.125 13.8075 16.125C13.89 16.125 13.965 16.0875 14.025 16.02C14.1225 15.9 14.1075 15.72 13.9875 15.6225L11.8275 13.8375C11.7075 13.74 11.5275 13.755 11.43 13.875Z" fill="#1C1917"/>
<path d="M11.6475 9.67498C11.715 9.67498 11.775 9.65248 11.8275 9.60748L12.24 9.25498C12.36 9.15748 12.3675 8.97748 12.27 8.85748C12.165 8.73748 11.9925 8.72998 11.8725 8.82748L11.46 9.17998C11.34 9.27748 11.3325 9.45748 11.43 9.57748C11.4825 9.64498 11.565 9.67498 11.64 9.67498H11.6475Z" fill="#1C1917"/>
<path d="M4.88256 15.3C4.76256 15.2025 4.58256 15.2175 4.48506 15.33C4.38756 15.45 4.40256 15.6225 4.51506 15.7275L4.90506 16.0575C4.95756 16.1025 5.02506 16.125 5.08506 16.125C5.16756 16.125 5.24256 16.095 5.30256 16.0275C5.40006 15.9075 5.38506 15.735 5.27256 15.63L4.88256 15.3Z" fill="#1C1917"/>
<path d="M16.245 11.4225C16.2225 11.58 16.3275 11.7225 16.485 11.7375L17.6175 11.9025C17.6175 11.9025 17.6475 11.9025 17.655 11.9025C17.79 11.9025 17.91 11.805 17.9325 11.6625C17.955 11.505 17.85 11.3625 17.6925 11.3475L16.56 11.1825C16.4025 11.1525 16.2675 11.265 16.245 11.4225Z" fill="#1C1917"/>
<path d="M16.9049 15.7575L16.0124 15.57C15.8549 15.54 15.7124 15.6375 15.6824 15.7875C15.6524 15.9375 15.7499 16.0875 15.8999 16.1175L16.7924 16.305C16.7924 16.305 16.8299 16.305 16.8524 16.305C16.9799 16.305 17.0999 16.215 17.1299 16.08C17.1599 15.93 17.0624 15.78 16.9124 15.75L16.9049 15.7575Z" fill="#1C1917"/>
<path d="M9.07495 12.84V13.245C9.07495 13.4025 9.20245 13.53 9.35995 13.53C9.51745 13.53 9.64495 13.4025 9.64495 13.245V12.84C9.64495 12.6825 9.51745 12.555 9.35995 12.555C9.20245 12.555 9.07495 12.6825 9.07495 12.84Z" fill="#1C1917"/>
<path d="M9.36011 7.34998C9.41261 7.34998 9.45761 7.33498 9.50261 7.31248L10.2676 6.84748C10.4026 6.76498 10.4401 6.59248 10.3651 6.46498C10.2826 6.32998 10.1101 6.29248 9.98261 6.36748L9.21761 6.83248C9.08261 6.91498 9.04511 7.08748 9.12011 7.21498C9.17261 7.30498 9.26261 7.34998 9.36011 7.34998Z" fill="#1C1917"/>
<path d="M21.6075 15.96C21.765 15.96 21.8925 15.8325 21.8925 15.675V14.8425C21.8925 14.685 21.765 14.5575 21.6075 14.5575C21.45 14.5575 21.3225 14.685 21.3225 14.8425V15.675C21.3225 15.8325 21.45 15.96 21.6075 15.96Z" fill="#1C1917"/>
<path d="M2.52744 15.06C2.41494 14.955 2.23494 14.9625 2.12994 15.075C2.02494 15.1875 2.03244 15.3675 2.14494 15.4725L2.70744 15.99C2.75994 16.0425 2.82744 16.065 2.89494 16.065C2.96994 16.065 3.04494 16.035 3.10494 15.975C3.20994 15.8625 3.20244 15.6825 3.08994 15.5775L2.52744 15.06Z" fill="#1C1917"/>
<path d="M14.94 9.48749C14.94 9.48749 14.9925 9.50249 15.0225 9.50249C15.1425 9.50249 15.255 9.41999 15.2925 9.29999L15.6 8.27999C15.645 8.12999 15.5625 7.97249 15.4125 7.92749C15.2625 7.88249 15.105 7.96499 15.06 8.11499L14.7525 9.13499C14.7075 9.28499 14.79 9.44249 14.94 9.48749Z" fill="#1C1917"/>
<path d="M9.22504 15.9225L6.89254 17.16C6.75754 17.235 6.70504 17.4 6.77254 17.5425C6.82504 17.64 6.92254 17.6925 7.02004 17.6925C7.06504 17.6925 7.11004 17.685 7.15504 17.6625L9.48754 16.425C9.62254 16.35 9.67504 16.185 9.60754 16.0425C9.53254 15.9075 9.36004 15.855 9.22504 15.9225Z" fill="#1C1917"/>
<path d="M14.7075 17.13H11.16C11.0025 17.13 10.875 17.2575 10.875 17.415C10.875 17.5725 11.0025 17.7 11.16 17.7H14.7075C14.865 17.7 14.9925 17.5725 14.9925 17.415C14.9925 17.2575 14.865 17.13 14.7075 17.13Z" fill="#1C1917"/>
<path d="M18.525 15.9525C18.4875 15.8025 18.3225 15.7125 18.18 15.7575C18.03 15.8025 17.94 15.9525 17.985 16.1025L18.195 16.86C18.2325 16.9875 18.345 17.0625 18.465 17.0625C18.4875 17.0625 18.5175 17.0625 18.54 17.055C18.69 17.01 18.78 16.86 18.735 16.71L18.525 15.9525Z" fill="#1C1917"/>
<path d="M20.85 20.3775L17.1975 19.7475C17.0325 19.7175 16.8975 19.8225 16.875 19.9725C16.845 20.1225 16.95 20.2725 17.1 20.295L20.7525 20.925C20.7525 20.925 20.7825 20.925 20.7975 20.925C20.9325 20.925 21.0525 20.8275 21.075 20.6925C21.105 20.5425 21 20.3925 20.85 20.37V20.3775Z" fill="#1C1917"/>
<path d="M13.665 20.4075L11.9175 21.42C11.7825 21.495 11.7375 21.6675 11.8125 21.8025C11.865 21.8925 11.9625 21.945 12.0525 21.945C12.0975 21.945 12.15 21.93 12.195 21.9075L13.9425 20.895C14.0775 20.82 14.1225 20.6475 14.0475 20.5125C13.9725 20.3775 13.8 20.3325 13.665 20.4075Z" fill="#1C1917"/>
<path d="M1.65747 19.3425C1.52247 19.2675 1.34997 19.3125 1.27497 19.4475L0.532468 20.775C0.457468 20.91 0.502468 21.0825 0.637468 21.1575C0.682468 21.18 0.727468 21.195 0.772468 21.195C0.869968 21.195 0.967468 21.1425 1.01997 21.0525L1.76247 19.725C1.83747 19.59 1.79247 19.4175 1.65747 19.3425Z" fill="#1C1917"/>
<path d="M22.845 18.8625L22.1025 18.4125C21.9675 18.33 21.795 18.375 21.72 18.51C21.645 18.645 21.6825 18.8175 21.8175 18.8925L22.56 19.3425C22.605 19.3725 22.6575 19.38 22.7025 19.38C22.8 19.38 22.89 19.335 22.9425 19.245C23.025 19.11 22.98 18.9375 22.845 18.8625Z" fill="#1C1917"/>
</svg>
