<svg width="24" height="24" viewBox="0 0 24 24" fill="none" xmlns="http://www.w3.org/2000/svg">
<path d="M11.79 16.7325C11.67 16.8525 11.67 17.04 11.79 17.16C11.85 17.22 11.925 17.25 12 17.25C12.075 17.25 12.1575 17.22 12.21 17.16C15.9675 13.4025 13.1625 10.005 12.21 9.05998C11.1225 7.97248 8.93998 5.07748 12.21 1.80748C12.33 1.68748 12.33 1.49998 12.21 1.37998C12.09 1.25998 11.9025 1.25998 11.7825 1.37998C8.02498 5.13748 10.83 8.53498 11.7825 9.47998C12.87 10.5675 15.0525 13.4625 11.7825 16.7325H11.79Z" fill="#1C1917"/>
<path d="M16.3875 16.7325C16.2675 16.8525 16.2675 17.04 16.3875 17.16C16.4475 17.22 16.5225 17.25 16.5975 17.25C16.6725 17.25 16.755 17.22 16.8075 17.16C20.565 13.4025 17.76 10.005 16.8075 9.05998C15.72 7.97248 13.5375 5.07748 16.8075 1.80748C16.9275 1.68748 16.9275 1.49998 16.8075 1.37998C16.6875 1.25998 16.5 1.25998 16.38 1.37998C12.6225 5.13748 15.4275 8.53498 16.38 9.47998C17.4675 10.5675 19.65 13.4625 16.38 16.7325H16.3875Z" fill="#1C1917"/>
<path d="M7.19244 16.7325C7.07244 16.8525 7.07244 17.04 7.19244 17.16C7.25244 17.22 7.32744 17.25 7.40244 17.25C7.47744 17.25 7.55994 17.22 7.61244 17.16C11.3699 13.4025 8.56494 10.005 7.61244 9.05998C6.52494 7.97248 4.34244 5.07748 7.61244 1.80748C7.73244 1.68748 7.73244 1.49998 7.61244 1.37998C7.49244 1.25998 7.30494 1.25998 7.18494 1.37998C3.42744 5.13748 6.23244 8.53498 7.18494 9.47998C8.27244 10.5675 10.4549 13.4625 7.18494 16.7325H7.19244Z" fill="#1C1917"/>
<path d="M22.8526 19.965C22.6951 19.965 22.5676 20.0925 22.5676 20.25V22.17H1.43255V20.25C1.43255 20.0925 1.30505 19.965 1.14755 19.965C0.990049 19.965 0.862549 20.0925 0.862549 20.25V22.455C0.862549 22.6125 0.990049 22.74 1.14755 22.74H22.8526C23.0101 22.74 23.1376 22.6125 23.1376 22.455V20.25C23.1376 20.0925 23.0101 19.965 22.8526 19.965Z" fill="#1C1917"/>
</svg>
