<svg width="24" height="24" viewBox="0 0 24 24" fill="none" xmlns="http://www.w3.org/2000/svg">
<path d="M4.5299 22.035V21.4725H20.1299C20.2499 21.4725 21.3149 21.4275 21.3149 20.2875C21.3149 19.1475 20.2424 19.095 20.1149 19.095H4.5299C3.9224 19.095 2.7824 18.7275 2.7824 17.3475C2.7824 15.9675 3.9299 15.6 4.5299 15.6H20.1224C20.2424 15.6 21.3074 15.555 21.3074 14.415C21.3074 13.275 20.2424 13.23 20.1224 13.23H4.5299C3.1724 13.23 2.6624 11.9775 2.5874 11.3175V9.8175H3.1499V11.2875C3.1499 11.2875 3.3374 12.6675 4.5299 12.6675H20.1224C20.7299 12.6675 21.8699 13.035 21.8699 14.415C21.8699 15.795 20.7224 16.1625 20.1224 16.1625H4.5299C4.4099 16.1625 3.3449 16.2075 3.3449 17.3475C3.3449 18.4875 4.4099 18.5325 4.5299 18.5325H20.1224C20.7299 18.5325 21.8774 18.915 21.8774 20.2875C21.8774 21.66 20.7374 22.035 20.1299 22.035H4.5299Z" fill="#78350f"/>
<path d="M9.87 3.36004C9.87 2.25754 9.465 1.69504 9.105 1.20004C9.0375 1.10254 8.97 1.01254 8.91 0.915039L8.4675 1.22254C8.535 1.32754 8.61 1.43254 8.6775 1.53004C9 1.98004 9.3375 2.44504 9.3375 3.36004C9.3375 4.08754 9.105 4.43254 8.8425 4.83754C8.565 5.25004 8.25 5.72254 8.25 6.62254C8.25 7.52254 8.565 7.99504 8.8425 8.40754L9.285 8.09254C9.0225 7.69504 8.79 7.35004 8.79 6.61504C8.79 5.88004 9.0225 5.54254 9.285 5.13754C9.5625 4.72504 9.8775 4.25254 9.8775 3.35254L9.87 3.36004Z" fill="#78350f"/>
<path d="M10.8675 0.907524L10.425 1.21502C10.4925 1.32002 10.5675 1.42502 10.635 1.52252C10.9575 1.97252 11.295 2.43752 11.295 3.35252C11.295 4.08002 11.0625 4.42502 10.8 4.83002C10.5225 5.24252 10.2075 5.71502 10.2075 6.61502C10.2075 7.51502 10.5225 7.98752 10.8 8.40002L11.2425 8.08502C10.98 7.68752 10.7475 7.34253 10.7475 6.60752C10.7475 5.87252 10.98 5.53502 11.2425 5.13002C11.52 4.71752 11.835 4.24502 11.835 3.34502C11.835 2.24252 11.43 1.68002 11.07 1.18502C11.0025 1.08752 10.935 0.997524 10.875 0.900024L10.8675 0.907524Z" fill="#78350f"/>
<path d="M13.7926 3.36004C13.7926 2.25754 13.3876 1.69504 13.0276 1.20004C12.9601 1.10254 12.8926 1.01254 12.8326 0.915039L12.3901 1.22254C12.4576 1.32754 12.5326 1.43254 12.6001 1.53004C12.9226 1.98004 13.2601 2.44504 13.2601 3.36004C13.2601 4.08754 13.0276 4.43254 12.7651 4.83754C12.4876 5.25004 12.1726 5.72254 12.1726 6.62254C12.1726 7.52254 12.4876 7.99504 12.7651 8.40754L13.2076 8.09254C12.9451 7.69504 12.7126 7.35004 12.7126 6.61504C12.7126 5.88004 12.9451 5.54254 13.2076 5.13754C13.4851 4.72504 13.8001 4.25254 13.8001 3.35254L13.7926 3.36004Z" fill="#78350f"/>
<path d="M15.7499 3.36004C15.7499 2.25754 15.3449 1.69504 14.9849 1.20004C14.9174 1.10254 14.8499 1.01254 14.7899 0.915039L14.3474 1.22254C14.4149 1.32754 14.4899 1.43254 14.5574 1.53004C14.8799 1.98004 15.2174 2.44504 15.2174 3.36004C15.2174 4.08754 14.9849 4.43254 14.7224 4.83754C14.4449 5.25004 14.1299 5.72254 14.1299 6.62254C14.1299 7.52254 14.4449 7.99504 14.7224 8.40754L15.1649 8.09254C14.9024 7.69504 14.6699 7.35004 14.6699 6.61504C14.6699 5.88004 14.9024 5.54254 15.1649 5.13754C15.4424 4.72504 15.7574 4.25254 15.7574 3.35254L15.7499 3.36004Z" fill="#78350f"/>
</svg>
