<svg width="24" height="24" viewBox="0 0 24 24" fill="none" xmlns="http://www.w3.org/2000/svg">
<g clip-path="url(#clip0_18_2602)">
<path d="M3.00009 18.09H13.8751C15.0601 18.09 16.0351 17.1225 16.0351 15.93C16.0351 14.7375 15.0676 13.77 13.8751 13.77H3.00009C1.81509 13.77 0.840088 14.7375 0.840088 15.93C0.840088 17.1225 1.80759 18.09 3.00009 18.09ZM15.4651 15.9375C15.4651 16.815 14.7526 17.5275 13.8751 17.5275C12.9976 17.5275 12.2851 16.815 12.2851 15.9375C12.2851 15.06 12.9976 14.3475 13.8751 14.3475C14.7526 14.3475 15.4651 15.06 15.4651 15.9375ZM3.00009 14.34H12.4351C12.0001 14.7375 11.7151 15.3 11.7151 15.93C11.7151 16.56 11.9926 17.13 12.4351 17.52H3.00009C2.12259 17.52 1.41009 16.8075 1.41009 15.93C1.41009 15.0525 2.12259 14.34 3.00009 14.34Z" fill="#1C1917"/>
<path d="M6.65252 10.6875C6.65252 11.265 6.87752 11.805 7.28252 12.21C7.68752 12.615 8.22752 12.84 8.80502 12.84C9.38252 12.84 9.92252 12.615 10.3275 12.21L18.015 4.52253C18.855 3.68253 18.855 2.31003 18.015 1.47003C17.175 0.630027 15.8025 0.630027 14.9625 1.47003L7.27502 9.15753C6.87002 9.56253 6.64502 10.11 6.64502 10.68L6.65252 10.6875ZM15.6225 1.67253C15.6225 1.67253 15.6525 1.65753 15.6675 1.65003C15.7425 1.60503 15.8175 1.56003 15.9 1.53003H15.915C16.1025 1.45503 16.2975 1.41753 16.5 1.41753C16.7025 1.41753 16.8975 1.45503 17.085 1.53003H17.1C17.1825 1.56003 17.2575 1.60503 17.3325 1.65003C17.3475 1.65753 17.3625 1.66503 17.3775 1.67253C17.4675 1.73253 17.55 1.80003 17.625 1.87503C18.2475 2.49753 18.2475 3.51003 17.625 4.12503C17.025 4.72503 15.975 4.72503 15.375 4.12503C14.7525 3.50253 14.7525 2.49003 15.375 1.87503C15.45 1.80003 15.5325 1.73253 15.6225 1.67253ZM14.355 2.89503C14.325 3.48003 14.5275 4.08003 14.9775 4.53003C15.3975 4.95003 15.9525 5.16003 16.5 5.16003C16.5375 5.16003 16.575 5.15253 16.605 5.15253L9.93002 11.8275C9.33002 12.435 8.28002 12.4275 7.68002 11.8275C7.38002 11.5275 7.21502 11.13 7.21502 10.7025C7.21502 10.275 7.38002 9.87753 7.68002 9.57753L14.355 2.89503Z" fill="#1C1917"/>
<path d="M22.9426 13.8975L18.0226 8.97747C17.1826 8.13747 15.8101 8.13747 14.9701 8.97747C14.1301 9.81747 14.1301 11.19 14.9701 12.03L19.8901 16.95C20.3101 17.37 20.8651 17.58 21.4126 17.58C21.9601 17.58 22.5151 17.37 22.9351 16.95C23.7751 16.11 23.7751 14.745 22.9351 13.8975H22.9426ZM15.3751 9.37497C15.4501 9.29997 15.5326 9.23247 15.6226 9.17247C15.6376 9.16497 15.6526 9.15747 15.6676 9.14997C15.7426 9.10497 15.8176 9.05997 15.9001 9.02997H15.9151C16.1026 8.95497 16.2976 8.91747 16.5001 8.91747C16.7026 8.91747 16.8976 8.95497 17.0851 9.02997H17.1001C17.1826 9.05997 17.2576 9.10497 17.3326 9.14997C17.3476 9.15747 17.3626 9.16497 17.3776 9.17247C17.4676 9.23247 17.5501 9.29997 17.6251 9.37497C18.2476 9.99747 18.2476 11.01 17.6251 11.625C17.0251 12.225 15.9751 12.225 15.3751 11.625C14.7526 11.0025 14.7526 9.98997 15.3751 9.37497ZM22.5451 16.545C21.9226 17.1675 20.9101 17.1675 20.2876 16.545L16.3876 12.645C16.3876 12.645 16.4626 12.6525 16.4926 12.6525C17.0476 12.6525 17.5951 12.4425 18.0151 12.0225C18.4651 11.5725 18.6676 10.98 18.6376 10.3875L22.5376 14.2875C23.1601 14.91 23.1601 15.9225 22.5376 16.545H22.5451Z" fill="#1C1917"/>
<path d="M2.57999 11.5725C3.13499 11.5725 3.68249 11.3625 4.10249 10.9425L9.02249 6.02252C9.12749 5.91752 9.21749 5.80502 9.29999 5.68502C9.31499 5.66252 9.32249 5.64002 9.33749 5.61752C9.39749 5.52002 9.45749 5.41502 9.50249 5.31002C9.50249 5.31002 9.50249 5.30252 9.50249 5.29502C9.59999 5.04752 9.65999 4.77752 9.65999 4.49252C9.65999 4.20752 9.60749 3.94502 9.50249 3.69002C9.50249 3.69002 9.50249 3.68252 9.50249 3.67502C9.45749 3.57002 9.40499 3.46502 9.33749 3.36752C9.32249 3.34502 9.31499 3.32252 9.29999 3.30002C9.21749 3.18002 9.12749 3.06752 9.02249 2.96252C8.18249 2.12252 6.80999 2.12252 5.96999 2.96252L1.05749 7.89752C0.21749 8.73752 0.21749 10.1025 1.05749 10.95C1.47749 11.37 2.03249 11.58 2.57999 11.58V11.5725ZM6.62249 3.17252C6.62249 3.17252 6.65249 3.15752 6.66749 3.15002C6.74249 3.10502 6.81749 3.06002 6.89999 3.03002H6.91499C7.10249 2.95502 7.29749 2.91752 7.49999 2.91752C7.70249 2.91752 7.89749 2.95502 8.08499 3.03002H8.09999C8.18249 3.06002 8.25749 3.10502 8.33249 3.15002C8.34749 3.15752 8.36249 3.16502 8.37749 3.17252C8.46749 3.23252 8.54999 3.30002 8.62499 3.37502C8.69999 3.45002 8.76749 3.53252 8.82749 3.62252C8.82749 3.63002 8.83499 3.63752 8.84249 3.64502C9.17249 4.16252 9.17249 4.83002 8.84249 5.35502C8.84249 5.36252 8.83499 5.37002 8.82749 5.37752C8.76749 5.46752 8.69999 5.55002 8.62499 5.62502C8.02499 6.22502 6.97499 6.22502 6.37499 5.62502C5.75249 5.00252 5.75249 3.99002 6.37499 3.37502C6.44999 3.30002 6.53249 3.23252 6.62249 3.17252ZM1.45499 8.29502L5.35499 4.39502C5.32499 4.98002 5.52749 5.58002 5.97749 6.03002C6.39749 6.45002 6.95249 6.66002 7.49999 6.66002C7.53749 6.66002 7.57499 6.65252 7.61249 6.65252L3.71249 10.5525C3.08999 11.175 2.07749 11.175 1.45499 10.5525C0.83249 9.93002 0.83249 8.91752 1.45499 8.29502Z" fill="#1C1917"/>
<path d="M20.2499 19.245H3.48739C2.30239 19.245 1.32739 20.2125 1.32739 21.405C1.32739 22.5975 2.29489 23.565 3.48739 23.565H20.2499C21.4349 23.565 22.4099 22.5975 22.4099 21.405C22.4099 20.2125 21.4424 19.245 20.2499 19.245ZM1.89739 21.405C1.89739 20.5275 2.60989 19.815 3.48739 19.815C4.36489 19.815 5.07739 20.5275 5.07739 21.405C5.07739 22.2825 4.36489 22.995 3.48739 22.995C2.60989 22.995 1.89739 22.2825 1.89739 21.405ZM20.2499 22.995H4.92739C5.36239 22.5975 5.64739 22.035 5.64739 21.405C5.64739 20.775 5.36989 20.205 4.92739 19.815H20.2499C21.1274 19.815 21.8399 20.5275 21.8399 21.405C21.8399 22.2825 21.1274 22.995 20.2499 22.995Z" fill="#1C1917"/>
</g>
<defs>
<clipPath id="clip0_18_2602">
<rect width="24" height="24" fill="white"/>
</clipPath>
</defs>
</svg>
