<svg width="24" height="24" viewBox="0 0 24 24" fill="none" xmlns="http://www.w3.org/2000/svg">
<path d="M11.5351 19.785H0.0600586V9.30004L5.79756 4.29004L11.5351 9.30004V19.785ZM0.622559 19.215H10.9651V9.54754L5.79006 5.03254L0.622559 9.55504V19.2225V19.215Z" fill="#7b2525"/>
<path d="M23.0475 11.9775C23.3025 11.9775 23.5125 12.1875 23.5125 12.4425V18.9675C23.5125 19.2225 23.3025 19.4325 23.0475 19.4325H14.43C14.175 19.4325 13.965 19.2225 13.965 18.9675V12.4425C13.965 12.1875 14.175 11.9775 14.43 11.9775H23.0475ZM23.0475 11.505H14.43C13.92 11.505 13.5 11.925 13.5 12.435V18.96C13.5 19.47 13.92 19.89 14.43 19.89H23.0475C23.5575 19.89 23.9775 19.47 23.9775 18.96V12.435C23.9775 11.925 23.5575 11.505 23.0475 11.505Z" fill="#7b2525"/>
<path d="M17.3401 13.485C18.5626 13.485 19.5526 14.475 19.5526 15.6975C19.5526 16.92 18.5626 17.91 17.3401 17.91C16.1176 17.91 15.1276 16.92 15.1276 15.6975C15.1276 14.475 16.1176 13.485 17.3401 13.485ZM17.3401 13.02C15.8626 13.02 14.6626 14.22 14.6626 15.6975C14.6626 17.175 15.8626 18.375 17.3401 18.375C18.8176 18.375 20.0176 17.175 20.0176 15.6975C20.0176 14.22 18.8176 13.02 17.3401 13.02Z" fill="#7b2525"/>
<path d="M17.9925 15.6151C17.91 15.6151 17.8275 15.6151 17.745 15.6301C17.73 15.5326 17.6775 15.4501 17.61 15.3976C18.1575 14.6401 18.165 13.7476 17.3475 13.7476C16.53 13.7476 16.5375 14.6476 17.085 15.3976C17.0175 15.4576 16.965 15.5401 16.95 15.6301C16.8675 15.6226 16.785 15.6151 16.7025 15.6151C15.8925 15.6151 15.285 16.0426 15.6525 16.6801C15.795 16.9201 15.975 17.0251 16.17 17.0251C16.545 17.0251 16.965 16.6351 17.2125 16.0801C17.2575 16.0951 17.3025 16.1026 17.3475 16.1026C17.3925 16.1026 17.4375 16.0951 17.4825 16.0801C17.73 16.6351 18.15 17.0251 18.525 17.0251C18.72 17.0251 18.9 16.9201 19.0425 16.6801C19.41 16.0351 18.8025 15.6151 17.9925 15.6151ZM16.1625 16.5676C16.1175 16.5676 16.065 16.4776 16.05 16.4551C16.035 16.4251 15.9825 16.3351 16.005 16.2976C16.0575 16.2076 16.2975 16.0876 16.6875 16.0876C16.5 16.4026 16.275 16.5676 16.1625 16.5676ZM17.34 14.9476C17.175 14.6551 17.13 14.3851 17.175 14.2651C17.175 14.2501 17.1975 14.2126 17.34 14.2126C17.4825 14.2126 17.4975 14.2501 17.505 14.2651C17.5575 14.3851 17.505 14.6551 17.34 14.9476ZM18.6375 16.4476C18.6375 16.4476 18.57 16.5601 18.525 16.5601C18.4125 16.5601 18.1875 16.3951 18 16.0801C18.3825 16.0801 18.63 16.2076 18.6825 16.2901C18.705 16.3276 18.6525 16.4176 18.6375 16.4476Z" fill="#7b2525"/>
<path d="M22.5825 13.605H20.835C20.7075 13.605 20.6025 13.5 20.6025 13.3725C20.6025 13.245 20.7075 13.14 20.835 13.14H22.5825C22.71 13.14 22.815 13.245 22.815 13.3725C22.815 13.5 22.71 13.605 22.5825 13.605Z" fill="#7b2525"/>
<path d="M22.5825 14.7825H20.835C20.7075 14.7825 20.6025 14.6775 20.6025 14.55C20.6025 14.4225 20.7075 14.3175 20.835 14.3175H22.5825C22.71 14.3175 22.815 14.4225 22.815 14.55C22.815 14.6775 22.71 14.7825 22.5825 14.7825Z" fill="#7b2525"/>
<path d="M22.5825 15.9375H20.835C20.7075 15.9375 20.6025 15.8325 20.6025 15.705C20.6025 15.5775 20.7075 15.4725 20.835 15.4725H22.5825C22.71 15.4725 22.815 15.5775 22.815 15.705C22.815 15.8325 22.71 15.9375 22.5825 15.9375Z" fill="#7b2525"/>
<path d="M22.5825 17.1H20.835C20.7075 17.1 20.6025 16.995 20.6025 16.8675C20.6025 16.74 20.7075 16.635 20.835 16.635H22.5825C22.71 16.635 22.815 16.74 22.815 16.8675C22.815 16.995 22.71 17.1 22.5825 17.1Z" fill="#7b2525"/>
<path d="M22.5825 18.2625H20.835C20.7075 18.2625 20.6025 18.1575 20.6025 18.03C20.6025 17.9025 20.7075 17.7975 20.835 17.7975H22.5825C22.71 17.7975 22.815 17.9025 22.815 18.03C22.815 18.1575 22.71 18.2625 22.5825 18.2625Z" fill="#7b2525"/>
<path d="M16.9726 5.22004C16.9726 4.32754 16.6426 3.86254 16.3501 3.46504C16.2901 3.38254 16.2376 3.30754 16.1926 3.23254L15.8326 3.48004C15.8851 3.56254 15.9451 3.64504 16.0051 3.72754C16.2676 4.09504 16.5376 4.47004 16.5376 5.22004C16.5376 5.81254 16.3501 6.09754 16.1326 6.42004C15.9076 6.75754 15.6526 7.14004 15.6526 7.87504C15.6526 8.61004 15.9076 8.99254 16.1326 9.33004L16.4926 9.07504C16.2751 8.75254 16.0876 8.46754 16.0876 7.87504C16.0876 7.28254 16.2751 6.99754 16.4926 6.67504C16.7176 6.33754 16.9726 5.95504 16.9726 5.22004Z" fill="#7b2525"/>
<path d="M17.7827 3.23254L17.4227 3.48004C17.4752 3.56254 17.5352 3.64504 17.5952 3.72754C17.8577 4.09504 18.1277 4.47004 18.1277 5.22004C18.1277 5.81254 17.9402 6.09754 17.7227 6.42004C17.4977 6.75754 17.2427 7.14004 17.2427 7.87504C17.2427 8.61004 17.4977 8.99254 17.7227 9.33004L18.0827 9.07504C17.8652 8.75254 17.6777 8.46754 17.6777 7.87504C17.6777 7.28254 17.8652 6.99754 18.0827 6.67504C18.3077 6.33754 18.5627 5.95504 18.5627 5.22004C18.5627 4.32754 18.2327 3.86254 17.9402 3.46504C17.8802 3.38254 17.8277 3.30754 17.7752 3.23254H17.7827Z" fill="#7b2525"/>
<path d="M20.16 5.22004C20.16 4.32754 19.83 3.86254 19.5375 3.46504C19.4775 3.38254 19.425 3.30754 19.3725 3.23254L19.0125 3.48004C19.065 3.56254 19.125 3.64504 19.185 3.72754C19.4475 4.09504 19.7175 4.47004 19.7175 5.22004C19.7175 5.81254 19.53 6.09754 19.3125 6.42004C19.0875 6.75754 18.8325 7.14004 18.8325 7.87504C18.8325 8.61004 19.0875 8.99254 19.3125 9.33004L19.6725 9.07504C19.455 8.75254 19.2675 8.46754 19.2675 7.87504C19.2675 7.28254 19.455 6.99754 19.6725 6.67504C19.8975 6.33754 20.1525 5.95504 20.1525 5.22004H20.16Z" fill="#7b2525"/>
<path d="M21.7501 5.22004C21.7501 4.32754 21.4201 3.86254 21.1276 3.46504C21.0676 3.38254 21.0151 3.30754 20.9626 3.23254L20.6026 3.48004C20.6551 3.56254 20.7151 3.64504 20.7751 3.72754C21.0376 4.09504 21.3076 4.47004 21.3076 5.22004C21.3076 5.81254 21.1201 6.09754 20.9026 6.42004C20.6776 6.75754 20.4226 7.14004 20.4226 7.87504C20.4226 8.61004 20.6776 8.99254 20.9026 9.33004L21.2626 9.07504C21.0451 8.75254 20.8576 8.46754 20.8576 7.87504C20.8576 7.28254 21.0451 6.99754 21.2626 6.67504C21.4876 6.33754 21.7426 5.95504 21.7426 5.22004H21.7501Z" fill="#7b2525"/>
</svg>
