<svg width="24" height="24" viewBox="0 0 24 24" fill="none" xmlns="http://www.w3.org/2000/svg">
<path d="M23.6924 8.93998C23.6924 8.93998 23.2649 5.18998 19.5524 4.80748C19.5374 4.05748 19.2824 2.11498 17.0399 1.07248C14.2349 -0.232519 11.8424 2.24248 11.8199 2.26498L10.6499 4.76998C8.48994 4.61248 7.13994 6.69748 7.06494 6.81748L1.43244 19.035L1.46244 19.05C0.614941 20.265 0.367441 21.6375 0.367441 21.66L0.314941 21.99L17.8649 21.8775V21.8475L17.8949 21.8625L23.6774 9.08248L23.7074 9.01498V8.93998H23.6924ZM12.2549 2.62498C12.5324 2.34748 14.4974 0.517481 16.7999 1.58248C17.0099 1.67998 17.1974 1.79248 17.3699 1.90498L12.7274 11.4975L13.2374 11.745L17.8274 2.25748C19.0574 3.34498 19.0049 4.76248 18.9824 5.02498L13.9874 16.4475C13.8599 15.765 13.5524 14.7825 12.7799 14.0175C12.0224 13.2525 10.9799 12.87 9.68994 12.87C9.56994 12.87 9.46494 12.885 9.35244 12.8925L13.2374 4.32748L12.7274 4.09498L8.70744 12.975C8.13744 13.08 7.62744 13.2675 7.19244 13.5525L12.2549 2.64748V2.62498ZM12.0674 16.9575C11.9099 16.1475 11.2349 14.7 9.72744 14.7C8.21994 14.7 7.54494 16.1325 7.37244 16.95H5.90244C5.93244 16.6125 6.03744 16.02 6.31494 15.4275L6.39744 15.255C7.02744 14.04 8.13744 13.4175 9.70494 13.4175C12.9149 13.4175 13.4324 16.0725 13.5149 16.9575H12.0749H12.0674ZM11.4899 16.9575H7.94244C8.06994 16.4925 8.51244 15.2625 9.71994 15.2625C10.9274 15.2625 11.3699 16.5225 11.4824 16.9575H11.4899ZM7.55244 7.09498C7.55244 7.09498 8.68494 5.36248 10.3874 5.33248L5.88744 14.9925C5.84994 15.06 5.82744 15.1275 5.79744 15.195L5.68494 15.4275C5.33244 16.3275 5.30994 17.13 5.30994 17.2125C5.16744 17.1975 5.01744 17.19 4.85994 17.19C3.91494 17.19 3.16494 17.475 2.56494 17.9025L7.55244 7.09498ZM2.90994 21.4125C3.05994 20.91 3.51744 19.785 4.67244 19.785C5.82744 19.785 6.26994 20.8875 6.41244 21.3825L2.90994 21.405V21.4125ZM6.98994 21.3825C6.79494 20.5575 6.11994 19.2225 4.67244 19.2225C3.22494 19.2225 2.52744 20.58 2.33244 21.4125H0.989941C1.22994 20.46 2.15244 17.7525 4.87494 17.7525C7.59744 17.7525 8.48244 20.43 8.70744 21.3675H6.99744L6.98994 21.3825ZM6.46494 17.5125H11.6099C10.1474 18.2175 9.41244 19.725 9.07494 20.7075C8.74494 19.7175 7.99494 18.1725 6.45744 17.5125H6.46494ZM11.7224 21.3525C11.8799 20.835 12.3449 19.7625 13.4699 19.7625C14.5949 19.7625 15.0449 20.82 15.2024 21.33L11.7224 21.3525ZM15.7874 21.33C15.5849 20.505 14.9099 19.2 13.4774 19.2C12.0449 19.2 11.3474 20.5275 11.1449 21.36H9.47244C9.71244 20.4075 10.6349 17.7075 13.3574 17.7075C16.0799 17.7075 16.9649 20.3775 17.1899 21.3225H15.7949L15.7874 21.33ZM17.6624 20.985C17.3624 19.9275 16.4774 17.73 14.2499 17.2425L19.4924 5.25748V5.36248C20.5349 5.46748 21.2849 5.87248 21.8174 6.37498L16.9199 17.2575L17.4299 17.49L22.2299 6.83248C22.8974 7.69498 23.0774 8.66248 23.1224 8.93248L17.6624 20.9925V20.985Z" fill="#7b2525"/>
</svg>
