<svg width="24" height="24" viewBox="0 0 24 24" fill="none" xmlns="http://www.w3.org/2000/svg">
<g clip-path="url(#clip0_36_553)">
<path d="M17.3399 3.675H18.4949L18.5324 3.8625C18.5849 4.1175 18.6899 4.365 18.8324 4.59L18.9374 4.7475L18.1199 5.565C18.0749 5.61 18.0524 5.6625 18.0524 5.73C18.0524 5.7975 18.0749 5.85 18.1199 5.895C18.2024 5.9775 18.3674 5.9775 18.4424 5.895L19.2599 5.0775L19.4174 5.1825C19.6424 5.3325 19.8824 5.43 20.1449 5.4825L20.3324 5.52V6.675C20.3324 6.8025 20.4374 6.9075 20.5649 6.9075C20.6924 6.9075 20.7974 6.8025 20.7974 6.675V5.52L20.9849 5.4825C21.2399 5.43 21.4874 5.325 21.7124 5.1825L21.8699 5.0775L22.6874 5.895C22.7699 5.9775 22.9349 5.9775 23.0099 5.895C23.0549 5.85 23.0774 5.7975 23.0774 5.73C23.0774 5.6625 23.0549 5.61 23.0099 5.565L22.1924 4.7475L22.2974 4.59C22.4474 4.365 22.5449 4.125 22.5974 3.8625L22.6349 3.675H23.7899C23.9174 3.675 24.0224 3.57 24.0224 3.4425C24.0224 3.315 23.9174 3.21 23.7899 3.21H22.6349L22.5974 3.0225C22.5449 2.7675 22.4399 2.52 22.2974 2.295L22.1924 2.1375L23.0099 1.32C23.0549 1.275 23.0774 1.2225 23.0774 1.155C23.0774 1.0875 23.0549 1.035 23.0099 0.99C22.9274 0.9075 22.7624 0.9075 22.6874 0.99L21.8699 1.8075L21.7124 1.7025C21.4874 1.5525 21.2474 1.455 20.9849 1.4025L20.7974 1.365V0.2325C20.7974 0.105 20.6924 0 20.5649 0C20.4374 0 20.3324 0.105 20.3324 0.2325V1.3875L20.1449 1.425C19.8899 1.4775 19.6424 1.5825 19.4174 1.725L19.2599 1.83L18.4424 1.0125C18.3599 0.93 18.1949 0.93 18.1199 1.0125C18.0749 1.0575 18.0524 1.11 18.0524 1.1775C18.0524 1.245 18.0749 1.2975 18.1199 1.3425L18.9374 2.16L18.8324 2.3175C18.6824 2.5425 18.5849 2.7825 18.5324 3.045L18.4949 3.2325H17.3399C17.2124 3.2325 17.1074 3.3375 17.1074 3.465C17.1074 3.5925 17.2124 3.6975 17.3399 3.6975V3.675ZM20.5574 1.8375C21.4424 1.8375 22.1624 2.5575 22.1624 3.4425C22.1624 4.3275 21.4424 5.0475 20.5574 5.0475C19.6724 5.0475 18.9524 4.3275 18.9524 3.4425C18.9524 2.5575 19.6724 1.8375 20.5574 1.8375Z" fill="#1C1917"/>
<path d="M8.19739 4.46246C8.19739 3.35996 7.79239 2.79746 7.43239 2.30246C7.36489 2.20496 7.29739 2.11496 7.23739 2.01746L6.79489 2.32496C6.86239 2.42996 6.93739 2.53496 7.00489 2.63246C7.32739 3.08246 7.66489 3.54746 7.66489 4.46246C7.66489 5.18996 7.43239 5.53496 7.16989 5.93996C6.89239 6.35246 6.57739 6.82496 6.57739 7.72496C6.57739 8.62496 6.89239 9.09746 7.16989 9.50996L7.61239 9.19496C7.34989 8.79746 7.11739 8.45246 7.11739 7.71746C7.11739 6.98246 7.34989 6.64496 7.61239 6.23996C7.88989 5.82746 8.20489 5.35496 8.20489 4.45496L8.19739 4.46246Z" fill="#1C1917"/>
<path d="M9.19491 2.01751L8.75241 2.32501C8.81991 2.43001 8.89491 2.53501 8.96241 2.63251C9.28491 3.08251 9.62241 3.54751 9.62241 4.46251C9.62241 5.19001 9.38991 5.53501 9.12741 5.94001C8.84991 6.35251 8.53491 6.82501 8.53491 7.72501C8.53491 8.62501 8.84991 9.09751 9.12741 9.51001L9.56991 9.19501C9.30741 8.79751 9.07491 8.45251 9.07491 7.71751C9.07491 6.98251 9.30741 6.64501 9.56991 6.24001C9.84741 5.82751 10.1624 5.35501 10.1624 4.45501C10.1624 3.35251 9.75741 2.79001 9.39741 2.29501C9.32991 2.19751 9.26241 2.10751 9.20241 2.01001L9.19491 2.01751Z" fill="#1C1917"/>
<path d="M12.12 4.46246C12.12 3.35996 11.715 2.79746 11.355 2.30246C11.2875 2.20496 11.22 2.11496 11.16 2.01746L10.7175 2.32496C10.785 2.42996 10.86 2.53496 10.9275 2.63246C11.25 3.08246 11.5875 3.54746 11.5875 4.46246C11.5875 5.18996 11.355 5.53496 11.0925 5.93996C10.815 6.35246 10.5 6.82496 10.5 7.72496C10.5 8.62496 10.815 9.09746 11.0925 9.50996L11.535 9.19496C11.2725 8.79746 11.04 8.45246 11.04 7.71746C11.04 6.98246 11.2725 6.64496 11.535 6.23996C11.8125 5.82746 12.1275 5.35496 12.1275 4.45496L12.12 4.46246Z" fill="#1C1917"/>
<path d="M14.0773 4.46246C14.0773 3.35996 13.6723 2.79746 13.3123 2.30246C13.2448 2.20496 13.1773 2.11496 13.1173 2.01746L12.6748 2.32496C12.7423 2.42996 12.8173 2.53496 12.8848 2.63246C13.2073 3.08246 13.5448 3.54746 13.5448 4.46246C13.5448 5.18996 13.3123 5.53496 13.0498 5.93996C12.7723 6.35246 12.4573 6.82496 12.4573 7.72496C12.4573 8.62496 12.7723 9.09746 13.0498 9.50996L13.4923 9.19496C13.2298 8.79746 12.9973 8.45246 12.9973 7.71746C12.9973 6.98246 13.2298 6.64496 13.4923 6.23996C13.7698 5.82746 14.0848 5.35496 14.0848 4.45496L14.0773 4.46246Z" fill="#1C1917"/>
<path d="M23.8125 23.1075L19.23 15.1875V10.485C19.23 10.3275 19.1025 10.2 18.945 10.2H16.335C16.1775 10.2 16.05 10.3275 16.05 10.485V12.5025L6.55497 12.5625C6.55497 12.5625 6.51747 12.5625 6.50247 12.5625C6.50247 12.5625 6.47247 12.5625 6.45747 12.57C6.39747 12.5925 6.34497 12.63 6.30747 12.69L0.187471 23.175C0.187471 23.175 0.187471 23.1825 0.187471 23.19C0.164971 23.2275 0.157471 23.2725 0.157471 23.3175C0.157471 23.3625 0.172471 23.4075 0.187471 23.445C0.187471 23.4525 0.202471 23.4675 0.209971 23.475C0.232471 23.505 0.254971 23.5275 0.284971 23.55C0.284971 23.55 0.292471 23.565 0.299971 23.565C0.299971 23.565 0.307471 23.565 0.314971 23.565C0.352471 23.5875 0.397471 23.6025 0.442471 23.6025L11.3925 23.535C11.49 23.535 11.58 23.4825 11.6325 23.3925L17.5125 13.335L23.325 23.385C23.4 23.52 23.5725 23.565 23.7075 23.49C23.8425 23.415 23.8875 23.2425 23.8125 23.1075ZM11.22 22.965L0.922471 23.0324L6.71997 13.125L17.0175 13.0575L11.22 22.965ZM17.7375 12.6225C17.7375 12.6225 17.6925 12.57 17.67 12.555C17.6625 12.555 17.6475 12.54 17.64 12.5325C17.6025 12.51 17.5575 12.5025 17.5125 12.5025H16.62V10.7775H18.6675V14.22L17.7525 12.645C17.7525 12.645 17.745 12.6375 17.7375 12.63V12.6225Z" fill="#1C1917"/>
<path d="M3.28487 21.5175C3.33737 21.6075 3.42737 21.66 3.53237 21.66H10.4474C10.5524 21.66 10.6424 21.6075 10.6949 21.5175L14.4449 14.7675C14.4899 14.6775 14.4899 14.5725 14.4449 14.49C14.3924 14.4075 14.3024 14.355 14.2049 14.355H7.45487C7.35737 14.355 7.25987 14.4075 7.21487 14.4975L3.29987 21.2475C3.24737 21.3375 3.24737 21.4425 3.29987 21.5325L3.28487 21.5175ZM6.34487 21.09L7.43987 19.1175H9.19487L8.09987 21.09H6.34487ZM7.75487 18.555L8.60987 17.0175H10.3649L9.50987 18.555H7.75487ZM10.2749 21.09H8.74487L9.83987 19.1175H11.3699L10.2749 21.09ZM11.6849 18.555H10.1549L11.0099 17.0175H12.5399L11.6849 18.555ZM13.7174 14.91L12.8549 16.455H11.3249L12.1874 14.91H13.7174ZM11.5424 14.91L10.6799 16.455H8.92487L9.78737 14.91H11.5424ZM7.60487 14.91H9.14237L8.27987 16.455H6.70487L7.60487 14.91ZM6.38237 17.0175H7.97237L7.11737 18.555H5.48987L6.38237 17.0175ZM5.15987 19.1175H6.80237L5.70737 21.09H4.01987L5.16737 19.1175H5.15987Z" fill="#1C1917"/>
<path d="M18.5626 23.535H16.3126C16.1551 23.535 16.0276 23.4075 16.0276 23.25V19.5C16.0276 19.3425 16.1551 19.215 16.3126 19.215H18.5626C18.7201 19.215 18.8476 19.3425 18.8476 19.5V23.25C18.8476 23.4075 18.7201 23.535 18.5626 23.535ZM16.5901 22.965H18.2776V19.7775H16.5901V22.965Z" fill="#1C1917"/>
</g>
<defs>
<clipPath id="clip0_36_553">
<rect width="24" height="24" fill="white"/>
</clipPath>
</defs>
</svg>
