<svg width="24" height="24" viewBox="0 0 24 24" fill="none" xmlns="http://www.w3.org/2000/svg">
<path d="M18.0974 11.31C18.4424 11.31 18.7274 11.595 18.7274 11.94V20.7375C18.7274 21.0825 18.4424 21.3675 18.0974 21.3675H6.4724C6.1274 21.3675 5.8424 21.0825 5.8424 20.7375V11.94C5.8424 11.595 6.1274 11.31 6.4724 11.31H18.0974ZM18.0974 10.68H6.4724C5.7824 10.68 5.2124 11.2425 5.2124 11.94V20.7375C5.2124 21.4275 5.7749 21.9975 6.4724 21.9975H18.0974C18.7874 21.9975 19.3574 21.435 19.3574 20.7375V11.94C19.3574 11.25 18.7949 10.68 18.0974 10.68Z" fill="#78350f"/>
<path d="M10.4024 13.35C12.0449 13.35 13.3874 14.6925 13.3874 16.335C13.3874 17.9775 12.0449 19.32 10.4024 19.32C8.75985 19.32 7.41735 17.9775 7.41735 16.335C7.41735 14.6925 8.75985 13.35 10.4024 13.35ZM10.4024 12.7275C8.40735 12.7275 6.78735 14.3475 6.78735 16.3425C6.78735 18.3375 8.40735 19.9575 10.4024 19.9575C12.3974 19.9575 14.0174 18.3375 14.0174 16.3425C14.0174 14.3475 12.3974 12.7275 10.4024 12.7275Z" fill="#78350f"/>
<path d="M11.2724 16.2225C11.1599 16.2225 11.0474 16.23 10.9349 16.245C10.9124 16.1175 10.8449 16.005 10.7549 15.93C11.4899 14.91 11.4974 13.7025 10.4024 13.7025C9.3074 13.7025 9.3074 14.91 10.0499 15.93C9.9524 16.0125 9.8924 16.125 9.8699 16.245C9.7574 16.23 9.6449 16.2225 9.5324 16.2225C8.4374 16.2225 7.6124 16.7925 8.1149 17.6625C8.3024 17.9925 8.5499 18.135 8.8124 18.135C9.3149 18.135 9.8849 17.61 10.2224 16.86C10.2824 16.8825 10.3424 16.8975 10.4024 16.8975C10.4624 16.8975 10.5299 16.8825 10.5824 16.86C10.9199 17.61 11.4824 18.135 11.9924 18.135C12.2549 18.135 12.5024 17.9925 12.6899 17.6625C13.1924 16.7925 12.3674 16.2225 11.2724 16.2225ZM8.8124 17.505C8.7524 17.505 8.6774 17.385 8.6549 17.3475C8.6324 17.31 8.5649 17.19 8.5949 17.1375C8.6624 17.0175 8.9924 16.8525 9.5099 16.8525C9.2624 17.28 8.9549 17.505 8.8049 17.505H8.8124ZM10.4024 15.315C10.1774 14.9175 10.1174 14.5575 10.1849 14.3925C10.1924 14.37 10.2149 14.3175 10.4024 14.3175C10.5899 14.3175 10.6124 14.37 10.6199 14.3925C10.6874 14.5575 10.6199 14.9175 10.4024 15.315ZM12.1499 17.3475C12.1499 17.3475 12.0524 17.505 11.9924 17.505C11.8424 17.505 11.5349 17.28 11.2874 16.8525C11.8049 16.8525 12.1349 17.0175 12.2024 17.1375C12.2324 17.19 12.1649 17.31 12.1424 17.3475H12.1499Z" fill="#78350f"/>
<path d="M17.4749 13.5075H15.1199C14.9474 13.5075 14.8049 13.365 14.8049 13.1925C14.8049 13.02 14.9474 12.8775 15.1199 12.8775H17.4749C17.6474 12.8775 17.7899 13.02 17.7899 13.1925C17.7899 13.365 17.6474 13.5075 17.4749 13.5075Z" fill="#78350f"/>
<path d="M17.4749 15.0975H15.1199C14.9474 15.0975 14.8049 14.955 14.8049 14.7825C14.8049 14.61 14.9474 14.4675 15.1199 14.4675H17.4749C17.6474 14.4675 17.7899 14.61 17.7899 14.7825C17.7899 14.955 17.6474 15.0975 17.4749 15.0975Z" fill="#78350f"/>
<path d="M17.4749 16.65H15.1199C14.9474 16.65 14.8049 16.5075 14.8049 16.335C14.8049 16.1625 14.9474 16.02 15.1199 16.02H17.4749C17.6474 16.02 17.7899 16.1625 17.7899 16.335C17.7899 16.5075 17.6474 16.65 17.4749 16.65Z" fill="#78350f"/>
<path d="M17.4749 18.225H15.1199C14.9474 18.225 14.8049 18.0825 14.8049 17.91C14.8049 17.7375 14.9474 17.595 15.1199 17.595H17.4749C17.6474 17.595 17.7899 17.7375 17.7899 17.91C17.7899 18.0825 17.6474 18.225 17.4749 18.225Z" fill="#78350f"/>
<path d="M17.4749 19.7925H15.1199C14.9474 19.7925 14.8049 19.65 14.8049 19.4775C14.8049 19.305 14.9474 19.1625 15.1199 19.1625H17.4749C17.6474 19.1625 17.7899 19.305 17.7899 19.4775C17.7899 19.65 17.6474 19.7925 17.4749 19.7925Z" fill="#78350f"/>
<path d="M10.0125 3.855C10.0125 2.6775 9.57753 2.0775 9.19503 1.545C9.12003 1.44 9.04503 1.3425 8.98503 1.245L8.51253 1.575C8.58753 1.6875 8.66253 1.7925 8.73753 1.8975C9.08253 2.3775 9.44253 2.8725 9.44253 3.855C9.44253 4.63499 9.19503 5.0025 8.91003 5.43C8.61753 5.8725 8.28003 6.375 8.28003 7.335C8.28003 8.29499 8.61753 8.79749 8.91003 9.24L9.38253 8.9025C9.09753 8.475 8.85003 8.1075 8.85003 7.3275C8.85003 6.5475 9.09753 6.18 9.38253 5.7525C9.67503 5.31 10.0125 4.8075 10.0125 3.8475V3.855Z" fill="#78350f"/>
<path d="M11.0776 1.24499L10.6051 1.57499C10.6801 1.68749 10.7551 1.79249 10.8301 1.89749C11.1751 2.37749 11.5351 2.87249 11.5351 3.85499C11.5351 4.63499 11.2876 5.00249 11.0026 5.42999C10.7101 5.87249 10.3726 6.37499 10.3726 7.33499C10.3726 8.29499 10.7101 8.79749 11.0026 9.23999L11.4751 8.90249C11.1901 8.47499 10.9426 8.10749 10.9426 7.32749C10.9426 6.54749 11.1901 6.17999 11.4751 5.75249C11.7676 5.30999 12.1051 4.80749 12.1051 3.84749C12.1051 2.66999 11.6701 2.06999 11.2876 1.53749C11.2126 1.43249 11.1376 1.33499 11.0776 1.23749V1.24499Z" fill="#78350f"/>
<path d="M14.1976 3.855C14.1976 2.6775 13.7626 2.0775 13.3801 1.545C13.3051 1.44 13.2301 1.3425 13.1701 1.245L12.6976 1.575C12.7726 1.6875 12.8476 1.7925 12.9226 1.8975C13.2676 2.3775 13.6276 2.8725 13.6276 3.855C13.6276 4.63499 13.3801 5.0025 13.0951 5.43C12.8026 5.8725 12.4651 6.375 12.4651 7.335C12.4651 8.29499 12.8026 8.79749 13.0951 9.24L13.5676 8.9025C13.2826 8.475 13.0351 8.1075 13.0351 7.3275C13.0351 6.5475 13.2826 6.18 13.5676 5.7525C13.8601 5.31 14.1976 4.8075 14.1976 3.8475V3.855Z" fill="#78350f"/>
<path d="M16.2825 3.855C16.2825 2.6775 15.8475 2.0775 15.465 1.545C15.39 1.44 15.315 1.3425 15.255 1.245L14.7825 1.575C14.8575 1.6875 14.9325 1.7925 15.0075 1.8975C15.3525 2.3775 15.7125 2.8725 15.7125 3.855C15.7125 4.63499 15.465 5.0025 15.18 5.43C14.8875 5.8725 14.55 6.375 14.55 7.335C14.55 8.29499 14.8875 8.79749 15.18 9.24L15.6525 8.9025C15.3675 8.475 15.12 8.1075 15.12 7.3275C15.12 6.5475 15.3675 6.18 15.6525 5.7525C15.945 5.31 16.2825 4.8075 16.2825 3.8475V3.855Z" fill="#78350f"/>
</svg>
