<svg width="32" height="32" viewBox="0 0 32 32" fill="none" xmlns="http://www.w3.org/2000/svg">
<path d="M15.82 16.9301C15.78 16.8401 15.69 16.7901 15.59 16.7801C15.49 16.7801 15.4 16.8101 15.34 16.8901C15.18 17.0901 15.03 17.2701 14.87 17.4101C15.01 16.0701 14.73 14.9601 14.02 14.0301C13.28 13.0501 12.18 12.4301 11.2 11.9601C11.11 11.9101 10.99 11.9201 10.91 11.9901C10.83 12.0501 10.78 12.1501 10.8 12.2601C10.96 13.3201 10.6 13.7701 10.15 14.3601C9.67 14.9701 9.1 15.7101 9.04 17.2801C8.93 17.0401 8.85 16.7301 8.84 16.3101C8.84 16.2001 8.76 16.0901 8.65 16.0501C8.54 16.0101 8.42 16.0501 8.34 16.1301C7.96 16.5601 7.69 17.0001 7.53 17.4801C7.35 17.9801 7.25 18.5001 7.25 19.0401C7.25 21.5401 9.28 23.5701 11.78 23.5701C14.28 23.5701 16.31 21.5401 16.31 19.0401C16.31 18.3101 16.13 17.5801 15.8 16.9401L15.82 16.9301ZM11.85 23.0001C11.85 23.0001 11.81 23.0001 11.8 23.0001C10.65 23.0001 9.71 22.0601 9.71 20.9101C9.71 20.6601 9.75 20.4201 9.84 20.1901C10 19.7301 10.34 19.4301 10.7 19.1101C11.13 18.7301 11.62 18.3101 11.69 17.5901C12.54 18.0901 13.21 18.8701 12.83 20.4601C12.8 20.5701 12.84 20.6801 12.93 20.7501C13.02 20.8201 13.13 20.8301 13.23 20.7801C13.4 20.6901 13.61 20.5201 13.8 20.3401C13.85 20.5301 13.88 20.7201 13.88 20.9201C13.88 22.0501 12.97 22.9801 11.85 23.0101V23.0001ZM14.06 22.2901C14.3 21.8901 14.45 21.4201 14.45 20.9101C14.45 20.4801 14.35 20.0601 14.15 19.6801C14.11 19.5901 14.02 19.5401 13.92 19.5301C13.82 19.5301 13.73 19.5601 13.67 19.6401C13.62 19.7001 13.56 19.7701 13.5 19.8401C13.61 18.1001 12.46 17.3101 11.52 16.8601C11.43 16.8101 11.31 16.8201 11.23 16.8901C11.15 16.9501 11.1 17.0501 11.12 17.1601C11.23 17.9001 10.83 18.2501 10.33 18.6901C9.95 19.0301 9.51 19.4001 9.3 20.0101C9.19 20.3001 9.14 20.6101 9.14 20.9201C9.14 21.4201 9.28 21.9001 9.53 22.3001C8.5 21.5801 7.82 20.3901 7.82 19.0401C7.82 18.5701 7.9 18.1101 8.06 17.6701C8.13 17.4501 8.23 17.2501 8.36 17.0401C8.51 17.6801 8.83 18.0401 9.14 18.3401C9.22 18.4201 9.35 18.4401 9.46 18.4001C9.57 18.3501 9.63 18.2401 9.62 18.1201C9.48 16.1401 10.05 15.4101 10.6 14.7101C11.02 14.1701 11.42 13.6501 11.4 12.7001C13.16 13.6101 14.8 14.9201 14.21 17.9701C14.19 18.0801 14.23 18.1801 14.32 18.2501C14.41 18.3101 14.52 18.3201 14.62 18.2801C14.93 18.1201 15.21 17.9001 15.49 17.6001C15.67 18.0601 15.76 18.5401 15.76 19.0501C15.76 20.4001 15.08 21.5901 14.05 22.3101L14.06 22.2901Z" fill="#1C1917"/>
<path d="M30.43 8.29004C30.22 8.29004 30.05 8.46004 30.05 8.67004V13.63H26.79V11.37C26.79 11.16 26.62 10.99 26.41 10.99H23.91L22.11 8.45004C22.04 8.35004 21.93 8.29004 21.8 8.29004H15.54V4.68004H20.75C20.88 4.68004 20.99 4.51004 20.99 4.30004C20.99 4.09004 20.88 3.92004 20.75 3.92004H9.21996C9.08996 3.92004 8.97996 4.09004 8.97996 4.30004C8.97996 4.51004 9.08996 4.68004 9.21996 4.68004H14.79V8.29004H8.59996C8.46996 8.29004 8.34996 8.35004 8.28996 8.46004L6.23996 11.6H3.74996C3.53996 11.6 3.36996 11.77 3.36996 11.98V16.95H0.839956V10.04C0.839956 9.87004 0.669956 9.73004 0.459956 9.73004C0.249956 9.73004 0.0799561 9.87004 0.0799561 10.04V24.97C0.0799561 25.14 0.249956 25.28 0.459956 25.28C0.669956 25.28 0.839956 25.14 0.839956 24.97V17.7H3.37996V23.37C3.37996 23.58 3.54996 23.75 3.75996 23.75H6.28996L9.52996 27.26C9.59996 27.34 9.69996 27.38 9.80996 27.38H23.05C23.17 27.38 23.29 27.32 23.36 27.22L25.75 23.75H30.06V27.01C30.06 27.22 30.23 27.39 30.44 27.39C30.65 27.39 30.82 27.22 30.82 27.01V8.66004C30.82 8.45004 30.65 8.28004 30.44 8.28004L30.43 8.29004ZM25.54 22.99C25.42 22.99 25.3 23.05 25.23 23.15L22.84 26.62H9.95996L6.71996 23.11C6.64996 23.03 6.54996 22.99 6.43996 22.99H4.11996V12.34H6.43996C6.56996 12.34 6.68996 12.28 6.74996 12.17L8.79996 9.03004H21.6L23.4 11.57C23.47 11.67 23.58 11.73 23.71 11.73H26.03V13.99C26.03 14.2 26.2 14.37 26.41 14.37H30.04V22.99H25.53H25.54Z" fill="#1C1917"/>
<path d="M21.46 23.26C21.46 23.26 21.39 23.26 21.36 23.25C21.16 23.19 21.05 22.99 21.1 22.79L22.37 18.34L20.2 19.72C20.07 19.8 19.9 19.8 19.77 19.7C19.65 19.61 19.59 19.44 19.64 19.29L21.44 13.41C21.5 13.21 21.71 13.1 21.91 13.16C22.11 13.22 22.22 13.43 22.16 13.63L20.65 18.53L22.8 17.17C22.93 17.09 23.1 17.09 23.23 17.19C23.35 17.28 23.41 17.44 23.37 17.59L21.83 22.98C21.78 23.15 21.63 23.25 21.47 23.25L21.46 23.26Z" fill="#1C1917"/>
</svg>
