<svg width="32" height="32" viewBox="0 0 32 32" fill="none" xmlns="http://www.w3.org/2000/svg">
<path d="M16.5 28.1201H2C1.79 28.1201 1.62 28.2901 1.62 28.5001V31.0001C1.62 31.2101 1.79 31.3801 2 31.3801H16.5C16.71 31.3801 16.88 31.2101 16.88 31.0001V28.5001C16.88 28.2901 16.71 28.1201 16.5 28.1201ZM16.12 30.6201H2.38V28.8701H16.13V30.6201H16.12Z" fill="#1C1917"/>
<path d="M29.64 28.04H20.5C20.29 28.04 20.12 28.21 20.12 28.42V30.92C20.12 31.13 20.29 31.3 20.5 31.3H29.64C29.85 31.3 30.02 31.13 30.02 30.92V28.42C30.02 28.21 29.85 28.04 29.64 28.04ZM29.26 30.54H20.87V28.79H29.26V30.54Z" fill="#1C1917"/>
<path d="M5.14001 26.29H11.5C11.71 26.29 11.88 26.12 11.88 25.91V23.41C11.88 23.2 11.71 23.03 11.5 23.03H5.14001C4.93001 23.03 4.76001 23.2 4.76001 23.41V25.91C4.76001 26.12 4.93001 26.29 5.14001 26.29ZM5.51001 23.79H11.12V25.54H5.51001V23.79Z" fill="#1C1917"/>
<path d="M14.71 26.29H27.5C27.71 26.29 27.88 26.12 27.88 25.91V23.41C27.88 23.2 27.71 23.03 27.5 23.03H14.71C14.5 23.03 14.33 23.2 14.33 23.41V25.91C14.33 26.12 14.5 26.29 14.71 26.29ZM15.08 23.79H27.12V25.54H15.08V23.79Z" fill="#1C1917"/>
<path d="M23.15 8.95998C23.08 8.81998 22.94 8.72998 22.78 8.70998C22.62 8.69998 22.47 8.75998 22.37 8.88998C22.11 9.22998 21.85 9.50998 21.59 9.74998C21.82 7.53998 21.36 5.69998 20.19 4.15998C18.96 2.53998 17.14 1.51998 15.53 0.739976C15.37 0.659976 15.19 0.679976 15.05 0.779976C14.91 0.879976 14.84 1.04998 14.87 1.21998C15.13 2.96998 14.54 3.72998 13.8 4.68998C13.01 5.69998 12.06 6.91998 11.96 9.51998C11.77 9.11998 11.64 8.60998 11.62 7.90998C11.62 7.71998 11.49 7.54998 11.31 7.48998C11.13 7.42998 10.93 7.47998 10.8 7.61998C10.17 8.32998 9.73 9.05998 9.46 9.84998C9.16 10.68 9 11.54 9 12.43C9 16.57 12.36 19.93 16.5 19.93C20.64 19.93 24 16.57 24 12.43C24 11.22 23.71 10.02 23.15 8.95998ZM13.05 15.55C13.05 15.14 13.12 14.74 13.26 14.36C13.26 14.36 13.26 14.36 13.26 14.35C13.52 13.59 14.09 13.09 14.69 12.57C15.41 11.94 16.21 11.25 16.33 10.06C17.73 10.89 18.85 12.17 18.22 14.8C18.18 14.98 18.24 15.16 18.39 15.28C18.53 15.39 18.73 15.41 18.89 15.33C19.17 15.19 19.52 14.89 19.83 14.6C19.92 14.91 19.96 15.23 19.96 15.56C19.96 17.43 18.46 18.96 16.6 19.01C16.57 19.01 16.54 19.01 16.51 19.01C14.61 19.01 13.06 17.46 13.06 15.56L13.05 15.55ZM20.24 17.83C20.65 17.17 20.88 16.39 20.88 15.55C20.88 14.84 20.71 14.14 20.38 13.52C20.31 13.38 20.17 13.29 20.01 13.27C19.85 13.26 19.7 13.32 19.6 13.45C19.52 13.55 19.42 13.66 19.31 13.78C19.5 10.91 17.59 9.59998 16.04 8.84998C15.88 8.76998 15.7 8.78998 15.56 8.88998C15.42 8.98998 15.35 9.15998 15.38 9.32998C15.56 10.56 14.91 11.13 14.08 11.85C13.44 12.4 12.73 13.03 12.38 14.03C12.2 14.51 12.11 15.02 12.11 15.54C12.11 16.37 12.34 17.15 12.75 17.82C11.04 16.63 9.92 14.66 9.92 12.42C9.92 11.64 10.06 10.88 10.32 10.15C10.32 10.15 10.32 10.15 10.32 10.14C10.44 9.77998 10.6 9.43998 10.81 9.09998C11.06 10.15 11.59 10.76 12.09 11.25C12.23 11.39 12.44 11.42 12.61 11.34C12.78 11.26 12.89 11.08 12.88 10.88C12.65 7.60998 13.59 6.39998 14.5 5.23998C15.2 4.34998 15.86 3.48998 15.83 1.91998C18.74 3.42998 21.45 5.58998 20.48 10.63C20.45 10.81 20.52 10.98 20.66 11.09C20.8 11.2 20.99 11.21 21.15 11.13C21.66 10.87 22.13 10.5 22.59 9.99998C22.89 10.76 23.04 11.56 23.04 12.4C23.04 14.63 21.92 16.61 20.21 17.8L20.24 17.83Z" fill="#1C1917"/>
</svg>
