<svg width="32" height="32" viewBox="0 0 32 32" fill="none" xmlns="http://www.w3.org/2000/svg">
<path d="M13.06 29.47C7.89998 28.18 5.22998 22.35 5.22998 18.69C5.22998 17.41 5.44998 16.16 5.88998 14.97C5.88998 14.97 5.88998 14.96 5.88998 14.95C6.08998 14.36 6.35998 13.8 6.69998 13.25C7.10998 14.98 7.97998 15.97 8.79998 16.78C9.02998 17 9.36998 17.06 9.64998 16.93C9.92998 16.8 10.11 16.5 10.09 16.18C9.71998 10.82 11.26 8.83999 12.75 6.92999C13.89 5.45999 14.97 4.06999 14.93 1.48999C19.7 3.95999 24.15 7.50999 22.56 15.78C22.5 16.07 22.62 16.36 22.85 16.53C23.08 16.7 23.4 16.73 23.66 16.6C24.49 16.17 25.27 15.56 26.02 14.76C26.51 16 26.76 17.32 26.76 18.69C26.76 22.35 23.07 27.26 20.27 29.21M10.25 24.26C10.25 23.52 10.38 22.79 10.63 22.11C10.63 22.11 10.63 22.1 10.63 22.09C11.1 20.71 12.13 19.82 13.21 18.87C14.51 17.74 15.95 16.48 16.17 14.34C18.7 15.83 20.72 18.16 19.58 22.91C19.5 23.23 19.62 23.56 19.88 23.77C20.14 23.97 20.49 24.01 20.78 23.86C21.28 23.6 21.92 23.07 22.47 22.54C22.63 23.1 22.71 23.68 22.71 24.27C22.71 27.66 20 30.42 16.63 30.5C16.58 30.5 16.52 30.5 16.47 30.5C13.03 30.5 10.23 27.7 10.23 24.26H10.25Z" stroke="#1C1917" stroke-width="0.75" stroke-miterlimit="10"/>
</svg>
