<svg width="32" height="32" viewBox="0 0 32 32" fill="none" xmlns="http://www.w3.org/2000/svg">
<path d="M28.31 31C26.86 31 25.67 29.91 25.67 28.57C25.67 27.74 26.12 26.98 26.87 26.51V19.94C26.87 19.43 27.36 19 27.93 19H28.64C29.23 19 29.7 19.41 29.7 19.94V26.51C30.47 26.96 30.9 27.7 30.9 28.57C30.9 29.91 29.74 31 28.3 31H28.31ZM27.93 19.5C27.65 19.5 27.41 19.71 27.41 19.94V26.79L27.28 26.86C26.61 27.22 26.21 27.86 26.21 28.56C26.21 29.63 27.15 30.5 28.31 30.5C29.47 30.5 30.37 29.63 30.37 28.56C30.37 27.83 29.98 27.21 29.3 26.86L29.16 26.79V19.93C29.16 19.67 28.94 19.49 28.64 19.49H27.93V19.5Z" fill="#1C1917"/>
<path fill-rule="evenodd" clip-rule="evenodd" d="M28.6401 27.07V22.12H27.9301V27.07L27.5101 27.26C27.0101 27.53 26.7201 28.03 26.7201 28.56C26.7201 29.37 27.4301 30.02 28.3001 30.02C29.1701 30.02 29.8801 29.37 29.8801 28.56C29.8801 28.02 29.5501 27.52 29.0501 27.26L28.6301 27.07H28.6401Z" fill="#1C1917"/>
<path d="M21.69 26.01H7.81C7.65 26.01 6.88 25.95 6.88 25.08C6.88 24.21 7.66 24.15 7.81 24.15H21.69C22.37 24.15 23.37 23.7 23.37 22.47C23.37 21.24 22.36 20.79 21.69 20.79H7.81C6.87 20.79 6.72 19.76 6.71 19.69V18.92H18.36V6.84004L9.49 0.170044L0.619995 6.84004V18.9H5.95V19.72C6.02999 20.35 6.51 21.53 7.8 21.53H21.68C21.84 21.53 22.61 21.59 22.61 22.46C22.61 23.33 21.83 23.39 21.68 23.39H7.81C7.13 23.39 6.13 23.84 6.13 25.07C6.13 26.3 7.14 26.75 7.81 26.75H21.69C21.85 26.75 22.63 26.81 22.63 27.69C22.63 28.57 21.85 28.62 21.7 28.62H7.81V29.37H21.7C22.37 29.37 23.38 28.92 23.38 27.69C23.38 26.46 22.37 26.01 21.69 26V26.01ZM1.37 7.22004L9.49 1.11004L17.61 7.21004V18.14H1.37V7.22004Z" fill="#1C1917"/>
</svg>
