<svg width="32" height="32" viewBox="0 0 32 32" fill="none" xmlns="http://www.w3.org/2000/svg">
<path d="M18.38 21.23H0.640015V9.17L9.51001 2.5L18.38 9.17V21.23ZM1.39001 20.48H17.62V9.55L9.51001 3.44L1.39001 9.54V20.47V20.48Z" fill="#1C1917"/>
<path d="M27.77 28.66C25.75 28.66 24.11 27.02 24.11 25C24.11 23.75 24.73 22.61 25.78 21.91V12.04C25.78 11.27 26.45 10.63 27.25 10.63H28.23C29.05 10.63 29.7 11.25 29.7 12.04V21.91C30.77 22.58 31.37 23.7 31.37 25C31.37 27.02 29.75 28.66 27.77 28.66ZM27.25 11.38C26.87 11.38 26.53 11.69 26.53 12.04V22.34L26.35 22.45C25.42 23 24.86 23.95 24.86 25.01C24.86 26.61 26.16 27.92 27.77 27.92C29.38 27.92 30.62 26.62 30.62 25.01C30.62 23.91 30.08 22.98 29.14 22.46L28.95 22.35V12.05C28.95 11.67 28.65 11.39 28.23 11.39H27.25V11.38Z" fill="#1C1917"/>
<path fill-rule="evenodd" clip-rule="evenodd" d="M28.23 22.75V15.32H27.25V22.75L26.67 23.04C25.98 23.44 25.58 24.19 25.58 25C25.58 26.21 26.56 27.19 27.77 27.19C28.98 27.19 29.96 26.21 29.96 25C29.96 24.19 29.5 23.44 28.81 23.04L28.23 22.75Z" fill="#1C1917"/>
<path d="M22.5 26.38H10C7.73 26.38 7.12 24.5 7.12 23.5V20.5H7.87V23.5C7.87 23.72 7.94 25.62 9.99 25.62H22.49V26.37L22.5 26.38Z" fill="#1C1917"/>
</svg>
