<svg width="32" height="32" viewBox="0 0 32 32" fill="none" xmlns="http://www.w3.org/2000/svg">
<path d="M18.7999 19.19H1.06995V7.13997L9.93995 0.469971L18.8099 7.13997V19.2L18.7999 19.19ZM1.81995 18.44H18.0499V7.50997L9.93995 1.40997L1.81995 7.50997V18.44Z" fill="#1C1917"/>
<path d="M10.51 24.53H6.01C3.74001 24.53 3.13 22.65 3.13 21.65V18.65H3.88V21.65C3.88 21.87 3.95 23.77 6 23.77H10.5V24.52L10.51 24.53Z" fill="#1C1917"/>
<path d="M13.36 23.38C14.12 23.38 14.51 23.05 14.86 22.75C15.16 22.5 15.39 22.3 15.89 22.3C16.39 22.3 16.61 22.49 16.92 22.75C17.26 23.04 17.65 23.38 18.42 23.38C19.19 23.38 19.57 23.05 19.92 22.75C20.23 22.49 20.45 22.3 20.95 22.3C21.45 22.3 21.67 22.49 21.98 22.75C22.32 23.04 22.71 23.38 23.48 23.38C23.68 23.38 23.84 23.22 23.84 23.02C23.84 22.82 23.68 22.66 23.48 22.66C22.98 22.66 22.76 22.47 22.45 22.21C22.11 21.92 21.72 21.58 20.95 21.58C20.18 21.58 19.8 21.91 19.45 22.21C19.14 22.47 18.92 22.66 18.42 22.66C17.92 22.66 17.7 22.47 17.39 22.21C17.05 21.92 16.66 21.58 15.89 21.58C15.12 21.58 14.74 21.91 14.39 22.21C14.09 22.46 13.86 22.66 13.36 22.66C13.16 22.66 13 22.82 13 23.02C13 23.22 13.16 23.38 13.36 23.38Z" fill="#1C1917"/>
<path d="M13.36 26.9899C14.12 26.9899 14.51 26.6599 14.86 26.3599C15.16 26.1099 15.39 25.9099 15.89 25.9099C16.39 25.9099 16.61 26.0999 16.92 26.3599C17.26 26.6499 17.65 26.9899 18.42 26.9899C19.19 26.9899 19.57 26.6599 19.92 26.3599C20.23 26.0999 20.45 25.9099 20.95 25.9099C21.45 25.9099 21.67 26.0999 21.98 26.3599C22.32 26.6499 22.71 26.9899 23.48 26.9899C23.68 26.9899 23.84 26.8299 23.84 26.6299C23.84 26.4299 23.68 26.2699 23.48 26.2699C22.98 26.2699 22.76 26.0799 22.45 25.8199C22.11 25.5299 21.72 25.1899 20.95 25.1899C20.18 25.1899 19.8 25.5199 19.45 25.8199C19.14 26.0799 18.92 26.2699 18.42 26.2699C17.92 26.2699 17.7 26.0799 17.39 25.8199C17.05 25.5299 16.66 25.1899 15.89 25.1899C15.12 25.1899 14.74 25.5199 14.39 25.8199C14.09 26.0699 13.86 26.2699 13.36 26.2699C13.16 26.2699 13 26.4299 13 26.6299C13 26.8299 13.16 26.9899 13.36 26.9899Z" fill="#1C1917"/>
<path d="M13.36 30.6C14.12 30.6 14.51 30.27 14.86 29.97C15.16 29.72 15.39 29.5201 15.89 29.5201C16.39 29.5201 16.61 29.71 16.92 29.97C17.26 30.26 17.65 30.6 18.42 30.6C19.19 30.6 19.57 30.27 19.92 29.97C20.23 29.71 20.45 29.5201 20.95 29.5201C21.45 29.5201 21.67 29.71 21.98 29.97C22.32 30.26 22.71 30.6 23.48 30.6C23.68 30.6 23.84 30.44 23.84 30.24C23.84 30.04 23.68 29.88 23.48 29.88C22.98 29.88 22.76 29.69 22.45 29.43C22.11 29.14 21.72 28.8 20.95 28.8C20.18 28.8 19.8 29.13 19.45 29.43C19.14 29.69 18.92 29.88 18.42 29.88C17.92 29.88 17.7 29.69 17.39 29.43C17.05 29.14 16.66 28.8 15.89 28.8C15.12 28.8 14.74 29.13 14.39 29.43C14.09 29.68 13.86 29.88 13.36 29.88C13.16 29.88 13 30.04 13 30.24C13 30.44 13.16 30.6 13.36 30.6Z" fill="#1C1917"/>
<path d="M29.35 31.8199C27.9 31.8199 26.71 30.7299 26.71 29.3899C26.71 28.5599 27.16 27.7999 27.91 27.3299V20.7599C27.91 20.2499 28.4 19.8199 28.97 19.8199H29.68C30.27 19.8199 30.74 20.2299 30.74 20.7599V27.3299C31.51 27.7799 31.94 28.5199 31.94 29.3899C31.94 30.7299 30.78 31.8199 29.34 31.8199H29.35ZM28.97 20.3199C28.69 20.3199 28.45 20.5299 28.45 20.7599V27.6099L28.32 27.6799C27.65 28.0399 27.25 28.6799 27.25 29.3799C27.25 30.4499 28.19 31.3199 29.35 31.3199C30.51 31.3199 31.41 30.4499 31.41 29.3799C31.41 28.6499 31.02 28.0299 30.34 27.6799L30.2 27.6099V20.7499C30.2 20.4899 29.98 20.3099 29.68 20.3099H28.97V20.3199Z" fill="#1C1917"/>
<path fill-rule="evenodd" clip-rule="evenodd" d="M29.68 27.8899V22.9399H28.97V27.8899L28.55 28.0799C28.05 28.3499 27.76 28.8499 27.76 29.3799C27.76 30.1899 28.47 30.8399 29.34 30.8399C30.21 30.8399 30.92 30.1899 30.92 29.3799C30.92 28.8399 30.59 28.3399 30.09 28.0799L29.67 27.8899H29.68Z" fill="#1C1917"/>
</svg>
