<svg width="32" height="32" viewBox="0 0 32 32" fill="none" xmlns="http://www.w3.org/2000/svg">
<path d="M31.7501 22.64L28.9301 13.39C28.8901 13.26 28.7801 13.16 28.6401 13.13L27.0401 12.83L27.9101 11.1C28.0001 10.92 27.9301 10.69 27.7401 10.6C27.5601 10.51 27.3301 10.58 27.2401 10.77L26.2701 12.69L24.0201 12.27L22.2701 8.73001C22.2201 8.63001 22.1201 8.55001 22.0101 8.53001L21.2501 8.37001L22.6701 7.38001C22.8401 7.26001 22.8801 7.03001 22.7601 6.86001C22.6401 6.69001 22.4101 6.65001 22.2401 6.77001L20.2401 8.16001L18.6801 7.83001L16.1301 6.74001L15.8901 4.83001C15.8601 4.62001 15.6801 4.48001 15.4701 4.50001C15.2601 4.53001 15.1201 4.71001 15.1401 4.92001L15.3301 6.40001L13.1701 5.48001C13.0801 5.44001 12.9701 5.44001 12.8801 5.48001C12.7901 5.52001 12.7101 5.60001 12.6801 5.69001L12.0401 7.40001L9.74005 8.18001V6.79001C9.74005 6.58001 9.57005 6.41001 9.36005 6.41001C9.15005 6.41001 8.98005 6.58001 8.98005 6.79001V8.43001L7.89005 8.80001L4.36005 10.97C4.29005 11.01 4.24005 11.08 4.21005 11.16L3.36005 13.39C3.36005 13.39 3.36005 13.4 3.36005 13.41L3.10005 14.23L2.15005 13.9C1.95005 13.83 1.74005 13.94 1.67005 14.13C1.60005 14.33 1.71005 14.54 1.90005 14.61L2.87005 14.95L0.400054 22.64C0.370054 22.74 0.380054 22.84 0.430054 22.93C0.480054 23.02 0.560054 23.09 0.660054 23.11L5.29005 24.42L5.90005 26.64C5.95005 26.81 6.10005 26.92 6.26005 26.92C6.29005 26.92 6.33005 26.92 6.36005 26.91C6.56005 26.86 6.68005 26.65 6.62005 26.45L6.13005 24.67L10.3901 25.87C10.3901 25.87 10.4601 25.88 10.4901 25.88C10.4901 25.88 10.5101 25.88 10.5201 25.88L12.2701 25.76L12.1001 26.45C12.0501 26.65 12.1801 26.85 12.3801 26.9C12.4101 26.9 12.4401 26.91 12.4701 26.91C12.6401 26.91 12.7901 26.79 12.8301 26.62L13.0501 25.7L25.5901 24.86L31.4801 23.11C31.5801 23.08 31.6601 23.02 31.7001 22.93C31.7501 22.84 31.7601 22.74 31.7301 22.64H31.7501ZM25.4701 24.13L13.2401 24.94L13.3501 24.5C13.4001 24.3 13.2701 24.1 13.0701 24.05C12.8701 24 12.6701 24.13 12.6201 24.33L12.4601 25L10.5401 25.13L5.90005 23.82L5.71005 23.12C5.66005 22.92 5.45005 22.8 5.25005 22.86C5.05005 22.91 4.93005 23.12 4.99005 23.32L5.06005 23.58L1.24005 22.5L3.59005 15.17L5.58005 15.86C5.58005 15.86 5.66005 15.88 5.70005 15.88C5.86005 15.88 6.00005 15.78 6.05005 15.63C6.12005 15.43 6.01005 15.22 5.82005 15.15L3.81005 14.45L4.07005 13.63L4.87005 11.53L8.21005 9.47001L8.99005 9.21001V10.84C8.99005 11.05 9.16005 11.22 9.37005 11.22C9.58005 11.22 9.75005 11.05 9.75005 10.84V8.96001L12.4601 8.05001C12.5701 8.01001 12.6501 7.93001 12.6901 7.83001L13.2601 6.32001L15.4601 7.26001L15.6301 8.64001C15.6501 8.83001 15.8201 8.97001 16.0001 8.97001C16.0201 8.97001 16.0301 8.97001 16.0501 8.97001C16.2601 8.94001 16.4001 8.76001 16.3801 8.55001L16.2601 7.60001L18.4801 8.54001L19.4201 8.74001L18.2001 9.59001C18.0301 9.71001 17.9901 9.94001 18.1101 10.11C18.1801 10.21 18.3001 10.27 18.4201 10.27C18.4901 10.27 18.5701 10.25 18.6301 10.2L20.4301 8.95001L21.6901 9.22001L23.4401 12.77C23.4901 12.88 23.5901 12.95 23.7101 12.97L25.9301 13.39L25.5601 14.12C25.4701 14.3 25.5401 14.53 25.7301 14.62C25.7801 14.65 25.8401 14.66 25.9001 14.66C26.0401 14.66 26.1701 14.58 26.2301 14.45L26.7001 13.53L28.2901 13.83L30.9401 22.5L25.4901 24.13H25.4701Z" fill="#1C1917"/>
<path d="M9.22997 14.63C9.22997 14.63 9.31997 14.66 9.36997 14.66C9.51997 14.66 9.65997 14.57 9.71997 14.43C9.79997 14.24 9.70997 14.02 9.51997 13.94L6.40997 12.66C6.21997 12.58 5.99997 12.67 5.91997 12.86C5.83997 13.05 5.92997 13.27 6.11997 13.35L9.22997 14.63Z" fill="#1C1917"/>
<path d="M10.92 13.02C10.98 13.02 11.04 13.01 11.1 12.97L14.21 11.26C14.39 11.16 14.46 10.93 14.36 10.75C14.26 10.57 14.03 10.5 13.85 10.6L10.74 12.31C10.56 12.41 10.49 12.64 10.59 12.82C10.66 12.94 10.79 13.01 10.92 13.01V13.02Z" fill="#1C1917"/>
<path d="M13.17 15.32C13.07 15.5 13.14 15.73 13.32 15.83L17.38 18C17.44 18.03 17.5 18.04 17.56 18.04C17.69 18.04 17.82 17.97 17.89 17.84C17.99 17.66 17.92 17.43 17.74 17.33L13.68 15.16C13.5 15.06 13.27 15.13 13.17 15.31V15.32Z" fill="#1C1917"/>
<path d="M18.41 14.6C18.41 14.6 18.47 14.6 18.51 14.59L21.76 13.73C21.96 13.68 22.08 13.47 22.03 13.27C21.98 13.07 21.78 12.95 21.57 13L18.32 13.86C18.12 13.91 18 14.12 18.05 14.32C18.09 14.49 18.25 14.6 18.41 14.6Z" fill="#1C1917"/>
<path d="M24.86 16.78L19.99 17.29C19.78 17.31 19.63 17.5 19.66 17.7C19.68 17.89 19.84 18.04 20.03 18.04C20.04 18.04 20.06 18.04 20.07 18.04L24.94 17.53C25.15 17.51 25.3 17.32 25.27 17.12C25.25 16.91 25.07 16.77 24.86 16.79V16.78Z" fill="#1C1917"/>
<path d="M9.70999 16.62C9.61999 16.44 9.38999 16.36 9.20999 16.46L5.53999 18.33C5.35999 18.42 5.27999 18.65 5.37999 18.83C5.44999 18.96 5.57999 19.04 5.70999 19.04C5.76999 19.04 5.82999 19.03 5.87999 19L9.54999 17.13C9.72999 17.04 9.80999 16.81 9.70999 16.63V16.62Z" fill="#1C1917"/>
<path d="M13.58 19.82L10.16 19.04C9.94995 18.99 9.75995 19.12 9.70995 19.32C9.65995 19.52 9.78995 19.72 9.98995 19.77L13.41 20.55C13.41 20.55 13.47 20.55 13.49 20.55C13.66 20.55 13.82 20.43 13.86 20.26C13.91 20.06 13.78 19.86 13.58 19.81V19.82Z" fill="#1C1917"/>
<path d="M27.73 16.45C27.54 16.37 27.32 16.45 27.24 16.64L25.55 20.54C25.47 20.73 25.55 20.95 25.74 21.03C25.79 21.05 25.84 21.06 25.89 21.06C26.03 21.06 26.17 20.98 26.23 20.83L27.92 16.93C28 16.74 27.92 16.52 27.73 16.44V16.45Z" fill="#1C1917"/>
<path d="M15.24 18.5C15.11 18.66 15.13 18.9 15.29 19.03L18.17 21.41C18.24 21.47 18.32 21.5 18.41 21.5C18.52 21.5 18.62 21.45 18.7 21.36C18.83 21.2 18.81 20.96 18.65 20.83L15.77 18.45C15.61 18.32 15.37 18.34 15.24 18.5Z" fill="#1C1917"/>
<path d="M15.5299 12.9C15.6199 12.9 15.7 12.87 15.77 12.81L16.3199 12.34C16.4799 12.21 16.49 11.97 16.36 11.81C16.22 11.65 15.9899 11.64 15.8299 11.77L15.2799 12.24C15.1199 12.37 15.1099 12.61 15.2399 12.77C15.3099 12.86 15.42 12.9 15.52 12.9H15.5299Z" fill="#1C1917"/>
<path d="M6.51 20.4C6.35 20.27 6.11 20.29 5.98 20.44C5.85 20.6 5.87 20.83 6.02 20.97L6.54 21.41C6.61 21.47 6.7 21.5 6.78 21.5C6.89 21.5 6.99 21.46 7.07 21.37C7.2 21.21 7.18 20.98 7.03 20.84L6.51 20.4Z" fill="#1C1917"/>
<path d="M21.66 15.23C21.63 15.44 21.77 15.63 21.98 15.65L23.49 15.87C23.49 15.87 23.53 15.87 23.54 15.87C23.72 15.87 23.88 15.74 23.91 15.55C23.94 15.34 23.8 15.15 23.59 15.13L22.08 14.91C21.87 14.87 21.69 15.02 21.66 15.23Z" fill="#1C1917"/>
<path d="M22.5399 21.01L21.3499 20.76C21.1399 20.72 20.9499 20.85 20.9099 21.05C20.8699 21.25 20.9999 21.45 21.1999 21.49L22.3899 21.74C22.3899 21.74 22.4399 21.74 22.4699 21.74C22.6399 21.74 22.7999 21.62 22.8399 21.44C22.8799 21.24 22.7499 21.04 22.5499 21L22.5399 21.01Z" fill="#1C1917"/>
<path d="M12.1 17.12V17.66C12.1 17.87 12.27 18.04 12.48 18.04C12.69 18.04 12.86 17.87 12.86 17.66V17.12C12.86 16.91 12.69 16.74 12.48 16.74C12.27 16.74 12.1 16.91 12.1 17.12Z" fill="#1C1917"/>
<path d="M12.48 9.79998C12.55 9.79998 12.61 9.77998 12.67 9.74998L13.69 9.12998C13.87 9.01998 13.92 8.78998 13.82 8.61998C13.71 8.43998 13.48 8.38998 13.31 8.48998L12.29 9.10998C12.11 9.21998 12.06 9.44998 12.16 9.61998C12.23 9.73998 12.35 9.79998 12.48 9.79998Z" fill="#1C1917"/>
<path d="M28.8101 21.28C29.0201 21.28 29.1901 21.11 29.1901 20.9V19.79C29.1901 19.58 29.0201 19.41 28.8101 19.41C28.6001 19.41 28.4301 19.58 28.4301 19.79V20.9C28.4301 21.11 28.6001 21.28 28.8101 21.28Z" fill="#1C1917"/>
<path d="M3.37001 20.08C3.22001 19.94 2.98001 19.95 2.84001 20.1C2.70001 20.25 2.71001 20.49 2.86001 20.63L3.61001 21.32C3.68001 21.39 3.77001 21.42 3.86001 21.42C3.96001 21.42 4.06001 21.38 4.14001 21.3C4.28001 21.15 4.27001 20.91 4.12001 20.77L3.37001 20.08Z" fill="#1C1917"/>
<path d="M19.92 12.65C19.92 12.65 19.99 12.67 20.03 12.67C20.19 12.67 20.34 12.56 20.39 12.4L20.8 11.04C20.86 10.84 20.75 10.63 20.55 10.57C20.35 10.51 20.14 10.62 20.08 10.82L19.67 12.18C19.61 12.38 19.72 12.59 19.92 12.65Z" fill="#1C1917"/>
<path d="M12.3 21.23L9.19001 22.88C9.01001 22.98 8.94001 23.2 9.03001 23.39C9.10001 23.52 9.23001 23.59 9.36001 23.59C9.42001 23.59 9.48001 23.58 9.54001 23.55L12.65 21.9C12.83 21.8 12.9 21.58 12.81 21.39C12.71 21.21 12.48 21.14 12.3 21.23Z" fill="#1C1917"/>
<path d="M19.61 22.84H14.88C14.67 22.84 14.5 23.01 14.5 23.22C14.5 23.43 14.67 23.6 14.88 23.6H19.61C19.82 23.6 19.99 23.43 19.99 23.22C19.99 23.01 19.82 22.84 19.61 22.84Z" fill="#1C1917"/>
<path d="M24.7 21.27C24.65 21.07 24.43 20.95 24.24 21.01C24.04 21.07 23.92 21.27 23.98 21.47L24.26 22.48C24.31 22.65 24.46 22.75 24.62 22.75C24.65 22.75 24.69 22.75 24.72 22.74C24.92 22.68 25.04 22.48 24.98 22.28L24.7 21.27Z" fill="#1C1917"/>
<path d="M27.8 27.17L22.93 26.33C22.71 26.29 22.53 26.43 22.5 26.63C22.46 26.83 22.6 27.03 22.8 27.06L27.67 27.9C27.67 27.9 27.71 27.9 27.73 27.9C27.91 27.9 28.07 27.77 28.1 27.59C28.14 27.39 28 27.19 27.8 27.16V27.17Z" fill="#1C1917"/>
<path d="M18.22 27.21L15.89 28.56C15.71 28.66 15.65 28.89 15.75 29.07C15.82 29.19 15.95 29.26 16.07 29.26C16.13 29.26 16.2 29.24 16.26 29.21L18.59 27.86C18.77 27.76 18.83 27.53 18.73 27.35C18.63 27.17 18.4 27.11 18.22 27.21Z" fill="#1C1917"/>
<path d="M2.21004 25.79C2.03004 25.69 1.80004 25.75 1.70004 25.93L0.710039 27.7C0.610039 27.88 0.670039 28.11 0.850039 28.21C0.910039 28.24 0.970039 28.26 1.03004 28.26C1.16004 28.26 1.29004 28.19 1.36004 28.07L2.35004 26.3C2.45004 26.12 2.39004 25.89 2.21004 25.79Z" fill="#1C1917"/>
<path d="M30.4599 25.15L29.4699 24.55C29.2899 24.44 29.0599 24.5 28.9599 24.68C28.8599 24.86 28.9099 25.09 29.0899 25.19L30.0799 25.79C30.1399 25.83 30.2099 25.84 30.2699 25.84C30.3999 25.84 30.5199 25.78 30.5899 25.66C30.6999 25.48 30.6399 25.25 30.4599 25.15Z" fill="#1C1917"/>
</svg>
