<svg width="32" height="32" viewBox="0 0 32 32" fill="none" xmlns="http://www.w3.org/2000/svg">
<path d="M15.72 22.31C15.56 22.47 15.56 22.72 15.72 22.88C15.8 22.96 15.9 23 16 23C16.1 23 16.21 22.96 16.28 22.88C21.29 17.87 17.55 13.34 16.28 12.08C14.83 10.63 11.92 6.76997 16.28 2.40997C16.44 2.24997 16.44 1.99997 16.28 1.83997C16.12 1.67997 15.87 1.67997 15.71 1.83997C10.7 6.84997 14.44 11.38 15.71 12.64C17.16 14.09 20.07 17.95 15.71 22.31H15.72Z" fill="#1C1917"/>
<path d="M21.8501 22.31C21.6901 22.47 21.6901 22.72 21.8501 22.88C21.9301 22.96 22.0301 23 22.1301 23C22.2301 23 22.3401 22.96 22.4101 22.88C27.4201 17.87 23.6801 13.34 22.4101 12.08C20.9601 10.63 18.0501 6.76997 22.4101 2.40997C22.5701 2.24997 22.5701 1.99997 22.4101 1.83997C22.2501 1.67997 22.0001 1.67997 21.8401 1.83997C16.8301 6.84997 20.5701 11.38 21.8401 12.64C23.2901 14.09 26.2001 17.95 21.8401 22.31H21.8501Z" fill="#1C1917"/>
<path d="M9.59009 22.31C9.43009 22.47 9.43009 22.72 9.59009 22.88C9.67009 22.96 9.77009 23 9.87009 23C9.97009 23 10.0801 22.96 10.1501 22.88C15.1601 17.87 11.4201 13.34 10.1501 12.08C8.70009 10.63 5.79009 6.76997 10.1501 2.40997C10.3101 2.24997 10.3101 1.99997 10.1501 1.83997C9.99009 1.67997 9.74009 1.67997 9.58009 1.83997C4.57009 6.84997 8.31009 11.38 9.58009 12.64C11.0301 14.09 13.9401 17.95 9.58009 22.31H9.59009Z" fill="#1C1917"/>
<path d="M30.4699 26.62C30.2599 26.62 30.0899 26.79 30.0899 27V29.56H1.9099V27C1.9099 26.79 1.7399 26.62 1.5299 26.62C1.3199 26.62 1.1499 26.79 1.1499 27V29.94C1.1499 30.15 1.3199 30.32 1.5299 30.32H30.4699C30.6799 30.32 30.8499 30.15 30.8499 29.94V27C30.8499 26.79 30.6799 26.62 30.4699 26.62Z" fill="#1C1917"/>
</svg>
