<svg width="32" height="32" viewBox="0 0 32 32" fill="none" xmlns="http://www.w3.org/2000/svg">
<path d="M6.03995 29.38V28.63H26.84C27 28.63 28.42 28.57 28.42 27.05C28.42 25.53 26.99 25.46 26.82 25.46H6.03995C5.22995 25.46 3.70995 24.97 3.70995 23.13C3.70995 21.29 5.23995 20.8 6.03995 20.8H26.83C26.99 20.8 28.41 20.74 28.41 19.22C28.41 17.7 26.99 17.64 26.83 17.64H6.03995C4.22995 17.64 3.54995 15.97 3.44995 15.09V13.09H4.19995V15.05C4.19995 15.05 4.44995 16.89 6.03995 16.89H26.83C27.6399 16.89 29.16 17.38 29.16 19.22C29.16 21.06 27.6299 21.55 26.83 21.55H6.03995C5.87995 21.55 4.45995 21.61 4.45995 23.13C4.45995 24.65 5.87995 24.71 6.03995 24.71H26.83C27.6399 24.71 29.17 25.22 29.17 27.05C29.17 28.88 27.65 29.38 26.84 29.38H6.03995Z" fill="#1C1917"/>
<path d="M13.16 4.47997C13.16 3.00997 12.62 2.25997 12.14 1.59997C12.05 1.46997 11.96 1.34997 11.88 1.21997L11.29 1.62997C11.38 1.76997 11.48 1.90997 11.57 2.03997C12 2.63997 12.45 3.25997 12.45 4.47997C12.45 5.44997 12.14 5.90997 11.79 6.44997C11.42 6.99997 11 7.62997 11 8.82997C11 10.03 11.42 10.66 11.79 11.21L12.38 10.79C12.03 10.26 11.72 9.79997 11.72 8.81997C11.72 7.83997 12.03 7.38997 12.38 6.84997C12.75 6.29997 13.17 5.66997 13.17 4.46997L13.16 4.47997Z" fill="#1C1917"/>
<path d="M14.49 1.20995L13.9 1.61995C13.99 1.75995 14.09 1.89995 14.18 2.02995C14.61 2.62995 15.06 3.24995 15.06 4.46995C15.06 5.43995 14.75 5.89995 14.4 6.43995C14.03 6.98995 13.61 7.61995 13.61 8.81995C13.61 10.02 14.03 10.65 14.4 11.2L14.99 10.78C14.64 10.25 14.33 9.78995 14.33 8.80995C14.33 7.82995 14.64 7.37995 14.99 6.83995C15.36 6.28995 15.78 5.65995 15.78 4.45995C15.78 2.98995 15.24 2.23995 14.76 1.57995C14.67 1.44995 14.58 1.32995 14.5 1.19995L14.49 1.20995Z" fill="#1C1917"/>
<path d="M18.39 4.47997C18.39 3.00997 17.85 2.25997 17.37 1.59997C17.28 1.46997 17.19 1.34997 17.11 1.21997L16.52 1.62997C16.61 1.76997 16.71 1.90997 16.8 2.03997C17.23 2.63997 17.68 3.25997 17.68 4.47997C17.68 5.44997 17.37 5.90997 17.02 6.44997C16.65 6.99997 16.23 7.62997 16.23 8.82997C16.23 10.03 16.65 10.66 17.02 11.21L17.61 10.79C17.26 10.26 16.95 9.79997 16.95 8.81997C16.95 7.83997 17.26 7.38997 17.61 6.84997C17.98 6.29997 18.4 5.66997 18.4 4.46997L18.39 4.47997Z" fill="#1C1917"/>
<path d="M21 4.47997C21 3.00997 20.46 2.25997 19.98 1.59997C19.89 1.46997 19.8 1.34997 19.72 1.21997L19.13 1.62997C19.22 1.76997 19.32 1.90997 19.41 2.03997C19.84 2.63997 20.29 3.25997 20.29 4.47997C20.29 5.44997 19.98 5.90997 19.63 6.44997C19.26 6.99997 18.84 7.62997 18.84 8.82997C18.84 10.03 19.26 10.66 19.63 11.21L20.22 10.79C19.87 10.26 19.56 9.79997 19.56 8.81997C19.56 7.83997 19.87 7.38997 20.22 6.84997C20.59 6.29997 21.01 5.66997 21.01 4.46997L21 4.47997Z" fill="#1C1917"/>
</svg>
