<svg width="32" height="32" viewBox="0 0 32 32" fill="none" xmlns="http://www.w3.org/2000/svg">
<path d="M4 24.12H18.5C20.08 24.12 21.38 22.83 21.38 21.24C21.38 19.65 20.09 18.36 18.5 18.36H4C2.42 18.36 1.12 19.65 1.12 21.24C1.12 22.83 2.41 24.12 4 24.12ZM20.62 21.25C20.62 22.42 19.67 23.37 18.5 23.37C17.33 23.37 16.38 22.42 16.38 21.25C16.38 20.08 17.33 19.13 18.5 19.13C19.67 19.13 20.62 20.08 20.62 21.25ZM4 19.12H16.58C16 19.65 15.62 20.4 15.62 21.24C15.62 22.08 15.99 22.84 16.58 23.36H4C2.83 23.36 1.88 22.41 1.88 21.24C1.88 20.07 2.83 19.12 4 19.12Z" fill="#1C1917"/>
<path d="M8.86999 14.25C8.86999 15.02 9.16999 15.74 9.70999 16.28C10.25 16.82 10.97 17.12 11.74 17.12C12.51 17.12 13.23 16.82 13.77 16.28L24.02 6.03C25.14 4.91 25.14 3.08 24.02 1.96C22.9 0.839995 21.07 0.839995 19.95 1.96L9.69999 12.21C9.15999 12.75 8.85999 13.48 8.85999 14.24L8.86999 14.25ZM20.83 2.23C20.83 2.23 20.87 2.21 20.89 2.2C20.99 2.14 21.09 2.08 21.2 2.04H21.22C21.47 1.94 21.73 1.89 22 1.89C22.27 1.89 22.53 1.94 22.78 2.04H22.8C22.91 2.08 23.01 2.14 23.11 2.2C23.13 2.21 23.15 2.22 23.17 2.23C23.29 2.31 23.4 2.4 23.5 2.5C24.33 3.33 24.33 4.68 23.5 5.5C22.7 6.3 21.3 6.3 20.5 5.5C19.67 4.67 19.67 3.32 20.5 2.5C20.6 2.4 20.71 2.31 20.83 2.23ZM19.14 3.85999C19.1 4.63999 19.37 5.44 19.97 6.04C20.53 6.6 21.27 6.88 22 6.88C22.05 6.88 22.1 6.87 22.14 6.87L13.24 15.77C12.44 16.58 11.04 16.57 10.24 15.77C9.83999 15.37 9.61999 14.84 9.61999 14.27C9.61999 13.7 9.83999 13.17 10.24 12.77L19.14 3.85999Z" fill="#1C1917"/>
<path d="M30.59 18.53L24.03 11.97C22.91 10.85 21.08 10.85 19.96 11.97C18.84 13.09 18.84 14.92 19.96 16.04L26.52 22.6C27.08 23.16 27.82 23.44 28.55 23.44C29.28 23.44 30.02 23.16 30.58 22.6C31.7 21.48 31.7 19.66 30.58 18.53H30.59ZM20.5 12.5C20.6 12.4 20.71 12.31 20.83 12.23C20.85 12.22 20.87 12.21 20.89 12.2C20.99 12.14 21.09 12.08 21.2 12.04H21.22C21.47 11.94 21.73 11.89 22 11.89C22.27 11.89 22.53 11.94 22.78 12.04H22.8C22.91 12.08 23.01 12.14 23.11 12.2C23.13 12.21 23.15 12.22 23.17 12.23C23.29 12.31 23.4 12.4 23.5 12.5C24.33 13.33 24.33 14.68 23.5 15.5C22.7 16.3 21.3 16.3 20.5 15.5C19.67 14.67 19.67 13.32 20.5 12.5ZM30.06 22.06C29.23 22.89 27.88 22.89 27.05 22.06L21.85 16.86C21.85 16.86 21.95 16.87 21.99 16.87C22.73 16.87 23.46 16.59 24.02 16.03C24.62 15.43 24.89 14.64 24.85 13.85L30.05 19.05C30.88 19.88 30.88 21.23 30.05 22.06H30.06Z" fill="#1C1917"/>
<path d="M3.43995 15.43C4.17995 15.43 4.90995 15.15 5.46995 14.59L12.0299 8.02998C12.1699 7.88999 12.2899 7.73998 12.3999 7.57999C12.4199 7.54998 12.4299 7.51999 12.4499 7.48998C12.5299 7.35998 12.6099 7.21999 12.6699 7.07999C12.6699 7.07999 12.6699 7.06999 12.6699 7.05999C12.7999 6.72999 12.8799 6.36999 12.8799 5.98998C12.8799 5.60998 12.8099 5.25999 12.6699 4.91999C12.6699 4.91999 12.6699 4.90999 12.6699 4.89999C12.6099 4.75999 12.5399 4.61999 12.4499 4.48999C12.4299 4.45999 12.4199 4.42999 12.3999 4.39999C12.2899 4.23999 12.1699 4.08999 12.0299 3.94999C10.9099 2.82999 9.07995 2.82999 7.95995 3.94999L1.40995 10.53C0.289946 11.65 0.289946 13.47 1.40995 14.6C1.96995 15.16 2.70995 15.44 3.43995 15.44V15.43ZM8.82995 4.22999C8.82995 4.22999 8.86995 4.20999 8.88995 4.19999C8.98995 4.13999 9.08995 4.07999 9.19995 4.03999H9.21995C9.46995 3.93999 9.72995 3.88999 9.99995 3.88999C10.2699 3.88999 10.5299 3.93999 10.7799 4.03999H10.7999C10.9099 4.07999 11.0099 4.13999 11.1099 4.19999C11.1299 4.20999 11.1499 4.21999 11.1699 4.22999C11.2899 4.30999 11.3999 4.39999 11.4999 4.49999C11.5999 4.59999 11.6899 4.70999 11.7699 4.82999C11.7699 4.83999 11.7799 4.84999 11.7899 4.85999C12.2299 5.54999 12.2299 6.43999 11.7899 7.13999C11.7899 7.14999 11.7799 7.15999 11.7699 7.16999C11.6899 7.28999 11.5999 7.39999 11.4999 7.49999C10.6999 8.29999 9.29995 8.29999 8.49995 7.49999C7.66995 6.66999 7.66995 5.31999 8.49995 4.49999C8.59995 4.39999 8.70995 4.30999 8.82995 4.22999ZM1.93995 11.06L7.13995 5.85999C7.09995 6.63999 7.36995 7.43999 7.96995 8.03999C8.52995 8.59999 9.26995 8.87999 9.99995 8.87999C10.0499 8.87999 10.0999 8.86999 10.1499 8.86999L4.94995 14.07C4.11995 14.9 2.76995 14.9 1.93995 14.07C1.10995 13.24 1.10995 11.89 1.93995 11.06Z" fill="#1C1917"/>
<path d="M27 25.66H4.65002C3.07002 25.66 1.77002 26.95 1.77002 28.54C1.77002 30.13 3.06002 31.42 4.65002 31.42H27C28.58 31.42 29.88 30.13 29.88 28.54C29.88 26.95 28.59 25.66 27 25.66ZM2.53002 28.54C2.53002 27.37 3.48002 26.42 4.65002 26.42C5.82002 26.42 6.77002 27.37 6.77002 28.54C6.77002 29.71 5.82002 30.66 4.65002 30.66C3.48002 30.66 2.53002 29.71 2.53002 28.54ZM27 30.66H6.57002C7.15002 30.13 7.53002 29.38 7.53002 28.54C7.53002 27.7 7.16002 26.94 6.57002 26.42H27C28.17 26.42 29.12 27.37 29.12 28.54C29.12 29.71 28.17 30.66 27 30.66Z" fill="#1C1917"/>
</svg>
