<svg width="32" height="32" viewBox="0 0 32 32" fill="none" xmlns="http://www.w3.org/2000/svg">
<path d="M15.38 26.38H0.0799561V12.4L7.72996 5.71997L15.38 12.4V26.38ZM0.829956 25.62H14.62V12.73L7.71996 6.70997L0.829956 12.74V25.63V25.62Z" fill="#1C1917"/>
<path d="M30.73 15.97C31.07 15.97 31.35 16.25 31.35 16.59V25.29C31.35 25.63 31.07 25.91 30.73 25.91H19.24C18.9 25.91 18.62 25.63 18.62 25.29V16.59C18.62 16.25 18.9 15.97 19.24 15.97H30.73ZM30.73 15.34H19.24C18.56 15.34 18 15.9 18 16.58V25.28C18 25.96 18.56 26.52 19.24 26.52H30.73C31.41 26.52 31.97 25.96 31.97 25.28V16.58C31.97 15.9 31.41 15.34 30.73 15.34Z" fill="#1C1917"/>
<path d="M23.1201 17.98C24.7501 17.98 26.07 19.3 26.07 20.93C26.07 22.56 24.7501 23.88 23.1201 23.88C21.4901 23.88 20.17 22.56 20.17 20.93C20.17 19.3 21.4901 17.98 23.1201 17.98ZM23.1201 17.36C21.1501 17.36 19.55 18.96 19.55 20.93C19.55 22.9 21.1501 24.5 23.1201 24.5C25.0901 24.5 26.6901 22.9 26.6901 20.93C26.6901 18.96 25.0901 17.36 23.1201 17.36Z" fill="#1C1917"/>
<path d="M23.99 20.82C23.88 20.82 23.77 20.82 23.66 20.84C23.64 20.71 23.57 20.6 23.48 20.53C24.21 19.52 24.22 18.33 23.13 18.33C22.04 18.33 22.05 19.53 22.78 20.53C22.69 20.61 22.62 20.72 22.6 20.84C22.49 20.83 22.38 20.82 22.27 20.82C21.19 20.82 20.38 21.39 20.87 22.24C21.06 22.56 21.3 22.7 21.56 22.7C22.06 22.7 22.62 22.18 22.95 21.44C23.01 21.46 23.07 21.47 23.13 21.47C23.19 21.47 23.25 21.46 23.31 21.44C23.64 22.18 24.2 22.7 24.7 22.7C24.96 22.7 25.2 22.56 25.39 22.24C25.88 21.38 25.07 20.82 23.99 20.82ZM21.55 22.09C21.49 22.09 21.42 21.97 21.4 21.94C21.38 21.9 21.31 21.78 21.34 21.73C21.41 21.61 21.73 21.45 22.25 21.45C22 21.87 21.7 22.09 21.55 22.09ZM23.12 19.93C22.9 19.54 22.84 19.18 22.9 19.02C22.9 19 22.93 18.95 23.12 18.95C23.31 18.95 23.33 19 23.34 19.02C23.41 19.18 23.34 19.54 23.12 19.93ZM24.85 21.93C24.85 21.93 24.76 22.08 24.7 22.08C24.55 22.08 24.25 21.86 24 21.44C24.51 21.44 24.84 21.61 24.91 21.72C24.94 21.77 24.87 21.89 24.85 21.93Z" fill="#1C1917"/>
<path d="M30.11 18.14H27.78C27.61 18.14 27.47 18 27.47 17.83C27.47 17.66 27.61 17.52 27.78 17.52H30.11C30.28 17.52 30.42 17.66 30.42 17.83C30.42 18 30.28 18.14 30.11 18.14Z" fill="#1C1917"/>
<path d="M30.11 19.71H27.78C27.61 19.71 27.47 19.57 27.47 19.4C27.47 19.23 27.61 19.09 27.78 19.09H30.11C30.28 19.09 30.42 19.23 30.42 19.4C30.42 19.57 30.28 19.71 30.11 19.71Z" fill="#1C1917"/>
<path d="M30.11 21.25H27.78C27.61 21.25 27.47 21.11 27.47 20.94C27.47 20.77 27.61 20.63 27.78 20.63H30.11C30.28 20.63 30.42 20.77 30.42 20.94C30.42 21.11 30.28 21.25 30.11 21.25Z" fill="#1C1917"/>
<path d="M30.11 22.7999H27.78C27.61 22.7999 27.47 22.6599 27.47 22.4899C27.47 22.3199 27.61 22.1799 27.78 22.1799H30.11C30.28 22.1799 30.42 22.3199 30.42 22.4899C30.42 22.6599 30.28 22.7999 30.11 22.7999Z" fill="#1C1917"/>
<path d="M30.11 24.35H27.78C27.61 24.35 27.47 24.21 27.47 24.04C27.47 23.87 27.61 23.73 27.78 23.73H30.11C30.28 23.73 30.42 23.87 30.42 24.04C30.42 24.21 30.28 24.35 30.11 24.35Z" fill="#1C1917"/>
<path d="M22.63 6.96006C22.63 5.77006 22.19 5.15006 21.8 4.62006C21.72 4.51006 21.65 4.41006 21.59 4.31006L21.11 4.64006C21.18 4.75006 21.26 4.86006 21.34 4.97006C21.69 5.46006 22.05 5.96006 22.05 6.96006C22.05 7.75006 21.8 8.13006 21.51 8.56006C21.21 9.01006 20.87 9.52006 20.87 10.5001C20.87 11.4801 21.21 11.9901 21.51 12.4401L21.99 12.1001C21.7 11.6701 21.45 11.2901 21.45 10.5001C21.45 9.71006 21.7 9.33006 21.99 8.90006C22.29 8.45006 22.63 7.94006 22.63 6.96006Z" fill="#1C1917"/>
<path d="M23.71 4.31006L23.23 4.64006C23.3 4.75006 23.38 4.86006 23.46 4.97006C23.81 5.46006 24.17 5.96006 24.17 6.96006C24.17 7.75006 23.92 8.13006 23.63 8.56006C23.33 9.01006 22.99 9.52006 22.99 10.5001C22.99 11.4801 23.33 11.9901 23.63 12.4401L24.11 12.1001C23.82 11.6701 23.57 11.2901 23.57 10.5001C23.57 9.71006 23.82 9.33006 24.11 8.90006C24.41 8.45006 24.75 7.94006 24.75 6.96006C24.75 5.77006 24.31 5.15006 23.92 4.62006C23.84 4.51006 23.77 4.41006 23.7 4.31006H23.71Z" fill="#1C1917"/>
<path d="M26.88 6.96006C26.88 5.77006 26.44 5.15006 26.05 4.62006C25.97 4.51006 25.9 4.41006 25.83 4.31006L25.35 4.64006C25.42 4.75006 25.5 4.86006 25.58 4.97006C25.93 5.46006 26.29 5.96006 26.29 6.96006C26.29 7.75006 26.04 8.13006 25.75 8.56006C25.45 9.01006 25.11 9.52006 25.11 10.5001C25.11 11.4801 25.45 11.9901 25.75 12.4401L26.23 12.1001C25.94 11.6701 25.69 11.2901 25.69 10.5001C25.69 9.71006 25.94 9.33006 26.23 8.90006C26.53 8.45006 26.87 7.94006 26.87 6.96006H26.88Z" fill="#1C1917"/>
<path d="M29 6.96006C29 5.77006 28.56 5.15006 28.17 4.62006C28.09 4.51006 28.02 4.41006 27.95 4.31006L27.47 4.64006C27.54 4.75006 27.62 4.86006 27.7 4.97006C28.05 5.46006 28.41 5.96006 28.41 6.96006C28.41 7.75006 28.16 8.13006 27.87 8.56006C27.57 9.01006 27.23 9.52006 27.23 10.5001C27.23 11.4801 27.57 11.9901 27.87 12.4401L28.35 12.1001C28.06 11.6701 27.81 11.2901 27.81 10.5001C27.81 9.71006 28.06 9.33006 28.35 8.90006C28.65 8.45006 28.99 7.94006 28.99 6.96006H29Z" fill="#1C1917"/>
</svg>
