<svg width="32" height="32" viewBox="0 0 32 32" fill="none" xmlns="http://www.w3.org/2000/svg">
<g clip-path="url(#clip0_36_527)">
<path d="M23.1201 4.9H24.6601L24.7101 5.15C24.7801 5.49 24.9201 5.82 25.1101 6.12L25.2501 6.33L24.1601 7.42C24.1001 7.48 24.0701 7.55 24.0701 7.64C24.0701 7.73 24.1001 7.8 24.1601 7.86C24.2701 7.97 24.4901 7.97 24.5901 7.86L25.6801 6.77L25.8901 6.91C26.1901 7.11 26.5101 7.24 26.8601 7.31L27.1101 7.36V8.9C27.1101 9.07 27.2501 9.21 27.4201 9.21C27.5901 9.21 27.7301 9.07 27.7301 8.9V7.36L27.9801 7.31C28.3201 7.24 28.6501 7.1 28.9501 6.91L29.1601 6.77L30.2501 7.86C30.3601 7.97 30.5801 7.97 30.6801 7.86C30.7401 7.8 30.7701 7.73 30.7701 7.64C30.7701 7.55 30.7401 7.48 30.6801 7.42L29.5901 6.33L29.7301 6.12C29.9301 5.82 30.0601 5.5 30.1301 5.15L30.1801 4.9H31.7201C31.8901 4.9 32.0301 4.76 32.0301 4.59C32.0301 4.42 31.8901 4.28 31.7201 4.28H30.1801L30.1301 4.03C30.0601 3.69 29.9201 3.36 29.7301 3.06L29.5901 2.85L30.6801 1.76C30.7401 1.7 30.7701 1.63 30.7701 1.54C30.7701 1.45 30.7401 1.38 30.6801 1.32C30.5701 1.21 30.3501 1.21 30.2501 1.32L29.1601 2.41L28.9501 2.27C28.6501 2.07 28.3301 1.94 27.9801 1.87L27.7301 1.82V0.31C27.7301 0.14 27.5901 0 27.4201 0C27.2501 0 27.1101 0.14 27.1101 0.31V1.85L26.8601 1.9C26.5201 1.97 26.1901 2.11 25.8901 2.3L25.6801 2.44L24.5901 1.35C24.4801 1.24 24.2601 1.24 24.1601 1.35C24.1001 1.41 24.0701 1.48 24.0701 1.57C24.0701 1.66 24.1001 1.73 24.1601 1.79L25.2501 2.88L25.1101 3.09C24.9101 3.39 24.7801 3.71 24.7101 4.06L24.6601 4.31H23.1201C22.9501 4.31 22.8101 4.45 22.8101 4.62C22.8101 4.79 22.9501 4.93 23.1201 4.93V4.9ZM27.4101 2.45C28.5901 2.45 29.5501 3.41 29.5501 4.59C29.5501 5.77 28.5901 6.73 27.4101 6.73C26.2301 6.73 25.2701 5.77 25.2701 4.59C25.2701 3.41 26.2301 2.45 27.4101 2.45Z" fill="#1C1917"/>
<path d="M12.98 12.98C12.98 12.98 12.91 12.98 12.87 12.96C12.66 12.9 12.53 12.68 12.59 12.46L13.95 7.68002L11.61 9.16002C11.47 9.25002 11.28 9.24002 11.15 9.14002C11.02 9.04002 10.96 8.86002 11.01 8.70002L12.95 2.38002C13.02 2.17002 13.24 2.04002 13.45 2.11002C13.66 2.18002 13.78 2.40002 13.72 2.61002L12.1 7.88002L14.41 6.42002C14.55 6.33002 14.73 6.34002 14.87 6.44002C15 6.54002 15.06 6.71002 15.02 6.87002L13.37 12.67C13.32 12.85 13.16 12.96 12.98 12.96V12.98Z" fill="#1C1917"/>
<path d="M31.75 30.81L25.64 20.25V13.99C25.64 13.78 25.47 13.61 25.26 13.61H21.78C21.57 13.61 21.4 13.78 21.4 13.99V16.68L8.73996 16.76C8.73996 16.76 8.68996 16.76 8.66996 16.76C8.66996 16.76 8.62996 16.76 8.60996 16.77C8.52996 16.8 8.45996 16.85 8.40996 16.93L0.249961 30.9C0.249961 30.9 0.249961 30.91 0.249961 30.92C0.219961 30.97 0.209961 31.03 0.209961 31.09C0.209961 31.15 0.229961 31.21 0.249961 31.26C0.249961 31.27 0.269961 31.29 0.279961 31.3C0.309961 31.34 0.339961 31.37 0.379961 31.4C0.379961 31.4 0.389961 31.42 0.399961 31.42C0.399961 31.42 0.409961 31.42 0.419961 31.42C0.469961 31.45 0.529961 31.47 0.589961 31.47L15.19 31.38C15.32 31.38 15.44 31.31 15.51 31.19L23.35 17.78L31.1 31.18C31.2 31.36 31.43 31.42 31.61 31.32C31.79 31.22 31.85 30.99 31.75 30.81ZM14.96 30.62L1.22996 30.71L8.95996 17.5L22.69 17.41L14.96 30.62ZM23.65 16.83C23.65 16.83 23.59 16.76 23.56 16.74C23.55 16.74 23.53 16.72 23.52 16.71C23.47 16.68 23.41 16.67 23.35 16.67H22.16V14.37H24.89V18.96L23.67 16.86C23.67 16.86 23.66 16.85 23.65 16.84V16.83Z" fill="#1C1917"/>
<path d="M4.37991 28.69C4.44991 28.81 4.56991 28.88 4.70991 28.88H13.9299C14.0699 28.88 14.1899 28.81 14.2599 28.69L19.2599 19.69C19.3199 19.57 19.3199 19.43 19.2599 19.32C19.1899 19.21 19.0699 19.14 18.9399 19.14H9.93991C9.80991 19.14 9.67991 19.21 9.61991 19.33L4.39991 28.33C4.32991 28.45 4.32991 28.59 4.39991 28.71L4.37991 28.69ZM8.45991 28.12L9.91991 25.49H12.2599L10.7999 28.12H8.45991ZM10.3399 24.74L11.4799 22.69H13.8199L12.6799 24.74H10.3399ZM13.6999 28.12H11.6599L13.1199 25.49H15.1599L13.6999 28.12ZM15.5799 24.74H13.5399L14.6799 22.69H16.7199L15.5799 24.74ZM18.2899 19.88L17.1399 21.94H15.0999L16.2499 19.88H18.2899ZM15.3899 19.88L14.2399 21.94H11.8999L13.0499 19.88H15.3899ZM10.1399 19.88H12.1899L11.0399 21.94H8.93991L10.1399 19.88ZM8.50991 22.69H10.6299L9.48991 24.74H7.31991L8.50991 22.69ZM6.87991 25.49H9.06991L7.60991 28.12H5.35991L6.88991 25.49H6.87991Z" fill="#1C1917"/>
<path d="M24.75 31.38H21.75C21.54 31.38 21.37 31.21 21.37 31V26C21.37 25.79 21.54 25.62 21.75 25.62H24.75C24.96 25.62 25.13 25.79 25.13 26V31C25.13 31.21 24.96 31.38 24.75 31.38ZM22.12 30.62H24.37V26.37H22.12V30.62Z" fill="#1C1917"/>
</g>
<defs>
<clipPath id="clip0_36_527">
<rect width="32" height="32" fill="white"/>
</clipPath>
</defs>
</svg>
