<svg width="32" height="32" viewBox="0 0 32 32" fill="none" xmlns="http://www.w3.org/2000/svg">
<path d="M31.59 11.92C31.59 11.92 31.02 6.91998 26.07 6.40998C26.05 5.40998 25.71 2.81998 22.72 1.42998C18.98 -0.310025 15.79 2.98998 15.76 3.01998L14.2 6.35998C11.32 6.14998 9.52004 8.92998 9.42004 9.08998L1.91004 25.38L1.95004 25.4C0.820044 27.02 0.490044 28.85 0.490044 28.88L0.420044 29.32L23.82 29.17V29.13L23.86 29.15L31.57 12.11L31.61 12.02V11.92H31.59ZM16.34 3.49998C16.71 3.12998 19.33 0.689975 22.4 2.10998C22.68 2.23998 22.93 2.38998 23.16 2.53998L16.97 15.33L17.65 15.66L23.77 3.00998C25.41 4.45998 25.34 6.34998 25.31 6.69998L18.65 21.93C18.48 21.02 18.07 19.71 17.04 18.69C16.03 17.67 14.64 17.16 12.92 17.16C12.76 17.16 12.62 17.18 12.47 17.19L17.65 5.76998L16.97 5.45998L11.61 17.3C10.85 17.44 10.17 17.69 9.59004 18.07L16.34 3.52998V3.49998ZM16.09 22.61C15.88 21.53 14.98 19.6 12.97 19.6C10.96 19.6 10.06 21.51 9.83004 22.6H7.87004C7.91004 22.15 8.05004 21.36 8.42004 20.57L8.53004 20.34C9.37004 18.72 10.85 17.89 12.94 17.89C17.22 17.89 17.91 21.43 18.02 22.61H16.1H16.09ZM15.32 22.61H10.59C10.76 21.99 11.35 20.35 12.96 20.35C14.57 20.35 15.16 22.03 15.31 22.61H15.32ZM10.07 9.45998C10.07 9.45998 11.58 7.14998 13.85 7.10998L7.85004 19.99C7.80004 20.08 7.77004 20.17 7.73004 20.26L7.58004 20.57C7.11004 21.77 7.08004 22.84 7.08004 22.95C6.89004 22.93 6.69004 22.92 6.48004 22.92C5.22004 22.92 4.22004 23.3 3.42004 23.87L10.07 9.45998ZM3.88004 28.55C4.08004 27.88 4.69004 26.38 6.23004 26.38C7.77004 26.38 8.36004 27.85 8.55004 28.51L3.88004 28.54V28.55ZM9.32004 28.51C9.06004 27.41 8.16004 25.63 6.23004 25.63C4.30004 25.63 3.37004 27.44 3.11004 28.55H1.32004C1.64004 27.28 2.87004 23.67 6.50004 23.67C10.13 23.67 11.31 27.24 11.61 28.49H9.33004L9.32004 28.51ZM8.62004 23.35H15.48C13.53 24.29 12.55 26.3 12.1 27.61C11.66 26.29 10.66 24.23 8.61004 23.35H8.62004ZM15.63 28.47C15.84 27.78 16.46 26.35 17.96 26.35C19.46 26.35 20.06 27.76 20.27 28.44L15.63 28.47ZM21.05 28.44C20.78 27.34 19.88 25.6 17.97 25.6C16.06 25.6 15.13 27.37 14.86 28.48H12.63C12.95 27.21 14.18 23.61 17.81 23.61C21.44 23.61 22.62 27.17 22.92 28.43H21.06L21.05 28.44ZM23.55 27.98C23.15 26.57 21.97 23.64 19 22.99L25.99 7.00998V7.14998C27.38 7.28998 28.38 7.82998 29.09 8.49998L22.56 23.01L23.24 23.32L29.64 9.10997C30.53 10.26 30.77 11.55 30.83 11.91L23.55 27.99V27.98Z" fill="#1C1917"/>
</svg>
