<svg width="32" height="32" viewBox="0 0 32 32" fill="none" xmlns="http://www.w3.org/2000/svg">
<path d="M24.13 15.08C24.59 15.08 24.97 15.46 24.97 15.92V27.65C24.97 28.11 24.59 28.49 24.13 28.49H8.62995C8.16995 28.49 7.78995 28.11 7.78995 27.65V15.92C7.78995 15.46 8.16995 15.08 8.62995 15.08H24.13ZM24.13 14.24H8.62995C7.70995 14.24 6.94995 14.99 6.94995 15.92V27.65C6.94995 28.57 7.69995 29.33 8.62995 29.33H24.13C25.05 29.33 25.81 28.58 25.81 27.65V15.92C25.81 15 25.06 14.24 24.13 14.24Z" fill="#1C1917"/>
<path d="M13.8699 17.8C16.0599 17.8 17.8499 19.59 17.8499 21.78C17.8499 23.97 16.0599 25.76 13.8699 25.76C11.6799 25.76 9.88993 23.97 9.88993 21.78C9.88993 19.59 11.6799 17.8 13.8699 17.8ZM13.8699 16.97C11.2099 16.97 9.04993 19.13 9.04993 21.79C9.04993 24.45 11.2099 26.61 13.8699 26.61C16.5299 26.61 18.6899 24.45 18.6899 21.79C18.6899 19.13 16.5299 16.97 13.8699 16.97Z" fill="#1C1917"/>
<path d="M15.0299 21.63C14.8799 21.63 14.7299 21.64 14.5799 21.66C14.5499 21.49 14.4599 21.34 14.3399 21.24C15.3199 19.88 15.3299 18.27 13.8699 18.27C12.4099 18.27 12.4099 19.88 13.3999 21.24C13.2699 21.35 13.1899 21.5 13.1599 21.66C13.0099 21.64 12.8599 21.63 12.7099 21.63C11.2499 21.63 10.1499 22.39 10.8199 23.55C11.0699 23.99 11.3999 24.18 11.7499 24.18C12.4199 24.18 13.1799 23.48 13.6299 22.48C13.7099 22.51 13.7899 22.53 13.8699 22.53C13.9499 22.53 14.0399 22.51 14.1099 22.48C14.5599 23.48 15.3099 24.18 15.9899 24.18C16.3399 24.18 16.6699 23.99 16.9199 23.55C17.5899 22.39 16.4899 21.63 15.0299 21.63ZM11.7499 23.34C11.6699 23.34 11.5699 23.18 11.5399 23.13C11.5099 23.08 11.4199 22.92 11.4599 22.85C11.5499 22.69 11.9899 22.47 12.6799 22.47C12.3499 23.04 11.9399 23.34 11.7399 23.34H11.7499ZM13.8699 20.42C13.5699 19.89 13.4899 19.41 13.5799 19.19C13.5899 19.16 13.6199 19.09 13.8699 19.09C14.1199 19.09 14.1499 19.16 14.1599 19.19C14.2499 19.41 14.1599 19.89 13.8699 20.42ZM16.1999 23.13C16.1999 23.13 16.0699 23.34 15.9899 23.34C15.7899 23.34 15.3799 23.04 15.0499 22.47C15.7399 22.47 16.1799 22.69 16.2699 22.85C16.3099 22.92 16.2199 23.08 16.1899 23.13H16.1999Z" fill="#1C1917"/>
<path d="M23.3 18.01H20.16C19.93 18.01 19.74 17.82 19.74 17.59C19.74 17.36 19.93 17.17 20.16 17.17H23.3C23.53 17.17 23.72 17.36 23.72 17.59C23.72 17.82 23.53 18.01 23.3 18.01Z" fill="#1C1917"/>
<path d="M23.3 20.13H20.16C19.93 20.13 19.74 19.94 19.74 19.71C19.74 19.48 19.93 19.29 20.16 19.29H23.3C23.53 19.29 23.72 19.48 23.72 19.71C23.72 19.94 23.53 20.13 23.3 20.13Z" fill="#1C1917"/>
<path d="M23.3 22.2H20.16C19.93 22.2 19.74 22.01 19.74 21.78C19.74 21.55 19.93 21.36 20.16 21.36H23.3C23.53 21.36 23.72 21.55 23.72 21.78C23.72 22.01 23.53 22.2 23.3 22.2Z" fill="#1C1917"/>
<path d="M23.3 24.3H20.16C19.93 24.3 19.74 24.11 19.74 23.88C19.74 23.65 19.93 23.46 20.16 23.46H23.3C23.53 23.46 23.72 23.65 23.72 23.88C23.72 24.11 23.53 24.3 23.3 24.3Z" fill="#1C1917"/>
<path d="M23.3 26.39H20.16C19.93 26.39 19.74 26.2 19.74 25.97C19.74 25.74 19.93 25.55 20.16 25.55H23.3C23.53 25.55 23.72 25.74 23.72 25.97C23.72 26.2 23.53 26.39 23.3 26.39Z" fill="#1C1917"/>
<path d="M13.35 5.14003C13.35 3.57003 12.77 2.77003 12.26 2.06003C12.16 1.92003 12.06 1.79003 11.98 1.66003L11.35 2.10003C11.45 2.25003 11.55 2.39003 11.65 2.53003C12.11 3.17003 12.59 3.83003 12.59 5.14003C12.59 6.18003 12.26 6.67003 11.88 7.24003C11.49 7.83003 11.04 8.50003 11.04 9.78003C11.04 11.06 11.49 11.73 11.88 12.32L12.51 11.87C12.13 11.3 11.8 10.81 11.8 9.77003C11.8 8.73003 12.13 8.24003 12.51 7.67003C12.9 7.08003 13.35 6.41003 13.35 5.13003V5.14003Z" fill="#1C1917"/>
<path d="M14.7701 1.66002L14.1401 2.10002C14.2401 2.25002 14.3401 2.39002 14.4401 2.53002C14.9001 3.17002 15.3801 3.83002 15.3801 5.14002C15.3801 6.18002 15.0501 6.67002 14.6701 7.24002C14.2801 7.83002 13.8301 8.50002 13.8301 9.78002C13.8301 11.06 14.2801 11.73 14.6701 12.32L15.3001 11.87C14.9201 11.3 14.5901 10.81 14.5901 9.77003C14.5901 8.73003 14.9201 8.24002 15.3001 7.67002C15.6901 7.08002 16.1401 6.41002 16.1401 5.13002C16.1401 3.56002 15.5601 2.76002 15.0501 2.05002C14.9501 1.91002 14.8501 1.78002 14.7701 1.65002V1.66002Z" fill="#1C1917"/>
<path d="M18.93 5.14003C18.93 3.57003 18.35 2.77003 17.84 2.06003C17.74 1.92003 17.64 1.79003 17.56 1.66003L16.93 2.10003C17.03 2.25003 17.13 2.39003 17.23 2.53003C17.69 3.17003 18.17 3.83003 18.17 5.14003C18.17 6.18003 17.84 6.67003 17.46 7.24003C17.07 7.83003 16.62 8.50003 16.62 9.78003C16.62 11.06 17.07 11.73 17.46 12.32L18.09 11.87C17.71 11.3 17.38 10.81 17.38 9.77003C17.38 8.73003 17.71 8.24003 18.09 7.67003C18.48 7.08003 18.93 6.41003 18.93 5.13003V5.14003Z" fill="#1C1917"/>
<path d="M21.71 5.14003C21.71 3.57003 21.13 2.77003 20.62 2.06003C20.52 1.92003 20.42 1.79003 20.34 1.66003L19.71 2.10003C19.81 2.25003 19.91 2.39003 20.01 2.53003C20.47 3.17003 20.95 3.83003 20.95 5.14003C20.95 6.18003 20.62 6.67003 20.24 7.24003C19.85 7.83003 19.4 8.50003 19.4 9.78003C19.4 11.06 19.85 11.73 20.24 12.32L20.87 11.87C20.49 11.3 20.16 10.81 20.16 9.77003C20.16 8.73003 20.49 8.24003 20.87 7.67003C21.26 7.08003 21.71 6.41003 21.71 5.13003V5.14003Z" fill="#1C1917"/>
</svg>
