<?xml version="1.0" encoding="UTF-8"?>
<svg id="Layer_1" data-name="Layer 1" xmlns="http://www.w3.org/2000/svg" viewBox="0 0 1280 800">
  <defs>
    <style>
      .cls-1 {
        fill: #21474f;
      }

      .cls-2 {
        fill: #c0966c;
      }

      .cls-3 {
        fill: #9dc3b9;
      }

      .cls-4 {
        fill: #95b9b6;
      }

      .cls-5 {
        fill: #231f20;
      }

      .cls-6 {
        fill: #d9d9d9;
      }

      .cls-7 {
        fill: #009245;
      }

      .cls-8 {
        fill: #8cc63f;
      }

      .cls-9 {
        fill: #834238;
      }

      .cls-10 {
        fill: #b99b68;
      }

      .cls-11 {
        fill: #dcfce7;
      }

      .cls-12 {
        fill: #4ade80;
      }

      .cls-13 {
        fill: #fff;
      }

      .cls-14 {
        fill: #75b9b9;
      }

      .cls-15 {
        fill: #65322a;
      }

      .cls-16 {
        fill: #cfdde0;
      }

      .cls-17 {
        fill: #dadad5;
      }

      .cls-18 {
        fill: #006837;
      }

      .cls-19 {
        fill: #364447;
      }
    </style>
  </defs>
  <path class="cls-11" d="M892.36,493.78l.75-.57.08.38-.84.18ZM1280,0h-164.3l24.28,85.88-33.44,11.49,21.49,62.57-22.9,7.87-8.51-24.76-55.73,19.15,12.3,35.8-54.29,9.51,14.76,84.31-35.57-87.22-31.42,12.81,23.11-17.92-11.85-15.27-46.57,36.11,11.85,15.27,2.94-2.28,8.13,19.93-12.93,5.27-.43-1.12-54.94,21.32,6.99,18.02,12.09-4.69,20.68,50.7-2.56.99,6.99,18.02,2.87-1.11,7.67,18.8-17.44,7.11,20.68,50.7-2.88,1.12,3.65,9.39-46.06,17.87,4.29,11.06-37.74,28.34,5.29,7.04,1.22,5.56-37.36,8.18,11.95,54.57-29.46,6.46,2.01,9.16h481.17V0Z"/>
  <path class="cls-12" d="M983.63,268.94l-57.14-5.27,9.38-101.6,57.13,5.27-9.38,101.6Z"/>
  <path class="cls-6" d="M1009.29,285.09l-4.96-12.17c1.45,1,2.71,2.04,2.71,2.04l.44-.62s-1.11-.93-1.56-2.49c-.44-1.56,0-2.56,0-2.56,0,0,1.76,1.35,2.89,2.14l.48,2.71v10.95Z"/>
  <path class="cls-12" d="M1132.12,597.33h-5.78v-17.01h-37.89v-3.35h11.34v-3.36h.12c-.49-.8-.43-1.66-.56-2.16-.3-1.19,1.78-2.97,2.96-6.82.07-.21.13-.41.19-.61-.2-.94.48-4.66,1.31-8.26-1.05-.17-1.05-.18-1.05-.18,0,0,.05-11.45.23-22.28h-14.55v-3.35h14.61c.11-5.67.26-10.79.45-13.51.6-8.3,1.63-10.82.3-18.53-.39-2.27-.88-6.47-1.37-11.42h-13.9c-.01.39-.04.78-.09,1.15v-4.51h13.66c-1.08-11.36-2.12-25.08-2.31-29.26-.18-3.99.14-6.27.17-8.85h-5.26c-1.04,3.71-2.19,7.21-3.07,8.56-1.93,2.97-1.33,9.19-2.67,12.01-.18.38-.36.77-.53,1.16v-137.37c2.33,1.13,5.54,2.58,8.83,3.73l.12-.46c.09.03.19.06.28.1,6.45,2.22,9.01,4.34,11.56,5.23.64.22,1.27.32,1.91.32.04,0,.08,0,.12,0l-.1.48c1.92-.01,3.86-.84,6.09-1.8l.28-.12c.75-.32,1.28-.89,1.59-1.68,1.06-2.72-.93-7.34-1.34-8.23-.59-1.31-3.07-6-6.07-9.34.78.07,1.42.14,1.87.2,2.81.37,8.45,2.35,12.75,5.11v-.83c-.3-.02-.6-.08-.89-.17-1.22-.41-.56-1.48-.56-1.48l1.45-.51v-2.1c-.74.24-1.68.5-2.34.5-.75,0-1.34-.51-1.67-.9h-10.77c-.58-.64-1.19-1.22-1.8-1.72-.53-.43-1.15-.99-1.82-1.63h15.47c-.38-.22-.64-.53-.75-.87-.22-.67,3.56-1.45,3.56-1.45,0,0,.04,0,.11,0v-58.44h1.61c-.66-9.74-5.22-11.77-5.27-11.79l-.21-.07-.11-.11c-.44-.33-5.24-3.87-11.07-8.25v-3.58c6.26,4.71,11.76,8.78,12.65,9.43,1.15.55,6.21,3.57,6.88,14.36h1.3v59.08c1.54.88,3.88,2.48,4.67,3.56,1.11,1.54,2.45,3.8,4.11,6.8,1.67,3,8.67,11.01,12.23,13.9,3.56,2.89,7,9.12,7.89,11.07.89,1.95,3.11,7.94,0,9.28-2.34,1-4.3,1.88-6.21,1.88-.64,0-1.27-.1-1.91-.32-2.55-.89-5.11-3-11.56-5.23-3.47-1.2-6.85-2.73-9.23-3.89v61.48c2.32,7.14,4.56,14.67,4.23,16.12-.21.92-1.91,1.61-4.23,2.15v168.12ZM1122.63,533.3c-1.24,3.52-2.87,6.78-3.63,10.86-.96,5.19-2.45,9.49-2.74,10.53-.09.32-.73.64-1.67.91.09,1.56-.01,3.49-.26,5.32.98,1.18,1.9,7.79,2.36,8.89.73,1.75.86,2.96.5,3.8h0v3.36h9.15v-43.67h-3.71ZM1123.84,486.5c-.01.36-.02.71-.02,1.04,0,4.3,2.52,12.3,2.37,15.86-.14,3.46-1.41,21.2-2.57,26.55h2.72v-43.45h-2.5ZM1126.34,471.19c-.1.55-.2,1.02-.3,1.38-.82,2.99-1.58,6.98-1.96,10.58h2.26v-11.96ZM1097.8,432.71c-.2,0-.37.48-.51,1.46-.18,1.27-.83,4.24-1.67,7.51h4.22c-.07-.75-.18-1.56-.33-2.47-.71-4.26-1.28-6.5-1.71-6.5ZM1120.83,364.23c.1.65.16,1.1.17,1.3.15,1.78,3.26,10.97,4.45,18.38,0,0,.36.4.89,1.18v-20.87h-5.51ZM1117.3,342.71s1.93,11.45,3.01,18.17h6.03v-13.33l-9.04-4.84ZM1132.13,324.74v2.95c3.03,2.78,5.48,5.24,5.48,5.24,0,0,.04.2.07.54l.43.31,2.43,1.29c-.58-1.36-1.85-4.26-2.19-4.85-.45-.78-2-2.34-3.78-3-.96-.36-1.84-1.5-2.44-2.48ZM1058.74,597.33h-5.78v-37.6h5.78v17.24h23.93v3.35h-23.93v17.01ZM1058.74,556.38h-5.78v-43.67h5.78v17.24h12.3v-2.74h.12c-.5-.8-.43-1.66-.56-2.16-.3-1.19,1.78-2.97,2.96-6.82.47-1.54.88-2.56,1.25-3.2-.13-.75-.27-1.54-.39-2.32h8.25v20.59h-23.93v23.08ZM1088.45,527.19v-2.31c.25.98.24,1.73,0,2.31ZM1082.67,509.36h-9.6c-.11-.31-.25-.66-.4-1.07-.92-2.46-3.13-13.82-4.39-21.79h-9.54v22.86h-5.78v-43.45h5.78v17.24h9.04c-.27-1.95-.44-3.46-.44-4.21,0-3.71,2.37-8.89,2.67-12.75,0-.09.01-.19.02-.29h12.64v43.45ZM1082.67,462.55h-12.16c.72-4.25,1.87-9.74,1.42-11.63-.17-.72-.5-2.98-.86-5.89h-12.33v17.52h-5.78v-38.11h5.78v17.24h11.92c-.83-6.97-1.66-15.41-1.39-16.4.05-.2.09-.48.11-.83h13.29v38.11ZM1082.67,421.09h-13.32c-.09-2.92-.22-6.86.22-10.64.19-1.66.35-3.39.5-5.13-.56-3.27-.59-5.53-.4-7.09h-10.93v22.86h-5.78v-29.79c1.61.08,3.42.37,5.78.95v2.63h9.46c3.41.82,6.3,1.12,8.67,1.12,2.52,0,4.45-.34,5.8-.79v25.88ZM1082.67,369.05c-.28-1.82-.57-3.74-.89-5.73-.19-1.18-.43-2.4-.69-3.63.04,0,.08,0,.11,0-.05-.24-.1-.47-.16-.71-.04,0-.08,0-.12,0-.72-3.22-1.61-6.44-2.33-9.02.03-.01.07-.03.1-.05-.07-.24-.13-.47-.2-.7-.03.02-.07.03-.1.05-.59-2.11-1.02-3.69-1.07-4.33-.02-.2-.08-.66-.17-1.3h5.51v25.41ZM1082.67,340.29h-6.03c-.19-1.19-.41-2.52-.64-3.92.03-.02.07-.05.1-.07-.04-.27-.09-.54-.13-.8-.03.02-.07.05-.1.07-.18-1.07-.36-2.17-.54-3.25.03-.02.07-.04.1-.07-.04-.26-.09-.52-.13-.77-.03.02-.07.05-.1.07-.34-2.05-.67-4.01-.93-5.6.03-.02.07-.04.1-.06-.04-.27-.09-.52-.13-.76-.03.02-.07.04-.1.06-.31-1.86-.51-3.07-.51-3.07l9.04,4.84v13.33ZM1094.26,312.46l-.71-.51c-.8-.79-2.79-2.73-5.1-4.86v-2.08c.61.87,1.4,1.74,2.28,2.06,1.72.65,3.17,2.16,3.53,2.79.16.27.54,1.11.98,2.09-.25.24-.56.41-.98.51ZM1098.5,303.27c-.36-.51-.64-.96-.85-1.33-1.88-3.38-3.12-5.43-4.14-6.85-.87-1.21-3.44-2.94-5.06-3.83v-22.77c.67-.75,1.27-1.24,1.27-1.24-.15,2.82,5.34,6.08,8.9,8.74,3.56,2.67,3.26,9.05,3.11,13.93-.09,2.91-1.75,8.69-3.23,13.34ZM1015.23,302.34h-.15v-5.51h6.13c.82,1.39,1.66,2.78,2.46,4.1-2.74.69-4.94,1.2-6.22,1.31-.71.06-1.45.09-2.22.09ZM1082.67,302.32c-.24-.16-.48-.31-.73-.45.23.05.47.09.73.11v.35ZM1080.8,301.21c-3.95-2.17-8.45-3.68-10.88-4-.8-.1-2.21-.23-3.91-.37h12.04c.3.43,1.11,1.37,2.28,1.37.67,0,1.59-.24,2.34-.47v1.09l-1.76.62-.09.14c-.04.07-.41.69-.18,1.32.03.09.08.19.15.29ZM997.53,294.18l-.16-.45-12.68-36.3,1.58-17.15,1.45,4.15,1.2-.42.16.45,9.62,27.51c.37-.49,1.05-.85,1.9-.91.02,0,.04,0,.07,0,.79,0,2.31.91,3.67,1.85l4.96,12.17v8.18c-.14-.41-.23-.69-.25-.81-.22-1.29-1.45-4.26-1.45-4.26,0,0-1.31.38-2.48.38-.22,0-.44-.01-.64-.05l1.01,2.88-7.95,2.78ZM1078.99,293.48h-12.21c.51-2.32.56-5.3,1.3-8.74.12-.56.29-1.09.5-1.59-1.47-2.19-2.58-4.49-2.58-4.49-4.97-7.39,0-12.15,0-12.15,1.24,2.67,4.31,3.2,6.55,3.2,1.5,0,2.64-.24,2.64-.24,0-1.33,2.07-2.22,2.07-2.22.61,2.22,3.12,3.45,5.41,4.12v19.32c-.08,0-.12,0-.12,0h-.08c-1.26.27-3.44.81-3.85,1.52-.1.18-.12.37-.06.56.09.27.24.51.44.72ZM1058.74,293.48h-5.78v-40.16h1.04c-.46-10.35-5.1-12.48-5.15-12.5l-.2-.07-.11-.1c-.43-.33-5.09-3.87-10.75-8.25v-3.58c6.08,4.71,11.41,8.78,12.28,9.43,1.14.56,6.25,3.7,6.71,15.07h1.96v40.16ZM1019.26,293.48h-4.18v-9.14c.32.89.59,1.68.75,2.29.33,1.21,1.71,3.83,3.43,6.85ZM1009.29,274.14l-.48-2.71s.08.05.12.08c.12.09.24.19.36.29v2.34Z"/>
  <path class="cls-6" d="M998.61,227.81s-.05,0-.08,0c-1.42-.07-5.62-.1-11.09-.17l1.95-21.17c5.65,6.55,13.22,21.34,9.22,21.34Z"/>
  <path class="cls-12" d="M984.69,257.43l-3.72-10.64,1.5-.52-1.84-5.25-20.37-.71-6.23-14c-3.47-.35-6.22-.79-7.73-1.36-7.64-2.86-10.53-15.15-10.53-15.15,0,0,33.69-6.64,46.35-6.64,2.03,0,3.52.17,4.24.57.86.47,1.9,1.44,3.02,2.74l-1.95,21.17c-9.34-.12-22.36-.37-31.5-1.16l5.42,12.19,20.47.71.45.72,3.49-1.22.49,1.4-1.58,17.15Z"/>
  <path d="M1015.07,512.71h67.6v43.67h-67.6v-43.67ZM1015.07,465.91h67.6v43.45h-67.6v-43.45ZM1015.07,424.44h67.6v38.11h-67.6v-38.11ZM1015.07,377.64h67.6v43.45h-67.6v-43.45ZM1015.07,343.64h67.6v30.64h-67.6v-30.64ZM1015.07,296.83h67.6v43.45h-67.6v-43.45ZM1015.07,597.33v-37.6h67.6v37.6h5.78V232.73h-5.78v60.75h-67.6v-60.75h-5.78v364.6h5.78Z"/>
  <path class="cls-12" d="M989.33,200.03c-.28-2.16-.86-3.6-1.58-3.63l-48.99-2.16c1.01,3.72.77,7.95.31,11.13.86-.49,1.46-.84,1.46-.84,16.09,0,25.71,2.88,48.8-4.5Z"/>
  <path class="cls-12" d="M987.04,212.49c1.16.05,2.26-3.51,2.45-7.96.07-1.66.01-3.21-.16-4.51-23.09,7.37-32.71,4.5-48.8,4.5,0,0-.6.35-1.46.84-.42,2.91-1.03,4.96-1.03,4.96l48.99,2.16Z"/>
  <path d="M938.66,209.87l48.39,2.14c.55,0,1.74-2.65,1.95-7.5.22-4.99-.8-7.62-1.29-7.64l-48.35-2.13c1.42,6.07-.17,13.08-.71,15.14ZM987.06,212.96h-.04l-49.6-2.19.17-.58c.03-.09,2.59-8.92.71-15.83l-.17-.63,49.64,2.19c1.77.08,2.38,4.53,2.2,8.64-.18,4.05-1.16,8.41-2.91,8.41Z"/>
  <path class="cls-13" d="M940.5,202.37c-.2,4.44-1.3,8-2.46,7.96-1.16-.05-1.94-3.69-1.74-8.14.19-4.45,1.29-8.01,2.45-7.96,1.16.05,1.94,3.7,1.74,8.14Z"/>
  <path d="M938.74,194.71c-.55,0-1.74,2.65-1.96,7.5-.09,2.11.03,4.1.35,5.6.35,1.65.8,2.04.93,2.05h0c.55,0,1.74-2.65,1.96-7.5.09-2.11-.03-4.1-.35-5.6-.35-1.65-.8-2.04-.94-2.05ZM938.07,210.8h-.04c-.82-.04-1.43-.98-1.83-2.8-.34-1.58-.47-3.65-.37-5.84.18-4.05,1.16-8.41,2.91-8.41h.04c.82.04,1.43.98,1.83,2.8.34,1.58.47,3.65.37,5.84-.18,4.05-1.16,8.41-2.91,8.41Z"/>
  <path d="M961.66,228.6l-1.31-.06.55-12.32-28.09-2.55.52-11.75,4.94.22-.06,1.31-3.63-.16-.41,9.19,28.09,2.55-.61,13.57Z"/>
  <path class="cls-9" d="M961.62,243.09l-3.6-.16.76-17.27,3.6.16-.76,17.27Z"/>
  <path d="M958.52,242.48l2.65.12.72-16.32-2.65-.12-.72,16.32ZM962.08,243.59l-4.55-.2.8-18.22,4.55.2-.8,18.22Z"/>
  <path class="cls-2" d="M961.26,273.78l-5.83-.26,1.89-42.81,5.83.26-1.89,42.81Z"/>
  <path d="M955.93,273.07l4.88.22,1.85-41.85-4.88-.22-1.85,41.86ZM961.72,274.28l-6.78-.3,1.93-43.76,6.79.3-1.93,43.76Z"/>
  <path class="cls-13" d="M1085.09,327.14s6.14,3.38,12.59,5.61c6.45,2.22,9.01,4.34,11.56,5.23,2.56.89,5-.22,8.12-1.56,3.11-1.33.89-7.33,0-9.28-.89-1.95-4.34-8.18-7.9-11.07-3.56-2.89-10.56-10.9-12.23-13.9-1.67-3.01-3-5.27-4.11-6.8-1.11-1.54-5.34-4.1-6-4.21-.67-.11-4.56,0-4.56,0,0,0-3.78.78-3.56,1.44.22.67,1,1.22,2.22,1.22h1.23l.44.56-4.56,2s.78,1.33,2,1.33,3.45-.89,3.45-.89l1.22,1.67-3.78,1.33s-.67,1.08.56,1.48c1.22.4,2.78.04,3.22,0,.45-.04,1.44,0,1.44,0l1.18,1.3s1.49,3.34,3.27,4c1.78.67,3.34,2.23,3.78,3,.44.78,2.49,5.55,2.49,5.55l-5.94-4.33s-12.17,11.13-6.14,16.3Z"/>
  <path class="cls-13" d="M1062.51,527.58c-.74,0-4.09,13.91-3.67,15.85.41,1.94,7.95,3.43,9.52,3.21,1.57-.23,2.83-7.31,2.57-11.62l-.26-4.32-8.15-3.11Z"/>
  <path d="M1062.65,528.14c-.9,1.8-3.71,13.49-3.35,15.18.28,1.33,6.32,2.85,8.65,2.85.17,0,.27-.01.33-.02.21-.03.94-.81,1.57-3.9.49-2.38.71-5.15.59-7.22l-.24-4.01-7.55-2.89ZM1067.96,547.14c-1.89,0-9.1-1.31-9.59-3.61-.44-2.05,2.71-15,3.66-16.17.17-.21.36-.26.48-.26h.09l8.52,3.25.28,4.63c.24,3.97-.86,11.81-2.97,12.12-.13.02-.28.03-.47.03Z"/>
  <path d="M1117.79,326.94c-.72-1.58-4.2-8.13-8.03-11.24-3.43-2.78-10.44-10.76-12.11-13.76-1.88-3.38-3.12-5.43-4.14-6.85-1.19-1.64-5.51-4.26-6.31-4.4-.14-.02-.46-.05-1.56-.05-1.34,0-3.08.05-3.09.05h-.08c-1.26.27-3.44.81-3.85,1.52-.1.18-.12.37-.06.56.31.94,1.36,1.55,2.68,1.55h.66l-4.23,1.86.27.46c.04.06.93,1.57,2.41,1.57,1.01,0,2.58-.53,3.28-.79l.63.86-3.33,1.17-.09.14c-.04.07-.41.69-.18,1.32.1.28.35.65.99.86.43.14.93.21,1.49.21.63,0,1.22-.09,1.61-.15.13-.02.24-.04.32-.04.08,0,.24-.01.53-.01.24,0,.49,0,.65.01l.99,1.09c.24.51,1.69,3.5,3.51,4.18,1.72.65,3.17,2.16,3.53,2.79.25.43,1.07,2.29,1.77,3.9l-4.84-3.53-.29.26c-.33.3-8.06,7.44-7.97,13.1.03,1.57.65,2.88,1.84,3.91l.08.06c.06.03,6.1,3.35,12.42,5.56l.24-.93c-5.94-2.09-11.6-5.14-12.15-5.44-.97-.85-1.45-1.88-1.47-3.17-.08-4.65,5.99-10.77,7.38-12.11l7.02,5.11-.68-1.6c-.08-.2-2.06-4.8-2.51-5.6-.5-.87-2.12-2.5-4.03-3.21-1.3-.49-2.61-2.87-3-3.75l-.03-.07-1.36-1.5h-.2s-.46-.03-.89-.03c-.26,0-.47,0-.61.02-.09,0-.22.03-.38.05-.36.05-.9.14-1.46.14-.46,0-.86-.05-1.19-.16-.15-.05-.34-.14-.39-.28-.04-.11-.01-.26.03-.37l4.2-1.48-1.82-2.48-.34.14c-.59.24-2.34.86-3.27.86-.53,0-.97-.36-1.26-.66l4.57-2.01-.83-1.04-.16-.18h-1.43c-.95,0-1.49-.37-1.7-.74.39-.27,1.71-.69,3.09-.97.27,0,1.81-.05,3.02-.05.99,0,1.3.03,1.4.04.56.11,4.64,2.55,5.7,4.01,1,1.39,2.22,3.41,4.08,6.75,1.74,3.14,8.78,11.14,12.35,14.03,3.32,2.7,6.72,8.61,7.76,10.9.85,1.86,2.08,5.53,1.32,7.49-.21.55-.57.93-1.07,1.15l-.28.12c-2.05.88-3.84,1.65-5.52,1.71l-.19.96c1.92-.01,3.86-.84,6.09-1.8l.28-.12c.75-.32,1.28-.89,1.59-1.68,1.06-2.72-.93-7.34-1.34-8.23Z"/>
  <path class="cls-13" d="M1003.96,302.56s-3.79-3.49-8.12-5.27c-4.34-1.78-7.67-.93-8.34-1.91,0,0-2.89-7.43-6.34-13.1-3.45-5.67-8.34-13.79-9-16.23-.67-2.45-3-8.01-4.11-10.45-1.11-2.45-1.67-3.89-2.78-4.67-1.11-.78-3-2.23-3-2.23,0,0-.44,1,0,2.56.45,1.56,1.56,2.49,1.56,2.49l-.44.62s-4.89-4-6.45-3.89c-1.56.11-2.56,1.22-2.11,2.34l.44,1.11s-2-.56-3.11.33c-1.11.89.78,3,.78,3,0,0-2.56,0-2.56,1.45s1.11,2.22,1.56,2.34l.45.11s-1.11,2-.33,3c.78,1,2.45,1.34,3.22,1.67.78.33,3.89,1.56,5.11,2,1.22.44,3.56-.22,3.56-.22,0,0,1.22,2.97,1.45,4.26.22,1.29,8.23,21.64,9.89,25.09,1.67,3.45,3.67,7.78,6.45,10.45,2.78,2.67,15.92,11.89,19.24,12.45,0,0,13.12-13.02,3-17.3Z"/>
  <path d="M964.21,267.02l.16.39c.05.12,1.24,3.03,1.47,4.37.2,1.14,8.03,21.19,9.86,24.96l.29.6c1.56,3.23,3.5,7.26,6.06,9.72,2.86,2.75,15.32,11.39,18.76,12.28,1.14-1.19,7.34-7.89,6.42-12.63-.31-1.62-1.48-2.87-3.45-3.71l-.08-.03-.06-.06s-3.78-3.46-7.98-5.18c-2.33-.96-4.36-1.13-5.85-1.26-1.37-.12-2.28-.19-2.71-.82l-.05-.09c-.03-.07-2.92-7.46-6.3-13.03-4.33-7.13-8.43-14.04-9.06-16.36-.66-2.42-3.03-8.04-4.09-10.38-.12-.27-.24-.53-.35-.78-.86-1.92-1.39-3.08-2.27-3.7-.72-.51-1.78-1.3-2.43-1.79-.04.38-.03.93.16,1.6.4,1.4,1.39,2.25,1.4,2.25l.34.28-1,1.4-.39-.32c-1.79-1.46-5.02-3.79-6.08-3.79h-.03c-.72.05-1.34.36-1.62.81-.12.19-.23.5-.08.87l.8,2-.93-.26s-.57-.15-1.23-.15c-.44,0-1.04.07-1.46.4-.11.09-.16.18-.17.32-.05.57.59,1.52,1.01,1.99l.71.79h-1.06s-2.08.05-2.08.97c0,1.2.93,1.81,1.19,1.87l1.05.26-.3.54c-.25.45-.85,1.87-.37,2.48.51.65,1.55,1,2.32,1.26.26.09.51.17.72.26.76.33,3.89,1.55,5.09,1.99.23.08.53.12.91.12,1.09,0,2.34-.35,2.36-.36l.41-.12ZM1001.12,320.36l-.24-.04c-3.54-.59-16.71-9.91-19.5-12.58-2.68-2.58-4.67-6.69-6.26-9.99l-.29-.59c-1.63-3.36-9.7-23.86-9.94-25.21-.16-.96-.93-2.95-1.26-3.78-.5.12-1.37.29-2.2.29-.49,0-.9-.06-1.23-.18-1.24-.45-4.34-1.67-5.14-2.01-.17-.07-.39-.14-.64-.23-.88-.3-2.09-.71-2.77-1.58-.69-.88-.29-2.23.03-2.98-.69-.25-1.8-1.22-1.8-2.76,0-1.16,1.11-1.67,2.13-1.84-.36-.54-.75-1.3-.7-1.99.03-.4.21-.74.52-.99.51-.4,1.2-.61,2.05-.61.21,0,.41.01.6.03l-.13-.32c-.23-.58-.18-1.19.16-1.73.45-.72,1.33-1.18,2.36-1.26.03,0,.07,0,.1,0,1.33,0,4.23,2.09,5.75,3.26-.34-.46-.72-1.09-.94-1.87-.49-1.7,0-2.83.02-2.88l.24-.55.48.37s1.9,1.45,2.99,2.21c1.1.77,1.66,2.02,2.59,4.09.11.25.23.5.35.77,1.11,2.43,3.46,8.02,4.14,10.52.68,2.51,6.27,11.69,8.95,16.11,3.26,5.36,6.05,12.36,6.35,13.11.22.23,1.07.3,1.98.38,1.54.13,3.66.31,6.12,1.32,4.11,1.69,7.68,4.83,8.21,5.31,2.24.97,3.57,2.44,3.94,4.37,1.1,5.69-6.54,13.35-6.87,13.67l-.17.17Z"/>
  <path class="cls-3" d="M1051.87,295.82s14.64.94,18.05,1.38c3.41.45,10.97,3.26,15.27,6.97,4.3,3.71,8.75,8.15,8.75,8.15,0,0,1.19,6.37-3.56,10.52-4.74,4.15-6.22,4.89-6.22,4.89l-10.52-5.63s3.56,21.05,3.7,22.83c.15,1.78,3.26,10.97,4.45,18.38,1.18,7.41,2.07,13.93,2.67,17.49.59,3.56,1.63,11.86.45,13.2-1.19,1.33-7.71,3.7-19.87,0-12.16-3.71-13.79-3.11-21.2-1.34-7.41,1.78-11.86,1.78-14.08.74-2.22-1.04-2.22-2.08-1.78-5.93.45-3.85,4-20.01,3.11-23.27-.89-3.26-5.92-14.97-9.04-21.2-3.12-6.23-2.97-10.97-9.04-15.71-6.08-4.74-12.27-7.56-12.27-7.56,0,0-2.4-12.23,4.42-18.42,0,0,7.26,1.37,12.31.93,5.04-.45,24.53-7.11,34.42-6.43Z"/>
  <path class="cls-10" d="M1081.09,359.7c-.05-.24-.1-.47-.16-.71.04,0,.08,0,.12,0,.05.23.1.47.16.71-.04,0-.08,0-.11,0ZM1078.6,349.97c-.07-.24-.13-.47-.2-.7.03-.02.07-.03.1-.05.07.23.13.46.2.7-.03.02-.07.03-.1.05Z"/>
  <path class="cls-19" d="M1077.16,343.63c-.03-.22-.07-.46-.11-.73.04-.01.07-.03.11-.04.04.26.08.5.11.73-.04.01-.07.03-.11.04Z"/>
  <path class="cls-10" d="M1076,336.37c-.04-.26-.09-.53-.13-.8.03-.02.07-.05.1-.07.05.27.09.54.13.8-.04.02-.07.05-.1.07ZM1075.34,332.32c-.04-.26-.09-.51-.13-.77.03-.02.07-.04.1-.07.04.26.09.51.13.77-.04.02-.07.04-.1.07ZM1074.27,325.94c-.05-.26-.09-.52-.13-.76.04-.02.07-.04.1-.06.04.24.09.5.13.76-.03.02-.07.04-.1.06Z"/>
  <path class="cls-16" d="M1089.31,323.84s-.02-.01-.04-.02c.18-.16.37-.32.57-.49.01,0,.02.01.04.02-.19.17-.38.33-.57.49ZM1092.17,320.94s-.04-.02-.05-.04c.13-.2.26-.39.37-.59.02.01.04.03.06.04-.12.2-.25.39-.38.58ZM1093.76,317.44s-.05-.05-.08-.07c.06-.25.11-.49.16-.73.03.03.06.05.09.07-.05.24-.1.48-.17.72Z"/>
  <path class="cls-4" d="M1031.18,364.16c-.05-.2-.12-.43-.21-.68.57-.04,1.13-.09,1.7-.16,3.96-.44,7.9-1,11.82-1.76,7.42-1.43,14.78-2.47,22.35-2.47h.43c2.22.01,4.44.04,6.65.04,1.58,0,3.17-.01,4.76-.06.76-.02,1.5-.04,2.24-.09.06.24.11.47.16.71-.49.03-.99.05-1.49.07-1.94.06-3.87.08-5.81.08s-3.73-.02-5.6-.03c-.35,0-.69,0-1.04,0-3.51,0-7,.11-10.5.51-4.03.45-7.99,1.18-11.96,1.93-3.7.71-7.42,1.23-11.16,1.69-.77.1-1.56.16-2.34.22ZM1030.46,361.98c-.08-.22-.16-.44-.25-.68,1.63-.48,3.26-.98,4.88-1.45,5.55-1.6,11.19-2.77,16.85-3.91,5.33-1.08,10.6-2.39,15.92-3.51,3.6-.76,7.24-1.58,10.55-3.16.06.23.13.46.2.7-3.32,1.56-6.97,2.39-10.56,3.15-5.47,1.15-10.88,2.49-16.36,3.6-5.79,1.17-11.56,2.38-17.22,4.07-1.33.39-2.66.8-4,1.2ZM1032.91,355.19c-1.74,0-3.49-.04-5.23-.08-.1-.24-.2-.48-.3-.71,1.74.05,3.48.09,5.22.09.85,0,1.7-.01,2.56-.03,5.8-.14,11.56-.91,17.15-2.49,5.6-1.58,10.92-3.87,16.37-5.88,2.8-1.03,5.61-2.04,8.37-3.18.04.26.08.51.11.73-2.73,1.12-5.52,2.12-8.29,3.15-5.44,2.02-10.76,4.34-16.37,5.88-5.66,1.56-11.48,2.4-17.34,2.51-.75.01-1.5.02-2.25.02ZM1025,349.01c-.11-.24-.22-.47-.32-.71,2.9-.03,5.8-.18,8.68-.18,5.7,0,11.45-.11,17.1-.97,5.74-.87,11.12-2.57,16.18-5.46,2.42-1.38,4.8-2.87,7.05-4.5.73-.53,1.45-1.08,2.18-1.62.04.27.09.54.13.8-.75.56-1.49,1.12-2.26,1.66-2.41,1.68-4.9,3.29-7.49,4.7-5.18,2.81-10.62,4.43-16.44,5.24-5.74.8-11.51.81-17.29.88-2.5.03-5.01.14-7.52.17ZM1054.67,338.18c-2.35,0-4.7-.18-7.07-.51-2.83-.39-5.69-.81-8.56-.81-.21,0-.42,0-.62,0-3.05.07-6.02.76-9.08.76h-.02c-3.23,0-6.43-.37-9.64-.69-.09-.24-.18-.48-.27-.72,3.16.33,6.32.7,9.49.7.14,0,.28,0,.42,0,3.06-.03,6.04-.74,9.09-.76h.26c2.61,0,5.2.3,7.79.65,2.86.39,5.68.65,8.51.65s5.37-.24,8.07-.85c4.34-.98,8.45-2.67,12.17-5.06.04.26.09.51.13.77-3.71,2.35-7.81,4.06-12.11,4.98-2.85.61-5.7.88-8.55.88ZM1019.75,333.67c-.48,0-.96,0-1.43-.03-.12-.25-.24-.49-.37-.73.66.04,1.32.06,1.99.06.93,0,1.86-.04,2.79-.11,6.31-.49,12.48-2.1,18.8-2.49,5.74-.35,11.51.03,17.24-.48,5.48-.48,10.71-1.84,15.39-4.72.04.24.08.5.13.76-4.49,2.7-9.52,4.11-14.75,4.6-5.69.54-11.4.2-17.1.49-6.63.35-13.09,2.19-19.71,2.54-.98.05-1.98.09-2.97.09ZM1026.65,325.84c-5.64,0-11.26-.4-16.87-1-.43-.29-.85-.57-1.27-.84,5.97.67,11.96,1.14,17.96,1.14,2.6,0,5.2-.09,7.8-.28,7.04-.53,13.99-1.84,21.02-2.43,2.5-.21,5.1-.55,7.64-.55.68,0,1.35.02,2.02.08,1.23.1,2.66.34,4.03.34,1.13,0,2.22-.16,3.15-.68.06-.04.12-.05.18-.05.32,0,.53.47.19.67-1.03.58-2.22.75-3.43.75s-2.39-.16-3.49-.26c-.79-.07-1.59-.1-2.39-.1-2.32,0-4.66.25-6.97.44-7.19.59-14.3,1.94-21.49,2.48-2.7.2-5.39.29-8.08.29ZM1089.27,323.82c-1.13-.7-2.27-1.38-3.41-2.07-3.31-2-6.45-4.36-9.93-6.07-1.71-.84-3.51-1.59-5.38-1.94-.89-.17-1.79-.24-2.69-.24-1,0-2,.09-2.99.22-3.94.52-7.83,1.43-11.76,2.03-3.88.59-7.77,1.11-11.66,1.65-3.7.52-7.35,1.14-11.09,1.25-.91.03-1.81.04-2.72.04-2.84,0-5.69-.11-8.53-.16-3.43-.07-6.72-.05-10.01-1.14-2.92-.97-5.75-2.59-8.65-3.99.01-.22.02-.44.04-.66.38.18.75.37,1.13.55,3.73,1.86,7.56,3.87,11.77,4.33,3.67.41,7.47.25,11.16.32,1.15.02,2.31.04,3.46.04,2.72,0,5.45-.1,8.12-.52,7.74-1.2,15.54-2.02,23.23-3.5,2.69-.52,5.56-1.22,8.37-1.22.74,0,1.48.05,2.21.16,3.33.53,6.42,2.02,9.26,3.78,2.96,1.83,5.86,3.75,8.84,5.55.6.36,1.2.73,1.79,1.1-.2.17-.38.33-.57.49ZM1092.12,320.9c-1.38-.92-2.67-1.94-3.9-3.09-1.96-1.84-3.9-3.85-6.24-5.22-2.29-1.35-5.07-1.69-7.67-1.92-4.54-.4-9.1-.78-13.66-.78-2.26,0-4.52.09-6.77.33-3.37.35-6.62,1.27-9.98,1.66-2.77.32-5.56.42-8.34.42-.8,0-1.6,0-2.4-.02-2.74-.05-5.48-.17-8.22-.17-.85,0-1.69.01-2.54.04-1.56.05-3.16.15-4.75.15-1.89,0-3.77-.14-5.59-.64-3.6-1-6.9-3.31-10.38-4.86.07-.21.15-.41.23-.61,2.3,1.04,4.51,2.39,6.73,3.42,2.7,1.25,5.41,1.92,8.4,1.96.24,0,.49,0,.73,0,1.27,0,2.55-.04,3.82-.08,1.27-.04,2.54-.08,3.81-.08.28,0,.57,0,.86,0,3.13.05,6.29.18,9.44.18,4.1,0,8.19-.22,12.2-1.14,4.21-.96,8.54-1.31,12.87-1.31,2.44,0,4.88.11,7.29.28,3.16.22,6.4.37,9.52.94,1.53.28,3.09.61,4.45,1.41,1.25.74,2.41,1.62,3.5,2.58,2.31,2.02,4.41,4.24,6.96,5.95-.12.2-.24.39-.37.59ZM1093.68,317.37c-1.89-1.65-3.69-3.43-5.48-5.12-2.76-2.61-5.62-5.25-9.02-7.01-4.17-2.18-8.93-3.4-13.61-3.78-.89-.07-1.76-.12-2.63-.12-2.31,0-4.57.31-6.77,1.23-3.02,1.26-5.81,3.04-9.04,3.75-1.33.3-2.61.43-3.88.43-1.82,0-3.62-.28-5.49-.79-2.18-.59-4.28-1.18-6.45-1.18-.89,0-1.78.1-2.7.34-1.76.46-3.42,1.1-5.23,1.33-1.24.16-2.49.22-3.75.22-.52,0-1.03-.01-1.55-.03-3.42-.13-6.91-.16-10.27-.92-1.69-.38-3.33-.89-4.95-1.47.12-.2.25-.41.38-.6,2.06.73,4.17,1.34,6.33,1.69,2.51.4,5.07.45,7.61.55.89.04,1.79.07,2.69.07,1.88,0,3.77-.14,5.58-.64,2-.56,3.94-1.3,6.03-1.3.15,0,.31,0,.46.01,2.06.11,4.03.72,6.01,1.25,1.78.48,3.5.82,5.29.82.59,0,1.18-.04,1.79-.12,3.62-.48,6.63-2.18,9.91-3.64,2.51-1.12,5.02-1.72,7.75-1.72.18,0,.35,0,.53,0,6.03.17,12.48,1.55,17.65,4.76,4.76,2.96,8.67,7.47,12.98,11.26-.05.24-.1.48-.16.73Z"/>
  <path d="M1052.07,390.8c3,0,6.43.72,13.1,2.75,4.27,1.3,8.21,1.96,11.7,1.96,4.44,0,7.02-1.09,7.67-1.82.82-.92.35-7.36-.56-12.8-.28-1.65-.62-3.97-1.02-6.66-.48-3.22-1.02-6.86-1.65-10.84-.72-4.52-2.17-9.7-3.22-13.49-.68-2.44-1.17-4.2-1.23-4.93-.15-1.74-3.67-22.58-3.7-22.79l-.16-.96,11.15,5.97c.54-.34,2.25-1.49,5.92-4.7,4.1-3.58,3.56-9,3.42-9.94-.71-.71-4.75-4.69-8.61-8.02-4.15-3.58-11.54-6.4-15.02-6.86-3.35-.44-17.88-1.37-18.02-1.38-.46-.03-.96-.05-1.48-.05-6.53,0-16.41,2.54-23.62,4.39-4.2,1.08-7.51,1.93-9.26,2.08-.68.06-1.44.09-2.26.09-4.14,0-8.84-.79-9.94-.98-5.84,5.52-4.42,15.89-4.14,17.58,1.18.56,6.74,3.3,12.14,7.51,4.34,3.38,5.57,6.74,7,10.62.61,1.67,1.25,3.39,2.18,5.26,3,6.01,8.14,17.85,9.07,21.29.61,2.23-.59,9.26-2.1,17.54-.47,2.57-.87,4.8-1,5.91-.45,3.87-.38,4.56,1.51,5.44.94.44,2.29.66,4,.66,2.52,0,5.82-.48,9.77-1.43l.64-.15c3.15-.76,5.23-1.26,7.71-1.26ZM1076.87,396.47c-3.58,0-7.61-.67-11.98-2.01-6.57-2-9.92-2.71-12.82-2.71-2.37,0-4.4.49-7.49,1.23l-.64.15c-6.91,1.66-11.84,1.9-14.4.71-2.53-1.18-2.51-2.48-2.05-6.42.13-1.15.54-3.39,1.01-5.98,1.08-5.94,2.71-14.92,2.12-17.12-.84-3.07-5.8-14.71-9.01-21.11-.96-1.92-1.6-3.67-2.22-5.36-1.38-3.74-2.57-6.98-6.69-10.19-5.96-4.65-12.12-7.47-12.18-7.5l-.22-.1-.05-.24c-.1-.51-2.37-12.57,4.56-18.86l.18-.16.23.04c.05,0,5.39,1.01,10,1.01.79,0,1.52-.03,2.17-.09,1.67-.14,5.12-1.03,9.1-2.05,7.26-1.87,17.2-4.42,23.86-4.42.54,0,1.06.02,1.54.05.6.04,14.7.95,18.08,1.39,3.6.47,11.24,3.39,15.52,7.08,4.26,3.67,8.73,8.13,8.77,8.18l.11.11.03.14c.05.27,1.18,6.69-3.71,10.97-4.74,4.14-6.26,4.93-6.33,4.96l-.22.11-9.89-5.29c.71,4.19,3.42,20.33,3.55,21.91.06.64.56,2.46,1.2,4.75,1.06,3.8,2.51,9.02,3.24,13.59.64,3.98,1.18,7.63,1.65,10.85.4,2.68.74,5,1.01,6.64.2,1.2,1.91,11.81.33,13.59-.95,1.07-3.91,2.14-8.38,2.14Z"/>
  <path class="cls-13" d="M1053.32,297.36c.38-.64-4.89-1.63-1.78-10.68,3.11-9.04,6.08-18.38,2.82-25.5-3.26-7.12-12.16-8.45-17.64-6.82-5.48,1.63-11.12,4.3-12.3,9.78-1.18,5.49-.59,9.78-2.96,12.15l-2.37,2.37s1.63,2.22,2.67,2.37l1.04.15s-1.04,4.59-.89,7.56c.08,1.68.13,2.24,1.78,2.97,1.26.55,2.82.29,6.67-.15,0,0,2.37,3.11,2.22,6.82-.15,3.7,17.49,4.45,20.76-1.04Z"/>
  <path d="M1030.56,291.07l.16.22c.1.13,2.47,3.29,2.32,7.13-.01.21.09.42.29.64,1.03,1.07,4.29,1.79,8.1,1.79h0c4.16,0,9.56-.93,11.34-3.52-.06-.05-.13-.11-.19-.16-1.21-.98-4.03-3.29-1.5-10.64,3.37-9.79,5.91-18.43,2.83-25.14-3.05-6.65-10.47-7.17-12.67-7.17-1.55,0-3.07.21-4.4.6-7.24,2.15-11.05,5.15-11.97,9.43-.4,1.85-.6,3.58-.77,5.12-.36,3.12-.64,5.6-2.32,7.28l-2.08,2.08c.65.82,1.6,1.79,2.1,1.86l1.55.22-.11.5s-1.02,4.57-.88,7.43c.08,1.6.1,1.93,1.5,2.55.43.19.93.27,1.61.27.88,0,2.09-.14,3.76-.34l1.32-.15ZM1041.43,301.8h0c-4.12,0-7.57-.82-8.79-2.09-.39-.41-.58-.85-.56-1.34.12-2.95-1.47-5.54-1.97-6.29l-.77.09c-1.7.2-2.94.35-3.88.35-.82,0-1.44-.11-2-.36-1.86-.82-1.97-1.58-2.06-3.38-.12-2.45.53-5.89.79-7.18l-.53-.07c-1.18-.17-2.69-2.17-2.99-2.56l-.24-.33,2.66-2.66c1.45-1.45,1.71-3.77,2.05-6.71.18-1.55.38-3.32.79-5.2,1.32-6.12,7.84-8.72,12.63-10.14,1.42-.42,3.03-.64,4.67-.64,6.26,0,11.32,2.89,13.54,7.72,3.22,7.03.64,15.87-2.8,25.85-2.32,6.72.15,8.73,1.2,9.59.37.3.83.68.54,1.17-1.84,3.1-7.56,4.2-12.3,4.2Z"/>
  <path d="M1025.9,273.91c.05,1.11.5,1.98,1,1.96.5-.02.86-.94.81-2.05-.05-1.11-.5-1.98-1-1.96-.5.02-.86.94-.81,2.05Z"/>
  <path class="cls-13" d="M1039.97,488.6s1.57,8.12,1.34,11.13c-.23,3.01-9.19,0-9.19,0,0,0-1.69-8.62-2.03-12.48-.34-3.85,8.76-5.82,9.88,1.35Z"/>
  <path d="M1032.53,499.36c.92.29,4.07,1.23,6.29,1.23,1.29,0,1.96-.3,2.01-.9.22-2.91-1.32-10.92-1.33-11-.64-4.1-3.86-4.42-4.83-4.42-1.41,0-2.76.52-3.52,1.36-.31.33-.65.88-.59,1.58.3,3.4,1.68,10.64,1.97,12.15ZM1038.83,501.54c-2.77,0-6.69-1.3-6.86-1.36l-.26-.09-.05-.27c-.07-.35-1.7-8.69-2.04-12.52-.07-.83.22-1.63.84-2.31.94-1.03,2.56-1.67,4.23-1.67,2.39,0,5.16,1.37,5.77,5.21.06.32,1.58,8.2,1.34,11.24-.06.81-.63,1.78-2.96,1.78Z"/>
  <path class="cls-9" d="M1022.34,258.07s3.26,6.82,6.08,8.15c2.82,1.34,3.71,7.87,3.41,9.64-.3,1.77,4.24-3.27,5.6-2.82,1.37.44,2.4,3.26,2.4,6.97s3.71,10.97,7.71,11.71c4,.74,4.3-.3,5.04-2.37.74-2.08,5.33-15.12,5.48-20.01.15-4.89.44-11.27-3.11-13.93-3.56-2.67-9.04-5.93-8.89-8.75,0,0-3.11,2.52-2.97,4.89,0,0-8.32-.59-9.5-4.89,0,0-2.07.89-2.07,2.22,0,0-7.12,1.48-9.19-2.96,0,0-4.98,4.77,0,12.16Z"/>
  <path d="M1026.15,286.72c-1.38,0-3.06-.35-4.23-.65l.24-.92c1.11.28,2.71.62,3.99.62v.95Z"/>
  <path class="cls-7" d="M1029.11,299.54s-1.29,8.34,5.09,12.05c6.37,3.71,20.31-.15,22.53-3.41,2.22-3.26,2.22-12.4,2.22-12.4,0,0,2.5-1.38,6.21.99,0,0,.46,37.51,5.2,54.7,4.74,17.19,10.53,15.86,11.42,11.86,0,0,3.26,3.56,4.3,10.38,1.04,6.82,1.78,18.83,1.48,23.12-.3,4.3-1.78,19.87-2.23,25.35-.44,5.49-1.78,25.5-2.96,29.8-1.18,4.3-2.22,10.67-2.22,14.97s2.52,12.3,2.37,15.86c-.15,3.56-1.48,22.24-2.67,26.98-1.18,4.74-3.56,8.6-4.52,13.79-.97,5.19-2.45,9.49-2.74,10.53-.29,1.04-6.37,2.08-9.93,1.48l-3.56-.59s.15-30.83.74-39.14c.59-8.3,1.63-10.82.3-18.53-1.34-7.71-3.71-37.51-4-44.03-.3-6.52.74-8.45-.3-14.68-1.04-6.23-1.78-8.15-2.23-5.04-.44,3.11-3.71,16.45-5.63,19.42-1.93,2.96-1.33,9.19-2.67,12.01-1.33,2.82-2.52,5.93-2.37,8.89.15,2.97,2.82,9.78,1.63,14.23-1.19,4.45-3.71,13.19-3.56,15.71.15,2.52.3,4.74-.15,4.74s-5.48,0-8.15,1.19c-2.67,1.18-2.38,1.48-3.71-2.08-1.33-3.56-5.33-25.65-5.33-29.35s2.37-8.89,2.67-12.75c.3-3.85,2.52-12.75,1.93-15.27-.6-2.52-3.11-24.02-2.67-25.64.44-1.63-.45-8.45.3-14.83.74-6.37,1.04-13.93,1.93-18.23.89-4.3,3.11-6.97,3.11-6.97,0,0,4,2.97,5.78-1.33,1.78-4.3-4.6-27.72-6.37-34.54-1.78-6.82-6.71-20.97-6.24-27.46,0,0,.52-3.74,5.01-1.78Z"/>
  <path class="cls-18" d="M1054.05,411.64s-3.8,7.47-6.94,9.45c-3.14,1.98-6.17,1.98-8.05,5.56-1.88,3.58-7.76,6.08-7.76,6.08,0,0,.91,9.97-1.83,11.44-2.74,1.47,1.34,5.01,5.24,6.44,3.9,1.43,7.55,7.15,7.33,9.29-.22,2.15,1.83,8.71,1.4,10.28-.42,1.56-.76,4.68-.76,4.69.65-2.48,1.33-4.96,1.81-6.74,1.19-4.45-1.48-11.27-1.63-14.23-.15-2.96,1.04-6.08,2.37-8.89,1.33-2.82.74-9.04,2.67-12.01,1.93-2.97,5.19-16.31,5.63-19.42.15-1.05.33-1.53.55-1.46-.03-.31-.04-.49-.04-.49Z"/>
  <path class="cls-18" d="M1081.27,363.12c-.89,4-6.67,5.34-11.41-11.86-4.74-17.2-5.2-54.7-5.2-54.7-3.72-2.37-6.21-.99-6.21-.99,0,0,0,9.14-2.22,12.41-1.79,2.62-11.13,5.62-18.04,4.78,1,1,11.04,5.09,17.74,6.89,6.71,1.8,4.01,11.98,5.12,17.38,1.11,5.4-2.23,2.07-3.42,3.65-1.19,1.59-4.37,5.56,1.04,10.81,5.4,5.24,2.36,7.59,2.61,12.53.25,4.95-1.04,16.36.88,22.17,1.92,5.82,5.09,10.11,3.51,15.83-1.59,5.72-7.63,6.52,2.38,10.97,10.02,4.45,11.64,1.75,9.8,13.35-1.85,11.6-6.14,32.42-3.44,40.53,2.7,8.11,2.7,17.8.32,27.65-2.38,9.85-2.54,14.94-2.38,20.5.16,5.56-4.29,13.19-4.61,17.48-.07,1.01-.15,1.97-.18,2.85,2.36-.29,4.38-.88,4.55-1.47.3-1.04,1.78-5.33,2.74-10.53.96-5.19,3.34-9.04,4.52-13.79,1.19-4.74,2.52-23.42,2.67-26.98.15-3.56-2.37-11.56-2.37-15.86s1.04-10.68,2.22-14.97c1.19-4.3,2.52-24.31,2.97-29.79.45-5.49,1.92-21.05,2.22-25.35.3-4.3-.45-16.31-1.48-23.12-1.04-6.82-4.3-10.38-4.3-10.38Z"/>
  <path d="M1059.58,534.59l3.16.53c.66.11,1.44.17,2.32.17,3.59,0,6.76-.87,7.08-1.33.05-.18.14-.45.25-.8.54-1.75,1.68-5.39,2.48-9.66.55-2.94,1.54-5.46,2.5-7.91.78-1.97,1.51-3.84,2.03-5.91,1.15-4.59,2.49-22.84,2.66-26.88.07-1.72-.51-4.54-1.12-7.53-.62-3.01-1.25-6.11-1.25-8.32,0-4.58,1.12-11.06,2.24-15.1.98-3.55,2.07-18.15,2.66-25.99.12-1.54.21-2.83.29-3.72.19-2.35.57-6.53.97-10.95.53-5.87,1.08-11.95,1.25-14.4.3-4.36-.47-16.41-1.48-23.02-.75-4.94-2.7-8.14-3.65-9.45-.55,1.25-1.57,2.02-2.78,2.02-1.56,0-5.6-1.44-9.27-14.75-4.5-16.3-5.16-51.18-5.21-54.56-1.29-.78-2.56-1.18-3.77-1.18-.7,0-1.21.14-1.49.24-.02,1.68-.24,9.32-2.31,12.36-1.77,2.59-9.65,5.13-15.93,5.13-3,0-5.44-.53-7.24-1.58-5.79-3.37-5.52-10.45-5.36-12.15-.67-.27-1.28-.4-1.8-.4-1.87,0-2.19,1.74-2.22,1.93-.34,4.86,2.48,14.38,4.53,21.33.66,2.22,1.28,4.32,1.7,5.96.12.46.26,1,.42,1.61,3.56,13.54,7.45,29.55,5.93,33.24-.9,2.17-2.34,2.62-3.4,2.62-1.13,0-2.16-.51-2.71-.83-.59.83-2.08,3.15-2.76,6.43-.54,2.61-.86,6.45-1.2,10.52-.21,2.56-.43,5.2-.72,7.67-.43,3.65-.31,7.53-.22,10.36.07,2.2.12,3.78-.09,4.54-.38,1.38,1.96,22.38,2.67,25.41.39,1.66-.32,5.65-1.01,9.52-.41,2.29-.8,4.46-.91,5.9-.14,1.84-.75,3.98-1.33,6.05-.66,2.33-1.34,4.74-1.34,6.66,0,3.65,4.01,25.74,5.3,29.18l.21.55c.45,1.22.75,2.02.98,2.02.21,0,.65-.2,1.2-.46.21-.1.43-.2.68-.31,2.46-1.09,6.8-1.22,8.11-1.23.12-.6.01-2.45-.08-3.97l-.02-.27c-.13-2.23,1.67-8.86,2.99-13.7.21-.79.42-1.52.59-2.17.76-2.86-.15-6.84-.89-10.03-.38-1.63-.7-3.04-.75-4.06-.16-3.22,1.21-6.57,2.42-9.12.56-1.18.77-3.05.98-5.04.29-2.6.58-5.28,1.71-7.02,1.86-2.86,5.12-16.17,5.56-19.23.17-1.18.38-1.87.98-1.87.51,0,.82.51,1.21,2.01.29,1.1.61,2.7.97,4.89.62,3.75.51,5.95.37,8.51-.09,1.69-.19,3.6-.07,6.23.28,6.16,2.63,36.08,4,43.97.99,5.73.68,8.65.22,13.07-.16,1.58-.35,3.38-.51,5.57-.55,7.68-.72,35.03-.74,38.7ZM1065.06,536.24c-.93,0-1.76-.06-2.48-.18l-3.96-.66v-.41c0-.31.16-30.94.74-39.17.16-2.21.35-4.01.52-5.61.45-4.34.76-7.21-.21-12.81-1.37-7.91-3.73-37.92-4.01-44.09-.12-2.67-.02-4.61.07-6.32.13-2.5.25-4.66-.36-8.3-.56-3.38-.95-4.91-1.19-5.61-.03.15-.06.33-.1.56-.46,3.2-3.74,16.59-5.71,19.61-1.01,1.55-1.29,4.12-1.57,6.61-.23,2.07-.44,4.02-1.07,5.34-1.16,2.45-2.47,5.65-2.32,8.66.05.94.36,2.31.73,3.89.76,3.3,1.71,7.4.88,10.49-.17.64-.37,1.38-.59,2.17-1.23,4.51-3.08,11.32-2.96,13.39l.02.27c.19,3.19.22,4.35-.19,4.78-.12.13-.28.2-.45.2-.9,0-5.51.05-7.96,1.14-.25.11-.47.21-.67.3-.73.34-1.18.54-1.6.54-.89,0-1.18-.77-1.88-2.64l-.2-.55c-1.35-3.62-5.36-25.69-5.36-29.52,0-2.05.7-4.53,1.37-6.92.57-2.03,1.16-4.12,1.3-5.87.11-1.49.51-3.68.92-5.99.64-3.59,1.37-7.66,1.02-9.13-.49-2.09-3.19-23.96-2.66-25.88.17-.62.12-2.3.05-4.26-.08-2.86-.21-6.77.23-10.5.29-2.45.51-5.09.72-7.64.34-4.1.67-7.97,1.21-10.64.9-4.37,3.12-7.06,3.21-7.18l.29-.35.36.27s1.24.9,2.54.9c1.13,0,1.95-.66,2.52-2.03,1.6-3.86-3.9-24.76-5.97-32.63-.16-.61-.3-1.15-.42-1.61-.42-1.62-1.04-3.71-1.69-5.93-2.19-7.43-4.92-16.67-4.56-21.69v-.03c.14-.96.97-2.76,3.17-2.76.74,0,1.58.2,2.51.61l.34.15-.05.36c-.01.08-1.16,8.06,4.85,11.56,1.63.95,3.97,1.45,6.76,1.45,6.42,0,13.69-2.59,15.14-4.72,2.12-3.1,2.14-12.04,2.14-12.14v-.28l.25-.14s.85-.46,2.2-.46c1.46,0,2.98.49,4.5,1.47l.22.14v.26c0,.38.51,37.64,5.19,54.58,2.86,10.36,6.19,14.05,8.35,14.05,1.01,0,1.85-.85,2.14-2.17l.2-.89.62.67c.14.15,3.37,3.74,4.42,10.63,1.01,6.66,1.79,18.82,1.48,23.23-.17,2.46-.72,8.54-1.25,14.41-.4,4.42-.78,8.59-.97,10.94-.07.9-.17,2.18-.29,3.72-.59,7.87-1.69,22.53-2.7,26.17-1.1,3.98-2.2,10.35-2.2,14.85,0,2.11.63,5.16,1.23,8.13.62,3.04,1.21,5.92,1.14,7.76-.13,3.19-1.47,22.22-2.68,27.08-.53,2.13-1.31,4.11-2.07,6.03-.94,2.4-1.92,4.88-2.45,7.73-.8,4.33-1.95,8-2.51,9.77-.11.35-.19.62-.24.8-.4,1.4-5.48,2-7.99,2Z"/>
  <path d="M1112.03,323.06s-1.99-.99-4.26-1.64l-.49-.14c-1.98-.56-2.97-.84-6.53-3.14-3.75-2.42-6.99-4.77-7.02-4.8l.56-.77s3.25,2.36,6.98,4.77c3.44,2.23,4.33,2.48,6.27,3.03l.49.14c2.35.67,4.34,1.66,4.42,1.7l-.43.85Z"/>
  <path class="cls-7" d="M1083.8,376.61l-21.14,5.14s1.06,4.26,2.55,9.5c4.12-1.07,13.55-2.51,21.88-5.07-1.78-5.32-3.29-9.58-3.29-9.58Z"/>
  <path class="cls-7" d="M1079.35,391.38c.83-.86,3.1-1.76-3.16-.48-3.36.69-7.99,1.22-10.71,1.33,2.43,8.45,5.86,18.86,7.85,18.46,1.68-.34,6.39-.67,10.74-1.29.02-.88-.12-1.96-.56-3.27-1.91-5.84-5.01-13.89-4.17-14.76Z"/>
  <path class="cls-18" d="M1092.68,406.46c.4-1.74-2.9-12.22-5.6-20.28-8.33,2.56-17.76,3.99-21.88,5.07.09.32.18.65.28.98,2.72-.11,7.35-.64,10.71-1.33,6.26-1.28,3.99-.38,3.16.48-.83.86,2.27,8.91,4.17,14.76.43,1.31.58,2.39.56,3.27,4.31-.61,8.27-1.5,8.6-2.94Z"/>
  <path d="M1086.89,301.7c-1.53-1.22-4.13-6.81-4.43-7.44l-.08-.17.05-.18c.05-.14.46-1.39,1.39-1.75.29-.11.76-.18,1.31.15.77.45,1.47,1.41,2.15,2.33.59.81,1.19,1.64,1.77,2.02.68.46.98.41,1.05.39.07-.03.11-.09.12-.14l.9.3c-.12.35-.38.62-.72.74-.5.17-1.14,0-1.89-.49-.72-.48-1.38-1.38-2.01-2.25-.62-.84-1.26-1.72-1.85-2.07-.25-.14-.4-.11-.49-.07-.33.12-.62.64-.76.98.83,1.79,2.96,6.03,4.07,6.91l-.59.75Z"/>
  <path d="M1073.21,411.18c-1,0-2.03-1.39-3.39-4.54-1.03-2.39-2.22-5.76-3.53-10.03-2.23-7.25-4.08-14.67-4.1-14.75l.92-.23c.02.07,1.86,7.48,4.08,14.7,4.26,13.83,5.87,13.92,6.04,13.89.86-.17,2.42-.34,4.4-.54,2.89-.3,6.48-.68,9.42-1.25,4.42-.86,5.07-1.73,5.15-2.07.47-2.02-5.04-18.8-8.86-29.59l.9-.32c.98,2.77,9.57,27.18,8.89,30.12-.53,2.31-7.29,3.2-15.4,4.05-1.88.2-3.5.37-4.31.53-.07.01-.15.02-.22.02Z"/>
  <path class="cls-1" d="M1083.96,366.78s-10.25,7.86-56.58,7.54c0,0-2.55,1.35-.98,10.41,0,0,30.97,1.01,59.96-8.98,0,0,2.9-4.63-2.4-8.97Z"/>
  <path d="M1026.81,384.26c.4,0,1.1.02,2.07.02,7.32,0,33.03-.64,57.17-8.92.4-.76,2.01-4.4-2.11-7.98-2.01,1.27-13.82,7.43-53.79,7.43-.86,0-1.72,0-2.6,0-.35.33-1.92,2.23-.73,9.46ZM1028.87,385.24c-1.58,0-2.48-.03-2.49-.03l-.39-.02-.07-.38c-1.58-9.14.94-10.75,1.23-10.91l.1-.06h.12c.94,0,1.85.01,2.75.01,43.17,0,53.44-7.38,53.54-7.45l.3-.23.29.24c5.55,4.56,2.54,9.55,2.5,9.6l-.09.14-.16.05c-24.33,8.38-50.28,9.03-57.65,9.03Z"/>
  <path d="M1032.79,391.59c-.43,2.8-1.96,12.66-2.27,13.49-.32.87-.92,6.29-.01,8.31.84,1.87,4.43,6.3,5.34,7.42l11.01-4.05c.46-.77,2.66-4.6,4.22-8.89,1.42-3.9,3.7-8.11,4.57-9.68l-5.07-.58c-5.14-.59-15.26-4.9-17.8-6.01ZM1035.56,421.93l-.21-.26c-.19-.23-4.68-5.63-5.7-7.89-1.06-2.36-.4-8-.01-9.04.23-.62,1.51-8.66,2.31-13.91l.1-.62.57.26c.12.05,12.45,5.53,18.09,6.19l6.51.75-.37.63c-.03.05-3.11,5.36-4.86,10.15-1.77,4.88-4.36,9.16-4.39,9.2l-.09.14-11.96,4.4Z"/>
  <path class="cls-8" d="M1073.14,376.2c.98-1.76,1.19-4.52.4-7.39-1.2-4.37-4.27-7.33-6.85-6.62-2.59.71-3.71,4.82-2.51,9.19.79,2.87,2.39,5.13,4.12,6.14l3.44,12.51,4.92-1.03-3.52-12.81Z"/>
  <path d="M1071.28,390.17l-3.39-12.33c-1.85-1.16-3.4-3.51-4.17-6.33-1.29-4.69-.04-8.98,2.84-9.78,2.88-.79,6.15,2.26,7.44,6.95.78,2.82.64,5.64-.35,7.57l3.47,12.63-.92.25-3.57-13,.1-.17c.95-1.7,1.08-4.4.36-7.03-1.13-4.11-3.94-6.92-6.27-6.28-2.33.64-3.3,4.5-2.18,8.6.73,2.63,2.22,4.88,3.91,5.86l.17.1,3.49,12.7-.92.26Z"/>
  <path class="cls-14" d="M1066.89,368.65c.25.91,1.19,1.44,2.1,1.2.91-.25,1.45-1.19,1.2-2.1-.25-.91-1.19-1.44-2.1-1.19-.91.25-1.45,1.19-1.2,2.1Z"/>
  <path d="M1068.54,366.97c-.11,0-.22.01-.33.05-.66.18-1.04.86-.86,1.51.15.53.63.9,1.19.9.11,0,.22-.02.33-.04.66-.18,1.04-.86.86-1.51-.15-.54-.63-.91-1.18-.91ZM1068.54,370.38c-.98,0-1.85-.66-2.11-1.6-.32-1.16.37-2.37,1.53-2.69.19-.05.39-.08.58-.08.98,0,1.85.66,2.11,1.61.32,1.16-.37,2.36-1.53,2.69-.19.05-.38.08-.58.08Z"/>
  <path d="M1065.1,391.38v-.95c5.43,0,21.76-4.44,21.93-4.48l.25.92c-.67.18-16.62,4.51-22.18,4.51Z"/>
  <path class="cls-5" d="M1044.78,506.62v4.21s-8.65,1.93-17.4,0v-4.21h17.4Z"/>
  <path d="M1027.85,510.44c2.44.51,5.11.76,7.92.76,4.13,0,7.45-.56,8.53-.77v-3.34h-16.45v3.35ZM1035.77,512.16c-3.02,0-5.89-.29-8.5-.87l-.38-.08v-5.07h18.35v5.07l-.38.08c-.16.03-3.95.87-9.1.87Z"/>
  <path class="cls-17" d="M1044.28,502.82c-.49-1.17-1.48-8.45-2.52-9.05-1.04-.59-2.07,1.78-4.74,1.78s-3.41-1.38-4.3-1.87c-.89-.5-1.63.1-2.82,3.95-1.19,3.85-3.26,5.63-2.97,6.82.3,1.18-.44,4.3,7.41,4.15,7.86-.15,12.45.3,9.93-5.78Z"/>
  <path d="M1032.21,494.01c-.26,0-.85.49-1.86,3.76-.62,2.02-1.49,3.49-2.12,4.58-.52.89-.94,1.6-.84,1.99.05.18.07.37.09.58.15,1.28.38,3.22,6.32,3.22.17,0,.35,0,.52,0,.6-.01,1.18-.02,1.75-.03,4.05-.05,7.25-.1,8.13-1.43.47-.72.35-1.92-.38-3.66-.18-.44-.4-1.53-.69-2.92-.36-1.79-1.12-5.51-1.64-5.89-.05-.02-.08-.03-.11-.03-.21,0-.57.26-.94.53-.78.57-1.85,1.34-3.45,1.34-2.18,0-3.19-.86-3.93-1.48-.22-.19-.41-.35-.6-.45-.11-.06-.2-.09-.27-.09ZM1033.81,509.09c-6.79,0-7.1-2.64-7.27-4.06-.02-.18-.04-.34-.07-.46-.19-.77.28-1.58.94-2.7.64-1.1,1.44-2.46,2.03-4.37.99-3.23,1.75-4.44,2.77-4.44.24,0,.48.07.73.21.26.15.5.35.75.56.7.59,1.49,1.26,3.32,1.26,1.3,0,2.18-.64,2.89-1.16.53-.38.98-.71,1.5-.71.2,0,.4.05.58.16.74.42,1.25,2.36,2.09,6.53.25,1.23.48,2.39.63,2.75.87,2.09.96,3.54.29,4.55-1.16,1.76-4.24,1.8-8.91,1.86-.56,0-1.14.02-1.74.03-.18,0-.36,0-.54,0Z"/>
  <path d="M1030.57,508.08l-.95-.04c.22-4.97,2.4-7.1,4.2-8.01,2.42-1.22,5.19-.78,6.06-.2,1.41.95,3.04,6.68,3.35,7.82l-.92.25c-.69-2.51-2.1-6.71-2.96-7.29-.54-.36-2.93-.84-5.1.26-2.25,1.14-3.52,3.63-3.68,7.19Z"/>
  <path class="cls-5" d="M1073.52,553.02v4.21s-8.65,1.93-17.4,0v-4.21h17.4Z"/>
  <path d="M1056.6,556.84c2.44.51,5.11.76,7.92.76,4.13,0,7.45-.56,8.52-.77v-3.34h-16.44v3.35ZM1064.52,558.56c-3.03,0-5.89-.29-8.5-.87l-.38-.08v-5.07h18.35v5.07l-.37.08c-.16.04-3.95.87-9.1.87Z"/>
  <path class="cls-17" d="M1073.02,549.22c-.49-1.17-1.48-8.45-2.52-9.04-1.04-.59-2.07,1.78-4.74,1.78s-3.41-1.38-4.3-1.87c-.89-.5-1.63.09-2.82,3.95-1.18,3.85-3.26,5.63-2.96,6.82.3,1.18-.44,4.3,7.41,4.15,7.86-.15,12.45.3,9.93-5.78Z"/>
  <path d="M1060.96,540.41c-.26,0-.85.49-1.86,3.76-.62,2.02-1.49,3.5-2.12,4.57-.53.89-.94,1.6-.84,1.99.05.18.07.37.09.58.15,1.28.38,3.22,6.32,3.22h0c.17,0,.34,0,.52,0,.6-.01,1.18-.02,1.75-.03,4.05-.05,7.25-.1,8.13-1.44.47-.72.35-1.91-.37-3.66-.18-.44-.4-1.54-.69-2.92-.36-1.79-1.11-5.51-1.64-5.89-.04-.03-.08-.03-.1-.03-.21,0-.57.26-.94.53-.78.57-1.85,1.34-3.45,1.34-2.18,0-3.19-.86-3.93-1.48-.22-.19-.41-.35-.6-.45-.11-.06-.2-.09-.27-.09ZM1062.56,555.49h0c-6.79,0-7.1-2.64-7.27-4.06-.02-.18-.04-.34-.07-.46-.19-.77.28-1.58.94-2.7.64-1.1,1.44-2.46,2.03-4.37.99-3.24,1.75-4.44,2.77-4.44.24,0,.48.07.73.21.26.15.5.34.75.55.7.59,1.49,1.26,3.32,1.26,1.3,0,2.18-.64,2.89-1.16.53-.38.98-.71,1.5-.71.2,0,.4.05.58.16.74.42,1.25,2.36,2.09,6.53.25,1.23.48,2.39.63,2.75.87,2.09.96,3.54.29,4.55-1.16,1.76-4.24,1.8-8.91,1.86-.56,0-1.14.01-1.74.03-.19,0-.36,0-.54,0Z"/>
  <path d="M1059.31,554.49l-.95-.04c.22-4.97,2.4-7.1,4.2-8,2.42-1.22,5.19-.79,6.06-.2,1.41.95,3.04,6.68,3.35,7.82l-.92.25c-.69-2.51-2.1-6.71-2.96-7.29-.54-.36-2.93-.84-5.1.26-2.25,1.14-3.52,3.62-3.68,7.2Z"/>
  <path d="M1052.77,405.25c-.12-.03-11.79-2.51-21.59-7.31l.42-.86c9.69,4.75,21.26,7.21,21.37,7.23l-.2.93Z"/>
  <path d="M1083.9,292.66c.67-.07,1.29.15,1.79.74.51.6,2.76,3.4,2.76,3.4v-7.39l-5.78-1.95v6.65s.55-1.39,1.23-1.46Z"/>
  <path d="M1086.79,300.6c-.28-.46-4.11-6.49-4.11-6.49v8.21l5.78,4.77v-3.28s-1.39-2.75-1.67-3.21Z"/>
  <path d="M1037.79,228.81c-6.88-5.33-14.7-11.49-18.07-14.49-2.21-1.96-4.12-2.55-5.68-1.75-2.85,1.46-2.69,6.91-2.62,8.12v18.79h2.78v-18.93c-.14-2.23.29-5.02,1.08-5.42.32-.17,1.21.09,2.63,1.35,3.74,3.33,12.64,10.3,19.88,15.9,2.54-1.45,0-3.58,0-3.58Z"/>
  <path d="M1111.29,229.53c-7.08-5.33-15.14-11.49-18.61-14.49-2.27-1.96-4.24-2.55-5.85-1.75-2.93,1.46-2.77,6.91-2.7,8.12v18.79h2.86v-18.93c-.15-2.23.3-5.02,1.11-5.42.33-.16,1.24.09,2.71,1.35,3.86,3.33,13.02,10.3,20.48,15.9,2.55-1.45,0-3.58,0-3.58Z"/>
  <path class="cls-15" d="M1054.94,255.48c-3.56-2.67-9.04-5.93-8.89-8.75,0,0-3.11,2.52-2.97,4.89,0,0-8.32-.59-9.49-4.89,0,0-2.07.89-2.07,2.23,0,0-7.12,1.48-9.19-2.97,0,0-.17.16-.41.46.07.37.11.58.11.58,0,0,.41,4.77,6.61,5.56,6.2.8,7.07,1.11,8.78,3.5,1.71,2.38,3.48,1.75,2.6,0-.88-1.75,7.44-1.27,7.17,6.51-.26,7.79,4.19,5.4,4.5,2.7.32-2.7,1.75,9.38-.79,15.89-2.26,5.78-3.55,9.5-.08,10.68,1.02-.34,1.31-1.21,1.75-2.45.74-2.08,5.34-15.12,5.49-20.01.15-4.89.44-11.27-3.11-13.93Z"/>
  <path d="M1037.24,272.54c.12,0,.23.02.34.05,1.64.53,2.73,3.51,2.73,7.42,0,3.63,3.62,10.56,7.32,11.24.84.15,1.51.23,2.05.23,1.64,0,1.87-.64,2.42-2.19l.04-.11c.54-1.52,5.31-14.99,5.46-19.87v-.39c.16-4.77.34-10.7-2.92-13.15-.64-.48-1.32-.96-2.05-1.48-3.07-2.19-6.24-4.44-6.91-6.69-.85.84-2.23,2.44-2.14,3.9l.03.54-.54-.04c-.34-.02-7.99-.62-9.73-4.69-.57.33-1.32.92-1.32,1.55v.39l-.38.08c-.05,0-1.21.24-2.74.25-2.26,0-5.16-.51-6.65-2.86-1.04,1.34-3.36,5.34.49,11.07l.03.06c.03.07,3.22,6.68,5.85,7.93,2.98,1.41,3.85,7.67,3.71,9.8.38-.24.95-.69,1.4-1.04,1.52-1.18,2.67-2.02,3.5-2.02ZM1049.67,292.44c-.6,0-1.33-.08-2.22-.25-4.17-.77-8.1-8.16-8.1-12.18,0-3.79-1.07-6.19-2.07-6.51,0,0-.01,0-.04,0-.57,0-1.98,1.09-2.92,1.82-1.19.93-1.84,1.41-2.33,1.41-.2,0-.38-.08-.5-.22-.22-.26-.16-.6-.14-.71.29-1.71-.61-7.93-3.15-9.13-2.86-1.36-6.01-7.77-6.29-8.35-5.11-7.62.03-12.69.08-12.74l.48-.46.28.6c1.13,2.42,3.95,2.93,6.12,2.93.96,0,1.77-.1,2.21-.17.31-1.35,2.09-2.16,2.31-2.25l.5-.22.15.53c.92,3.35,6.81,4.29,8.57,4.49.27-2.39,3-4.64,3.13-4.74l.83-.68-.06,1.07c-.11,2.05,3.64,4.71,6.64,6.85.73.52,1.42,1.01,2.06,1.49,3.66,2.75,3.47,8.95,3.32,13.94v.39c-.16,4.92-4.63,17.65-5.53,20.16l-.04.1c-.56,1.58-1.01,2.82-3.32,2.82Z"/>
  <path class="cls-13" d="M1038.62,273.87c-1.52-.96-2.93,1.41-2.93,1.41l-.89,5.48c-.15,1.93,1.63,4,3.82,1.48,2.19-2.52,1.51-7.41,0-8.37Z"/>
  <path d="M1036.64,283.88c-.31,0-.57-.07-.76-.15-1.01-.42-1.66-1.68-1.56-3.01l.95.07c-.07.89.36,1.8.98,2.06.57.24,1.28-.09,2.01-.92,1.23-1.42,1.43-3.61,1.2-5.18-.17-1.19-.6-2.16-1.1-2.47-.23-.15-.46-.19-.71-.13-.7.17-1.36,1.05-1.56,1.38l-.82-.49c.09-.16.95-1.53,2.16-1.82.49-.12,1-.03,1.44.25.74.47,1.31,1.64,1.53,3.14.26,1.79.02,4.28-1.42,5.95-.91,1.05-1.73,1.33-2.34,1.33Z"/>
  <path d="M1099.43,388.97c-9.85-9.97-3.86-27.53.1-39.15.7-2.06,1.37-4.01,1.87-5.69,1.14-3.84,1.03-6.77-.33-8.73-1.5-2.16-4.04-2.35-4.07-2.35l.06-.95c.12.01,3.02.23,4.79,2.76,1.54,2.21,1.69,5.42.46,9.55-.5,1.69-1.17,3.65-1.88,5.72-1.98,5.82-4.45,13.07-5.2,19.99-.87,8.03.73,13.98,4.88,18.19l-.68.67Z"/>
  <path d="M1133.12,362.06c-4.28,1.29-7.14,3.48-8.34,6.41-2.17,5.26,1.32,11.57,5.94,14.64,4,2.65,8.12,2.47,11.04-.48,2.04-2.06,2.9-4.23,2.61-6.63-.55-4.68-5.36-9.5-11.26-13.93ZM1136.32,385.95c-1.98,0-4.07-.68-6.13-2.04-4.95-3.28-8.65-10.09-6.3-15.8.93-2.26,3.14-5.04,8.26-6.76-4.05-2.96-8.51-5.73-12.4-8.15-4.42-2.74-7.91-4.91-9.41-6.48-2.03-2.13-2.84-4.05-2.41-5.73.59-2.3,3.28-3.18,3.39-3.22l.29.91s-2.31.76-2.76,2.55c-.34,1.34.39,2.96,2.18,4.83,1.41,1.49,5.03,3.73,9.22,6.33,4.1,2.54,8.8,5.47,13.03,8.61,6.02-1.7,15.61-2.03,30.9,1.01l-.18.93c-12.05-2.4-21.66-2.89-28.56-1.47-.4.08-.79.17-1.17.27,5.8,4.45,10.49,9.31,11.05,14.14.31,2.67-.66,5.16-2.88,7.42-1.74,1.76-3.86,2.64-6.12,2.64Z"/>
  <polygon class="cls-11" points="799.14 597.52 719.64 608.11 728.25 631.95 607.72 631.95 607.72 651.82 632.89 681.62 544.81 712.75 446.13 749.17 452.09 769.7 394.48 776.99 394.48 800 1280.31 800 1281.32 594.21 798.42 594.21 799.14 597.52"/>
</svg>