<svg width="2107" height="2000" viewBox="0 0 2107 2000" fill="none" xmlns="http://www.w3.org/2000/svg">
<g clip-path="url(#clip0_148_62)">
<mask id="mask0_148_62" style="mask-type:luminance" maskUnits="userSpaceOnUse" x="0" y="0" width="2107" height="2000">
<path d="M0 0H2106.52V2000H0V0Z" fill="white"/>
</mask>
<g mask="url(#mask0_148_62)">
<path d="M0 2000H2106.52V0H0V2000Z" fill="white"/>
</g>
<path d="M446.059 1573.62C277.73 1495.38 221.621 1175.1 171.313 902.898C120.211 626.398 597.227 568.039 670.492 494.781C743.762 421.512 609.312 336.648 707 271.52C804.691 206.391 1408.47 37.7305 1626.68 153.449C1780.98 235.27 1878.96 527.898 1933.24 839.961C1971.33 1059.02 1783.32 1448.63 1578.06 1549.61C1399.4 1637.51 544.922 1619.57 446.059 1573.62Z" fill="#DCFCE7"/>
<path d="M176.445 930.68C176.441 930.672 176.441 930.66 176.437 930.641L176.445 930.68ZM176.367 930.27C174.723 921.359 173.086 912.48 171.453 903.648C173.086 912.469 174.723 921.359 176.367 930.27ZM171.262 902.609C171.258 902.59 171.254 902.578 171.25 902.551C171.254 902.57 171.258 902.602 171.262 902.609ZM171.148 901.988C171.144 901.961 171.141 901.961 171.137 901.93C171.141 901.949 171.144 901.969 171.148 901.988ZM170.976 901.031C170.973 901.02 170.969 900.988 170.969 900.98C170.969 901 170.973 901.012 170.976 901.031ZM170.922 900.719C170.918 900.711 170.918 900.699 170.914 900.691C170.918 900.699 170.918 900.699 170.922 900.719ZM170.867 900.41C170.863 900.379 170.863 900.379 170.859 900.352C170.859 900.371 170.863 900.391 170.867 900.41ZM170.762 899.789C170.754 899.762 170.754 899.75 170.75 899.73C170.754 899.738 170.758 899.77 170.762 899.789ZM170.703 899.449C170.699 899.441 170.699 899.43 170.695 899.422C170.699 899.43 170.699 899.43 170.703 899.449ZM170.652 899.16C170.648 899.141 170.648 899.129 170.644 899.109C170.648 899.129 170.648 899.148 170.652 899.16ZM170.598 898.84C170.598 898.82 170.59 898.789 170.59 898.781C170.594 898.801 170.594 898.82 170.598 898.84ZM170.551 898.539C170.547 898.531 170.543 898.5 170.539 898.488C170.543 898.512 170.547 898.52 170.551 898.539ZM170.496 898.219C170.492 898.191 170.488 898.18 170.484 898.16C170.488 898.172 170.492 898.199 170.496 898.219ZM170.394 897.602C170.391 897.57 170.391 897.559 170.383 897.539C170.387 897.551 170.391 897.578 170.394 897.602ZM170.297 896.98C170.289 896.949 170.289 896.941 170.285 896.922C170.289 896.93 170.293 896.961 170.297 896.98ZM170.242 896.641L170.238 896.621C170.238 896.629 170.238 896.621 170.242 896.641ZM170.195 896.359C170.191 896.34 170.191 896.328 170.187 896.301C170.191 896.32 170.195 896.34 170.195 896.359ZM170.144 896.031C170.144 896.012 170.141 895.988 170.137 895.98L170.144 896.031ZM170.051 895.41C170.047 895.391 170.047 895.379 170.043 895.359C170.047 895.379 170.047 895.398 170.051 895.41ZM170.004 895.102C170.004 895.09 170 895.09 170 895.07C170.004 895.09 170 895.09 170.004 895.102ZM169.957 894.801C169.953 894.77 169.953 894.762 169.949 894.738C169.949 894.762 169.953 894.781 169.957 894.801ZM169.867 894.18C169.863 894.148 169.863 894.148 169.859 894.129C169.859 894.141 169.863 894.16 169.867 894.18ZM169.816 893.852V893.828C169.816 893.852 169.816 893.828 169.816 893.852ZM169.777 893.559C169.773 893.539 169.773 893.539 169.769 893.512C169.769 893.531 169.773 893.551 169.777 893.559ZM169.73 893.238C169.726 893.23 169.723 893.199 169.723 893.191L169.73 893.238ZM169.687 892.941C169.684 892.93 169.684 892.91 169.68 892.898C169.684 892.922 169.684 892.93 169.687 892.941ZM169.641 892.629C169.641 892.602 169.641 892.602 169.637 892.57C169.637 892.59 169.641 892.609 169.641 892.629ZM169.598 892.32C169.598 892.309 169.598 892.301 169.598 892.289C169.598 892.309 169.598 892.301 169.598 892.32ZM169.559 892.02C169.555 891.988 169.555 891.98 169.551 891.961C169.551 891.969 169.555 892 169.559 892.02ZM169.473 891.41C169.473 891.379 169.469 891.371 169.465 891.34C169.469 891.371 169.469 891.371 169.473 891.41ZM169.43 891.07C169.43 891.059 169.426 891.059 169.426 891.039C169.43 891.059 169.426 891.051 169.43 891.07ZM169.394 890.801C169.391 890.77 169.387 890.762 169.383 890.73C169.387 890.75 169.391 890.781 169.394 890.801ZM169.351 890.469C169.348 890.449 169.344 890.422 169.344 890.41C169.348 890.441 169.344 890.43 169.351 890.469ZM169.312 890.191C169.309 890.16 169.309 890.141 169.305 890.121C169.309 890.148 169.309 890.16 169.312 890.191ZM169.269 889.859C169.269 889.84 169.266 889.809 169.262 889.789C169.266 889.809 169.269 889.852 169.269 889.859ZM169.234 889.57C169.23 889.559 169.23 889.531 169.226 889.512C169.23 889.531 169.23 889.551 169.234 889.57ZM169.195 889.25C169.191 889.23 169.187 889.211 169.187 889.18C169.187 889.199 169.191 889.238 169.195 889.25ZM169.117 888.641C169.117 888.621 169.113 888.602 169.109 888.57C169.113 888.609 169.113 888.609 169.117 888.641ZM169.078 888.309C169.078 888.301 169.074 888.289 169.074 888.27C169.074 888.289 169.074 888.289 169.078 888.309ZM169.047 888.031C169.043 888.012 169.039 888 169.035 887.969C169.039 887.988 169.043 888.02 169.047 888.031ZM169.008 887.711C169.004 887.68 169.004 887.672 169 887.648C169.004 887.68 169.004 887.68 169.008 887.711ZM168.973 887.43C168.969 887.398 168.969 887.391 168.965 887.359C168.969 887.379 168.973 887.41 168.973 887.43ZM168.937 887.109C168.934 887.078 168.93 887.051 168.926 887.031C168.93 887.039 168.934 887.09 168.937 887.109ZM168.902 886.82C168.902 886.801 168.898 886.77 168.894 886.762C168.898 886.77 168.898 886.801 168.902 886.82ZM168.867 886.512C168.863 886.48 168.859 886.449 168.855 886.422C168.859 886.461 168.863 886.469 168.867 886.512ZM168.832 886.199C168.828 886.172 168.828 886.172 168.824 886.141C168.828 886.16 168.828 886.18 168.832 886.199ZM168.801 885.898C168.797 885.871 168.793 885.84 168.789 885.82C168.793 885.852 168.797 885.871 168.801 885.898ZM168.734 885.301C168.73 885.27 168.726 885.238 168.726 885.211C168.726 885.23 168.73 885.281 168.734 885.301ZM168.699 884.969C168.695 884.941 168.691 884.922 168.691 884.891C168.695 884.93 168.695 884.93 168.699 884.969ZM168.672 884.699C168.668 884.672 168.664 884.641 168.66 884.609C168.664 884.641 168.664 884.66 168.672 884.699ZM168.637 884.371C168.633 884.34 168.629 884.309 168.629 884.281C168.629 884.301 168.633 884.352 168.637 884.371ZM168.605 884.09C168.605 884.059 168.601 884.039 168.598 884.012C168.601 884.051 168.605 884.059 168.605 884.09ZM168.574 883.77C168.57 883.75 168.566 883.711 168.566 883.68C168.57 883.711 168.57 883.738 168.574 883.77ZM168.547 883.469C168.543 883.449 168.539 883.422 168.535 883.398C168.539 883.41 168.543 883.461 168.547 883.469ZM168.516 883.16C168.512 883.141 168.508 883.109 168.508 883.09C168.512 883.121 168.512 883.129 168.516 883.16ZM168.457 882.57C168.453 882.539 168.449 882.512 168.449 882.48C168.449 882.5 168.453 882.551 168.457 882.57ZM168.426 882.238C168.422 882.199 168.422 882.199 168.418 882.16C168.422 882.191 168.422 882.211 168.426 882.238ZM168.371 881.641C168.367 881.609 168.367 881.59 168.363 881.551C168.363 881.578 168.367 881.609 168.371 881.641ZM168.348 881.371C168.344 881.328 168.344 881.328 168.34 881.289C168.344 881.32 168.344 881.34 168.348 881.371ZM168.316 881.051C168.316 881.031 168.312 880.98 168.309 880.949C168.312 880.98 168.316 881.02 168.316 881.051ZM168.293 880.77C168.289 880.719 168.285 880.699 168.281 880.648C168.285 880.68 168.289 880.738 168.293 880.77ZM168.266 880.461C168.266 880.43 168.258 880.371 168.258 880.352C168.262 880.379 168.266 880.43 168.266 880.461ZM168.242 880.16C168.238 880.121 168.234 880.07 168.23 880.031C168.234 880.078 168.238 880.109 168.242 880.16ZM168.219 879.871C168.215 879.828 168.211 879.789 168.207 879.762C168.211 879.789 168.215 879.84 168.219 879.871ZM168.168 879.281C168.164 879.238 168.16 879.199 168.16 879.16C168.164 879.211 168.164 879.23 168.168 879.281ZM168.141 878.941C168.141 878.91 168.137 878.859 168.133 878.82C168.137 878.871 168.137 878.891 168.141 878.941ZM168.121 878.68C168.117 878.629 168.113 878.59 168.109 878.539C168.113 878.59 168.117 878.641 168.121 878.68ZM168.098 878.352C168.094 878.32 168.09 878.27 168.086 878.23C168.09 878.262 168.094 878.32 168.098 878.352ZM168.078 878.09C168.07 878.031 168.066 877.969 168.062 877.898C168.066 877.969 168.07 878.02 168.078 878.09ZM168.055 877.77C168.051 877.719 168.047 877.68 168.043 877.629C168.047 877.66 168.051 877.738 168.055 877.77ZM168.035 877.512C168.027 877.43 168.023 877.379 168.019 877.301C168.023 877.371 168.031 877.441 168.035 877.512ZM168.012 877.172C168.008 877.141 168.004 877.09 168.004 877.051C168.004 877.102 168.008 877.129 168.012 877.172ZM167.988 876.879C167.988 876.828 167.98 876.762 167.976 876.711C167.984 876.77 167.984 876.809 167.988 876.879ZM167.969 876.59C167.969 876.551 167.965 876.488 167.961 876.461C167.965 876.5 167.969 876.539 167.969 876.59ZM167.949 876.25C167.945 876.211 167.941 876.148 167.937 876.121C167.941 876.16 167.945 876.199 167.949 876.25ZM167.93 876C167.926 875.941 167.926 875.891 167.922 875.828C167.926 875.891 167.926 875.93 167.93 876ZM167.91 875.66C167.906 875.609 167.906 875.578 167.902 875.531C167.902 875.578 167.906 875.621 167.91 875.66ZM167.894 875.41C167.891 875.34 167.887 875.27 167.883 875.191C167.887 875.262 167.891 875.352 167.894 875.41ZM167.859 874.828C167.855 874.762 167.851 874.672 167.844 874.602C167.851 874.68 167.855 874.75 167.859 874.828ZM167.824 874.25C167.82 874.172 167.816 874.09 167.812 874.02C167.816 874.102 167.82 874.172 167.824 874.25ZM167.805 873.91C167.805 873.871 167.801 873.801 167.797 873.762C167.801 873.809 167.805 873.859 167.805 873.91ZM167.789 873.57C167.785 873.52 167.781 873.48 167.781 873.43C167.781 873.469 167.785 873.531 167.789 873.57ZM167.773 873.328C167.769 873.25 167.766 873.148 167.762 873.059C167.766 873.16 167.769 873.238 167.773 873.328ZM167.746 872.762C167.742 872.672 167.738 872.578 167.734 872.5C167.738 872.59 167.742 872.66 167.746 872.762ZM167.73 872.41C167.726 872.359 167.723 872.309 167.723 872.262C167.726 872.32 167.726 872.352 167.73 872.41ZM167.703 871.84C167.699 871.781 167.699 871.73 167.695 871.672C167.699 871.73 167.699 871.77 167.703 871.84ZM167.652 870.691C167.648 870.512 167.641 870.352 167.633 870.16C167.641 870.34 167.648 870.52 167.652 870.691ZM167.617 869.762C167.617 869.711 167.613 869.629 167.613 869.59C167.613 869.648 167.617 869.699 167.617 869.762ZM167.613 869.559C167.609 869.449 167.605 869.328 167.601 869.219C167.605 869.34 167.609 869.43 167.613 869.559ZM167.601 869.191C167.594 869.012 167.59 868.84 167.582 868.648C167.59 868.84 167.594 869 167.601 869.191ZM167.582 868.621C167.578 868.449 167.57 868.25 167.566 868.078C167.57 868.27 167.578 868.43 167.582 868.621ZM167.566 868.051C167.562 867.871 167.559 867.691 167.551 867.5C167.559 867.691 167.562 867.859 167.566 868.051ZM167.551 867.488C162.965 678.531 420.25 601.352 571.898 544.031C420.25 601.352 162.969 678.531 167.551 867.488Z" fill="#FEFAFB"/>
<path d="M571.898 1196.51H231.477C209.969 1110.71 192.84 1019.41 176.676 931.93C176.656 931.828 176.637 931.719 176.617 931.621C176.559 931.309 176.5 930.988 176.445 930.68L176.437 930.641C176.414 930.52 176.391 930.398 176.367 930.27C174.723 921.359 173.086 912.469 171.453 903.648C171.406 903.398 171.359 903.148 171.312 902.898C171.297 902.801 171.277 902.711 171.262 902.609C171.258 902.602 171.254 902.57 171.25 902.551C171.234 902.461 171.215 902.359 171.199 902.27C171.195 902.262 171.195 902.262 171.195 902.25C171.18 902.172 171.16 902.059 171.148 901.988C171.144 901.969 171.141 901.949 171.137 901.93C171.121 901.84 171.105 901.738 171.086 901.648C171.086 901.641 171.082 901.621 171.078 901.609C171.062 901.531 171.051 901.441 171.035 901.359C171.031 901.352 171.027 901.32 171.023 901.301C171.008 901.199 170.992 901.129 170.977 901.031C170.973 901.012 170.969 901 170.969 900.98C170.953 900.898 170.934 900.801 170.922 900.719C170.918 900.699 170.918 900.699 170.914 900.691C170.898 900.602 170.883 900.5 170.867 900.41C170.863 900.391 170.859 900.371 170.859 900.352C170.844 900.262 170.824 900.16 170.809 900.07C170.793 899.98 170.773 899.879 170.762 899.789C170.758 899.77 170.754 899.738 170.75 899.73C170.734 899.629 170.719 899.539 170.703 899.449C170.699 899.43 170.699 899.43 170.695 899.422C170.684 899.34 170.664 899.238 170.652 899.16C170.648 899.148 170.648 899.129 170.644 899.109C170.629 899.02 170.613 898.93 170.598 898.84C170.594 898.82 170.594 898.801 170.59 898.781C170.574 898.699 170.562 898.621 170.551 898.539C170.547 898.52 170.543 898.512 170.539 898.488C170.523 898.398 170.512 898.309 170.496 898.219C170.492 898.199 170.488 898.172 170.484 898.16C170.473 898.078 170.457 897.98 170.445 897.898C170.441 897.891 170.441 897.891 170.437 897.871C170.426 897.781 170.41 897.691 170.394 897.602C170.391 897.578 170.387 897.551 170.383 897.539C170.355 897.352 170.324 897.16 170.297 896.98C170.293 896.961 170.289 896.93 170.285 896.922C170.269 896.828 170.254 896.73 170.242 896.641C170.238 896.621 170.238 896.629 170.238 896.621C170.223 896.531 170.211 896.449 170.195 896.359C170.195 896.34 170.191 896.32 170.187 896.301C170.176 896.211 170.16 896.121 170.144 896.031L170.137 895.98C170.125 895.898 170.113 895.82 170.102 895.738C170.098 895.719 170.094 895.699 170.094 895.68C170.078 895.59 170.062 895.5 170.051 895.41C170.047 895.398 170.047 895.379 170.043 895.359C170.031 895.281 170.016 895.18 170.004 895.102C170 895.09 170.004 895.09 170 895.07C169.984 894.98 169.973 894.891 169.957 894.801C169.953 894.781 169.949 894.762 169.949 894.738C169.922 894.559 169.891 894.359 169.867 894.18C169.863 894.16 169.859 894.141 169.859 894.129C169.844 894.039 169.828 893.941 169.816 893.852C169.816 893.828 169.816 893.852 169.816 893.828C169.801 893.738 169.789 893.648 169.777 893.559C169.773 893.551 169.769 893.531 169.769 893.512C169.758 893.422 169.742 893.328 169.73 893.238L169.723 893.191C169.711 893.109 169.699 893.02 169.687 892.941C169.684 892.93 169.684 892.922 169.68 892.898C169.668 892.809 169.656 892.719 169.641 892.629C169.641 892.609 169.637 892.59 169.637 892.57C169.625 892.488 169.609 892.391 169.598 892.32C169.598 892.301 169.598 892.309 169.598 892.289C169.582 892.199 169.57 892.109 169.559 892.02C169.555 892 169.551 891.969 169.551 891.961C169.535 891.871 169.523 891.781 169.512 891.691V891.68C169.5 891.59 169.488 891.488 169.473 891.41C169.469 891.371 169.469 891.371 169.465 891.34C169.453 891.25 169.441 891.16 169.43 891.07C169.426 891.051 169.43 891.059 169.426 891.039C169.414 890.969 169.402 890.871 169.394 890.801C169.391 890.781 169.387 890.75 169.383 890.73C169.371 890.641 169.359 890.559 169.352 890.469C169.344 890.43 169.348 890.441 169.344 890.41C169.332 890.328 169.324 890.27 169.312 890.191C169.309 890.16 169.309 890.148 169.305 890.121C169.293 890.039 169.281 889.941 169.269 889.859C169.269 889.852 169.266 889.809 169.262 889.789C169.254 889.711 169.242 889.641 169.234 889.57C169.23 889.551 169.23 889.531 169.227 889.512C169.215 889.422 169.207 889.34 169.195 889.25C169.191 889.238 169.187 889.199 169.187 889.18C169.176 889.109 169.164 889.012 169.156 888.941C169.152 888.922 169.152 888.922 169.152 888.898C169.141 888.809 169.129 888.73 169.117 888.641C169.113 888.609 169.113 888.609 169.109 888.57C169.098 888.48 169.09 888.398 169.078 888.309C169.074 888.289 169.074 888.289 169.074 888.27C169.062 888.199 169.055 888.109 169.047 888.031C169.043 888.02 169.039 887.988 169.035 887.969C169.027 887.891 169.016 887.789 169.008 887.711C169.004 887.68 169.004 887.68 169 887.648C168.988 887.57 168.98 887.5 168.973 887.43C168.973 887.41 168.969 887.379 168.965 887.359C168.957 887.289 168.945 887.18 168.937 887.109C168.934 887.09 168.93 887.039 168.926 887.031C168.918 886.949 168.91 886.891 168.902 886.82C168.898 886.801 168.898 886.77 168.894 886.762C168.887 886.672 168.879 886.59 168.867 886.512C168.863 886.469 168.859 886.461 168.855 886.422C168.848 886.352 168.84 886.27 168.832 886.199C168.828 886.18 168.828 886.16 168.824 886.141C168.816 886.059 168.809 885.98 168.801 885.898C168.797 885.871 168.793 885.852 168.789 885.82C168.781 885.73 168.773 885.648 168.762 885.559C168.762 885.551 168.758 885.531 168.758 885.512C168.75 885.441 168.742 885.379 168.734 885.301C168.73 885.281 168.727 885.23 168.727 885.211C168.719 885.141 168.707 885.039 168.699 884.969C168.695 884.93 168.695 884.93 168.691 884.891C168.684 884.82 168.68 884.77 168.672 884.699C168.664 884.66 168.664 884.641 168.66 884.609C168.652 884.539 168.644 884.441 168.637 884.371C168.633 884.352 168.629 884.301 168.629 884.281C168.617 884.211 168.613 884.172 168.605 884.09C168.605 884.059 168.602 884.051 168.598 884.012C168.59 883.941 168.582 883.852 168.574 883.77C168.57 883.738 168.57 883.711 168.566 883.68C168.559 883.602 168.551 883.551 168.547 883.469C168.543 883.461 168.539 883.41 168.535 883.398C168.531 883.32 168.523 883.238 168.516 883.16C168.512 883.129 168.512 883.121 168.508 883.09C168.496 883 168.492 882.922 168.48 882.828C168.48 882.82 168.477 882.789 168.477 882.781C168.469 882.699 168.465 882.641 168.457 882.57C168.453 882.551 168.449 882.5 168.449 882.48C168.441 882.41 168.434 882.32 168.426 882.238C168.422 882.211 168.422 882.191 168.418 882.16C168.41 882.09 168.406 882.031 168.402 881.969C168.398 881.941 168.394 881.91 168.394 881.879C168.387 881.809 168.379 881.719 168.371 881.641C168.367 881.609 168.363 881.578 168.363 881.551C168.359 881.5 168.352 881.422 168.348 881.371C168.344 881.34 168.344 881.32 168.34 881.289C168.332 881.211 168.324 881.129 168.316 881.051C168.316 881.02 168.312 880.98 168.309 880.949C168.305 880.891 168.301 880.828 168.293 880.77C168.289 880.738 168.285 880.68 168.281 880.648C168.277 880.59 168.273 880.52 168.266 880.461C168.266 880.43 168.262 880.379 168.258 880.352C168.25 880.27 168.246 880.23 168.242 880.16C168.238 880.109 168.234 880.078 168.23 880.031C168.227 879.98 168.223 879.922 168.219 879.871C168.215 879.84 168.211 879.789 168.207 879.762C168.199 879.68 168.195 879.609 168.187 879.531C168.187 879.5 168.184 879.461 168.18 879.422C168.176 879.371 168.172 879.328 168.168 879.281C168.164 879.23 168.164 879.211 168.16 879.16C168.152 879.09 168.148 879.02 168.141 878.941C168.137 878.891 168.137 878.871 168.133 878.82C168.129 878.77 168.125 878.73 168.121 878.68C168.117 878.641 168.113 878.59 168.109 878.539C168.105 878.48 168.102 878.422 168.098 878.352C168.094 878.32 168.09 878.262 168.086 878.23C168.086 878.18 168.078 878.141 168.078 878.09C168.07 878.02 168.066 877.969 168.062 877.898C168.059 877.871 168.055 877.809 168.055 877.77C168.051 877.738 168.047 877.66 168.043 877.629C168.039 877.59 168.035 877.539 168.035 877.512C168.031 877.441 168.023 877.371 168.019 877.301C168.016 877.27 168.012 877.211 168.012 877.172C168.008 877.129 168.004 877.102 168.004 877.051C167.996 876.988 167.992 876.941 167.988 876.879C167.984 876.809 167.984 876.77 167.977 876.711C167.977 876.66 167.973 876.641 167.969 876.59C167.969 876.539 167.965 876.5 167.961 876.461C167.957 876.379 167.953 876.328 167.949 876.25C167.945 876.199 167.941 876.16 167.937 876.121C167.937 876.078 167.934 876.039 167.93 876C167.926 875.93 167.926 875.891 167.922 875.828C167.918 875.781 167.914 875.711 167.91 875.66C167.906 875.621 167.902 875.578 167.902 875.531C167.898 875.488 167.894 875.449 167.894 875.41C167.891 875.352 167.887 875.262 167.883 875.191C167.879 875.16 167.875 875.121 167.875 875.078C167.871 875.031 167.867 874.988 167.863 874.941C167.863 874.898 167.859 874.871 167.859 874.828C167.855 874.75 167.852 874.68 167.844 874.602C167.844 874.559 167.844 874.539 167.84 874.5C167.836 874.449 167.836 874.398 167.832 874.352C167.828 874.309 167.828 874.281 167.824 874.25C167.82 874.172 167.816 874.102 167.812 874.02C167.809 873.98 167.809 873.949 167.805 873.91C167.805 873.859 167.801 873.809 167.797 873.762C167.793 873.691 167.793 873.648 167.789 873.57C167.785 873.531 167.781 873.469 167.781 873.43C167.777 873.398 167.777 873.359 167.773 873.328C167.769 873.238 167.766 873.16 167.762 873.059C167.762 873.039 167.758 873.02 167.758 873C167.758 872.949 167.754 872.891 167.75 872.84C167.746 872.801 167.746 872.789 167.746 872.762C167.742 872.66 167.738 872.59 167.734 872.5C167.73 872.469 167.73 872.441 167.73 872.41C167.727 872.352 167.727 872.32 167.723 872.262C167.723 872.23 167.719 872.211 167.719 872.191C167.715 872.09 167.711 872 167.707 871.898C167.703 871.891 167.703 871.852 167.703 871.84C167.699 871.77 167.699 871.73 167.695 871.672V871.66C167.691 871.551 167.684 871.43 167.68 871.32C167.68 871.301 167.68 871.281 167.676 871.262C167.672 871.09 167.664 870.91 167.656 870.738C167.656 870.73 167.656 870.699 167.652 870.691C167.648 870.52 167.641 870.34 167.633 870.16C167.633 870.148 167.633 870.129 167.633 870.121C167.629 870.012 167.625 869.898 167.621 869.789C167.621 869.77 167.621 869.781 167.617 869.762C167.617 869.699 167.613 869.648 167.613 869.59C167.613 869.57 167.613 869.57 167.613 869.559C167.609 869.43 167.605 869.34 167.602 869.219C167.602 869.199 167.602 869.211 167.602 869.191C167.594 869 167.59 868.84 167.582 868.648C167.582 868.641 167.582 868.629 167.582 868.621C167.578 868.43 167.57 868.27 167.566 868.078C167.566 868.07 167.566 868.059 167.566 868.051C167.562 867.859 167.559 867.691 167.551 867.5V867.488C162.969 678.531 420.25 601.352 571.898 544.031V1196.51Z" fill="#E5F3EA"/>
<path d="M591.27 536.57C579.645 541.148 567.207 545.828 554.145 550.672V1179.92H227.387C230.527 1192.86 233.758 1205.7 237.094 1218.39H591.27V536.57Z" fill="#C2C3C1"/>
<path d="M245.824 703.879V1180.37H292.637V668.109C275.863 679.23 260.117 691.121 245.824 703.879Z" fill="#C2C3C1"/>
<path d="M272.277 835.34C272.277 835.34 318.906 776.289 327.223 778.828C335.539 781.359 337.937 783.461 338.211 786.68C338.484 789.891 278.504 850.699 278.504 850.699L272.277 835.34Z" fill="#C2C3C1"/>
<path d="M1590.46 713.031C1590.3 711.559 1589.38 710.422 1587.81 710.371C1547.31 709.02 1491.04 710.059 1462.08 711.031C1457.57 711.18 1454.82 711.48 1454.41 713.5C1453.62 717.27 1452.88 793.871 1453.28 799.109C1453.61 803.379 1453.08 809.711 1457.01 812.551C1458.83 813.871 1461.06 814.039 1463.25 814.039C1465.9 814.039 1468.55 814.012 1471.21 813.988C1476.73 813.949 1482.26 813.922 1487.78 813.879C1509.44 813.75 1531.1 813.609 1552.76 813.48C1563.53 813.41 1574.32 813.5 1585.08 813.27C1589.75 813.172 1589.76 812.531 1590.66 807.52C1591.07 805.238 1593.21 737.238 1590.46 713.031Z" fill="#4ADE80"/>
<path d="M1953.7 826.75C1953.48 825.281 1952.31 824.141 1950.29 824.09C1898.41 822.738 1826.32 823.789 1789.22 824.762C1783.44 824.91 1779.92 825.199 1779.38 827.219C1778.38 830.988 1777.42 907.59 1777.94 912.828C1778.36 917.102 1777.68 923.441 1782.71 926.27C1785.06 927.59 1787.91 927.762 1790.71 927.762C1794.11 927.762 1797.51 927.73 1800.91 927.711C1807.99 927.68 1815.07 927.641 1822.14 927.609C1849.89 927.469 1877.64 927.328 1905.39 927.199C1919.19 927.129 1933.01 927.219 1946.8 926.988C1952.78 926.891 1952.79 926.25 1953.95 921.238C1954.48 918.961 1957.21 850.961 1953.7 826.75Z" fill="#4ADE80"/>
<path d="M1815.32 709.859C1815.15 708.391 1814.23 707.25 1812.66 707.199C1772.17 705.852 1691.43 706.891 1662.48 707.859C1657.96 708.012 1655.22 708.309 1654.8 710.32C1654.01 714.102 1653.27 790.699 1653.67 795.941C1654 800.211 1653.47 806.539 1657.4 809.379C1659.23 810.691 1661.46 810.859 1663.64 810.871C1666.29 810.871 1668.95 810.828 1671.6 810.82C1677.12 810.781 1682.65 810.75 1688.18 810.711C1709.83 810.578 1731.5 810.441 1753.15 810.301C1763.92 810.238 1799.17 810.328 1809.94 810.102C1814.6 810 1814.61 809.359 1815.52 804.352C1815.93 802.07 1818.07 734.059 1815.32 709.859Z" fill="#4ADE80"/>
<path d="M1570.68 945.039C1570.54 943.57 1569.76 942.43 1568.44 942.379C1534.32 941.031 1466.29 942.07 1441.89 943.039C1438.09 943.191 1435.77 943.488 1435.42 945.512C1434.76 949.281 1434.13 1025.88 1434.47 1031.12C1434.75 1035.39 1434.3 1041.72 1437.61 1044.56C1439.15 1045.88 1441.03 1046.05 1442.87 1046.05C1445.11 1046.05 1447.34 1046.02 1449.58 1046C1454.23 1045.96 1458.89 1045.93 1463.54 1045.9C1481.8 1045.76 1500.05 1045.62 1518.3 1045.49C1527.37 1045.42 1557.07 1045.51 1566.14 1045.28C1570.07 1045.18 1570.08 1044.54 1570.84 1039.53C1571.19 1037.25 1572.99 969.25 1570.68 945.039Z" fill="#4ADE80"/>
<path d="M1643.45 1062.79C1643.31 1061.32 1642.54 1060.18 1641.22 1060.13C1607.09 1058.78 1539.07 1059.83 1514.67 1060.79C1510.86 1060.94 1508.55 1061.24 1508.2 1063.26C1507.54 1067.03 1506.91 1143.63 1507.25 1148.87C1507.53 1153.14 1507.08 1159.47 1510.39 1162.31C1511.93 1163.63 1513.81 1163.8 1515.65 1163.8C1517.88 1163.8 1520.12 1163.77 1522.35 1163.75C1527.01 1163.71 1531.67 1163.68 1536.32 1163.64C1554.57 1163.51 1572.82 1163.37 1591.07 1163.24C1600.15 1163.17 1629.85 1163.26 1638.92 1163.03C1642.85 1162.93 1642.86 1162.29 1643.62 1157.28C1643.97 1155 1645.77 1087 1643.45 1062.79Z" fill="#4ADE80"/>
<path d="M1745.94 592.73C1745.77 591.262 1744.85 590.121 1743.28 590.07C1702.79 588.719 1622.05 589.762 1593.1 590.73C1588.58 590.879 1585.84 591.18 1585.42 593.191C1584.63 596.969 1583.89 673.559 1584.29 678.809C1584.62 683.07 1584.09 689.41 1588.02 692.25C1589.85 693.559 1592.08 693.73 1594.26 693.738C1596.91 693.738 1599.57 693.699 1602.22 693.691C1607.75 693.648 1613.27 693.621 1618.8 693.578C1640.46 693.449 1662.12 693.309 1683.78 693.172C1694.54 693.109 1729.79 693.199 1740.56 692.969C1745.22 692.871 1745.23 692.23 1746.14 687.219C1746.55 684.941 1748.69 616.93 1745.94 592.73Z" fill="#4ADE80"/>
<path d="M1604.09 355.289C1603.93 353.82 1603.01 352.68 1601.43 352.629C1560.94 351.281 1505.53 352.328 1476.58 353.289C1472.06 353.441 1469.32 353.738 1468.9 355.762C1468.11 359.531 1467.37 436.129 1467.77 441.371C1468.1 445.641 1467.57 451.969 1471.5 454.809C1473.33 456.129 1475.56 456.301 1477.74 456.301C1480.39 456.301 1483.05 456.27 1485.7 456.25C1491.22 456.211 1496.75 456.18 1502.28 456.148C1523.94 456.012 1545.59 455.871 1567.25 455.738C1578.02 455.672 1587.94 455.762 1598.71 455.531C1603.38 455.43 1603.39 454.789 1604.29 449.781C1604.7 447.5 1606.84 379.5 1604.09 355.289Z" fill="#4ADE80"/>
<path d="M1821.86 355.289C1821.62 353.82 1820.29 352.68 1818.02 352.629C1759.61 351.281 1679.68 352.328 1637.91 353.289C1631.4 353.441 1627.44 353.738 1626.83 355.762C1625.7 359.531 1624.63 436.129 1625.21 441.371C1625.68 445.641 1624.92 451.969 1630.58 454.809C1633.22 456.129 1636.44 456.301 1639.59 456.301C1643.42 456.301 1647.24 456.27 1651.07 456.25C1659.04 456.211 1667.01 456.18 1674.98 456.148C1706.23 456.012 1737.47 455.871 1768.72 455.738C1784.25 455.672 1798.56 455.762 1814.09 455.531C1820.82 455.43 1820.84 454.789 1822.14 449.781C1822.74 447.5 1825.82 379.5 1821.86 355.289Z" fill="#4ADE80"/>
<path d="M1762.67 826.09C1762.51 824.629 1761.59 823.488 1760.01 823.441C1719.52 822.078 1664.11 823.129 1635.16 824.102C1630.64 824.25 1627.9 824.551 1627.48 826.559C1626.69 830.328 1625.95 906.93 1626.35 912.172C1626.68 916.441 1626.15 922.781 1630.08 925.609C1631.91 926.93 1634.14 927.102 1636.32 927.102C1638.97 927.109 1641.63 927.07 1644.28 927.059C1649.8 927.02 1655.33 926.98 1660.86 926.949C1682.52 926.809 1704.18 926.68 1725.83 926.539C1736.6 926.469 1746.52 926.57 1757.29 926.34C1761.96 926.23 1761.97 925.59 1762.87 920.59C1763.28 918.309 1765.42 850.301 1762.67 826.09Z" fill="#4ADE80"/>
<path d="M1723.33 944.129C1723.16 942.672 1722.24 941.531 1720.67 941.48C1680.17 940.121 1624.77 941.172 1595.81 942.141C1591.29 942.289 1588.55 942.59 1588.13 944.602C1587.35 948.371 1586.6 1024.97 1587.01 1030.21C1587.33 1034.48 1586.8 1040.82 1590.73 1043.65C1592.56 1044.97 1594.79 1045.14 1596.98 1045.15C1599.63 1045.15 1602.28 1045.11 1604.93 1045.09C1610.46 1045.06 1615.98 1045.03 1621.51 1044.99C1643.17 1044.85 1664.83 1044.72 1686.49 1044.58C1697.26 1044.51 1707.18 1044.61 1717.94 1044.38C1722.61 1044.27 1722.62 1043.63 1723.52 1038.63C1723.94 1036.35 1726.07 968.34 1723.33 944.129Z" fill="#4ADE80"/>
<path d="M1578.28 474.691C1578.11 473.219 1577.19 472.078 1575.62 472.031C1535.13 470.672 1454.39 471.719 1425.44 472.691C1420.92 472.84 1418.18 473.141 1417.76 475.148C1416.97 478.93 1416.23 555.519 1416.63 560.769C1416.96 565.031 1416.43 571.371 1420.36 574.211C1422.19 575.519 1424.41 575.691 1426.6 575.699C1429.25 575.699 1431.91 575.66 1434.56 575.648C1440.08 575.609 1445.61 575.578 1451.13 575.539C1472.79 575.41 1494.45 575.269 1516.11 575.129C1526.88 575.07 1562.13 575.16 1572.9 574.93C1577.56 574.828 1577.57 574.191 1578.47 569.18C1578.89 566.898 1581.02 498.891 1578.28 474.691Z" fill="#4ADE80"/>
<path d="M1563.41 592.73C1563.33 591.262 1562.83 590.121 1561.99 590.07C1540.34 588.719 1497.17 589.762 1481.69 590.73C1479.28 590.879 1477.81 591.18 1477.59 593.191C1477.17 596.969 1476.77 673.559 1476.98 678.809C1477.16 683.07 1476.88 689.41 1478.98 692.25C1479.95 693.559 1481.15 693.73 1482.31 693.738C1483.73 693.738 1485.15 693.699 1486.57 693.691C1489.52 693.648 1492.48 693.621 1495.43 693.578C1507.01 693.449 1518.59 693.309 1530.18 693.172C1535.93 693.109 1554.78 693.199 1560.54 692.969C1563.03 692.871 1563.04 692.23 1563.52 687.219C1563.74 684.941 1564.88 616.93 1563.41 592.73Z" fill="#4ADE80"/>
<path d="M1601.71 1180.88C1601.57 1179.42 1600.81 1178.28 1599.5 1178.23C1565.83 1176.87 1498.69 1177.92 1474.61 1178.89C1470.86 1179.04 1468.57 1179.34 1468.22 1181.35C1467.57 1185.12 1466.95 1261.72 1467.29 1266.96C1467.56 1271.23 1467.12 1277.57 1470.39 1280.4C1471.91 1281.72 1473.76 1281.89 1475.58 1281.89C1477.79 1281.9 1479.99 1281.86 1482.2 1281.84C1486.79 1281.81 1491.39 1281.77 1495.98 1281.74C1513.99 1281.6 1532.01 1281.47 1550.02 1281.33C1558.97 1281.26 1588.28 1281.36 1597.24 1281.13C1601.12 1281.02 1601.13 1280.38 1601.88 1275.38C1602.22 1273.1 1604 1205.09 1601.71 1180.88Z" fill="#4ADE80"/>
<path d="M1611.32 826.09C1611.23 824.629 1610.7 823.488 1609.8 823.441C1586.56 822.078 1540.23 823.129 1523.62 824.102C1521.02 824.25 1519.45 824.551 1519.21 826.559C1518.76 830.328 1518.33 906.93 1518.56 912.172C1518.75 916.441 1518.45 922.781 1520.7 925.609C1521.75 926.93 1523.03 927.102 1524.28 927.102C1525.8 927.109 1527.33 927.07 1528.85 927.059C1532.02 927.02 1535.19 926.98 1538.36 926.949C1550.79 926.809 1563.22 926.68 1575.65 926.539C1581.83 926.469 1602.06 926.57 1608.24 926.34C1610.91 926.23 1610.92 925.59 1611.44 920.59C1611.67 918.309 1612.9 850.301 1611.32 826.09Z" fill="#4ADE80"/>
<path d="M1604.04 844.289C1600 837.398 1591.54 833.711 1583.88 836.602C1575.56 839.73 1571.73 848.828 1574.46 857.18C1576.91 864.699 1585.17 873.199 1593.78 871.539C1595.3 871.25 1596.59 870.59 1597.71 869.699C1598.92 869.148 1600.06 868.359 1601.06 867.269C1606.7 861.121 1608.34 851.629 1604.04 844.289Z" fill="#199A48"/>
<path d="M1258.15 1788.83L1288.97 1822.84L1299.59 1813.27L1259.21 1765.45L1258.15 1788.83Z" fill="#1A1A1A"/>
<path d="M1102.62 1720.85C1097.17 1723.68 1091.82 1717.6 1091.58 1712.07C1091.55 1711.88 1091.54 1711.68 1091.57 1711.5C1091.6 1710.05 1091.99 1708.67 1092.84 1707.53C1093.92 1706.07 1095.52 1706.04 1096.75 1706.74C1097.75 1706.56 1098.85 1706.91 1099.62 1707.62C1101.42 1707.97 1103.12 1708.9 1104.38 1710.33C1107.2 1713.51 1106.52 1718.82 1102.62 1720.85ZM1101.44 1696.85C1095.7 1694.5 1087.62 1697.88 1081.23 1705.31C1074.84 1712.73 1114.85 1763.59 1114.85 1763.59L1133.85 1754.24C1133.85 1754.24 1107.17 1699.19 1101.44 1696.85Z" fill="#44ECA6"/>
<path d="M1117.22 1761.23C1103.43 1745.46 1092.64 1727.57 1085.26 1707.96C1084.41 1705.68 1080.99 1707.23 1081.82 1709.5C1089.11 1729.45 1099.99 1747.86 1114.09 1763.76C1115.8 1765.68 1118.93 1763.19 1117.22 1761.23Z" fill="#23BF42"/>
<path d="M1127.81 1766.15C1127.41 1765.17 1126.86 1638.29 1128.83 1637.5C1130.8 1636.71 1141.26 1637.09 1141.26 1637.09L1141.42 1762.98L1127.81 1766.15Z" fill="#ABBCCE"/>
<path d="M1121.4 1748.45C1121.4 1748.45 1075.71 1733.58 1069.34 1736.76C1062.96 1739.95 1059.64 1753.18 1059.64 1753.18L1121.4 1748.45Z" fill="#ABBCCE"/>
<path d="M1177.72 1782.42C1177.72 1782.42 1120.13 1746.6 1120.6 1736.98C1121.07 1727.37 1137.66 1702.92 1141.9 1702.66C1146.14 1702.4 1153.76 1705.12 1155.15 1710.36C1156.54 1715.59 1141.49 1730.37 1142.81 1734.54C1144.13 1738.72 1185.99 1766.34 1185.99 1766.34L1177.72 1782.42Z" fill="#D8EDE0"/>
<path d="M1285.56 1744.2C1285.56 1744.2 1277.82 1853.89 1273.95 1855.18C1270.08 1856.47 1063.61 1860.34 1058.45 1855.18C1057.42 1854.14 1057.12 1852.08 1056.78 1850.74C1056.01 1847.67 1055.47 1844.54 1054.95 1841.42C1053.4 1832.06 1052.25 1822.64 1051.15 1813.22C1049.88 1802.43 1048.75 1791.62 1047.67 1780.81C1046.79 1772.01 1045.96 1763.21 1045.16 1754.41C1044.91 1751.62 1043.92 1747.76 1046.7 1745.92C1049.77 1743.89 1053.7 1744.2 1057.21 1744.2C1060.05 1744.2 1062.88 1744.2 1065.71 1744.2C1073.02 1744.2 1080.32 1744.2 1087.63 1744.2C1096.59 1744.2 1105.56 1744.2 1114.52 1744.2C1124.52 1744.2 1134.52 1744.2 1144.52 1744.2C1154.93 1744.2 1165.34 1744.2 1175.75 1744.2C1185.94 1744.2 1196.13 1744.2 1206.32 1744.2C1215.67 1744.2 1225.02 1744.2 1234.37 1744.2C1242.25 1744.2 1250.13 1744.2 1258.01 1744.2C1263.8 1744.2 1269.59 1744.2 1275.38 1744.2C1278.44 1744.2 1281.51 1744.2 1284.58 1744.2C1284.91 1744.2 1285.23 1744.2 1285.56 1744.2Z" fill="#424444"/>
<path d="M1146.27 1753.76C1147.29 1785.46 1148.42 1817.69 1148.39 1849.4C1148.39 1852.51 1145.22 1850.54 1145.05 1847.55C1143.24 1815.89 1143.16 1784.05 1142.39 1752.35C1142.32 1749.32 1146.17 1750.77 1146.27 1753.76Z" fill="#1A1A1A"/>
<path d="M1138.23 1745.08C1138.23 1745.08 1155.08 1763.33 1162.51 1765.45C1169.95 1767.58 1308.09 1769.7 1312.34 1766.52C1316.59 1763.33 1354.85 1654.94 1352.72 1648.57L1352.65 1648.36C1350.22 1641.97 1334.63 1626.24 1331.47 1625.19C1328.28 1624.13 1181.64 1616.69 1174.2 1620.94C1166.76 1625.19 1138.23 1745.08 1138.23 1745.08Z" fill="#C3EED9"/>
<path d="M1162.51 1765.45C1169.95 1767.58 1308.09 1769.7 1312.34 1766.52C1316.59 1763.33 1354.85 1654.94 1352.72 1648.57L1352.65 1648.36C1322.91 1647.4 1201.18 1643.63 1196.52 1646.44C1191.21 1649.63 1162.51 1765.45 1162.51 1765.45Z" fill="#99DBBA"/>
<path d="M1301.72 1634.75C1301.72 1634.75 1286.84 1615.62 1283.65 1614.56C1280.47 1613.5 1237.96 1610.31 1236.9 1612.44C1235.18 1615.86 1248.59 1633.69 1248.59 1633.69L1301.72 1634.75Z" fill="#C3EED9"/>
<path d="M1238.3 1612.98C1240.88 1618.05 1243.56 1623.08 1246.54 1627.93C1248.19 1630.59 1249.91 1633.4 1252.96 1634.57C1256 1635.75 1259.67 1635.31 1262.89 1635.29C1275.57 1635.21 1288.31 1634.77 1300.97 1635.29C1303.36 1635.39 1303.35 1638.87 1300.97 1639C1293.23 1639.42 1285.45 1639.35 1277.7 1639.4C1270.32 1639.45 1262.64 1640.12 1255.28 1639.44C1244.14 1638.41 1238.99 1623.65 1234.64 1615.12C1233.41 1612.7 1237.06 1610.55 1238.3 1612.98Z" fill="#99DBBA"/>
<path d="M1092.38 1754.83C1092.38 1754.83 1115.76 1806.9 1125.32 1812.21C1132.58 1816.24 1295.41 1810.11 1298.03 1811.69C1300.66 1813.27 1303.84 1820.71 1300.66 1824.96C1297.47 1829.21 1130.64 1831.34 1118.95 1827.09C1107.26 1822.84 1077.5 1760.14 1077.5 1755.89C1077.5 1751.64 1084.94 1748.45 1092.38 1754.83Z" fill="#1A1A1A"/>
<path d="M838.547 464.09C838.547 464.09 985.5 440.398 1006.05 438.93L1004.58 767.27L840.012 765.801L838.547 464.09Z" fill="#C2C3C1"/>
<path d="M840.012 765.801L839.453 820.102C839.453 820.102 900.184 823.039 907.52 817.172C914.855 811.301 913.391 795.148 923.664 793.691C933.934 792.219 1011.54 790.75 1020.34 784.879C1029.15 779.012 1029.65 765.238 1029.65 765.238L840.012 765.801Z" fill="#C2C3C1"/>
<path d="M1208.11 765.801L1212.51 820.102C1212.51 820.102 1268.28 823.039 1275.61 817.172C1282.95 811.301 1281.48 795.148 1291.76 793.691C1302.03 792.219 1372.16 790.75 1380.97 784.879C1389.77 779.012 1390.28 765.238 1390.28 765.238L1208.11 765.801Z" fill="#C2C3C1"/>
<path d="M1006.05 438.93C1006.05 438.93 1419.08 459.699 1436.69 461.301C1454.29 462.898 1446.29 751.262 1444.69 757.66C1443.09 764.059 1424.34 765.238 1424.34 765.238L1004.58 767.27C1004.58 767.27 1001.11 589.41 1006.05 438.93Z" fill="#F1F3F3"/>
<path d="M1041.86 469.02C1041.86 469.02 1041.86 722.25 1045.92 729.02C1049.98 735.789 1295.08 738.5 1303.2 733.078C1311.33 727.66 1301.85 492.051 1295.08 483.922C1288.31 475.801 1041.86 463.609 1041.86 469.02Z" fill="#C2C3C1"/>
<path d="M1285.61 600.52C1285.61 662.07 1235.83 714.301 1174.44 717.18C1113.04 720.059 1063.27 667.621 1063.27 600.059C1063.27 532.5 1113.04 480.27 1174.44 483.41C1235.83 486.539 1285.61 538.98 1285.61 600.52Z" fill="#1A1A1A"/>
<path d="M1262.27 554.91C1252.79 552.949 1215.76 574.289 1208.5 578.629C1204.97 573.211 1199.9 568.949 1193.95 566.488C1198.22 537.25 1183.63 499.27 1155.23 504.93C1120.67 512.039 1093.18 549.441 1098 559.922C1102.82 570.352 1150.96 591.602 1150.96 591.602C1150.96 591.602 1151.47 592.09 1152.37 592.801C1152.26 593.961 1152.19 595.141 1152.19 596.328C1152.19 597.852 1152.32 599.328 1152.51 600.789C1123.69 608.172 1093.89 643.281 1114.26 668.359C1137.45 696.398 1181.57 702.879 1187.76 693.5C1193.95 684.16 1188.56 630.41 1188.56 630.41C1188.56 630.41 1188.77 629.512 1188.96 628.051C1191.62 627.48 1194.15 626.531 1196.53 625.289C1214.79 649.379 1257.05 662.531 1269.88 633.352C1284.4 600.73 1272.8 557.078 1262.27 554.91Z" fill="#2E2E2E"/>
<path d="M1248.24 563.352C1233.21 571.48 1218.36 580.07 1203.7 589.102C1200.54 581.82 1193.86 576.488 1186.01 575.621C1180.48 575.012 1175.08 576.852 1170.79 580.422C1169.47 581.531 1169.68 583.941 1170.79 585.121C1172.11 586.512 1173.92 586.27 1175.25 585.148C1178.66 582.309 1183.51 581.461 1187.71 582.559C1192.05 583.68 1195.47 586.762 1197.54 590.852C1201.93 599.5 1197.98 609.859 1190.05 614.48C1186.5 616.551 1189.68 622.219 1193.23 620.141C1201.68 615.211 1206.75 605.328 1205.43 595.359C1205.83 595.301 1206.23 595.16 1206.64 594.91C1221.38 585.801 1236.31 577.141 1251.42 568.941C1254.98 567.02 1251.81 561.43 1248.24 563.352Z" fill="#1A1A1A"/>
<path d="M1172.35 636.359C1172.4 653.852 1171.38 671.34 1169.29 688.769C1169.07 690.559 1170.89 692.031 1172.44 691.98C1174.32 691.91 1175.37 690.34 1175.59 688.551C1177.68 671.172 1178.7 653.719 1178.66 636.281C1178.64 632.031 1172.34 632.09 1172.35 636.359Z" fill="#1A1A1A"/>
<path d="M1154.24 571.109C1151.09 571.73 1147.76 570.039 1144.86 568.871C1141.72 567.59 1138.62 566.219 1135.57 564.73C1129.41 561.699 1123.43 558.25 1117.64 554.422C1114.15 552.102 1110.98 557.91 1114.46 560.219C1120.87 564.449 1127.52 568.211 1134.38 571.449C1137.72 573.031 1141.11 574.512 1144.54 575.852C1148.28 577.309 1151.94 578.359 1155.91 577.57C1159.89 576.789 1158.21 570.34 1154.24 571.109Z" fill="#1A1A1A"/>
<path d="M1094.29 479.32C1094.09 509.352 1093.9 539.379 1093.7 569.422C1093.5 599.32 1093.3 629.23 1093.1 659.141L1092.77 710C1092.74 714.41 1099.04 714.141 1099.07 709.73C1099.27 679.75 1099.47 649.77 1099.67 619.789C1099.86 589.961 1100.06 560.141 1100.26 530.32C1100.37 513.43 1100.48 496.531 1100.59 479.641C1100.62 475.25 1094.32 474.91 1094.29 479.32Z" fill="#C2C3C1"/>
<path d="M1137.7 477.031V729.102C1137.7 733.43 1144 733.102 1144 728.781V477.371C1144 473.051 1137.7 472.699 1137.7 477.031Z" fill="#C2C3C1"/>
<path d="M1179.86 480.77V729.891C1179.86 734.148 1186.16 733.809 1186.16 729.559V481.109C1186.16 476.871 1179.86 476.512 1179.86 480.77Z" fill="#C2C3C1"/>
<path d="M1223.43 481.57V720.379C1223.43 724.551 1229.73 724.238 1229.73 720.07V481.898C1229.73 477.738 1223.43 477.391 1223.43 481.57Z" fill="#C2C3C1"/>
<path d="M1258.56 500.539V700.121C1258.56 704.23 1264.87 703.961 1264.87 699.859V500.82C1264.87 496.719 1258.56 496.422 1258.56 500.539Z" fill="#C2C3C1"/>
<path d="M1289.59 489.172L1059.2 477.391C1057.18 477.289 1057.17 480.762 1059.2 480.859L1289.59 492.32C1291.62 492.422 1291.62 489.27 1289.59 489.172Z" fill="#C2C3C1"/>
<path d="M1289.59 504.301L1059.2 494.059C1057.18 493.969 1057.17 497.441 1059.2 497.531L1289.59 507.449C1291.62 507.539 1291.62 504.391 1289.59 504.301Z" fill="#C2C3C1"/>
<path d="M1289.59 519.43L1059.2 510.719C1057.18 510.641 1057.17 514.121 1059.2 514.191L1289.59 522.578C1291.62 522.66 1291.62 519.512 1289.59 519.43Z" fill="#C2C3C1"/>
<path d="M1289.59 534.559L1059.2 527.379C1057.18 527.32 1057.17 530.801 1059.2 530.859L1289.59 537.711C1291.62 537.77 1291.62 534.621 1289.59 534.559Z" fill="#C2C3C1"/>
<path d="M1289.59 549.691L1059.2 544.051C1057.18 544 1057.17 547.469 1059.2 547.52L1289.59 552.84C1291.62 552.891 1291.62 549.738 1289.59 549.691Z" fill="#C2C3C1"/>
<path d="M1289.59 564.82L1059.2 560.711C1057.18 560.68 1057.17 564.148 1059.2 564.191L1289.59 567.969C1291.62 568 1291.62 564.852 1289.59 564.82Z" fill="#C2C3C1"/>
<path d="M1289.59 579.949L1059.2 577.379C1057.18 577.351 1057.17 580.828 1059.2 580.851L1289.59 583.101C1291.62 583.121 1291.62 579.969 1289.59 579.949Z" fill="#C2C3C1"/>
<path d="M1289.59 595.078L1059.2 594.039C1057.18 594.031 1057.17 597.512 1059.2 597.512L1289.59 598.23C1291.62 598.238 1291.62 595.078 1289.59 595.078Z" fill="#C2C3C1"/>
<path d="M1289.59 610.211L1059.2 610.711C1057.18 610.711 1057.17 614.18 1059.2 614.18L1289.59 613.359C1291.62 613.352 1291.62 610.199 1289.59 610.211Z" fill="#C2C3C1"/>
<path d="M1289.59 625.328L1059.2 627.371C1057.18 627.391 1057.17 630.859 1059.2 630.84L1289.59 628.488C1291.62 628.469 1291.62 625.32 1289.59 625.328Z" fill="#C2C3C1"/>
<path d="M1289.59 640.461L1059.2 644.031C1057.18 644.059 1057.17 647.539 1059.2 647.512L1289.59 643.621C1291.62 643.578 1291.62 640.43 1289.59 640.461Z" fill="#C2C3C1"/>
<path d="M1289.59 655.59L1059.2 660.699C1057.18 660.738 1057.17 664.219 1059.2 664.172L1289.59 658.75C1291.62 658.699 1291.62 655.551 1289.59 655.59Z" fill="#C2C3C1"/>
<path d="M1289.59 670.719L1059.2 677.359C1057.18 677.422 1057.17 680.899 1059.2 680.828L1289.59 673.871C1291.62 673.809 1291.62 670.66 1289.59 670.719Z" fill="#C2C3C1"/>
<path d="M1289.59 685.852L1059.2 694.019C1057.18 694.102 1057.17 697.57 1059.2 697.5L1289.59 689.012C1291.62 688.93 1291.62 685.781 1289.59 685.852Z" fill="#C2C3C1"/>
<path d="M1289.59 700.98L1059.2 710.691C1057.18 710.77 1057.17 714.25 1059.2 714.16L1289.59 704.129C1291.62 704.051 1291.62 700.898 1289.59 700.98Z" fill="#C2C3C1"/>
<path d="M1289.59 716.109L1059.2 727.352C1057.18 727.449 1057.17 730.93 1059.2 730.828L1289.59 719.262C1291.62 719.16 1291.62 716.012 1289.59 716.109Z" fill="#C2C3C1"/>
<path d="M996.348 770.891C995.773 768.961 992.75 769.781 993.324 771.719C994.852 776.871 992.012 782.059 987.941 785.16C983.145 788.809 976.719 789.512 970.887 789.77C957.312 790.371 943.691 790.422 930.105 790.719C922.293 790.898 914.48 791.078 906.668 791.25C905.809 791.27 905.223 791.961 905.102 792.82C903.691 802.898 900.68 812.941 896.266 816.949C894.77 818.309 897.008 820.52 898.48 819.172C903.289 814.738 905.699 806.711 908.156 794.352C922.895 794.02 937.633 793.691 952.371 793.352C959.543 793.191 966.785 793.309 973.937 792.719C979.973 792.219 986.203 790.859 990.887 786.781C995.367 782.891 998.09 776.77 996.348 770.891Z" fill="#E0E1DC"/>
<path d="M1362.84 770.891C1362.27 768.961 1359.24 769.781 1359.82 771.719C1361.34 776.871 1358.5 782.059 1354.43 785.16C1349.64 788.809 1343.21 789.512 1337.38 789.77C1323.8 790.371 1310.19 790.422 1296.6 790.719C1288.79 790.898 1280.97 791.078 1273.16 791.25C1272.3 791.27 1271.71 791.961 1271.6 792.82C1270.18 802.898 1267.17 812.941 1262.76 816.949C1261.26 818.309 1263.5 820.52 1264.97 819.172C1269.78 814.738 1272.19 806.711 1274.65 794.352C1289.39 794.02 1304.13 793.691 1318.87 793.352C1326.04 793.191 1333.28 793.309 1340.43 792.719C1346.47 792.219 1352.7 790.859 1357.38 786.781C1361.86 782.891 1364.58 776.77 1362.84 770.891Z" fill="#E0E1DC"/>
<path d="M1418.9 498.422C1418.86 496.519 1418.83 494.609 1418.8 492.711C1418.78 491.469 1418.81 488.98 1418.33 488.359C1417.85 487.75 1401.71 487.281 1397.81 487.211C1382.08 486.91 1366.35 486.609 1350.62 486.309C1341.78 486.141 1332.94 485.969 1324.1 485.801C1322.41 485.769 1322.63 489.309 1322.6 489.891C1322.24 496.828 1322.42 503.769 1323.14 510.68C1323.23 511.621 1323.78 512.129 1324.7 512.25C1340 514.262 1401.95 511.988 1417.52 511.398C1418.36 511.371 1419.1 510.711 1419.09 509.828C1419.02 506.031 1418.96 502.219 1418.9 498.422Z" fill="#C2C3C1"/>
<path d="M779.309 672.48C779.309 672.48 776.551 680.809 776.348 690.762C776.145 700.711 776.754 706.801 776.754 706.801L788.332 708.219L794.828 668.621C794.828 668.621 782.266 669.648 779.309 672.48Z" fill="#D4A34B"/>
<path d="M917.773 773.91C917.926 773.859 917.973 773.73 918.133 773.711C921.309 773.269 928.836 767.879 925.359 763C922.441 758.898 918.184 749.379 917.938 747.09C917.938 746.922 917.941 746.75 917.957 746.609C918.234 744.059 920.746 738.051 922.539 734.391C926.004 727.328 923.371 696.32 919.992 686.441C916.617 676.551 878.039 635.73 844.449 641.07C810.855 646.41 785.355 686.269 786.363 705.691C787.371 725.109 804.836 768.379 804.836 768.379C808.605 779.551 797.168 792.211 784.176 800.41C775.641 805.801 767.871 804.691 767.871 804.691C767.871 804.691 770.035 830.801 795.211 838.25C820.383 845.699 849.992 837.699 849.992 837.699C849.992 837.699 840.91 834.488 842.055 831.32C843.199 828.148 853.863 819.25 859.465 816.828C865.062 814.422 894.195 825.578 900.098 819.551C905.34 814.191 915.129 788.441 917.773 773.91Z" fill="#EA956B"/>
<path d="M862.66 735.109C862.66 735.109 855.613 727.43 847.605 731.828C839.598 736.238 838.18 751.191 844.426 759.512C850.668 767.82 851.07 766.059 849.812 769.059C848.551 772.051 841.73 771.75 834.383 779.828C831.766 782.711 807.965 785.059 807.242 785.148C802.227 785.82 803.781 772.269 799.863 765.852C795.941 759.441 779.504 727.039 782.766 707.109C782.766 707.109 778.191 705.68 781.824 691.949C785.457 678.219 800.777 662.281 807.469 657.84C807.469 657.84 800.812 653.719 808.609 647.199C816.406 640.68 830.082 642.691 830.082 642.691C830.082 642.691 840.406 633.781 854.148 631.75C867.891 629.719 863.137 640.98 863.551 640.199C863.965 639.422 889.328 643.371 909.906 654C927.234 662.949 923.289 672.828 923.289 672.828C923.289 672.828 927.719 673.84 932.32 684.621C936.922 695.398 923.18 704.769 923.18 704.769C923.18 704.769 921.16 699.781 915.18 698.559C910.484 697.602 890.633 695.648 886.535 701.48C882.441 707.301 885.895 711.461 880.848 718.449C875.805 725.43 872.52 730.352 871.668 738.23C870.812 746.109 868.461 773.801 875.246 786.738C879.602 795.039 887.965 784.719 899.148 778.16C905.387 774.5 917.566 775 917.566 775C918.242 774.359 912.027 802.48 908.219 812.781C904.406 823.09 902.109 825.531 893.434 824.922C884.762 824.309 858.719 824.66 858.293 804.769C857.867 784.879 862.66 735.109 862.66 735.109Z" fill="#4A3333"/>
<path d="M913.113 787.98C912.809 787.48 911.977 787.512 911.504 787.769C908.223 789.601 904.805 792.762 900.922 791.949C900.223 791.809 899.656 791.57 899.176 792.101C898.719 792.609 899.902 794.09 900.566 794.371C902.383 795.148 904.746 794.851 906.941 794.148C908.711 793.578 910.371 792.738 911.996 791.84C912.488 792.199 913.227 793.109 913.637 792.699C914.191 792.148 914.176 789.73 913.113 787.98Z" fill="#3A1714"/>
<path d="M912.402 750.02C912.508 749.738 912.621 749.461 912.715 749.172C912.887 748.809 913.031 748.43 913.129 748.031C913.539 746.301 912.941 744.371 911.652 743.16C911.34 742.859 910.977 742.59 910.59 742.398C909.805 742.02 909.297 741.93 908.449 741.891C908.023 741.871 907.586 741.961 907.188 742.09H907.176C906.746 742.172 906.332 742.301 905.949 742.531C905.715 742.73 905.477 742.922 905.242 743.109C904.934 743.441 904.723 743.82 904.559 744.23C904.328 744.66 904.156 745.109 904.035 745.559C903.918 745.969 903.906 746.449 903.895 746.859C903.879 747.309 903.984 747.77 904.094 748.191C904.18 748.539 904.336 748.871 904.5 749.18L904.551 749.379C904.734 749.969 905.004 750.539 905.285 751.078C905.617 751.621 906.066 752.039 906.625 752.34C907.047 752.59 907.492 752.711 907.965 752.711C908.418 752.789 908.863 752.75 909.309 752.602C909.48 752.551 909.637 752.461 909.797 752.379L909.949 752.352C910.539 752.172 911.047 751.852 911.477 751.41L911.594 751.262C911.816 750.969 912.047 750.672 912.234 750.359C912.301 750.25 912.355 750.129 912.402 750.02Z" fill="#1A1A1A"/>
<path d="M920.016 733.32C921.02 731.699 920.363 730.078 918.668 729.27C916.137 728.059 914.344 727.879 911.617 727.219C908.82 726.539 904.699 726.41 901.883 727.391C900.898 727.73 900.398 729.09 900.848 730.012C901.352 731.039 914.59 733.18 916.98 734.172C917.945 734.57 919.457 734.211 920.016 733.32Z" fill="#4A3333"/>
<path d="M919.34 768.82C919.223 768.488 919.012 768.191 918.691 768.031C918.395 767.891 917.996 767.801 917.68 767.941C916.828 768.309 915.98 768.68 915.129 769.051C914.957 769.09 914.813 769.18 914.688 769.301C914.539 769.398 914.426 769.531 914.344 769.699C914.191 769.98 914.137 770.398 914.246 770.711C914.363 771.031 914.574 771.34 914.895 771.488C915.191 771.629 915.59 771.73 915.906 771.59C916.758 771.219 917.605 770.852 918.457 770.48C918.629 770.43 918.773 770.352 918.898 770.23C919.047 770.129 919.16 769.988 919.242 769.828C919.395 769.539 919.449 769.129 919.34 768.82Z" fill="#DD825C"/>
<path d="M1552.74 848.359H1201.28C1194.44 848.359 1194.43 858.98 1201.28 858.98H1552.74C1556.16 858.98 1591.67 856.328 1591.67 853.672C1591.67 851.012 1556.17 848.359 1552.74 848.359Z" fill="#1A1A1A"/>
<path d="M1219.83 851.629C1222.09 857.371 1221.74 862.879 1219.05 863.941C1216.37 864.988 1212.36 861.191 1210.11 855.461C1207.85 849.719 1208.2 844.211 1210.88 843.148C1213.57 842.102 1217.58 845.891 1219.83 851.629Z" fill="#343434"/>
<path d="M1208.55 848.359C1208.55 848.359 1210.04 848.27 1211 848.461C1211.96 848.649 1213.45 850.91 1214.75 853.121C1216.04 855.328 1216.96 858.969 1215.18 858.988C1213.26 859.02 1209.42 858.988 1209.42 858.988L1208.55 848.359Z" fill="#1A1A1A"/>
<path d="M1233.91 851.629C1236.17 857.371 1235.82 862.879 1233.13 863.941C1230.45 864.988 1226.44 861.191 1224.18 855.461C1221.93 849.719 1222.28 844.211 1224.96 843.148C1227.65 842.102 1231.65 845.891 1233.91 851.629Z" fill="#343434"/>
<path d="M1222.63 848.359C1222.63 848.359 1224.12 848.27 1225.08 848.461C1226.04 848.649 1227.53 850.91 1228.83 853.121C1230.12 855.328 1231.04 858.969 1229.26 858.988C1227.34 859.02 1223.49 858.988 1223.49 858.988L1222.63 848.359Z" fill="#1A1A1A"/>
<path d="M1247.99 851.629C1250.24 857.371 1249.89 862.879 1247.21 863.941C1244.52 864.988 1240.52 861.191 1238.26 855.461C1236 849.719 1236.35 844.211 1239.04 843.148C1241.72 842.102 1245.73 845.891 1247.99 851.629Z" fill="#343434"/>
<path d="M1236.71 848.359C1236.71 848.359 1238.19 848.27 1239.15 848.461C1240.12 848.649 1241.6 850.91 1242.9 853.121C1244.2 855.328 1245.11 858.969 1243.33 858.988C1241.42 859.02 1237.57 858.988 1237.57 858.988L1236.71 848.359Z" fill="#1A1A1A"/>
<path d="M1262.06 851.629C1264.32 857.371 1263.97 862.879 1261.29 863.941C1258.6 864.988 1254.59 861.191 1252.34 855.461C1250.08 849.719 1250.43 844.211 1253.11 843.148C1255.8 842.102 1259.81 845.891 1262.06 851.629Z" fill="#343434"/>
<path d="M1250.78 848.359C1250.78 848.359 1252.27 848.27 1253.23 848.461C1254.19 848.649 1255.68 850.91 1256.98 853.121C1258.28 855.328 1259.19 858.969 1257.41 858.988C1255.49 859.02 1251.65 858.988 1251.65 858.988L1250.78 848.359Z" fill="#1A1A1A"/>
<path d="M1276.14 851.629C1278.4 857.371 1278.05 862.879 1275.36 863.941C1272.68 864.988 1268.67 861.191 1266.41 855.461C1264.16 849.719 1264.51 844.211 1267.19 843.148C1269.88 842.102 1273.88 845.891 1276.14 851.629Z" fill="#343434"/>
<path d="M1264.86 848.359C1264.86 848.359 1266.35 848.27 1267.31 848.461C1268.27 848.649 1269.76 850.91 1271.05 853.121C1272.35 855.328 1273.26 858.969 1271.49 858.988C1269.57 859.02 1265.72 858.988 1265.72 858.988L1264.86 848.359Z" fill="#1A1A1A"/>
<path d="M1290.22 851.629C1292.47 857.371 1292.12 862.879 1289.44 863.941C1286.75 864.988 1282.75 861.191 1280.49 855.461C1278.23 849.719 1278.58 844.211 1281.27 843.148C1283.95 842.102 1287.96 845.891 1290.22 851.629Z" fill="#343434"/>
<path d="M1278.93 848.359C1278.93 848.359 1280.42 848.27 1281.38 848.461C1282.35 848.649 1283.83 850.91 1285.13 853.121C1286.43 855.328 1287.34 858.969 1285.56 858.988C1283.65 859.02 1279.8 858.988 1279.8 858.988L1278.93 848.359Z" fill="#1A1A1A"/>
<path d="M1304.29 851.629C1306.55 857.371 1306.2 862.879 1303.51 863.941C1300.83 864.988 1296.82 861.191 1294.57 855.461C1292.31 849.719 1292.66 844.211 1295.34 843.148C1298.03 842.102 1302.04 845.891 1304.29 851.629Z" fill="#343434"/>
<path d="M1293.01 848.359C1293.01 848.359 1294.5 848.27 1295.46 848.461C1296.42 848.649 1297.91 850.91 1299.21 853.121C1300.5 855.328 1301.42 858.969 1299.64 858.988C1297.72 859.02 1293.88 858.988 1293.88 858.988L1293.01 848.359Z" fill="#1A1A1A"/>
<path d="M1318.37 851.629C1320.63 857.371 1320.28 862.879 1317.59 863.941C1314.91 864.988 1310.9 861.191 1308.64 855.461C1306.39 849.719 1306.74 844.211 1309.42 843.148C1312.11 842.102 1316.11 845.891 1318.37 851.629Z" fill="#343434"/>
<path d="M1307.09 848.359C1307.09 848.359 1308.58 848.27 1309.54 848.461C1310.5 848.649 1311.99 850.91 1313.29 853.121C1314.58 855.328 1315.5 858.969 1313.72 858.988C1311.8 859.02 1307.95 858.988 1307.95 858.988L1307.09 848.359Z" fill="#1A1A1A"/>
<path d="M1332.45 851.629C1334.7 857.371 1334.35 862.879 1331.67 863.941C1328.98 864.988 1324.98 861.191 1322.72 855.461C1320.46 849.719 1320.81 844.211 1323.5 843.148C1326.18 842.102 1330.19 845.891 1332.45 851.629Z" fill="#343434"/>
<path d="M1321.17 848.359C1321.17 848.359 1322.65 848.27 1323.61 848.461C1324.58 848.649 1326.06 850.91 1327.36 853.121C1328.66 855.328 1329.57 858.969 1327.79 858.988C1325.88 859.02 1322.03 858.988 1322.03 858.988L1321.17 848.359Z" fill="#1A1A1A"/>
<path d="M1346.52 851.629C1348.78 857.371 1348.43 862.879 1345.75 863.941C1343.06 864.988 1339.05 861.191 1336.8 855.461C1334.54 849.719 1334.89 844.211 1337.57 843.148C1340.26 842.102 1344.27 845.891 1346.52 851.629Z" fill="#343434"/>
<path d="M1335.24 848.359C1335.24 848.359 1336.73 848.27 1337.69 848.461C1338.65 848.649 1340.14 850.91 1341.44 853.121C1342.74 855.328 1343.65 858.969 1341.87 858.988C1339.95 859.02 1336.11 858.988 1336.11 858.988L1335.24 848.359Z" fill="#1A1A1A"/>
<path d="M1360.6 851.629C1362.86 857.371 1362.51 862.879 1359.82 863.941C1357.14 864.988 1353.13 861.191 1350.87 855.461C1348.62 849.719 1348.96 844.211 1351.65 843.148C1354.34 842.102 1358.34 845.891 1360.6 851.629Z" fill="#343434"/>
<path d="M1349.32 848.359C1349.32 848.359 1350.81 848.27 1351.77 848.461C1352.73 848.649 1354.22 850.91 1355.51 853.121C1356.81 855.328 1357.72 858.969 1355.95 858.988C1354.03 859.02 1350.18 858.988 1350.18 858.988L1349.32 848.359Z" fill="#1A1A1A"/>
<path d="M1374.68 851.629C1376.93 857.371 1376.58 862.879 1373.9 863.941C1371.21 864.988 1367.21 861.191 1364.95 855.461C1362.69 849.719 1363.04 844.211 1365.73 843.148C1368.41 842.102 1372.42 845.891 1374.68 851.629Z" fill="#343434"/>
<path d="M1363.39 848.359C1363.39 848.359 1364.88 848.27 1365.84 848.461C1366.81 848.649 1368.29 850.91 1369.59 853.121C1370.89 855.328 1371.8 858.969 1370.02 858.988C1368.11 859.02 1364.26 858.988 1364.26 858.988L1363.39 848.359Z" fill="#1A1A1A"/>
<path d="M1388.75 851.629C1391.01 857.371 1390.66 862.879 1387.97 863.941C1385.29 864.988 1381.28 861.191 1379.03 855.461C1376.77 849.719 1377.12 844.211 1379.8 843.148C1382.49 842.102 1386.5 845.891 1388.75 851.629Z" fill="#343434"/>
<path d="M1377.47 848.359C1377.47 848.359 1378.96 848.27 1379.92 848.461C1380.88 848.649 1382.37 850.91 1383.67 853.121C1384.96 855.328 1385.88 858.969 1384.1 858.988C1382.18 859.02 1378.34 858.988 1378.34 858.988L1377.47 848.359Z" fill="#1A1A1A"/>
<path d="M1402.83 851.629C1405.09 857.371 1404.74 862.879 1402.05 863.941C1399.37 864.988 1395.36 861.191 1393.1 855.461C1390.85 849.719 1391.2 844.211 1393.88 843.148C1396.57 842.102 1400.57 845.891 1402.83 851.629Z" fill="#343434"/>
<path d="M1391.55 848.359C1391.55 848.359 1393.04 848.27 1394 848.461C1394.96 848.649 1396.45 850.91 1397.75 853.121C1399.04 855.328 1399.96 858.969 1398.18 858.988C1396.26 859.02 1392.41 858.988 1392.41 858.988L1391.55 848.359Z" fill="#1A1A1A"/>
<path d="M1416.91 851.629C1419.16 857.371 1418.81 862.879 1416.13 863.941C1413.44 864.988 1409.44 861.191 1407.18 855.461C1404.92 849.719 1405.27 844.211 1407.96 843.148C1410.64 842.102 1414.65 845.891 1416.91 851.629Z" fill="#343434"/>
<path d="M1405.63 848.359C1405.63 848.359 1407.11 848.27 1408.07 848.461C1409.04 848.649 1410.52 850.91 1411.82 853.121C1413.12 855.328 1414.03 858.969 1412.25 858.988C1410.34 859.02 1406.49 858.988 1406.49 858.988L1405.63 848.359Z" fill="#1A1A1A"/>
<path d="M1430.98 851.629C1433.24 857.371 1432.89 862.879 1430.21 863.941C1427.52 864.988 1423.51 861.191 1421.26 855.461C1419 849.719 1419.35 844.211 1422.03 843.148C1424.72 842.102 1428.73 845.891 1430.98 851.629Z" fill="#343434"/>
<path d="M1419.7 848.359C1419.7 848.359 1421.19 848.27 1422.15 848.461C1423.11 848.649 1424.6 850.91 1425.9 853.121C1427.2 855.328 1428.11 858.969 1426.33 858.988C1424.41 859.02 1420.57 858.988 1420.57 858.988L1419.7 848.359Z" fill="#1A1A1A"/>
<path d="M1445.06 851.629C1447.32 857.371 1446.97 862.879 1444.28 863.941C1441.6 864.988 1437.59 861.191 1435.33 855.461C1433.08 849.719 1433.43 844.211 1436.11 843.148C1438.8 842.102 1442.8 845.891 1445.06 851.629Z" fill="#343434"/>
<path d="M1433.78 848.359C1433.78 848.359 1435.27 848.27 1436.23 848.461C1437.19 848.649 1438.68 850.91 1439.97 853.121C1441.27 855.328 1442.18 858.969 1440.41 858.988C1438.49 859.02 1434.64 858.988 1434.64 858.988L1433.78 848.359Z" fill="#1A1A1A"/>
<path d="M1459.14 851.629C1461.39 857.371 1461.04 862.879 1458.36 863.941C1455.67 864.988 1451.67 861.191 1449.41 855.461C1447.15 849.719 1447.5 844.211 1450.19 843.148C1452.87 842.102 1456.88 845.891 1459.14 851.629Z" fill="#343434"/>
<path d="M1447.85 848.359C1447.85 848.359 1449.34 848.27 1450.3 848.461C1451.27 848.649 1452.75 850.91 1454.05 853.121C1455.35 855.328 1456.26 858.969 1454.48 858.988C1452.57 859.02 1448.72 858.988 1448.72 858.988L1447.85 848.359Z" fill="#1A1A1A"/>
<path d="M1473.21 851.629C1475.47 857.371 1475.12 862.879 1472.43 863.941C1469.75 864.988 1465.74 861.191 1463.49 855.461C1461.23 849.719 1461.58 844.211 1464.26 843.148C1466.95 842.102 1470.96 845.891 1473.21 851.629Z" fill="#343434"/>
<path d="M1461.93 848.359C1461.93 848.359 1463.42 848.27 1464.38 848.461C1465.34 848.649 1466.83 850.91 1468.13 853.121C1469.42 855.328 1470.34 858.969 1468.56 858.988C1466.64 859.02 1462.8 858.988 1462.8 858.988L1461.93 848.359Z" fill="#1A1A1A"/>
<path d="M1487.29 851.629C1489.55 857.371 1489.2 862.879 1486.51 863.941C1483.83 864.988 1479.82 861.191 1477.56 855.461C1475.31 849.719 1475.66 844.211 1478.34 843.148C1481.03 842.102 1485.03 845.891 1487.29 851.629Z" fill="#343434"/>
<path d="M1476.01 848.359C1476.01 848.359 1477.5 848.27 1478.46 848.461C1479.42 848.649 1480.91 850.91 1482.2 853.121C1483.5 855.328 1484.42 858.969 1482.64 858.988C1480.72 859.02 1476.87 858.988 1476.87 858.988L1476.01 848.359Z" fill="#1A1A1A"/>
<path d="M1501.37 851.629C1503.62 857.371 1503.27 862.879 1500.59 863.941C1497.9 864.988 1493.9 861.191 1491.64 855.461C1489.38 849.719 1489.73 844.211 1492.42 843.148C1495.1 842.102 1499.11 845.891 1501.37 851.629Z" fill="#343434"/>
<path d="M1490.08 848.359C1490.08 848.359 1491.57 848.27 1492.53 848.461C1493.5 848.649 1494.98 850.91 1496.28 853.121C1497.58 855.328 1498.49 858.969 1496.71 858.988C1494.8 859.02 1490.95 858.988 1490.95 858.988L1490.08 848.359Z" fill="#1A1A1A"/>
<path d="M1515.44 851.629C1517.7 857.371 1517.35 862.879 1514.67 863.941C1511.98 864.988 1507.97 861.191 1505.72 855.461C1503.46 849.719 1503.81 844.211 1506.49 843.148C1509.18 842.102 1513.19 845.891 1515.44 851.629Z" fill="#343434"/>
<path d="M1504.16 848.359C1504.16 848.359 1505.65 848.27 1506.61 848.461C1507.57 848.649 1509.06 850.91 1510.36 853.121C1511.66 855.328 1512.57 858.969 1510.79 858.988C1508.87 859.02 1505.03 858.988 1505.03 858.988L1504.16 848.359Z" fill="#1A1A1A"/>
<path d="M1529.52 851.629C1531.78 857.371 1531.43 862.879 1528.74 863.941C1526.06 864.988 1522.05 861.191 1519.79 855.461C1517.54 849.719 1517.88 844.211 1520.57 843.148C1523.26 842.102 1527.26 845.891 1529.52 851.629Z" fill="#343434"/>
<path d="M1518.24 848.359C1518.24 848.359 1519.73 848.27 1520.69 848.461C1521.65 848.649 1523.14 850.91 1524.43 853.121C1525.73 855.328 1526.64 858.969 1524.87 858.988C1522.95 859.02 1519.1 858.988 1519.1 858.988L1518.24 848.359Z" fill="#1A1A1A"/>
<path d="M1543.6 851.629C1545.85 857.371 1545.5 862.879 1542.82 863.941C1540.13 864.988 1536.13 861.191 1533.87 855.461C1531.61 849.719 1531.96 844.211 1534.65 843.148C1537.33 842.102 1541.34 845.891 1543.6 851.629Z" fill="#343434"/>
<path d="M1532.31 848.359C1532.31 848.359 1533.8 848.27 1534.76 848.461C1535.72 848.649 1537.21 850.91 1538.51 853.121C1539.81 855.328 1540.72 858.969 1538.94 858.988C1537.03 859.02 1533.18 858.988 1533.18 858.988L1532.31 848.359Z" fill="#1A1A1A"/>
<path d="M1557.67 851.629C1559.93 857.371 1559.58 862.879 1556.89 863.941C1554.21 864.988 1550.2 861.191 1547.95 855.461C1545.69 849.719 1546.04 844.211 1548.72 843.148C1551.41 842.102 1555.42 845.891 1557.67 851.629Z" fill="#343434"/>
<path d="M1546.39 848.359C1546.39 848.359 1547.88 848.27 1548.84 848.461C1549.8 848.649 1551.29 850.91 1552.59 853.121C1553.88 855.328 1554.8 858.969 1553.02 858.988C1551.1 859.02 1547.26 858.988 1547.26 858.988L1546.39 848.359Z" fill="#1A1A1A"/>
<path d="M1570.45 851.711C1572.48 856.871 1572.17 861.809 1569.75 862.762C1567.34 863.711 1563.74 860.301 1561.72 855.148C1559.69 849.988 1560 845.039 1562.42 844.09C1564.83 843.148 1568.43 846.559 1570.45 851.711Z" fill="#343434"/>
<path d="M1560.35 848.828C1560.35 848.828 1561.99 848.941 1562.8 849.172C1563.65 849.41 1564.62 850.719 1565.89 853.051C1566.99 855.07 1567.62 857.719 1566.04 857.969C1564.39 858.23 1561.31 858.461 1561.31 858.461L1560.08 851.949L1560.35 848.828Z" fill="#1A1A1A"/>
<path d="M1581.94 852.238C1583.42 856.012 1583.19 859.629 1581.42 860.32C1579.66 861.02 1577.03 858.52 1575.54 854.75C1574.06 850.981 1574.29 847.359 1576.05 846.672C1577.82 845.969 1580.45 848.469 1581.94 852.238Z" fill="#343434"/>
<path d="M1574.54 850.129C1574.54 850.129 1575.75 850.211 1576.34 850.379C1576.96 850.551 1577.66 851.512 1578.59 853.219C1579.4 854.691 1579.83 856.52 1578.68 856.699C1577.47 856.891 1575.24 857.121 1575.24 857.121L1574.34 852.41L1574.54 850.129Z" fill="#1A1A1A"/>
<path d="M1044.94 887.211C1044.94 887.211 925.734 987.109 899.055 994.102C893.445 995.559 883.605 995.371 874.523 989.719C834.641 964.941 776.375 944.191 768.961 941.109C759.805 937.289 921.605 851.809 955.953 838.07C990.297 824.328 1044.94 887.211 1044.94 887.211Z" fill="#DD825C"/>
<path d="M884.09 819.059C886.598 818.422 1170.84 826.129 1187.17 829.512C1198.83 831.922 1199.7 845.43 1200.04 852.02C1200.38 858.609 1198.83 876.141 1186.74 877.078C1159.29 879.219 907.355 896.738 890.52 891.41C873.688 886.078 884.09 819.059 884.09 819.059Z" fill="#B0DBC0"/>
<path d="M1200.04 852.02C1199.7 845.43 1198.83 831.922 1187.17 829.512C1185.02 829.059 1178.18 828.539 1167.95 827.969C1168.12 828.711 1168.29 829.441 1168.44 830.191C1171.66 846.199 1170.42 862.34 1168.33 878.422C1177.1 877.801 1183.49 877.328 1186.74 877.078C1198.83 876.141 1200.38 858.609 1200.04 852.02Z" fill="#1A1A1A"/>
<path d="M1166.32 845.852C1160.71 845.301 1155.24 843.191 1150.77 839.711C1146.34 836.262 1143.32 831.738 1141.76 826.719C1135.4 826.441 1128.55 826.172 1121.33 825.879C1121.31 826.012 1121.3 826.129 1121.28 826.25C1119.92 833.77 1115.1 840.699 1108.05 843.871C1103.92 845.73 1099.53 846.02 1095.07 846.391C1089.3 846.859 1083.51 847.109 1077.72 847.262C1066.22 847.57 1054.72 847.551 1043.23 847.879C1031.45 848.219 1019.68 848.609 1007.91 848.988C984.41 849.75 960.891 850.539 937.371 850.512C918.621 850.469 899.871 850.07 881.121 849.75C880.312 868.16 881.539 888.57 890.52 891.41C905.07 896.02 1095.22 883.559 1164.3 878.711C1165.71 867.898 1166.8 856.762 1166.32 845.852Z" fill="#85B093"/>
<path d="M1072.9 854.77C1067.42 849.84 1058.48 849.609 1053.24 855.039C1050.96 857.391 1049.89 860.512 1049.97 863.57C1049.28 866.961 1050.15 870.648 1052.72 873.43C1057.72 878.809 1066.62 878.199 1072.18 874.121C1078.58 869.422 1078.75 860.02 1072.9 854.77Z" fill="#1A1A1A"/>
<path d="M1069.11 860.5C1066.44 857.039 1061.01 857.012 1058.34 860.469C1056.69 862.609 1056.45 865.578 1057.85 867.93C1058.05 868.281 1058.3 868.602 1058.56 868.891C1060.12 870.91 1062.7 871.699 1065.2 871.172C1067.05 870.789 1068.82 869.379 1069.69 867.711C1070.92 865.328 1070.75 862.621 1069.11 860.5Z" fill="#277CB9"/>
<path d="M995.801 889.121C995.801 889.121 1003.33 897.031 1009.5 894.461C1015.66 891.891 1015.57 896.148 1020.71 896.41C1025.85 896.672 1028 891.629 1030.06 891.891C1032.12 892.148 1035.65 894.5 1039.25 893.469C1042.85 892.441 1043.35 890.129 1048.49 890.129C1053.63 890.129 1057.49 892.191 1060.06 887.82C1062.63 883.449 1068.85 870.25 1067.82 867.172C1066.79 864.078 1060.62 863.82 1057.8 865.879C1054.97 867.941 1050.88 878.012 1049.08 879.039C1047.28 880.07 1052.42 867.469 1050.88 859.5C1049.34 851.531 1042.91 851.02 1040.6 853.852C1038.29 856.672 1036.23 859.5 1034.17 860.02C1032.12 860.531 1026.98 859.238 1023.89 862.84C1020.81 866.441 1015.74 880.578 1015.74 880.578C1015.74 880.578 1014.94 872.602 1010.31 873.121C1005.68 873.629 999.75 887.172 999.469 888.031C999.188 888.898 995.801 889.121 995.801 889.121Z" fill="#EC9162"/>
<path d="M848.898 1039.57C848.898 1039.57 863.145 1047.38 861.109 1053.82C859.074 1060.26 843.812 1064.67 841.437 1065.35C839.062 1066.03 848.898 1039.57 848.898 1039.57Z" fill="#1A1A1A"/>
<path d="M642.961 1037.18C642.961 1037.18 635.383 1032.65 636.289 1027.11C637.191 1021.57 655.172 1019.88 657.883 1021.23C660.598 1022.59 652.797 1038.87 642.961 1037.18Z" fill="#1A1A1A"/>
<path d="M992.891 903.539C992.891 903.539 925.262 831.34 904.578 817.551C883.891 803.762 846.23 804.82 824.484 802.699C802.738 800.57 793.191 793.68 793.191 793.68C793.191 793.68 730.605 803.762 704.613 818.078C678.625 832.398 657.41 902.941 657.41 932.109C657.41 961.289 649.984 1012.21 645.742 1031.3C641.496 1050.39 611.797 1093.89 610.203 1098.13C608.613 1102.37 818.086 1153.76 827.633 1146.87C835.582 1141.13 866.867 938.301 900.203 957.539C894.855 954.449 894.898 954.441 934.598 977.48C934.598 977.48 961.766 939.309 968.816 926.93C975.867 914.551 992.891 903.539 992.891 903.539Z" fill="#95B9B6"/>
<path d="M872.809 806.828C869.309 806.27 865.762 805.82 862.219 805.449C851.203 809.52 839.617 812.141 827.855 812.148C814.094 812.16 800.188 808.469 788.996 800.281C786.961 798.789 785.051 797.141 783.191 795.441C781.266 795.801 779.113 796.211 776.777 796.672C779.098 798.891 781.449 801.07 783.965 803.07C789.855 807.75 796.492 811.27 803.625 813.66C818.191 818.539 833.949 818.359 848.82 815C857.082 813.129 865.07 810.25 872.809 806.828Z" fill="#7AA7A4"/>
<path d="M902.859 958.031C891.281 950.371 879.707 942.711 868.133 935.039C865.273 933.148 862.609 937.75 865.453 939.629C877.027 947.289 888.602 954.961 900.176 962.621C903.035 964.512 905.699 959.91 902.859 958.031Z" fill="#7AA7A4"/>
<path d="M966.777 876.23C964.75 876.211 962.707 876.34 960.645 876.68C952.109 878.07 944.266 882.68 938.07 888.602C923.867 902.148 918.527 922.578 914.727 941.18C913.191 948.691 912.008 956.269 911.168 963.891C912.777 964.82 914.461 965.801 916.164 966.789C917.723 950.5 920.812 934.16 926.117 918.769C931.516 903.109 941.648 887.172 958.594 882.559C963.234 881.289 967.844 881.309 972.391 882.031C970.59 880.16 968.715 878.219 966.777 876.23Z" fill="#7AA7A4"/>
<path d="M893.656 812.059C892.684 812.531 891.715 813.012 890.766 813.52C875.238 821.762 862.453 835.07 853.367 850C847.969 858.879 844.016 868.809 843.852 879.309C843.824 881.02 846.48 881.02 846.508 879.309C846.652 870.059 849.922 861.289 854.48 853.34C858.719 845.949 863.945 839.07 869.832 832.922C877.617 824.789 886.828 817.98 897.066 813.48C895.957 812.98 894.824 812.512 893.656 812.059Z" fill="#7AA7A4"/>
<path d="M687.453 866.219C692.57 846.719 702.242 828.539 715.246 813.172C713.41 813.898 711.648 814.648 709.98 815.41C703.773 823.281 698.398 831.82 694.027 840.84C690.195 848.75 687.125 857.012 684.895 865.512C684.457 867.172 687.02 867.871 687.453 866.219Z" fill="#7AA7A4"/>
<path d="M932.621 953.43C932.621 953.43 929.18 975.73 935.523 977.84C941.867 979.961 960.895 963.57 962.48 955.648C964.066 947.719 932.621 953.43 932.621 953.43Z" fill="#1A1A1A"/>
<path d="M932.621 953.43C932.621 953.43 945.238 965.109 976.043 989.059C1003.33 1010.29 1006.95 1012.7 1023.71 1017.12C1042.74 1022.15 1054.33 1017.8 1065.94 1004.95C1079.52 989.91 1098.37 948.551 1117.39 915.129C1117.39 915.129 1140.55 905.859 1145.68 901.84C1150.81 897.828 1147.56 895.59 1152.09 892.621C1156.61 889.648 1154.02 889.891 1154.35 884.488C1154.69 879.09 1172.36 879.82 1171.24 873.922C1170.11 868.02 1172.99 868.762 1174.9 864.27C1176.8 859.781 1178.38 854.051 1176.67 850.961C1174.97 847.871 1148.59 849.488 1148.59 849.488C1148.59 849.488 1141.92 839.531 1136.74 840.02C1131.55 840.512 1126.13 846.731 1117.81 852.039C1109.48 857.352 1102.89 860.738 1096.05 868.32C1089.21 875.891 1082.91 885.531 1082.91 885.531C1082.91 885.531 1055.98 933.07 1039.29 945.051C1039.29 945.051 1012.93 920.34 982.734 897.441C982.734 897.441 969.738 891.641 957.301 901.039C944.324 910.84 935.594 936.539 932.621 953.43Z" fill="#EC9162"/>
<path d="M1126.38 863.18C1126.38 863.18 1121.66 851.922 1137.3 848.488C1143.99 847.031 1175.7 847.91 1179.1 848.34C1185.76 849.18 1188.51 851.559 1187.09 858.461C1186.27 862.43 1181.82 868.059 1175.06 868.59C1140.82 871.23 1128.5 868.078 1126.38 863.18Z" fill="#447353"/>
<path d="M1175.1 866.59C1175.1 866.59 1177.69 866.762 1181.39 863.648C1185.1 860.539 1185.65 857.281 1185.58 854.891C1185.51 852.512 1184.05 850.199 1180.73 850.52C1177.42 850.828 1175.68 852.281 1173.29 854.481C1170.9 856.672 1170.56 862.121 1171.04 863.57C1171.77 865.781 1172.91 866.891 1175.1 866.59Z" fill="#B3D7C0"/>
<path d="M1036.59 942.449C1024.67 952.762 1029.51 949.738 1018.7 960.352C1016.26 962.75 1020.01 966.512 1022.46 964.109C1033.27 953.5 1030.2 954.262 1041.02 943.648C1043.46 941.25 1039.18 940.211 1036.59 942.449Z" fill="#DD825C"/>
<path d="M697.996 1735.2C697.996 1735.2 686.438 1776.24 688.328 1785.06C690.215 1793.87 711.301 1827.6 725.156 1831.38C737.949 1834.87 737.855 1841.04 738.262 1845.93C738.293 1846.34 671.188 1846.38 670.797 1846.37C642.203 1845.72 623.875 1850.9 619.469 1845.23C615.063 1839.57 626.395 1802.41 632.691 1780.37C638.988 1758.33 642.77 1731.89 646.547 1727.48C650.324 1723.07 697.996 1735.2 697.996 1735.2Z" fill="#EC9162"/>
<path d="M725.156 1831.38C712.351 1827.89 693.379 1798.82 689.086 1787.48C685.738 1788.11 683.316 1789.5 684.766 1791.67C686.801 1794.73 687.816 1801.85 672.047 1800.83C660.418 1800.08 638.851 1797.12 628.312 1795.62C622.371 1816.47 615.973 1840.74 619.469 1845.23C623.875 1850.9 642.203 1845.72 670.797 1846.37C671.187 1846.38 738.293 1846.34 738.262 1845.93C737.855 1841.04 737.949 1834.87 725.156 1831.38Z" fill="#9F9F9F"/>
<path d="M618.453 1844.9C618.453 1844.9 619.148 1855.67 621.059 1855.96C625.148 1856.58 665.238 1857.82 667.078 1856.73C668.922 1855.64 668.289 1847.71 670.652 1847.71C673.019 1847.71 674.441 1854.59 677.859 1856.17C681.277 1857.74 735.148 1856.12 737.254 1855.06C739.355 1854.01 739.207 1845.17 738.109 1845.32C736.836 1845.49 693.613 1845.56 659.453 1844.79C644.078 1844.44 628.102 1843.78 621.148 1843.7C618.012 1843.67 618.457 1844.6 618.453 1844.9Z" fill="#181818"/>
<path d="M704.406 1820.76C699.469 1814.1 694.98 1807.12 690.977 1799.85C689.324 1796.86 684.734 1799.54 686.387 1802.54C690.394 1809.8 694.879 1816.78 699.816 1823.45C700.672 1824.6 702.121 1825.18 703.453 1824.4C704.59 1823.74 705.266 1821.92 704.406 1820.76Z" fill="#4A3333"/>
<path d="M833.848 1738.25C833.848 1738.25 822.289 1775.22 824.18 1784.04C826.066 1792.86 890.09 1827.6 903.945 1831.38C917.797 1835.16 916.539 1842.08 917.168 1847.12C917.797 1852.16 759.109 1850.9 754.703 1845.23C750.297 1839.57 761.629 1802.41 767.926 1780.37C774.227 1758.33 778.004 1731.89 781.781 1727.48C785.559 1723.07 833.848 1738.25 833.848 1738.25Z" fill="#EC9162"/>
<path d="M903.945 1831.38C890.09 1827.6 826.066 1792.86 824.18 1784.04C824.051 1783.44 823.988 1782.69 823.977 1781.84C819.312 1781.66 812.836 1782.24 808.406 1786.08C800.773 1792.69 806.371 1800.32 795.687 1800.32C787.371 1800.32 774.457 1792.94 765.527 1788.7C759.18 1810.72 750.812 1840.23 754.703 1845.23C759.109 1850.9 917.797 1852.16 917.168 1847.12C916.539 1842.08 917.797 1835.16 903.945 1831.38Z" fill="#9F9F9F"/>
<path d="M753.687 1844.9C753.687 1844.9 754.383 1855.67 756.293 1855.96C760.387 1856.58 800.477 1857.82 802.316 1856.73C804.156 1855.64 804.051 1848.98 806.414 1848.98C808.781 1848.98 809.68 1854.59 813.098 1856.17C816.516 1857.74 914.066 1856.12 916.172 1855.06C918.273 1854.01 918.125 1845.17 917.027 1845.32C915.758 1845.49 828.848 1845.56 794.691 1844.79C779.316 1844.44 763.336 1843.78 756.387 1843.7C753.246 1843.67 753.691 1844.6 753.687 1844.9Z" fill="#181818"/>
<path d="M844.266 1826.61C832.309 1817.23 819.855 1808.52 806.922 1800.54C804 1798.74 801.328 1803.34 804.238 1805.13C816.785 1812.86 828.91 1821.28 840.508 1830.37C841.637 1831.25 843.168 1831.47 844.266 1830.37C845.187 1829.45 845.402 1827.5 844.266 1826.61Z" fill="#4A3333"/>
<path d="M893.988 1826.22C890.098 1825.43 888.645 1824.91 882.555 1824.58C881.121 1824.5 879.898 1825.85 879.898 1827.23C879.898 1828.74 881.113 1829.81 882.555 1829.89C888.645 1830.22 896.273 1830.59 902.367 1830.92C903.801 1831 901.957 1828.72 900.715 1828.13C897.789 1826.73 895.398 1826.51 893.988 1826.22Z" fill="#4A3333"/>
<path d="M882.934 808.551C882.934 808.551 883.992 807.191 876.094 804.73C868.191 802.27 848 800.691 843.961 803.68C839.926 806.66 816.289 820.43 779.996 873.34C762.559 898.762 724.121 951.301 724.121 951.301C724.121 951.301 720.973 911.051 730.188 873.828C745.074 813.691 755.129 803.41 758.18 801.031L764.828 799.09C764.828 799.09 763.586 797.102 759.477 797.789C755.371 798.488 728.961 806.031 727.711 808.672C726.457 811.32 721.43 807.809 704.586 869.789C697.008 897.672 691 924.961 686.774 946.969C683.047 946.891 681.582 948.359 680.852 949.578C678.031 954.27 669.113 997.391 663.492 1010.05C658.035 1022.34 652.602 1031.39 644.082 1031.58C640.164 1030.89 637.094 1029.45 636.289 1027.11C636.289 1027.11 609.606 1089.52 603.727 1120.73C597.848 1151.94 582.242 1217.97 597.168 1319.73C612.094 1421.49 622.27 1504.93 622.27 1510.35C622.27 1515.78 609.465 1761.48 613.535 1772.34C617.606 1783.19 701.051 1785.23 702.406 1775.73C703.762 1766.23 723.348 1536.13 724.707 1517.82C726.063 1499.5 725.676 1446.47 725.676 1446.47C733.57 1466 746.246 1495.6 747.059 1509.82C747.059 1509.82 752.856 1770.93 754.859 1774.34C760.41 1783.77 844.492 1779.96 846.899 1774.37C849.309 1768.79 867.848 1546.99 865.133 1460.15C864.188 1429.83 835.285 1273.6 825.109 1240.35C814.934 1207.11 861.109 1053.82 861.109 1053.82C861.109 1053.82 847.063 1083.61 785.785 1055.49C785.785 1055.49 763.02 1044.84 763.824 1023.28C764.727 999 772.481 982.621 768.461 967.879C767.727 965.199 766.152 964.852 765.07 964.051C772.156 946.41 781.094 928.988 789.152 914.73C815.609 867.922 874.254 809.789 882.934 808.551Z" fill="#4ADE80"/>
<path d="M754.379 1206.87C753.133 1214.28 751.711 1221.92 748.172 1228.63C744.469 1235.66 738.453 1240.29 731.711 1244.23C724.004 1248.73 716.129 1252.96 708.332 1257.3C706.715 1258.2 704.836 1259.49 702.891 1259.17C700.832 1258.84 699 1256.96 697.434 1255.71C694.019 1253 690.664 1250.22 687.379 1247.36C684.18 1244.58 681.012 1241.76 677.965 1238.81C675.191 1236.12 672.535 1233.27 670.633 1229.88C666.488 1222.5 667.523 1213.72 668.566 1205.68C670.324 1192.13 672.109 1178.57 673.894 1165.02C695.734 1170.85 718.238 1174.19 740.832 1174.88C747.105 1175.07 753.383 1175.04 759.652 1174.83C757.914 1185.52 756.172 1196.2 754.379 1206.87ZM767.105 1153.72C767.32 1152.4 766.578 1151.27 765.184 1151.2C738.559 1149.72 711.976 1147.57 685.461 1144.76C682.914 1144.49 682.934 1148.47 685.461 1148.74C711.211 1151.47 737.023 1153.56 762.875 1155.04C762.016 1160.3 761.16 1165.57 760.305 1170.83C737.473 1171.64 714.57 1169.81 692.176 1165.25C686.215 1164.04 680.293 1162.63 674.418 1161.05C675.168 1155.36 675.918 1149.67 676.664 1143.98C676.805 1142.91 675.648 1142 674.672 1141.99C673.48 1141.98 672.816 1142.92 672.68 1143.98C670.133 1163.37 667.59 1182.75 665.047 1202.14C663.926 1210.66 662.336 1219.84 665.461 1228.14C668.441 1236.07 675.144 1241.8 681.289 1247.3C684.691 1250.34 688.164 1253.31 691.703 1256.19C693.312 1257.5 694.934 1258.8 696.57 1260.07C698.328 1261.43 700.121 1262.77 702.379 1263.1C706.656 1263.74 710.855 1260.45 714.379 1258.49C718.605 1256.13 722.836 1253.78 727.062 1251.42C734.187 1247.45 741.781 1243.54 747.152 1237.22C752.297 1231.18 755 1223.62 756.699 1215.96C758.871 1206.17 760.152 1196.16 761.773 1186.27L767.105 1153.72Z" fill="#22AF56"/>
<path d="M601.82 1199.46L611.031 1143.7C611.457 1141.11 611.895 1138.51 612.316 1135.92C612.656 1133.83 613.031 1131.56 611.434 1129.85C609.961 1128.27 607.457 1127.75 605.504 1127.06C604.566 1126.73 603.633 1126.4 602.695 1126.07C602.449 1127.34 602.195 1128.65 601.93 1130.02C602.27 1130.14 602.605 1130.26 602.945 1130.38C603.945 1130.73 604.941 1131.08 605.938 1131.44C606.641 1131.68 607.805 1131.85 608.34 1132.41C608.934 1133.03 608.594 1134.09 608.473 1134.86C608.301 1135.94 608.113 1137.02 607.938 1138.1C607.578 1140.26 607.223 1142.43 606.867 1144.59L606.609 1146.13C604.062 1146.18 601.52 1145.97 599.023 1145.5C598.797 1146.77 598.57 1148.07 598.344 1149.39C600.844 1149.88 603.387 1150.14 605.949 1150.13L602.582 1170.53L598.301 1196.46C597.586 1200.78 596.875 1205.09 596.164 1209.4C595.477 1213.56 594.934 1217.77 593.961 1221.87C593.312 1224.62 592.316 1227.16 590.941 1229.54C590.914 1231.78 590.898 1234.04 590.898 1236.34C593.387 1233.41 595.484 1230.18 596.797 1226.44C598.309 1222.14 598.84 1217.53 599.578 1213.05C600.324 1208.52 601.074 1203.99 601.82 1199.46Z" fill="#22AF56"/>
<path d="M806.613 1758.61C820.867 1757.9 835.098 1756.74 849.277 1755.16C849.402 1753.88 849.531 1752.53 849.664 1751.14C847.402 1751.39 845.145 1751.64 842.879 1751.87C821.906 1754.01 800.73 1755.46 779.641 1755.36C770.848 1755.32 762.051 1754.85 753.367 1753.55C753.437 1754.96 753.508 1756.31 753.574 1757.59C771.082 1760.13 789 1759.48 806.613 1758.61Z" fill="#22AF56"/>
<path d="M713.191 1523.63C705.926 1520.53 701.629 1512.29 703.34 1504.58C705.461 1503.72 707.578 1502.85 709.695 1501.99C711.262 1501.36 710.578 1498.79 708.992 1499.43C707.004 1500.24 705.016 1501.05 703.027 1501.86C702.41 1502.11 701.57 1502.28 701.144 1502.82C700.75 1503.32 700.668 1504.2 700.562 1504.8C700.07 1507.63 700.234 1510.53 701.019 1513.28C702.496 1518.47 706.074 1523.03 710.91 1525.45C707.988 1533.08 694.844 1537.23 699.062 1546.9C699.684 1548.33 700.59 1549.59 701.273 1550.98C702.121 1552.7 702.473 1554.6 702.586 1556.5C702.812 1560.3 702.473 1564.15 702.336 1567.95C702.043 1576.12 701.75 1584.28 701.461 1592.45C700.289 1625.11 697.176 1677.57 696.008 1710.23C695.434 1726.27 694.859 1742.3 694.285 1758.34C687.219 1758.44 680.133 1758.21 673.09 1757.98C656.551 1757.43 639.906 1756.85 623.601 1753.79C619.91 1753.1 616.246 1752.27 612.625 1751.29C612.621 1752.73 612.625 1754.09 612.629 1755.4C623.281 1758.16 634.258 1759.67 645.226 1760.56C653.492 1761.24 661.781 1761.58 670.07 1761.86C678.09 1762.13 686.117 1762.42 694.144 1762.32C694.109 1763.28 694.074 1764.23 694.039 1765.19C693.98 1766.9 696.637 1766.89 696.699 1765.19C696.73 1764.22 696.766 1763.26 696.801 1762.29C699.121 1762.23 701.437 1762.14 703.754 1761.99C703.871 1760.71 703.992 1759.39 704.121 1757.96C701.734 1758.13 699.34 1758.23 696.945 1758.29C698.023 1728.15 701.051 1678.21 702.129 1648.06L703.879 1599.07C704.168 1591.01 704.457 1582.96 704.742 1574.9C704.891 1570.82 705.035 1566.74 705.184 1562.65C705.301 1559.29 705.523 1555.83 704.668 1552.54C703.828 1549.31 700.754 1546.48 700.926 1543.06C701.039 1540.77 702.617 1538.87 704.141 1537.3C707.715 1533.6 712.496 1530.41 713.801 1525.13C713.93 1524.62 713.73 1523.86 713.191 1523.63Z" fill="#22AF56"/>
<path d="M864.953 1456.81C864.863 1455.57 864.75 1454.21 864.609 1452.74C863.57 1452.5 862.543 1452.08 861.574 1451.75C849.895 1447.72 838.398 1443.15 827.145 1438.04C822.191 1435.79 816.734 1433.65 812.734 1429.84C808.789 1426.09 807.16 1420.84 805.676 1415.75C802.059 1403.33 798.48 1390.89 794.883 1378.46L790.969 1364.95C810.016 1359.76 829.215 1355.13 848.52 1351.02C848.281 1349.72 848.039 1348.41 847.801 1347.1C834.711 1349.88 821.664 1352.89 808.691 1356.17C802.398 1357.76 796.121 1359.41 789.859 1361.12C787.676 1353.58 785.492 1346.04 783.312 1338.5C803.047 1332.43 823.059 1327.29 843.27 1323.1C843.02 1321.79 842.766 1320.48 842.516 1319.19C840.172 1319.67 837.836 1320.17 835.496 1320.68L823.465 1282.97C821.422 1276.56 819.328 1270.17 817.355 1263.74C815.375 1257.27 813.574 1250.69 812.828 1243.95C811.305 1230.17 814.453 1216.38 816.871 1202.89C819.305 1189.3 821.742 1175.71 824.176 1162.13C826.941 1146.69 829.711 1131.26 832.477 1115.83C832.773 1114.16 830.215 1113.44 829.914 1115.12C824.965 1142.73 820.016 1170.33 815.066 1197.94C812.645 1211.48 809.316 1225.31 809.816 1239.14C810.309 1252.66 815.137 1265.59 819.207 1278.35L832.895 1321.26C815.187 1325.2 797.645 1329.86 780.32 1335.24C779.301 1335.55 778.621 1336.63 778.93 1337.69C786.539 1363.98 794.125 1390.27 801.758 1416.55C803.324 1421.95 805.086 1427.47 808.969 1431.7C812.863 1435.93 818.277 1438.33 823.41 1440.69C834.695 1445.88 846.227 1450.54 857.938 1454.67C856.355 1481.35 854.773 1508.02 853.191 1534.7C851.605 1561.38 850.023 1588.05 848.441 1614.73L845.754 1660.04C845.652 1661.75 848.313 1661.74 848.41 1660.04C850 1633.25 851.59 1606.46 853.18 1579.68C854.762 1553 856.344 1526.32 857.926 1499.64C858.797 1484.96 859.668 1470.28 860.539 1455.6C861.965 1456.1 863.453 1456.6 864.953 1456.81Z" fill="#22AF56"/>
<path d="M787.145 1067.63C778.777 1063.28 777.332 1062.69 771.098 1057.44C764.937 1052.25 760.785 1045.5 758.609 1037.77C753.727 1020.39 758.219 1002.36 760.094 984.898C760.57 980.449 761.242 975.699 760.687 971.23C760.441 969.25 759.836 967.391 758.535 965.84C757.187 964.23 755.273 963.391 753.363 962.629C744.598 959.18 735.566 956.34 726.449 953.988C732.543 944.461 739.043 935.191 745.957 926.238C746.836 925.101 746.129 923.262 745.004 922.609C743.633 921.801 742.25 922.422 741.367 923.559C734.125 932.941 727.324 942.648 720.98 952.66C718.332 952.039 715.676 951.449 713.004 950.922C708.566 950.039 703.977 948.98 699.445 948.781C695.254 948.578 691.219 949.871 688.766 953.449C686.57 956.641 686.117 960.73 685.336 964.43C680.973 985.059 674.48 1005.25 665.945 1024.54C665.367 1025.85 665.562 1027.39 666.898 1028.17C668.031 1028.83 669.953 1028.54 670.535 1027.22C678.004 1010.34 684.027 992.859 688.395 974.922C689.449 970.578 690.355 966.219 691.281 961.851C691.965 958.621 692.871 954.98 696.57 954.23C700.375 953.461 704.805 954.769 708.527 955.461C713.027 956.289 717.508 957.25 721.953 958.34C731.051 960.559 740.016 963.301 748.793 966.559C750.453 967.18 752.367 967.672 753.836 968.691C755.297 969.719 755.488 971.551 755.523 973.211C755.617 977.73 755.086 982.32 754.562 986.809C752.559 1004.01 748.715 1021.52 753.344 1038.66C755.707 1047.41 760.379 1055.33 767.344 1061.2C774.324 1067.08 782.512 1069.84 788.156 1071.48C789.535 1071.88 796.508 1073.36 796.859 1072.09C797.273 1070.58 788.422 1068.3 787.145 1067.63Z" fill="#22AF56"/>
<path d="M704.805 1406.4C703.461 1399.62 701.863 1392.9 699.969 1386.25C699.504 1384.61 696.938 1385.31 697.406 1386.96C704.051 1410.29 706.938 1434.5 708.797 1458.63C709.332 1465.59 709.758 1472.56 710.078 1479.54C710.16 1481.24 712.816 1481.25 712.738 1479.54C711.606 1455.08 709.57 1430.44 704.805 1406.4Z" fill="#22AF56"/>
<path d="M734.473 1468.65C723.539 1440.55 712.637 1412.44 701.758 1384.32C690.883 1356.2 680.031 1328.07 669.211 1299.92C663.105 1284.05 657.012 1268.17 650.922 1252.29C650.41 1250.95 649.133 1250.03 647.652 1250.43C646.371 1250.78 645.281 1252.35 645.797 1253.7C656.59 1281.86 667.406 1310 678.254 1338.13C689.098 1366.27 699.973 1394.39 710.875 1422.5C717.023 1438.36 723.184 1454.22 729.348 1470.07C729.867 1471.4 731.133 1472.33 732.617 1471.92C733.894 1471.57 734.996 1470 734.473 1468.65Z" fill="#22AF56"/>
<path d="M778.613 711.352C778.613 711.352 780.875 720.391 783.586 720.391C786.301 720.391 906.148 711.801 907.961 709.539C909.77 707.281 778.613 711.352 778.613 711.352Z" fill="#A8BAC9"/>
<path d="M776.469 711.91C776.469 711.91 867.43 709.871 894.602 709.328C894.602 709.328 905.469 714.488 921.773 715.309C938.074 716.121 975.906 709.988 978.078 706.461C980.254 702.93 960.293 701.441 957.848 701.172C955.402 700.899 773.207 705.109 773.207 705.109C773.207 705.109 769.945 711.641 776.469 711.91Z" fill="#EEB34B"/>
<path d="M891.965 624.398C873.055 615.91 854.977 613.93 839.02 615.621C836.664 615.871 836.234 621.441 833.977 621.84C807.719 626.519 794.488 636.441 788.355 646.148C784.457 652.32 781.488 662.379 779.309 672.48C785.34 673.019 785.965 674.101 787.145 677.172C790.301 685.379 790.68 700.719 790.68 700.719V705.25C839.945 704.949 942.773 704.121 943.98 702C943.98 702 946.113 648.699 891.965 624.398Z" fill="#EEB34B"/>
<path d="M901.031 701.941C900.715 701.512 900.211 701.211 899.516 701.211H859.812C861.32 679.051 863.336 654.789 878.934 637.512L878.953 637.48C882.18 638.922 885.34 640.48 888.395 642.211C895.195 646.059 901.492 650.851 906.441 656.949C911.305 662.93 914.602 670.059 916.961 677.351C919.695 685.82 921.277 694.609 922.812 703.359C922.84 703.512 922.879 703.641 922.922 703.762C915.562 704.48 908.184 704.262 901.031 701.941ZM866.242 632.91C866.32 632.809 866.375 632.719 866.422 632.621C869.812 633.73 873.141 634.988 876.414 636.371C860.883 654.172 858.695 678.59 857.156 701.211H846.121C848.27 677.539 850.93 652.172 866.242 632.91ZM941.355 700.578C936.508 701.609 931.559 702.641 926.582 703.328C926.684 703.019 926.723 702.68 926.656 702.301C923.867 686.379 920.805 669.519 910.914 656.262C900.938 642.871 885.465 635.16 870.051 629.769C860.02 626.262 849.66 623.871 839.133 622.469C838.059 622.328 837.148 623.488 837.141 624.469C837.129 625.66 838.07 626.32 839.133 626.461C847.383 627.559 855.699 629.309 863.789 631.781C848.484 651.57 845.66 677.051 843.465 701.211H813.902C811.34 701.211 811.336 705.191 813.902 705.191H898.957C899.172 705.422 899.445 705.609 899.805 705.73C913.715 710.32 928.492 707.379 942.414 704.422C944.922 703.891 943.859 700.051 941.355 700.578Z" fill="#D4A34B"/>
<path d="M1517.38 1892.35H308.484V1856.34H1517.38V1892.35Z" fill="#D8EDE0"/>
<path d="M935.32 1888.2V1888.08C935.32 1888.08 925.859 1888.1 909.371 1888.14C892.887 1888.1 883.426 1888.08 883.426 1888.08V1888.2C741.047 1888.53 354.543 1889.45 351.227 1889.45C351.227 1889.45 373.609 1928.11 432.633 1928.11C479.145 1928.11 764.547 1928.11 883.426 1928.11C915.391 1928.11 935.32 1928.11 935.32 1928.11C1054.2 1928.11 1339.6 1928.11 1386.11 1928.11C1445.13 1928.11 1467.52 1889.45 1467.52 1889.45C1464.2 1889.45 1077.7 1888.53 935.32 1888.2Z" fill="#D8EDE0"/>
<path d="M1535.7 1892.35H555.422V1856.34H1535.7V1892.35Z" fill="#A3CDB3"/>
<path d="M1182.26 1888.2V1888.08C1182.26 1888.08 1172.79 1888.1 1156.31 1888.14C1139.82 1888.1 1130.36 1888.08 1130.36 1888.08V1888.2C987.98 1888.53 601.48 1889.45 598.16 1889.45C598.16 1889.45 620.547 1928.11 679.566 1928.11C726.078 1928.11 1011.48 1928.11 1130.36 1928.11C1162.33 1928.11 1182.26 1928.11 1182.26 1928.11C1301.13 1928.11 1357.92 1928.11 1404.43 1928.11C1463.45 1928.11 1485.84 1889.45 1485.84 1889.45C1482.52 1889.45 1324.63 1888.53 1182.26 1888.2Z" fill="#A3CDB3"/>
<path d="M1459.72 1888.25H367.508C364.086 1888.25 364.082 1893.56 367.508 1893.56H1459.72C1463.14 1893.56 1463.14 1888.25 1459.72 1888.25Z" fill="#A3CDB3"/>
<path d="M435.203 1862.63H430.043V1203.01H435.203V1862.63Z" fill="#D8EDE0"/>
<path d="M366.934 1862.63H361.773V1203.01H366.934V1862.63Z" fill="#D8EDE0"/>
<path d="M317.738 1862.63H308.715V1203.01H317.738V1862.63Z" fill="#D8EDE0"/>
<path d="M504.648 1862.63H499.492V1203.01H504.648V1862.63Z" fill="#D8EDE0"/>
<path d="M564.676 1862.63H555.648V1203.01H564.676V1862.63Z" fill="#A3CDB3"/>
<path d="M1535.58 1862.63H1526.56V1203.01H1535.58V1862.63Z" fill="#A3CDB3"/>
<path d="M692.973 1862.63H687.852V1203.01H692.973V1862.63Z" fill="#A3CDB3"/>
<path d="M834.621 1862.63H829.504V1203.01H834.621V1862.63Z" fill="#A3CDB3"/>
<path d="M976.273 1862.63H971.152V1203.01H976.273V1862.63Z" fill="#A3CDB3"/>
<path d="M1117.92 1862.63H1112.8V1203.01H1117.92V1862.63Z" fill="#A3CDB3"/>
<path d="M1259.57 1862.63H1254.45V1203.01H1259.57V1862.63Z" fill="#A3CDB3"/>
<path d="M1401.22 1862.63H1396.1V1203.01H1401.22V1862.63Z" fill="#A3CDB3"/>
<path d="M1543.84 1210.96H299.191C294.055 1210.96 289.895 1206.79 289.895 1201.66C289.895 1196.52 294.055 1192.36 299.191 1192.36H1543.84C1548.98 1192.36 1553.14 1196.52 1553.14 1201.66C1553.14 1206.79 1548.98 1210.96 1543.84 1210.96Z" fill="#D8EDE0"/>
<path d="M1543.84 1192.36H1494.17V106.91C1494.17 103.488 1488.86 103.488 1488.86 106.91V1192.36H543.887C538.754 1192.36 534.59 1196.52 534.59 1201.66C534.59 1206.79 538.754 1210.96 543.887 1210.96H1543.84C1548.98 1210.96 1553.14 1206.79 1553.14 1201.66C1553.14 1196.52 1548.98 1192.36 1543.84 1192.36Z" fill="#A3CDB3"/>
<path d="M338.277 391.051V1190.95C338.277 1194.37 343.59 1194.38 343.59 1190.95V391.051C343.59 387.629 338.277 387.629 338.277 391.051Z" fill="#D8EDE0"/>
</g>
<defs>
<clipPath id="clip0_148_62">
<rect width="2106.52" height="2000" fill="white"/>
</clipPath>
</defs>
</svg>
